<?xml version="1.0" encoding="UTF-8" standalone="no"?>
<!-- Created with Inkscape (http://www.inkscape.org/) -->

<svg
   xmlns:dc="http://purl.org/dc/elements/1.1/"
   xmlns:cc="http://creativecommons.org/ns#"
   xmlns:rdf="http://www.w3.org/1999/02/22-rdf-syntax-ns#"
   xmlns:svg="http://www.w3.org/2000/svg"
   xmlns="http://www.w3.org/2000/svg"
   xmlns:sodipodi="http://sodipodi.sourceforge.net/DTD/sodipodi-0.dtd"
   xmlns:inkscape="http://www.inkscape.org/namespaces/inkscape"
   version="1.1"
   id="svg2"
   xml:space="preserve"
   width="1315"
   height="440"
   viewBox="0 0 1315 440"
   sodipodi:docname="data-centre-logo.svg"
   inkscape:version="0.92.4 5da689c313, 2019-01-14"><metadata
     id="metadata8"><rdf:RDF><cc:Work
         rdf:about=""><dc:format>image/svg+xml</dc:format><dc:type
           rdf:resource="http://purl.org/dc/dcmitype/StillImage" /><dc:title></dc:title></cc:Work></rdf:RDF></metadata><defs
     id="defs6" /><sodipodi:namedview
     pagecolor="#ffffff"
     bordercolor="#666666"
     borderopacity="1"
     objecttolerance="10"
     gridtolerance="10"
     guidetolerance="10"
     inkscape:pageopacity="0"
     inkscape:pageshadow="2"
     inkscape:window-width="1511"
     inkscape:window-height="783"
     id="namedview4"
     showgrid="false"
     inkscape:zoom="0.36677118"
     inkscape:cx="145.82557"
     inkscape:cy="300.74142"
     inkscape:window-x="0"
     inkscape:window-y="0"
     inkscape:window-maximized="0"
     inkscape:current-layer="g10" /><g
     id="g10"
     inkscape:groupmode="layer"
     inkscape:label="data-centre-logo"
     transform="matrix(1.3333333,0,0,1.3333333,0,-5.333344)"><path
       inkscape:connector-curvature="0"
       id="path14"
       style="fill:#a7c947;fill-opacity:1;fill-rule:nonzero;stroke:none"
       d="m 572.30851,28.958347 c 0.168,0.059 16.5,-16.593 16.391,-16.617 -22.914,-4.937 -52.637,2.094 -71.481,26.418 -20.906,26.981 -23.312,64.778003 -23.879,73.664003 -0.007,0.161 -10.121,0 -10.121,0 l -13.633,14.399 h 22 c 0,0 -12.234,125.996 -13.207,132.847 -0.941,6.661 -6.296,67.379 -59.617,49.157 -0.062,-0.02 -16.121,14.57 -15.972,14.625 25.535,9.109 88.191,-3.039 95.503,-94.266 5.329,-66.504 10.438,-102.477 10.438,-102.477 0,0 33.289,-0.089 33.207,0.055 -1.855,3.207 -9.215,13.832 -9.113,33.582 0.168,33.239 24.625,53.852 55.457,53.992 37.008,0.168 42.34,-25.535 43.34,-29.832 0.007,-0.035 -2.301,-0.968 -2.325,-0.918 -2.859,7.465 -8.394,21.918 -32.464,22.247 -29.922,0.406 -46.348,-34.243 -41.286,-62.364 0.039,-0.222 73.457,0.176 73.454,0 -0.786,-42.746 -42.18,-41.058 -49.266,-39.82 -0.113,0.019 -0.113,2.828 0,2.812 27.558,-3.937 30.367,25.985 30.367,31.832 0,0.18 -53.914,0.567 -53.879,0.317 0.856,-6.344 4.274,-19.102 10.91,-25.063 1.578,-1.418 -56.918,-0.789 -56.918,-0.789 0,0 2.172,-23.277003 2.926,-28.570003 2.473,-17.391 4.274,-74.488 59.168,-55.231" /><path
       inkscape:connector-curvature="0"
       id="path16"
       style="fill:#231f20;fill-opacity:1;fill-rule:nonzero;stroke:none"
       d="m 10.683513,211.18535 c 1.496,-3.992 4.242,-5.988 8.238,-5.988 1.25,0 2.371,0.168 3.371,0.5 1,0.332 4.079,1.621 9.239,3.867 9.902,4.246 20.222,6.367 30.961,6.367 11.734,0 21.925,-2.637 30.582,-7.906 8.655997,-5.274 15.147997,-12.77 19.475997,-22.481 3.078,-6.972 4.617,-14.281 4.617,-21.918 0,-11.5 -3.406,-21.578 -10.218,-30.242 -5.985,-7.75 -15.749997,-14.828 -29.292997,-21.246 l -17.578,-8.496 c -17.868,-8.496003 -26.801,-19.703003 -26.801,-33.613003 0,-3.5 0.644,-7 1.933,-10.496 1.286,-3.5 3.055,-6.543 5.297,-9.125 5.399,-6.332 12.75,-9.496 22.059,-9.496 6.394,0 12.043,1.558 16.945,4.679 4.903,3.121 9.387,7.926 13.457,14.418 2.246,3.582 4.176,7.473 5.797,11.672 1.616997,4.203 3.550997,10.262 5.792997,18.164 h 2.871 l -0.871,-49.558 h -2.871 c -1,4.246 -2.957,6.367 -5.866997,6.367 -1.168,0 -2.496,-0.231 -3.996,-0.688 -1.496,-0.457 -4.328,-1.515 -8.489,-3.183 -5.578,-2.328 -10.031,-3.891 -13.359,-4.684 -3.328,-0.789 -6.949,-1.183 -10.859,-1.183 -12.067,0 -22.516,4.078 -31.332,12.234 -4.996,4.578 -8.887,10.07 -11.672,16.476 -2.793,6.411 -4.184,13.071 -4.184,19.977 0,11.234 3.578,20.766003 10.735,28.586003 2.578,2.832 5.972,5.617 10.175,8.363 4.2,2.746 10.254,6.117 18.164,10.114 8.989,4.578 15.664,8.363 20.036,11.359 4.371,2.996 7.757,6.117 10.175,9.363 2.328,3.164 4.18,6.949 5.555,11.36 1.371,4.414 2.059,8.738 2.059,12.984 0,9.82 -3.121,17.934 -9.364,24.344 -6.242,6.41 -14.148,9.609 -23.718,9.609 -13.731,0 -25.133,-6.973 -34.204,-20.918 -4.828,-7.559 -8.988,-17.894 -12.484,-31.012 l -2.8710003,-0.125 -0.375,51.555 h 2.8710003" /><path
       inkscape:connector-curvature="0"
       id="path18"
       style="fill:#231f20;fill-opacity:1;fill-rule:nonzero;stroke:none"
       d="m 203.03551,201.07635 c -5.235,5.078 -11.836,7.617 -19.813,7.617 -9.633,0 -18.023,-3.746 -25.168,-11.238 -4.57,-4.743 -8.183,-10.653 -10.844,-17.727 -2.656,-7.07 -3.984,-14.312 -3.984,-21.723 0,-8.07 1.449,-16.308 4.356,-24.714 1.91,-5.493 4.132,-10.051 6.664,-13.672 2.531,-3.618 5.625,-6.633 9.277,-9.051 4.148,-2.746 8.672,-4.117 13.57,-4.117 3.739,0 6.891,0.957 9.465,2.871 1.328,1 2.344,2.164 3.051,3.496 0.707,1.332 1.641,3.828 2.801,7.488 2.582,7.906 6.574,11.86 11.984,11.86 2.496,0 4.621,-0.891 6.367,-2.684 1.75,-1.789 2.621,-4.016 2.621,-6.68 0,-3.996 -2.082,-7.656 -6.242,-10.984 -6.824,-5.41 -16.269,-8.113 -28.336,-8.113 -8.738,0 -16.793,1.539 -24.156,4.617 -7.363,3.082 -13.59,7.535 -18.664,13.359 -4.492,5.074 -8.031,11.192 -10.61,18.352 -2.582,7.156 -3.871,14.398 -3.871,21.718 0,14.981 4.661,27.383 13.981,37.204 9.57,9.984 22.762,14.98 39.574,14.98 10.488,0 18.727,-1.957 24.719,-5.867 5.992,-3.91 10.441,-10.277 13.355,-19.102 l -2.496,-0.871 c -2.41,5.989 -4.945,10.317 -7.601,12.981" /><path
       inkscape:connector-curvature="0"
       id="path20"
       style="fill:#231f20;fill-opacity:1;fill-rule:nonzero;stroke:none"
       d="m 213.76951,110.81835 c 3.746,0.25 6.617,0.89 8.613,1.926 2,1.035 3.703,2.714 5.121,5.031 1.414,2.152 2.329,4.945 2.747,8.383 0.414,3.437 0.624,9.418 0.624,17.949 v 30.676 c 0,7.289 -0.187,12.859 -0.562,16.707 -0.375,3.851 -1.02,6.73 -1.938,8.633 -1.332,2.898 -3.078,4.949 -5.242,6.148 -2.164,1.203 -5.742,2.133 -10.734,2.793 v 2.621 h 55.176 v -2.621 c -6.242,-1.16 -10.528,-2.859 -12.856,-5.102 -1.918,-1.738 -3.207,-3.914 -3.871,-6.527 -0.668,-2.613 -1,-6.738 -1,-12.379 l -0.125,-9.453 v -71.898 l -35.953,4.492 v 2.621" /><path
       inkscape:connector-curvature="0"
       id="path22"
       style="fill:#a7c947;fill-opacity:1;fill-rule:nonzero;stroke:none"
       d="m 420.27751,211.68535 1.625,-51.18 -2.996,-0.25 c -1.582,7.739 -3.309,13.981 -5.184,18.727 -1.871,4.742 -4.265,8.988 -7.176,12.73 -4.328,5.493 -9.882,9.551 -16.668,12.172 -6.785,2.621 -15.125,3.934 -25.027,3.934 -9.488,0 -17.105,-1.395 -22.848,-4.184 -5.742,-2.785 -10.07,-7.176 -12.98,-13.168 -1.668,-3.414 -2.789,-7.824 -3.371,-13.234 -0.582,-5.41 -0.875,-13.648 -0.875,-24.719 V 80.486347 c 0,-8.742 0.5,-15.188 1.5,-19.352 0.996,-4.16 2.91,-7.617 5.742,-10.363 2.246,-2.16 4.824,-3.742 7.738,-4.742 2.914,-1 6.657,-1.621 11.235,-1.871 v -2.871 h -79.77 v 2.871 c 4.492,0.168 8.176,0.746 11.047,1.746 2.871,1 5.473,2.582 7.805,4.746 2.828,2.66 4.761,6.094 5.804,10.297 1.039,4.203 1.559,10.719 1.559,19.539 v 92.004003 c 0,8.488 -0.48,14.793 -1.434,18.91 -0.957,4.121 -2.726,7.512 -5.304,10.176 -4.578,4.742 -11.071,7.117 -19.477,7.117 v 2.992 h 149.055" /><path
       inkscape:connector-curvature="0"
       id="path24"
       style="fill:#a7c947;fill-opacity:1;fill-rule:nonzero;stroke:none"
       d="m 426.22651,110.81835 c 3.746,0.25 6.617,0.89 8.613,1.926 2,1.035 3.703,2.714 5.121,5.031 1.414,2.152 2.329,4.945 2.747,8.383 0.414,3.437 0.625,9.418 0.625,17.949 v 30.676 c 0,7.289 -0.192,12.859 -0.563,16.707 -0.375,3.851 -1.019,6.73 -1.937,8.633 -1.332,2.898 -3.079,4.949 -5.243,6.148 -2.164,1.203 -5.742,2.133 -10.734,2.793 v 2.621 h 55.176 v -2.621 c -6.242,-1.16 -10.528,-2.859 -12.86,-5.102 -1.914,-1.738 -3.203,-3.914 -3.867,-6.527 -0.668,-2.613 -1,-6.738 -1,-12.379 l -0.125,-9.453 v -71.898 l -35.953,4.492 v 2.621" /><path
       inkscape:connector-curvature="0"
       id="path26"
       style="fill:#231f20;fill-opacity:1;fill-rule:nonzero;stroke:none"
       d="m 769.88251,211.68535 1.625,-51.18 -2.996,-0.25 c -1.582,7.739 -3.308,13.981 -5.179,18.727 -1.875,4.742 -4.266,8.988 -7.18,12.73 -4.328,5.493 -9.883,9.551 -16.664,12.172 -6.785,2.621 -15.129,3.934 -25.031,3.934 -9.489,0 -17.106,-1.395 -22.844,-4.184 -5.746,-2.785 -10.074,-7.176 -12.985,-13.168 -1.668,-3.414 -2.789,-7.824 -3.371,-13.234 -0.582,-5.41 -0.875,-13.648 -0.875,-24.719 V 80.486347 c 0,-8.742 0.5,-15.188 1.5,-19.352 0.996,-4.16 2.91,-7.617 5.742,-10.363 2.247,-2.16 4.825,-3.742 7.739,-4.742 2.914,-1 6.656,-1.621 11.234,-1.871 v -2.871 h -79.769 v 2.871 c 4.496,0.168 8.175,0.746 11.05,1.746 2.872,1 5.469,2.582 7.801,4.746 2.828,2.66 4.762,6.094 5.805,10.297 1.039,4.203 1.558,10.719 1.558,19.539 v 92.004003 c 0,8.488 -0.476,14.793 -1.433,18.91 -0.957,4.121 -2.727,7.512 -5.305,10.176 -4.578,4.742 -11.07,7.117 -19.476,7.117 v 2.992 h 149.054" /><path
       inkscape:connector-curvature="0"
       id="path28"
       style="fill:#231f20;fill-opacity:1;fill-rule:nonzero;stroke:none"
       d="m 835.27751,171.24035 c 0,10.57 -1.289,18.644 -3.86,24.218 -1.828,4.243 -4.543,7.637 -8.152,10.172 -3.609,2.543 -7.445,3.809 -11.512,3.809 -4.644,0 -8.484,-1.789 -11.511,-5.367 -3.028,-3.578 -4.539,-8.114 -4.539,-13.606 0,-6.41 1.949,-12.027 5.847,-16.855 1.91,-2.328 4.024,-4.324 6.348,-5.992 2.32,-1.664 6.512,-4.118 12.566,-7.364 5.395,-2.828 10.328,-6.117 14.813,-9.863 z m 36.137,33.832 c -1.457,0.914 -3.473,1.371 -6.051,1.371 -5.414,0 -8.824,-2.953 -10.239,-8.863 -0.667,-2.829 -1,-8.157 -1,-15.981 v -46.187 c 0,-5.911 -0.332,-10.114 -1,-12.61 -1.335,-4.91 -4.71,-8.902 -10.128,-11.984 -3.75,-2.078 -8.418,-3.785 -14.004,-5.117 -5.586,-1.332 -10.961,-1.996 -16.129,-1.996 -4.586,0 -9.274,0.476 -14.067,1.433 -4.796,0.957 -8.816,2.184 -12.066,3.684 -6.004,2.914 -9.004,6.492 -9.004,10.734 0,2.832 0.953,5.184 2.871,7.055 1.914,1.871 4.285,2.808 7.113,2.808 4.329,0 7.325,-1.953 8.989,-5.867 l 3.121,-7.242 c 1.332,-3.074 3.328,-5.492 5.996,-7.238 2.66,-1.75 5.695,-2.621 9.109,-2.621 2.828,0 5.559,0.625 8.176,1.871 2.625,1.25 4.766,2.914 6.43,4.996 3.664,4.492 5.496,11.605 5.496,21.344 0,4.578 -0.5,8.16 -1.5,10.738 -0.996,2.578 -2.828,4.824 -5.492,6.738 -2.332,1.75 -5.223,3.246 -8.676,4.496 -3.453,1.246 -8.801,2.789 -16.043,4.617 -6.16,1.583 -10.859,3.145 -14.106,4.684 -3.246,1.539 -6.117,3.602 -8.613,6.18 -4.414,4.66 -6.617,10.445 -6.617,17.351 0,7.489 2.687,13.442 8.062,17.852 5.379,4.41 12.649,6.617 21.821,6.617 7.164,0 13.457,-1.5 18.875,-4.496 2.832,-1.578 7.043,-4.867 12.629,-9.859 2.75,4.742 5.418,8.07 8,9.984 3.918,2.914 8.836,4.371 14.754,4.371 10.734,0 17.601,-4.371 20.597,-13.109 l -2.121,-1.246 c -2,2.746 -3.726,4.578 -5.183,5.492" /><path
       inkscape:connector-curvature="0"
       id="path30"
       style="fill:#231f20;fill-opacity:1;fill-rule:nonzero;stroke:none"
       d="m 903.62451,123.28335 c 1.993,-4.735 5.059,-8.582 9.2,-11.532 4.14,-2.953 8.621,-4.429 13.429,-4.429 3.973,0 7.871,1.062 11.68,3.179 3.82,2.122 7.301,5.219 10.453,9.29 3.981,4.906 7.039,10.871 9.199,17.894 2.149,7.023 3.231,14.441 3.231,22.258 0,14.879 -3.289,27.141 -9.883,36.781 -6.59,9.645 -14.937,14.461 -25.047,14.461 -4.812,0 -9.101,-1.16 -12.871,-3.488 -3.781,-2.328 -6.621,-5.528 -8.519,-9.602 -1.579,-3.406 -2.86,-8.851 -3.86,-16.332 -0.992,-7.48 -1.492,-15.672 -1.492,-24.566 0,-15.625 1.492,-26.93 4.48,-33.914 z m -4.48,-86.992003 -38.195,5.242 v 3 c 6.988,0 11.961,2.015 14.918,6.051 2.953,4.039 4.429,10.718 4.429,20.039 V 217.05635 h 4.996 c 3.247,-6.902 6.989,-10.355 11.235,-10.355 1.496,0 3.199,0.375 5.117,1.121 l 6.992,2.867 c 5.488,2.16 12.188,3.246 20.098,3.246 15.062,0 27.422,-4.531 37.082,-13.594 11.148,-10.39 16.719,-24.605 16.719,-42.644 0,-18.039 -5.821,-32.004 -17.45,-41.899 -9.39,-8.062 -20.402,-12.093 -33.031,-12.093 -8.887,0 -16.539,2.039 -22.937,6.109 -3.153,2.078 -6.481,5.281 -9.973,9.605 V 36.291347" /><path
       inkscape:connector-curvature="0"
       id="path32"
       style="fill:#231f20;fill-opacity:1;fill-rule:nonzero;stroke:none"
       d="m 239.69151,83.443347 c 6.469,0 11.715,-5.246 11.715,-11.715 0,-6.473 -5.246,-11.715 -11.715,-11.715 -6.473,0 -11.719,5.242 -11.719,11.715 0,6.469 5.246,11.715 11.719,11.715" /><path
       inkscape:connector-curvature="0"
       id="path34"
       style="fill:#a7c947;fill-opacity:1;fill-rule:nonzero;stroke:none"
       d="m 452.68751,83.443347 c 6.469,0 11.715,-5.246 11.715,-11.715 0,-6.473 -5.246,-11.715 -11.715,-11.715 -6.469,0 -11.715,5.242 -11.715,11.715 0,6.469 5.246,11.715 11.715,11.715" /></g></svg>