<?xml version="1.0" encoding="UTF-8" standalone="no"?>
<!-- Created with Inkscape (http://www.inkscape.org/) -->

<svg
   xmlns:dc="http://purl.org/dc/elements/1.1/"
   xmlns:cc="http://creativecommons.org/ns#"
   xmlns:rdf="http://www.w3.org/1999/02/22-rdf-syntax-ns#"
   xmlns:svg="http://www.w3.org/2000/svg"
   xmlns="http://www.w3.org/2000/svg"
   xmlns:sodipodi="http://sodipodi.sourceforge.net/DTD/sodipodi-0.dtd"
   xmlns:inkscape="http://www.inkscape.org/namespaces/inkscape"
   version="1.1"
   id="svg2"
   xml:space="preserve"
   width="834.53333"
   height="257.60001"
   viewBox="0 0 834.53333 257.60001"
   sodipodi:docname="vr-logo-sve.svg"
   inkscape:version="0.92.4 5da689c313, 2019-01-14"><metadata
     id="metadata8"><rdf:RDF><cc:Work
         rdf:about=""><dc:format>image/svg+xml</dc:format><dc:type
           rdf:resource="http://purl.org/dc/dcmitype/StillImage" /><dc:title></dc:title></cc:Work></rdf:RDF></metadata><defs
     id="defs6" /><sodipodi:namedview
     pagecolor="#ffffff"
     bordercolor="#666666"
     borderopacity="1"
     objecttolerance="10"
     gridtolerance="10"
     guidetolerance="10"
     inkscape:pageopacity="0"
     inkscape:pageshadow="2"
     inkscape:window-width="1106"
     inkscape:window-height="730"
     id="namedview4"
     showgrid="false"
     inkscape:zoom="0.45254834"
     inkscape:cx="418.96296"
     inkscape:cy="94.973604"
     inkscape:window-x="565"
     inkscape:window-y="271"
     inkscape:window-maximized="0"
     inkscape:current-layer="g10" /><g
     id="g10"
     inkscape:groupmode="layer"
     inkscape:label="ink_ext_XXXXXX"
     transform="matrix(1.3333333,0,0,-1.3333333,0,257.6)"><g
       id="g12"
       transform="scale(0.1)"><path
         d="m 13.1953,123.219 c -5.02342,5.66 -14.10155,17.359 -13.1210812,35.75 0,0 -0.0234375,0.992 0,3.57 0.0976562,8.359 4.6796912,28.242 33.7382812,43.621 37.9414,20.102 126.8395,46.762 154.8045,53.25 25.637,5.949 155.754,33.32 181.899,37.352 26.136,4 174.617,20.418 194.879,22.629 20.257,2.187 260.058,21.91 281.437,23.41 21.363,1.437 144.762,7.301 179.378,9.449 0,0 73.67,2.559 143.68,18.648 0,0 29.5,10.571 63.75,17.543 0,0 54.13,15.321 91.35,-43.121 0,0 38.45,-65.179 18.3,-100.742 0,0 -1.08,-2.457 -3.28,-5.547 -5.33,-9.75 -20.55,-31.07 -59.7,-53.511 -8.55,-5.309 -22.28,-11.68 -36.88,-12.2 -20.92,-1.601 -66.14,-4.101 -110.04,0.192 0,0 -23.36,1.867 -30.32,2.289 -24.42,1.418 -89.18,4.16 -147.257,6.488 -73.981,3.031 -135.879,7.43 -171.622,6.699 -35.718,-0.707 -100.554,0.731 -158.015,-4.75 -57.461,-5.476 -195.242,-16.437 -227.281,-19.359 -32.063,-2.918 -142.778,-13.738 -177.582,-19.719 -37.059,-6.379 -95.778,-19.019 -109.778,-22.64 0,0 -50.6834,-13.34 -85.4178,-5.719 -2.9844,0.64 -9.207,2.211 -12.9219,6.418"
         style="fill:#231f20;fill-opacity:1;fill-rule:nonzero;stroke:none"
         id="path14"
         inkscape:connector-curvature="0" /><path
         d="m 798.465,577.711 c -26.039,-1.242 -33.18,30.5 -48.281,56.961 -15.977,28.039 -78.598,151.578 -93.598,179.5 -15.02,27.918 -102.063,196.938 -115.203,217.598 -9.18,14.36 -59.578,106.8 -91.738,162.4 -15.301,26.46 -43.321,70.24 -64.797,99.42 -27.301,37.12 -60.403,81.8 -72.422,97.58 -21.578,28.28 -65.84,87.76 -102.418,137.8 0,0 -33.664,53.68 10.957,89.94 0,0 30.922,20.44 70.32,20.96 7.903,0.1 14.582,-0.9 26.461,-4.98 13,-4.46 33.219,-13.58 49.543,-26.12 25.957,-19.96 78.996,-66.24 140.438,-150.52 34.515,-47.4 92.539,-158.46 112.656,-194.38 20.101,-35.88 76.422,-171.9 88.121,-198.74 11.703,-26.84 54.121,-148.689 71.68,-195.821 17.562,-47.137 40.621,-116.418 55.582,-172.637 10.722,-40.184 12.437,-55.422 10.781,-70.281 -0.223,-6.211 -1.262,-11.582 -3.82,-18.219 0,0 -13.539,-29 -44.262,-30.461"
         style="fill:#231f20;fill-opacity:1;fill-rule:nonzero;stroke:none"
         id="path16"
         inkscape:connector-curvature="0" /><path
         d="m 895.758,1184.82 c 0,0 -9.18,-3.22 -18.457,14.52 -1.543,3 -3.18,12.02 -2.039,19.22 4.199,26.34 24.801,131.12 85.238,282.5 0,0 64.36,154.48 107.52,217.22 43.16,62.76 105.02,152.04 144.78,176.4 0,0 58.48,44.08 107.76,36.48 0,0 48.46,-3.62 67.5,-42.44 0,0 15.38,-44.96 -8.04,-76.14 0,0 -23.04,-43.78 -57.78,-62.36 0,0 -84.3,-49.22 -110.46,-72.18 -20.98,-18.4 -38.14,-38.54 -60.4,-62.88 -6.92,-8.54 -25.74,-30.76 -43.26,-52.22 -7.38,-8.88 -25.22,-32.86 -29.84,-38.28 0,0 -43.16,-59.52 -83.401,-142.58 -40.238,-83.02 -46.621,-98.84 -72.441,-158.48 0,0 -11.68,-35.86 -26.68,-38.78"
         style="fill:#231f20;fill-opacity:1;fill-rule:nonzero;stroke:none"
         id="path18"
         inkscape:connector-curvature="0" /><path
         d="m 987.176,914.301 c 0,0 -23.762,4.687 -22.301,23.531 2.402,14.16 3.203,18.598 9.004,33.758 19.738,51.72 38.881,113.34 72.341,173.8 42.32,76.42 133.86,220.92 233.56,300.16 59.84,47.56 90.56,67.38 139.6,77.48 7.7,1.62 19.02,6.52 41.7,0.84 17.48,-5 43.22,-17.26 50.96,-46.74 0,0 9.16,-52.6 -47.54,-91.04 0,0 -166.78,-114.24 -195.3,-138.16 -28.54,-23.96 -45.2,-32.66 -99.34,-85.64 0,0 -77.1,-86.66 -105.48,-131.48 0,0 -26.06,-45.08 -49.46,-84.279 -3.54,-7.597 -9.94,-17.703 -17.701,-26.601 0,0 -2.781,-4.789 -10.043,-5.629"
         style="fill:#231f20;fill-opacity:1;fill-rule:nonzero;stroke:none"
         id="path20"
         inkscape:connector-curvature="0" /><g
         id="g22"
         transform="scale(10)"><text
           transform="matrix(1,0,0,-1,208.109,12.2262)"
           style="font-variant:normal;font-weight:300;font-size:57.94630051px;font-family:AtlasGrotesk;-inkscape-font-specification:AtlasGrotesk-Light;writing-mode:lr-tb;fill:#231f20;fill-opacity:1;fill-rule:nonzero;stroke:none"
           id="text26"><tspan
             x="0 35.811016 65.073708 84.311493 113.575 145.79221 171.34689 200.26189 229.9294 262.66959 289.67099 307.51904 337.47488 369.05573 398.31842"
             y="0"
             sodipodi:role="line"
             id="tspan24">Vetenskapsrådet</tspan></text>
</g></g></g></svg>