<?xml version="1.0" encoding="UTF-8" standalone="no"?>
<!-- Created with Inkscape (http://www.inkscape.org/) -->

<svg
   xmlns:dc="http://purl.org/dc/elements/1.1/"
   xmlns:cc="http://creativecommons.org/ns#"
   xmlns:rdf="http://www.w3.org/1999/02/22-rdf-syntax-ns#"
   xmlns:svg="http://www.w3.org/2000/svg"
   xmlns="http://www.w3.org/2000/svg"
   xmlns:sodipodi="http://sodipodi.sourceforge.net/DTD/sodipodi-0.dtd"
   xmlns:inkscape="http://www.inkscape.org/namespaces/inkscape"
   version="1.1"
   id="svg2"
   xml:space="preserve"
   width="481.48001"
   height="388.38666"
   viewBox="0 0 481.48001 388.38666"
   sodipodi:docname="vr-logo-sve.svg"
   inkscape:version="0.92.4 5da689c313, 2019-01-14"><metadata
     id="metadata8"><rdf:RDF><cc:Work
         rdf:about=""><dc:format>image/svg+xml</dc:format><dc:type
           rdf:resource="http://purl.org/dc/dcmitype/StillImage" /><dc:title></dc:title></cc:Work></rdf:RDF></metadata><defs
     id="defs6" /><sodipodi:namedview
     pagecolor="#ffffff"
     bordercolor="#666666"
     borderopacity="1"
     objecttolerance="10"
     gridtolerance="10"
     guidetolerance="10"
     inkscape:pageopacity="0"
     inkscape:pageshadow="2"
     inkscape:window-width="766"
     inkscape:window-height="480"
     id="namedview4"
     showgrid="false"
     inkscape:zoom="0.4296677"
     inkscape:cx="266.83701"
     inkscape:cy="196.92002"
     inkscape:window-x="734"
     inkscape:window-y="161"
     inkscape:window-maximized="0"
     inkscape:current-layer="g10" /><g
     id="g10"
     inkscape:groupmode="layer"
     inkscape:label="ink_ext_XXXXXX"
     transform="matrix(1.3333333,0,0,-1.3333333,0,388.38667)"><g
       id="g12"
       transform="scale(0.1)"><path
         d="m 1027.95,1104.09 c -5.02,5.65 -14.1,17.35 -13.12,35.76 0,0 -0.02,0.98 0,3.56 0.1,8.36 4.68,28.24 33.74,43.62 37.94,20.1 126.84,46.76 154.8,53.26 25.64,5.94 155.76,33.32 181.9,37.34 26.14,4 174.62,20.42 194.88,22.64 20.26,2.18 260.06,21.9 281.44,23.4 21.36,1.44 144.76,7.29 179.38,9.46 0,0 73.66,2.56 143.68,18.64 0,0 29.5,10.58 63.74,17.53 0,0 54.14,15.33 91.36,-43.11 0,0 38.44,-65.18 18.3,-100.74 0,0 -1.08,-2.46 -3.28,-5.54 -5.34,-9.76 -20.56,-31.08 -59.7,-53.53 -8.56,-5.29 -22.28,-11.67 -36.88,-12.19 -20.92,-1.6 -66.14,-4.1 -110.05,0.2 0,0 -23.35,1.86 -30.31,2.28 -24.42,1.42 -89.18,4.16 -147.26,6.5 -73.98,3.02 -135.88,7.42 -171.62,6.7 -35.72,-0.72 -100.56,0.72 -158.02,-4.76 -57.46,-5.48 -195.24,-16.44 -227.28,-19.36 -32.06,-2.92 -142.78,-13.74 -177.58,-19.73 -37.06,-6.37 -95.78,-19.01 -109.78,-22.63 0,0 -50.68,-13.34 -85.42,-5.73 -2.98,0.65 -9.2,2.23 -12.92,6.43"
         style="fill:#231f20;fill-opacity:1;fill-rule:nonzero;stroke:none"
         id="path14"
         inkscape:connector-curvature="0" /><path
         d="m 1813.22,1558.58 c -26.04,-1.24 -33.18,30.5 -48.28,56.96 -15.98,28.04 -78.6,151.58 -93.6,179.5 -15.02,27.92 -102.06,196.94 -115.2,217.6 -9.18,14.36 -59.58,106.8 -91.74,162.4 -15.3,26.46 -43.32,70.24 -64.8,99.42 -27.3,37.12 -60.4,81.8 -72.42,97.58 -21.58,28.28 -65.84,87.76 -102.42,137.8 0,0 -33.66,53.68 10.96,89.94 0,0 30.92,20.44 70.32,20.96 7.9,0.1 14.58,-0.9 26.46,-4.98 13,-4.46 33.22,-13.58 49.54,-26.12 25.96,-19.96 79,-66.24 140.44,-150.52 34.52,-47.4 92.54,-158.46 112.66,-194.38 20.1,-35.88 76.42,-171.9 88.12,-198.74 11.7,-26.84 54.12,-148.68 71.68,-195.82 17.56,-47.14 40.62,-116.42 55.58,-172.64 10.72,-40.18 12.44,-55.42 10.78,-70.28 -0.22,-6.2 -1.26,-11.58 -3.82,-18.22 0,0 -13.53,-29 -44.26,-30.46"
         style="fill:#231f20;fill-opacity:1;fill-rule:nonzero;stroke:none"
         id="path16"
         inkscape:connector-curvature="0" /><path
         d="m 1910.52,2165.69 c 0,0 -9.18,-3.22 -18.46,14.52 -1.54,3 -3.18,12.02 -2.04,19.22 4.2,26.34 24.79,131.12 85.23,282.5 0,0 64.37,154.48 107.52,217.22 43.17,62.76 105.02,152.04 144.79,176.4 0,0 58.48,44.08 107.75,36.48 0,0 48.47,-3.62 67.5,-42.44 0,0 15.38,-44.96 -8.03,-76.14 0,0 -23.04,-43.78 -57.78,-62.36 0,0 -84.3,-49.22 -110.47,-72.18 -20.97,-18.4 -38.13,-38.54 -60.4,-62.88 -6.91,-8.54 -25.73,-30.76 -43.25,-52.22 -7.38,-8.88 -25.22,-32.86 -29.84,-38.28 0,0 -43.17,-59.52 -83.4,-142.58 -40.25,-83.02 -46.62,-98.84 -72.44,-158.48 0,0 -11.68,-35.86 -26.68,-38.78"
         style="fill:#231f20;fill-opacity:1;fill-rule:nonzero;stroke:none"
         id="path18"
         inkscape:connector-curvature="0" /><path
         d="m 2001.93,1895.16 c 0,0 -23.76,4.7 -22.3,23.54 2.4,14.16 3.2,18.6 9,33.76 19.74,51.72 38.88,113.34 72.35,173.8 42.31,76.42 133.85,220.92 233.55,300.16 59.85,47.56 90.57,67.38 139.6,77.48 7.71,1.62 19.02,6.52 41.7,0.84 17.48,-5 43.22,-17.26 50.97,-46.74 0,0 9.16,-52.6 -47.54,-91.04 0,0 -166.79,-114.24 -195.3,-138.16 -28.55,-23.96 -45.21,-32.66 -99.35,-85.64 0,0 -77.1,-86.66 -105.48,-131.48 0,0 -26.05,-45.08 -49.45,-84.28 -3.55,-7.6 -9.94,-17.7 -17.71,-26.6 0,0 -2.78,-4.8 -10.04,-5.64"
         style="fill:#231f20;fill-opacity:1;fill-rule:nonzero;stroke:none"
         id="path20"
         inkscape:connector-curvature="0" /><g
         id="g22"
         transform="scale(10)"><text
           transform="matrix(1,0,0,-1,0,10.5391)"
           style="font-variant:normal;font-weight:300;font-size:49.94630051px;font-family:AtlasGrotesk;-inkscape-font-specification:AtlasGrotesk-Light;writing-mode:lr-tb;fill:#231f20;fill-opacity:1;fill-rule:nonzero;stroke:none"
           id="text26"><tspan
             x="0 30.867197 56.089893 72.671898 97.8946 125.6641 148.69 173.6129 199.18471 227.40436 250.679 266.06219 291.88327 319.104 344.32672"
             y="0"
             sodipodi:role="line"
             id="tspan24">Vetenskapsrådet</tspan></text>
</g></g></g></svg>