<?xml version="1.0" encoding="utf-8"?>
<!-- Generator: Adobe Illustrator 24.1.2, SVG Export Plug-In . SVG Version: 6.00 Build 0)  -->
<svg version="1.1" id="Layer_1" xmlns="http://www.w3.org/2000/svg" xmlns:xlink="http://www.w3.org/1999/xlink" x="0px" y="0px"
	 viewBox="0 0 582.1 172.1" enable-background="new 0 0 582.1 172.1" xml:space="preserve">
<g>
	<g>
		<path fill="#3B9DD8" d="M75,45.5v3.3c0.2,0,0.9,0,1.8-0.1c1-0.2,1.7,1.1,1.6,1.8c-0.1,0.8-0.9,2.4-1.1,4.5
			c-0.1,0.6,0.1,0.8,0.2,0.8c0.7,0.1,1.4,0.2,2.1,0.4c0.1,0,0.4-0.1,0.5-0.6c0.6-2,0.5-3.8,0.7-4.6c0.2-0.7,1.2-1.6,2.1-1
			c0.9,0.5,1.7,0.8,1.7,0.8s0.8,0.4,1.8,0.6c1,0.2,1.1,1.6,0.8,2.2c-0.4,0.7-1.7,1.9-2.8,3.7c-0.3,0.5-0.2,0.7-0.1,0.8
			c0.6,0.4,1.2,0.8,1.8,1.2c0.1,0,0.4,0.1,0.7-0.4c1.3-1.6,1.9-3.3,2.4-4c0.4-0.6,1.7-1,2.3-0.1c0.6,0.8,1.2,1.4,1.2,1.4
			s0.6,0.6,1.4,1.2c0.8,0.6,0.4,1.9-0.1,2.3c-0.7,0.5-2.3,1-4,2.4c-0.4,0.4-0.4,0.6-0.4,0.7c0.4,0.6,0.8,1.2,1.2,1.8
			c0.1,0.1,0.3,0.2,0.8-0.1c1.9-1,3-2.3,3.7-2.8c0.6-0.4,2-0.2,2.2,0.8c0.2,1,0.6,1.8,0.6,1.8s0.3,0.8,0.8,1.7c0.5,0.9-0.3,2-1,2.1
			c-0.8,0.2-2.5,0.1-4.6,0.7c-0.5,0.2-0.6,0.4-0.6,0.5c0.2,0.7,0.3,1.4,0.4,2.1c0,0.1,0.2,0.3,0.8,0.2c2.1-0.2,3.7-1,4.5-1.1
			c0.7-0.1,1.9,0.5,1.8,1.6c-0.2,1-0.1,1.9-0.1,1.9s0,0.9,0.1,1.9c0.2,1-1.1,1.7-1.8,1.6c-0.8-0.1-2.4-0.9-4.5-1.1
			c-0.6-0.1-0.8,0.1-0.8,0.2c-0.1,0.7-0.2,1.4-0.4,2.1c0,0.1,0.1,0.4,0.6,0.5c2,0.6,3.8,0.5,4.6,0.7c0.7,0.2,1.6,1.2,1,2.1
			c-0.5,0.9-0.8,1.7-0.8,1.7s-0.4,0.8-0.6,1.8s-1.6,1.1-2.2,0.8c-0.7-0.4-1.9-1.7-3.7-2.8c-0.5-0.3-0.7-0.2-0.8-0.1
			c-0.4,0.6-0.8,1.2-1.2,1.8c0,0.1-0.1,0.4,0.4,0.7c1.6,1.3,3.3,1.9,4,2.4c0.6,0.4,1,1.7,0.1,2.3c-0.8,0.6-1.4,1.2-1.4,1.2
			s-0.6,0.6-1.2,1.4c-0.6,0.8-1.9,0.4-2.3-0.1c-0.5-0.7-1-2.3-2.4-4c-0.4-0.4-0.6-0.4-0.7-0.4c-0.6,0.4-1.2,0.8-1.8,1.2
			c-0.1,0.1-0.2,0.3,0.1,0.8c1,1.9,2.3,3,2.8,3.7c0.4,0.6,0.2,2-0.8,2.2c-1,0.2-1.8,0.6-1.8,0.6s-0.8,0.3-1.7,0.8
			c-0.9,0.5-2-0.3-2.1-1c-0.2-0.8-0.1-2.5-0.7-4.6c-0.2-0.5-0.4-0.6-0.5-0.6c-0.7,0.2-1.4,0.3-2.1,0.4c-0.1,0-0.3,0.2-0.2,0.8
			c0.2,2.1,1,3.7,1.1,4.5c0.1,0.7-0.5,1.9-1.6,1.8c-0.9-0.1-1.7-0.1-1.8-0.1v3.6h26.8l10.6-57.4H75z"/>
		<path fill="#FFFFFF" d="M76.9,99.5c1,0.2,1.7-1.1,1.6-1.8c-0.1-0.8-0.9-2.4-1.1-4.5c-0.1-0.6,0.1-0.8,0.2-0.8
			c0.7-0.1,1.4-0.2,2.1-0.4c0.1,0,0.4,0.1,0.5,0.6c0.6,2,0.5,3.8,0.7,4.6c0.2,0.7,1.2,1.6,2.1,1c0.9-0.5,1.7-0.8,1.7-0.8
			s0.8-0.4,1.8-0.6c1-0.2,1.1-1.6,0.8-2.2c-0.4-0.7-1.7-1.9-2.8-3.7c-0.3-0.5-0.2-0.7-0.1-0.8c0.6-0.4,1.2-0.8,1.8-1.2
			c0.1,0,0.4-0.1,0.7,0.4c1.3,1.6,1.9,3.3,2.4,4c0.4,0.6,1.7,1,2.3,0.1c0.6-0.8,1.2-1.4,1.2-1.4s0.6-0.6,1.4-1.2
			c0.8-0.6,0.4-1.9-0.1-2.3c-0.7-0.5-2.3-1-4-2.4c-0.4-0.4-0.4-0.6-0.4-0.7c0.4-0.6,0.8-1.2,1.2-1.8c0.1-0.1,0.3-0.2,0.8,0.1
			c1.9,1,3,2.3,3.7,2.8c0.6,0.4,2,0.2,2.2-0.8s0.6-1.8,0.6-1.8s0.3-0.8,0.8-1.7c0.5-0.9-0.3-2-1-2.1c-0.8-0.2-2.5-0.1-4.6-0.7
			c-0.5-0.2-0.6-0.4-0.6-0.5c0.2-0.7,0.3-1.4,0.4-2.1c0-0.1,0.2-0.3,0.8-0.2c2.1,0.2,3.7,1,4.5,1.1c0.7,0.1,1.9-0.5,1.8-1.6
			c-0.2-1-0.1-1.9-0.1-1.9s0-0.9,0.1-1.9c0.2-1-1.1-1.7-1.8-1.6c-0.8,0.1-2.4,0.9-4.5,1.1c-0.6,0.1-0.8-0.1-0.8-0.2
			c-0.1-0.7-0.2-1.4-0.4-2.1c0-0.1,0.1-0.4,0.6-0.5c2-0.6,3.8-0.5,4.6-0.7c0.7-0.2,1.6-1.2,1-2.1c-0.5-0.9-0.8-1.7-0.8-1.7
			s-0.4-0.8-0.6-1.8c-0.2-1-1.6-1.1-2.2-0.8c-0.7,0.4-1.9,1.7-3.7,2.8c-0.5,0.3-0.7,0.2-0.8,0.1c-0.4-0.6-0.8-1.2-1.2-1.8
			c0-0.1-0.1-0.4,0.4-0.7c1.6-1.3,3.3-1.9,4-2.4c0.6-0.4,1-1.7,0.1-2.3c-0.8-0.6-1.4-1.2-1.4-1.2s-0.6-0.6-1.2-1.4
			C91,54,89.7,54.4,89.3,55c-0.5,0.7-1,2.3-2.4,4c-0.4,0.4-0.6,0.4-0.7,0.4c-0.6-0.4-1.2-0.8-1.8-1.2c-0.1-0.1-0.2-0.3,0.1-0.8
			c1-1.9,2.3-3,2.8-3.7c0.4-0.6,0.2-2-0.8-2.2c-1-0.2-1.8-0.6-1.8-0.6S83.9,50.5,83,50c-0.9-0.5-2,0.3-2.1,1
			c-0.2,0.8-0.1,2.5-0.7,4.6c-0.2,0.5-0.4,0.6-0.5,0.6c-0.7-0.2-1.4-0.3-2.1-0.4c-0.1,0-0.3-0.2-0.2-0.8c0.2-2.1,1-3.7,1.1-4.5
			c0.1-0.7-0.5-1.9-1.6-1.8c-0.9,0.1-1.7,0.1-1.8,0.1v50.5C75.2,99.4,76,99.4,76.9,99.5z"/>
	</g>
	<path fill="#DE2C6C" d="M73.2,99.6c-1,0.2-1.7-1.1-1.6-1.8c0.1-0.8,0.9-2.4,1.1-4.5c0.1-0.6-0.1-0.8-0.2-0.8
		c-0.7-0.1-1.4-0.2-2.1-0.4c-0.1,0-0.4,0.1-0.5,0.6c-0.6,2-0.5,3.8-0.7,4.6c-0.2,0.7-1.2,1.6-2.1,1c-0.9-0.5-1.7-0.8-1.7-0.8
		s-0.8-0.4-1.8-0.6c-1-0.2-1.1-1.6-0.8-2.2c0.4-0.7,1.7-1.9,2.8-3.7c0.3-0.5,0.2-0.7,0.1-0.8c-0.6-0.4-1.2-0.8-1.8-1.2
		c-0.1,0-0.4-0.1-0.7,0.4c-1.3,1.6-1.9,3.3-2.4,4c-0.4,0.6-1.7,1-2.3,0.1c-0.6-0.8-1.2-1.4-1.2-1.4s-0.6-0.6-1.4-1.2
		c-0.8-0.6-0.4-1.9,0.1-2.3c0.7-0.5,2.3-1,4-2.4c0.4-0.4,0.4-0.6,0.4-0.7c-0.4-0.6-0.8-1.2-1.2-1.8c-0.1-0.1-0.3-0.2-0.8,0.1
		c-1.9,1-3,2.3-3.7,2.8c-0.6,0.4-2,0.2-2.2-0.8c-0.2-1-0.6-1.8-0.6-1.8s-0.3-0.8-0.8-1.7c-0.5-0.9,0.3-2,1-2.1
		c0.8-0.2,2.5-0.1,4.6-0.7c0.5-0.2,0.6-0.4,0.6-0.5c-0.2-0.7-0.3-1.4-0.4-2.1c0-0.1-0.2-0.3-0.8-0.2c-2.1,0.2-3.7,1-4.5,1.1
		c-0.7,0.1-1.9-0.5-1.8-1.6c0.2-1,0.1-1.9,0.1-1.9s0-0.9-0.1-1.9c-0.2-1,1.1-1.7,1.8-1.6c0.8,0.1,2.4,0.9,4.5,1.1
		c0.6,0.1,0.8-0.1,0.8-0.2c0.1-0.7,0.2-1.4,0.4-2.1c0-0.1-0.1-0.4-0.6-0.5c-2-0.6-3.8-0.5-4.6-0.7c-0.7-0.2-1.6-1.2-1-2.1
		c0.5-0.9,0.8-1.7,0.8-1.7s0.4-0.8,0.6-1.8c0.2-1,1.6-1.1,2.2-0.8c0.7,0.4,1.9,1.7,3.7,2.8c0.5,0.3,0.7,0.2,0.8,0.1
		c0.4-0.6,0.8-1.2,1.2-1.8c0-0.1,0.1-0.4-0.4-0.7c-1.6-1.3-3.3-1.9-4-2.4c-0.6-0.4-1-1.7-0.1-2.3c0.8-0.6,1.4-1.2,1.4-1.2
		s0.6-0.6,1.2-1.4c0.6-0.8,1.9-0.4,2.3,0.1c0.5,0.7,1,2.3,2.4,4c0.4,0.4,0.6,0.4,0.7,0.4c0.6-0.4,1.2-0.8,1.8-1.2
		c0.1-0.1,0.2-0.3-0.1-0.8c-1-1.9-2.3-3-2.8-3.7c-0.4-0.6-0.2-2,0.8-2.2c1-0.2,1.8-0.6,1.8-0.6s0.8-0.3,1.7-0.8c0.9-0.5,2,0.3,2.1,1
		c0.2,0.8,0.1,2.5,0.7,4.6c0.2,0.5,0.4,0.6,0.5,0.6c0.7-0.2,1.4-0.3,2.1-0.4c0.1,0,0.3-0.2,0.2-0.8c-0.2-2.1-1-3.7-1.1-4.5
		c-0.1-0.7,0.5-1.9,1.6-1.8C74.1,49,74.9,49,75,49v50.5C74.9,99.5,74.1,99.5,73.2,99.6z"/>
	<g>
		<g>
			<path fill="#DE2C6C" d="M324.2,95l7.1-40.4h9.4c6.2,0,10.2,3.7,8.7,11.8l-3,17c-1.4,8-5.5,11.6-11.8,11.6H324.2z M334.7,90.4
				c3.2,0,5.9-2.1,6.8-7.4l2.9-16.5c0.8-5.2-1.1-7.4-4.2-7.4h-4.8L330,90.4H334.7z"/>
			<path fill="#DE2C6C" d="M350.6,86.3l2.1-11.9c1.1-6,4.2-9.1,8.6-9.1c2.7,0,4.8,1.5,5.3,3.8l0.6-3.2h4.8L366.8,95H362l0.6-2.9
				c-1.3,2.3-3.3,3.5-6,3.5C352.2,95.6,349.5,92.4,350.6,86.3z M363.6,86.1l2-11.3c0.7-3.4-0.6-5.2-3.1-5.2c-2.5,0-4.4,1.8-5,5.2
				l-2,11.4c-0.6,3.3,0.7,5.1,3.3,5.1C361.1,91.3,363,89.5,363.6,86.1z"/>
			<path fill="#DE2C6C" d="M384,94.7c-1.3,0.5-2.7,0.9-4.5,0.9c-4,0-5.9-2.3-5.1-7l3.3-18.8h-3.2l0.7-3.9c3.9,0,5.2-0.2,7-9.5h3.2
				l-1.7,9.5h5.4l-0.7,3.9h-5.7l-3.2,18c-0.5,2.6,0.4,3.4,1.8,3.4c1.3,0,2.6-0.5,3.7-1.2L384,94.7z"/>
			<path fill="#DE2C6C" d="M388.2,86.3l2.1-11.9c1.1-6,4.2-9.1,8.6-9.1c2.7,0,4.8,1.5,5.3,3.8l0.6-3.2h4.8L404.4,95h-4.8l0.6-2.9
				c-1.3,2.3-3.3,3.5-6,3.5C389.8,95.6,387.1,92.4,388.2,86.3z M401.2,86.1l2-11.3c0.7-3.4-0.6-5.2-3.1-5.2c-2.5,0-4.4,1.8-5,5.2
				l-2,11.4c-0.6,3.3,0.7,5.1,3.3,5.1C398.7,91.3,400.6,89.5,401.2,86.1z"/>
			<path fill="#DE2C6C" d="M424,95h-5l7.1-40.4h9.6c5.7,0,9.2,3,8.1,9.2l-1.3,7.2c-1,5.9-4.5,8.9-10.1,8.9h-5.9L424,95z M437.6,70.6
				l1.1-6.4c0.6-3.5-1.1-5-4.2-5h-4.3l-2.9,16.5h4.4C434.8,75.7,437,74.1,437.6,70.6z"/>
			<path fill="#DE2C6C" d="M443.7,86l2-11.3c1.1-6.4,5-9.5,10-9.5c5.1,0,8.9,3.1,7.7,9.6l-2,11.4c-1.1,6.3-4.9,9.3-9.9,9.3
				C446.4,95.6,442.5,92.6,443.7,86z M456.6,86.2l2-11.4c0.6-3.3-0.7-5.2-3.2-5.2c-2.4,0-4.3,1.8-4.9,5.2l-2,11.3
				c-0.6,3.3,0.7,5.1,3.1,5.1C454.1,91.3,456,89.5,456.6,86.2z"/>
			<path fill="#DE2C6C" d="M469.8,65.9h4.8l-0.6,3.6c1.6-3,4-4.2,8-4.2l-1.1,5.5c-0.5-0.3-1.8-0.5-2.3-0.5c-3.9,0-5.3,2.9-6.3,8.5
				L469.5,95h-4.8L469.8,65.9z"/>
			<path fill="#DE2C6C" d="M491.7,94.7c-1.3,0.5-2.7,0.9-4.5,0.9c-4,0-5.9-2.3-5.1-7l3.3-18.8h-3.2l0.7-3.9c3.9,0,5.2-0.2,7-9.5h3.2
				l-1.7,9.5h5.4l-0.7,3.9h-5.7l-3.2,18c-0.5,2.6,0.4,3.4,1.8,3.4c1.3,0,2.6-0.5,3.7-1.2L491.7,94.7z"/>
			<path fill="#DE2C6C" d="M495.9,86.3l2.1-11.9c1.1-6,4.2-9.1,8.6-9.1c2.7,0,4.8,1.5,5.3,3.8l0.6-3.2h4.8L512.1,95h-4.8l0.6-2.9
				c-1.3,2.3-3.3,3.5-6,3.5C497.5,95.6,494.8,92.4,495.9,86.3z M508.9,86.1l2-11.3c0.7-3.4-0.6-5.2-3.1-5.2c-2.5,0-4.4,1.8-5,5.2
				l-2,11.4c-0.6,3.3,0.7,5.1,3.3,5.1C506.4,91.3,508.3,89.5,508.9,86.1z"/>
			<path fill="#DE2C6C" d="M522.3,95h-2.2c-2,0-2.4-0.8-2.1-2.8l6.6-37.6h4.8L522.3,95z"/>
		</g>
		<g>
			<g>
				<path d="M143.4,80l-0.6,3c-1.5,8.6-6.6,12.7-13.3,12.7c-7,0-12.2-4-10.5-13.4l2.9-16.6c1.5-8.6,6.3-12.7,13.3-12.7
					c6.7,0,12.2,4.1,10.6,13.1l-0.5,2.6l-7.3,0.5l0.4-2.5c0.7-3.7-0.7-5.3-3.1-5.3c-2.4,0-4.3,1.5-5,5.3l-2.7,15.2
					c-0.7,3.9,0.7,5.4,3.1,5.4c2.4,0,4.2-1.5,5-5.4l0.4-2.4L143.4,80z"/>
				<path d="M175.8,66.3L172.8,83c-1.5,8.6-6.9,12.7-14,12.7c-7,0-12.8-4-11.2-13.4l2.9-16.6c1.5-8.6,7-12.7,14.1-12.7
					C171.6,52.9,177.4,57,175.8,66.3z M159.1,66.6l-2.8,15.2c-0.7,3.9,0.7,5.4,3.1,5.4c2.4,0,4.3-1.5,4.9-5.4l2.7-15.2
					c0.7-3.7-0.7-5.3-3.1-5.3C161.7,61.3,159.7,62.8,159.1,66.6z"/>
				<path d="M199.5,53.5h8.1L192.2,95H182l-1.1-41.5h9.4l-0.2,27L199.5,53.5z"/>
				<path d="M220.6,53.5L213.3,95h-8.6l7.3-41.5H220.6z"/>
				<path d="M219.8,95l7.3-41.5h11.2c7,0,12.2,3.7,10.5,12.9l-2.9,16.3c-1.5,8.6-6.1,12.3-13.1,12.3H219.8z M232.6,86.9
					c2.4,0,4.3-1.5,4.9-5.4l2.6-14.7c0.6-3.7-0.7-5.3-3.1-5.3h-2.7l-4.5,25.4H232.6z"/>
				<path d="M253.3,73.3H269l-1.2,6.3h-15.6L253.3,73.3z"/>
				<path d="M277.8,57.3l7.5-3.8h1.8L279.8,95h-8.7L277.8,57.3z"/>
				<path d="M303.8,77.4c-1.3,1.7-3.2,3.3-6.5,3.3c-5.3,0-8.7-3.2-7.5-10l1-5.5c1.4-8.3,5.6-12.3,12.9-12.3c8,0,12.3,4,10.8,12.3
					l-3,16.9C310,90.3,306,95.6,298,95.6c-8.1,0-11.5-4.2-10.3-10.6l0.2-1.6l7.3-0.5l-0.1,0.7c-0.5,2.6,0.4,4.2,2.9,4.2
					c2.6,0,4.3-2.1,4.9-5.6L303.8,77.4z M305.8,65.5c0.6-3.1-0.4-4.9-2.9-4.9c-2.6,0-4.1,1.8-4.7,4.9l-0.7,4.2
					c-0.5,2.9,0.3,4.9,2.9,4.9c2.6,0,4.2-2,4.6-4.9L305.8,65.5z"/>
			</g>
		</g>
	</g>
	<g>
		<path fill="#3B9DD8" d="M426.1,124.4l0.2-1.2l3.5-0.3l-0.2,1.1c-0.4,2.6,0,3.4,1.4,3.4c1.5,0,2.6-1.2,2.6-3.4
			c0-0.9-0.4-1.6-0.9-2.1l-2.4-2c-1.6-1.4-2.4-2.5-2.4-4.6c0-3.6,2.2-7.1,6.8-7.1c3.4,0,6.1,1.5,5.3,5.5l-0.3,1.6l-3.5,0.3l0.2-1.3
			c0.3-1.6,0-2.7-1.4-2.7c-1.4,0-2.3,1.3-2.3,3.1c0,0.9,0.3,1.5,1.2,2.2l2.6,2c1.3,1,2.1,2.3,2.1,4.5c0,3.7-1.7,7.5-7.2,7.5
			C427.7,131,425.3,129.2,426.1,124.4z"/>
		<path fill="#3B9DD8" d="M456.9,130.7h-4.9l-0.3-14.4l-5.1,14.4h-4.6l0-22.1h4.9l-0.5,13.6l4.9-13.6h3.7l0.5,13.7l4.2-13.7h4.6
			L456.9,130.7z"/>
		<path fill="#3B9DD8" d="M466.1,108.6h10.6l-0.8,4.5h-6l-0.8,4.6h4.3l-0.7,3.7h-4.3l-0.8,4.9h6.1l-0.8,4.5h-10.6L466.1,108.6z"/>
		<path fill="#3B9DD8" d="M474.8,130.7l3.9-22.1h6c3.7,0,6.5,2,5.6,6.9l-1.5,8.7c-0.8,4.6-3.3,6.5-7,6.5H474.8z M481.6,126.4
			c1.3,0,2.3-0.8,2.6-2.9l1.4-7.8c0.3-2-0.4-2.8-1.7-2.8h-1.4l-2.4,13.5H481.6z"/>
		<path fill="#3B9DD8" d="M493.8,108.6h10.6l-0.8,4.5h-6l-0.8,4.6h4.3l-0.7,3.7h-4.3l-0.8,4.9h6.1l-0.8,4.5h-10.6L493.8,108.6z"/>
		<path fill="#3B9DD8" d="M511.5,108.6l2.1,13.6l2.4-13.6h3.5l-3.9,22.1h-4.3l-2.6-15l-2.7,15h-3.5l3.9-22.1H511.5z"/>
	</g>
</g>
</svg>
