<?xml version="1.0" encoding="UTF-8" standalone="no"?>
<!-- Created with Inkscape (http://www.inkscape.org/) -->

<svg
   xmlns:dc="http://purl.org/dc/elements/1.1/"
   xmlns:cc="http://creativecommons.org/ns#"
   xmlns:rdf="http://www.w3.org/1999/02/22-rdf-syntax-ns#"
   xmlns:svg="http://www.w3.org/2000/svg"
   xmlns="http://www.w3.org/2000/svg"
   xmlns:sodipodi="http://sodipodi.sourceforge.net/DTD/sodipodi-0.dtd"
   xmlns:inkscape="http://www.inkscape.org/namespaces/inkscape"
   width="16.568386mm"
   height="15.187083mm"
   viewBox="0 0 16.568386 15.187083"
   version="1.1"
   id="svg907"
   inkscape:version="0.92.4 5da689c313, 2019-01-14"
   sodipodi:docname="CV19DP_logo_square_SWE.svg">
  <defs
     id="defs901" />
  <sodipodi:namedview
     id="base"
     pagecolor="#ffffff"
     bordercolor="#666666"
     borderopacity="1.0"
     inkscape:pageopacity="0.0"
     inkscape:pageshadow="2"
     inkscape:zoom="1.979899"
     inkscape:cx="-38.726422"
     inkscape:cy="14.201395"
     inkscape:document-units="mm"
     inkscape:current-layer="layer1"
     showgrid="false"
     fit-margin-top="0"
     fit-margin-left="0"
     fit-margin-right="0"
     fit-margin-bottom="0"
     inkscape:window-width="3840"
     inkscape:window-height="2131"
     inkscape:window-x="0"
     inkscape:window-y="0"
     inkscape:window-maximized="1" />
  <metadata
     id="metadata904">
    <rdf:RDF>
      <cc:Work
         rdf:about="">
        <dc:format>image/svg+xml</dc:format>
        <dc:type
           rdf:resource="http://purl.org/dc/dcmitype/StillImage" />
        <dc:title></dc:title>
      </cc:Work>
    </rdf:RDF>
  </metadata>
  <g
     inkscape:label="Layer 1"
     inkscape:groupmode="layer"
     id="layer1"
     transform="translate(-67.311042,-70.180268)">
    <g
       id="g886"
       transform="matrix(0.26458333,0,0,0.26458333,54.140261,58.168185)"
       inkscape:export-filename="/home/lostb/covid-portal-logo.png"
       inkscape:export-xdpi="600"
       inkscape:export-ydpi="600">
      <g
         id="g6">
        <path
           id="path2"
           d="m 75,45.5 v 3.3 c 0.2,0 0.9,0 1.8,-0.1 1,-0.2 1.7,1.1 1.6,1.8 -0.1,0.8 -0.9,2.4 -1.1,4.5 -0.1,0.6 0.1,0.8 0.2,0.8 0.7,0.1 1.4,0.2 2.1,0.4 0.1,0 0.4,-0.1 0.5,-0.6 0.6,-2 0.5,-3.8 0.7,-4.6 0.2,-0.7 1.2,-1.6 2.1,-1 0.9,0.5 1.7,0.8 1.7,0.8 0,0 0.8,0.4 1.8,0.6 1,0.2 1.1,1.6 0.8,2.2 -0.4,0.7 -1.7,1.9 -2.8,3.7 -0.3,0.5 -0.2,0.7 -0.1,0.8 0.6,0.4 1.2,0.8 1.8,1.2 0.1,0 0.4,0.1 0.7,-0.4 1.3,-1.6 1.9,-3.3 2.4,-4 0.4,-0.6 1.7,-1 2.3,-0.1 0.6,0.8 1.2,1.4 1.2,1.4 0,0 0.6,0.6 1.4,1.2 0.8,0.6 0.4,1.9 -0.1,2.3 -0.7,0.5 -2.3,1 -4,2.4 -0.4,0.4 -0.4,0.6 -0.4,0.7 0.4,0.6 0.8,1.2 1.2,1.8 0.1,0.1 0.3,0.2 0.8,-0.1 1.9,-1 3,-2.3 3.7,-2.8 0.6,-0.4 2,-0.2 2.2,0.8 0.2,1 0.6,1.8 0.6,1.8 0,0 0.3,0.8 0.8,1.7 0.5,0.9 -0.3,2 -1,2.1 -0.8,0.2 -2.5,0.1 -4.6,0.7 -0.5,0.2 -0.6,0.4 -0.6,0.5 0.2,0.7 0.3,1.4 0.4,2.1 0,0.1 0.2,0.3 0.8,0.2 2.1,-0.2 3.7,-1 4.5,-1.1 0.7,-0.1 1.9,0.5 1.8,1.6 -0.2,1 -0.1,1.9 -0.1,1.9 0,0 0,0.9 0.1,1.9 0.2,1 -1.1,1.7 -1.8,1.6 -0.8,-0.1 -2.4,-0.9 -4.5,-1.1 -0.6,-0.1 -0.8,0.1 -0.8,0.2 -0.1,0.7 -0.2,1.4 -0.4,2.1 0,0.1 0.1,0.4 0.6,0.5 2,0.6 3.8,0.5 4.6,0.7 0.7,0.2 1.6,1.2 1,2.1 -0.5,0.9 -0.8,1.7 -0.8,1.7 0,0 -0.4,0.8 -0.6,1.8 -0.2,1 -1.6,1.1 -2.2,0.8 -0.7,-0.4 -1.9,-1.7 -3.7,-2.8 -0.5,-0.3 -0.7,-0.2 -0.8,-0.1 -0.4,0.6 -0.8,1.2 -1.2,1.8 0,0.1 -0.1,0.4 0.4,0.7 1.6,1.3 3.3,1.9 4,2.4 0.6,0.4 1,1.7 0.1,2.3 -0.8,0.6 -1.4,1.2 -1.4,1.2 0,0 -0.6,0.6 -1.2,1.4 -0.6,0.8 -1.9,0.4 -2.3,-0.1 -0.5,-0.7 -1,-2.3 -2.4,-4 -0.4,-0.4 -0.6,-0.4 -0.7,-0.4 -0.6,0.4 -1.2,0.8 -1.8,1.2 -0.1,0.1 -0.2,0.3 0.1,0.8 1,1.9 2.3,3 2.8,3.7 0.4,0.6 0.2,2 -0.8,2.2 -1,0.2 -1.8,0.6 -1.8,0.6 0,0 -0.8,0.3 -1.7,0.8 -0.9,0.5 -2,-0.3 -2.1,-1 -0.2,-0.8 -0.1,-2.5 -0.7,-4.6 -0.2,-0.5 -0.4,-0.6 -0.5,-0.6 -0.7,0.2 -1.4,0.3 -2.1,0.4 -0.1,0 -0.3,0.2 -0.2,0.8 0.2,2.1 1,3.7 1.1,4.5 0.1,0.7 -0.5,1.9 -1.6,1.8 -0.9,-0.1 -1.7,-0.1 -1.8,-0.1 v 3.6 h 26.8 L 112.4,45.4 H 75 Z"
           inkscape:connector-curvature="0"
           style="fill:#3b9dd8" />
        <path
           id="path4"
           d="m 76.9,99.5 c 1,0.2 1.7,-1.1 1.6,-1.8 -0.1,-0.8 -0.9,-2.4 -1.1,-4.5 -0.1,-0.6 0.1,-0.8 0.2,-0.8 0.7,-0.1 1.4,-0.2 2.1,-0.4 0.1,0 0.4,0.1 0.5,0.6 0.6,2 0.5,3.8 0.7,4.6 0.2,0.7 1.2,1.6 2.1,1 0.9,-0.5 1.7,-0.8 1.7,-0.8 0,0 0.8,-0.4 1.8,-0.6 1,-0.2 1.1,-1.6 0.8,-2.2 -0.4,-0.7 -1.7,-1.9 -2.8,-3.7 -0.3,-0.5 -0.2,-0.7 -0.1,-0.8 0.6,-0.4 1.2,-0.8 1.8,-1.2 0.1,0 0.4,-0.1 0.7,0.4 1.3,1.6 1.9,3.3 2.4,4 0.4,0.6 1.7,1 2.3,0.1 0.6,-0.8 1.2,-1.4 1.2,-1.4 0,0 0.6,-0.6 1.4,-1.2 0.8,-0.6 0.4,-1.9 -0.1,-2.3 -0.7,-0.5 -2.3,-1 -4,-2.4 -0.4,-0.4 -0.4,-0.6 -0.4,-0.7 0.4,-0.6 0.8,-1.2 1.2,-1.8 0.1,-0.1 0.3,-0.2 0.8,0.1 1.9,1 3,2.3 3.7,2.8 0.6,0.4 2,0.2 2.2,-0.8 0.2,-1 0.6,-1.8 0.6,-1.8 0,0 0.3,-0.8 0.8,-1.7 0.5,-0.9 -0.3,-2 -1,-2.1 -0.8,-0.2 -2.5,-0.1 -4.6,-0.7 -0.5,-0.2 -0.6,-0.4 -0.6,-0.5 0.2,-0.7 0.3,-1.4 0.4,-2.1 0,-0.1 0.2,-0.3 0.8,-0.2 2.1,0.2 3.7,1 4.5,1.1 0.7,0.1 1.9,-0.5 1.8,-1.6 -0.2,-1 -0.1,-1.9 -0.1,-1.9 0,0 0,-0.9 0.1,-1.9 0.2,-1 -1.1,-1.7 -1.8,-1.6 -0.8,0.1 -2.4,0.9 -4.5,1.1 -0.6,0.1 -0.8,-0.1 -0.8,-0.2 -0.1,-0.7 -0.2,-1.4 -0.4,-2.1 0,-0.1 0.1,-0.4 0.6,-0.5 2,-0.6 3.8,-0.5 4.6,-0.7 0.7,-0.2 1.6,-1.2 1,-2.1 -0.5,-0.9 -0.8,-1.7 -0.8,-1.7 0,0 -0.4,-0.8 -0.6,-1.8 -0.2,-1 -1.6,-1.1 -2.2,-0.8 -0.7,0.4 -1.9,1.7 -3.7,2.8 -0.5,0.3 -0.7,0.2 -0.8,0.1 -0.4,-0.6 -0.8,-1.2 -1.2,-1.8 0,-0.1 -0.1,-0.4 0.4,-0.7 1.6,-1.3 3.3,-1.9 4,-2.4 0.6,-0.4 1,-1.7 0.1,-2.3 -0.8,-0.6 -1.4,-1.2 -1.4,-1.2 0,0 -0.6,-0.6 -1.2,-1.4 -0.6,-1 -1.9,-0.6 -2.3,0 -0.5,0.7 -1,2.3 -2.4,4 -0.4,0.4 -0.6,0.4 -0.7,0.4 -0.6,-0.4 -1.2,-0.8 -1.8,-1.2 -0.1,-0.1 -0.2,-0.3 0.1,-0.8 1,-1.9 2.3,-3 2.8,-3.7 0.4,-0.6 0.2,-2 -0.8,-2.2 -1,-0.2 -1.8,-0.6 -1.8,-0.6 0,0 -0.8,-0.4 -1.7,-0.9 -0.9,-0.5 -2,0.3 -2.1,1 -0.2,0.8 -0.1,2.5 -0.7,4.6 -0.2,0.5 -0.4,0.6 -0.5,0.6 -0.7,-0.2 -1.4,-0.3 -2.1,-0.4 -0.1,0 -0.3,-0.2 -0.2,-0.8 0.2,-2.1 1,-3.7 1.1,-4.5 0.1,-0.7 -0.5,-1.9 -1.6,-1.8 -0.9,0.1 -1.7,0.1 -1.8,0.1 v 50.5 c 0.1,0.1 0.9,0.1 1.8,0.2 z"
           inkscape:connector-curvature="0"
           style="fill:#ffffff" />
      </g>
      <path
         id="path8"
         d="m 73.2,99.6 c -1,0.2 -1.7,-1.1 -1.6,-1.8 0.1,-0.8 0.9,-2.4 1.1,-4.5 0.1,-0.6 -0.1,-0.8 -0.2,-0.8 -0.7,-0.1 -1.4,-0.2 -2.1,-0.4 -0.1,0 -0.4,0.1 -0.5,0.6 -0.6,2 -0.5,3.8 -0.7,4.6 -0.2,0.7 -1.2,1.6 -2.1,1 -0.9,-0.5 -1.7,-0.8 -1.7,-0.8 0,0 -0.8,-0.4 -1.8,-0.6 -1,-0.2 -1.1,-1.6 -0.8,-2.2 0.4,-0.7 1.7,-1.9 2.8,-3.7 0.3,-0.5 0.2,-0.7 0.1,-0.8 -0.6,-0.4 -1.2,-0.8 -1.8,-1.2 -0.1,0 -0.4,-0.1 -0.7,0.4 -1.3,1.6 -1.9,3.3 -2.4,4 -0.4,0.6 -1.7,1 -2.3,0.1 -0.6,-0.8 -1.2,-1.4 -1.2,-1.4 0,0 -0.6,-0.6 -1.4,-1.2 -0.8,-0.6 -0.4,-1.9 0.1,-2.3 0.7,-0.5 2.3,-1 4,-2.4 0.4,-0.4 0.4,-0.6 0.4,-0.7 -0.4,-0.6 -0.8,-1.2 -1.2,-1.8 -0.1,-0.1 -0.3,-0.2 -0.8,0.1 -1.9,1 -3,2.3 -3.7,2.8 -0.6,0.4 -2,0.2 -2.2,-0.8 -0.2,-1 -0.6,-1.8 -0.6,-1.8 0,0 -0.3,-0.8 -0.8,-1.7 -0.5,-0.9 0.3,-2 1,-2.1 0.8,-0.2 2.5,-0.1 4.6,-0.7 0.5,-0.2 0.6,-0.4 0.6,-0.5 -0.2,-0.7 -0.3,-1.4 -0.4,-2.1 0,-0.1 -0.2,-0.3 -0.8,-0.2 -2.1,0.2 -3.7,1 -4.5,1.1 -0.7,0.1 -1.9,-0.5 -1.8,-1.6 0.2,-1 0.1,-1.9 0.1,-1.9 0,0 0,-0.9 -0.1,-1.9 -0.2,-1 1.1,-1.7 1.8,-1.6 0.8,0.1 2.4,0.9 4.5,1.1 0.6,0.1 0.8,-0.1 0.8,-0.2 0.1,-0.7 0.2,-1.4 0.4,-2.1 0,-0.1 -0.1,-0.4 -0.6,-0.5 -2,-0.6 -3.8,-0.5 -4.6,-0.7 -0.7,-0.2 -1.6,-1.2 -1,-2.1 0.5,-0.9 0.8,-1.7 0.8,-1.7 0,0 0.4,-0.8 0.6,-1.8 0.2,-1 1.6,-1.1 2.2,-0.8 0.7,0.4 1.9,1.7 3.7,2.8 0.5,0.3 0.7,0.2 0.8,0.1 0.4,-0.6 0.8,-1.2 1.2,-1.8 0,-0.1 0.1,-0.4 -0.4,-0.7 -1.6,-1.3 -3.3,-1.9 -4,-2.4 -0.6,-0.4 -1,-1.7 -0.1,-2.3 0.8,-0.6 1.4,-1.2 1.4,-1.2 0,0 0.6,-0.6 1.2,-1.4 0.6,-0.8 1.9,-0.4 2.3,0.1 0.5,0.7 1,2.3 2.4,4 0.4,0.4 0.6,0.4 0.7,0.4 0.6,-0.4 1.2,-0.8 1.8,-1.2 0.1,-0.1 0.2,-0.3 -0.1,-0.8 -1,-1.9 -2.3,-3 -2.8,-3.7 -0.4,-0.6 -0.2,-2 0.8,-2.2 1,-0.2 1.8,-0.6 1.8,-0.6 0,0 0.8,-0.3 1.7,-0.8 0.9,-0.5 2,0.3 2.1,1 0.2,0.8 0.1,2.5 0.7,4.6 0.2,0.5 0.4,0.6 0.5,0.6 0.7,-0.2 1.4,-0.3 2.1,-0.4 0.1,0 0.3,-0.2 0.2,-0.8 -0.2,-2.1 -1,-3.7 -1.1,-4.5 -0.1,-0.7 0.5,-1.9 1.6,-1.8 0.9,0 1.7,0 1.8,0 v 50.5 c -0.1,0 -0.9,0 -1.8,0.1 z"
         inkscape:connector-curvature="0"
         style="fill:#de2c6c" />
    </g>
  </g>
</svg>
