<?xml version="1.0" encoding="utf-8"?>
<!-- Generator: Adobe Illustrator 24.1.0, SVG Export Plug-In . SVG Version: 6.00 Build 0)  -->
<svg version="1.1" id="Layer_1" xmlns="http://www.w3.org/2000/svg" xmlns:xlink="http://www.w3.org/1999/xlink" x="0px" y="0px"
	 viewBox="0 0 541.2 102" style="enable-background:new 0 0 541.2 102;" xml:space="preserve">
<style type="text/css">
	.st0{display:none;}
	.st1{display:inline;}
	.st2{fill:#3B9DD8;}
	.st3{fill:#FFFFFF;}
	.st4{display:inline;fill:#DE2C6C;}
	.st5{fill:#DE2C6C;}
	.st6{fill:#F6CF32;}
	.st7{fill:#2E68A5;}
	.st8{display:inline;fill:#706F6F;}
</style>
<g id="Layer_1_1_" class="st0">
	<g class="st1">
		<g>
			<path d="M242.4,45.2l-0.6,3.3c-1.7,9.6-7.4,14.1-14.8,14.1c-7.9,0-13.6-4.5-11.7-15l3.3-18.6c1.7-9.6,7-14.1,14.8-14.1
				c7.5,0,13.6,4.6,11.8,14.7l-0.6,2.9l-8.1,0.5l0.4-2.8c0.8-4.2-0.8-5.9-3.4-5.9s-4.8,1.7-5.5,5.9l-3,17c-0.8,4.4,0.8,6,3.5,6
				c2.7,0,4.7-1.6,5.5-6l0.5-2.7L242.4,45.2z"/>
			<path d="M278.5,29.9l-3.3,18.6c-1.6,9.6-7.7,14.1-15.6,14.1c-7.9,0-14.3-4.5-12.5-15l3.3-18.6c1.7-9.6,7.8-14.1,15.7-14.1
				C273.9,15,280.4,19.5,278.5,29.9z M259.9,30.3l-3.1,17c-0.8,4.4,0.8,6,3.5,6c2.7,0,4.8-1.6,5.5-6l3-17c0.8-4.2-0.8-5.9-3.4-5.9
				C262.8,24.4,260.6,26.1,259.9,30.3z"/>
			<path d="M305,15.6h9L296.8,62h-11.4l-1.2-46.3h10.5l-0.2,30.2L305,15.6z"/>
			<path d="M328.6,15.6L320.4,62h-9.6l8.2-46.3C319,15.7,328.6,15.7,328.6,15.6z"/>
			<path d="M327.7,62l8.2-46.3h12.5c7.9,0,13.6,4.2,11.7,14.4l-3.2,18.2c-1.7,9.6-6.8,13.7-14.7,13.7C342.2,62,327.7,62,327.7,62z
				 M342,53c2.7,0,4.8-1.6,5.5-6l2.9-16.5c0.7-4.2-0.8-5.9-3.5-5.9h-3l-5,28.3C338.9,53,342,53,342,53z"/>
			<path d="M365.2,37.4h17.5l-1.3,7h-17.4L365.2,37.4z"/>
			<path d="M392.5,19.9l8.4-4.2h2L394.7,62H385L392.5,19.9z"/>
			<path d="M421.5,42.3c-1.5,1.9-3.6,3.7-7.3,3.7c-5.9,0-9.7-3.5-8.4-11.1l1.2-6.1c1.6-9.3,6.3-13.8,14.4-13.8
				c8.9,0,13.7,4.5,12.1,13.8l-3.3,18.8c-1.6,9.2-6.1,15.1-15.1,15.1c-9.1,0-12.8-4.6-11.5-11.8l0.3-1.8l8.1-0.6l-0.1,0.8
				c-0.5,2.9,0.4,4.7,3.3,4.7s4.9-2.3,5.5-6.2L421.5,42.3z M423.8,29c0.6-3.5-0.5-5.5-3.3-5.5c-2.9,0-4.6,2-5.3,5.5l-0.8,4.7
				c-0.5,3.3,0.3,5.5,3.3,5.5c2.9,0,4.6-2.2,5.2-5.5L423.8,29z"/>
		</g>
	</g>
	<g class="st1">
		<path class="st2" d="M153.7,16.1v4.6c0.2,0,1.3,0,2.6-0.2c1.4-0.2,2.3,1.5,2.2,2.4c-0.2,1.1-1.2,3.3-1.6,6.2
			c-0.1,0.8,0.2,1,0.3,1.1c1,0.1,2,0.3,2.9,0.6c0.2,0,0.5-0.1,0.7-0.9c0.8-2.8,0.7-5.2,0.9-6.3c0.2-0.9,1.7-2.2,2.9-1.4
			c1.2,0.8,2.3,1.2,2.3,1.2s1.1,0.5,2.5,0.8c1.4,0.3,1.6,2.3,1.1,3.1c-0.6,1-2.4,2.6-3.8,5.2c-0.4,0.7-0.2,1-0.1,1.2
			c0.9,0.5,1.7,1,2.5,1.7c0.1,0,0.5,0.1,1-0.5c1.9-2.3,2.6-4.6,3.3-5.5c0.6-0.8,2.4-1.4,3.3-0.2s1.7,2,1.7,2s0.8,0.9,2,1.7
			c1.2,0.8,0.6,2.7-0.2,3.3c-0.9,0.7-3.2,1.5-5.5,3.3c-0.6,0.5-0.6,0.9-0.6,1c0.6,0.8,1.1,1.6,1.6,2.5c0.1,0.1,0.4,0.3,1.2-0.1
			c2.6-1.4,4.2-3.2,5.1-3.8c0.8-0.5,2.8-0.3,3.1,1.1c0.3,1.4,0.8,2.5,0.8,2.5s0.4,1.1,1.2,2.3c0.8,1.2-0.5,2.7-1.4,2.9
			c-1.1,0.3-3.5,0.1-6.3,0.9c-0.8,0.2-0.9,0.5-0.9,0.7c0.2,1,0.4,1.9,0.6,2.9c0.1,0.1,0.3,0.4,1.1,0.3c2.9-0.3,5.1-1.4,6.2-1.5
			c1-0.2,2.7,0.8,2.4,2.2s-0.2,2.6-0.2,2.6s-0.1,1.2,0.2,2.6c0.2,1.4-1.5,2.3-2.4,2.2c-1.1-0.2-3.3-1.2-6.2-1.5
			c-0.8-0.1-1,0.2-1.1,0.3c-0.1,1-0.3,2-0.6,2.9c0,0.2,0.1,0.5,0.9,0.7c2.8,0.8,5.2,0.7,6.3,0.9c0.9,0.2,2.2,1.7,1.4,2.9
			c-0.8,1.2-1.2,2.3-1.2,2.3s-0.5,1.1-0.8,2.5s-2.3,1.6-3.1,1.1c-1-0.6-2.6-2.4-5.1-3.8c-0.7-0.4-1-0.2-1.2-0.1
			c-0.5,0.8-1.1,1.7-1.6,2.5c-0.1,0.2-0.1,0.5,0.6,1c2.3,1.8,4.6,2.6,5.5,3.3c0.8,0.6,1.4,2.4,0.2,3.3c-1.2,0.8-2,1.7-2,1.7
			s-0.9,0.8-1.7,2c-0.8,1.2-2.7,0.6-3.3-0.2c-0.7-0.9-1.4-3.2-3.3-5.5c-0.5-0.6-0.9-0.6-1-0.6c-0.8,0.6-1.6,1.1-2.5,1.7
			c-0.1,0.1-0.3,0.4,0.1,1.2c1.4,2.6,3.2,4.2,3.8,5.2c0.5,0.8,0.3,2.8-1.1,3.1c-1.4,0.3-2.5,0.8-2.5,0.8s-1.1,0.4-2.3,1.2
			c-1.2,0.8-2.7-0.5-2.9-1.4c-0.3-1.1-0.1-3.5-0.9-6.3c-0.2-0.8-0.6-0.9-0.7-0.9c-0.9,0.2-1.9,0.4-2.9,0.6c-0.1,0.1-0.4,0.3-0.3,1.1
			c0.3,2.9,1.4,5.1,1.6,6.2c0.2,1-0.8,2.7-2.2,2.4c-1.3-0.2-2.3-0.2-2.6-0.2v4.9h37.2l14.7-79.7L153.7,16.1L153.7,16.1z"/>
		<path class="st3" d="M156.3,91.1c1.4,0.2,2.3-1.5,2.2-2.4c-0.2-1.1-1.2-3.3-1.6-6.2c-0.1-0.8,0.2-1,0.3-1.1c1-0.1,2-0.3,2.9-0.6
			c0.2,0,0.5,0.2,0.7,0.9c0.8,2.8,0.7,5.2,0.9,6.3c0.2,0.9,1.7,2.2,2.9,1.4c1.2-0.8,2.3-1.2,2.3-1.2s1.1-0.5,2.5-0.8
			c1.4-0.3,1.6-2.3,1.1-3.1c-0.6-1-2.4-2.6-3.8-5.2c-0.4-0.7-0.2-1-0.1-1.2c0.9-0.5,1.7-1.1,2.5-1.7c0.1-0.1,0.5-0.1,1,0.6
			c1.9,2.3,2.6,4.6,3.3,5.5c0.6,0.8,2.4,1.3,3.3,0.2c0.8-1.2,1.7-2,1.7-2s0.8-0.9,2-1.7s0.6-2.7-0.2-3.3c-0.9-0.7-3.2-1.4-5.5-3.3
			c-0.6-0.5-0.6-0.9-0.6-1c0.6-0.8,1.1-1.6,1.6-2.5c0.1-0.1,0.4-0.3,1.2,0.1c2.6,1.4,4.2,3.2,5.1,3.8c0.8,0.5,2.8,0.3,3.1-1.1
			s0.8-2.5,0.8-2.5s0.4-1.1,1.2-2.3c0.8-1.2-0.5-2.7-1.4-2.9c-1.1-0.3-3.5-0.1-6.3-0.9c-0.8-0.2-0.9-0.5-0.9-0.7
			c0.2-1,0.4-1.9,0.6-2.9c0.1-0.1,0.3-0.4,1.1-0.3c2.9,0.3,5.1,1.4,6.2,1.5c1,0.2,2.7-0.8,2.4-2.2s-0.2-2.6-0.2-2.6
			s-0.1-1.2,0.2-2.6c0.2-1.4-1.5-2.3-2.4-2.2c-1.1,0.2-3.3,1.2-6.2,1.5c-0.8,0.1-1-0.2-1.1-0.3c-0.1-1-0.3-2-0.6-2.9
			c0-0.2,0.1-0.5,0.9-0.7c2.8-0.8,5.2-0.7,6.3-0.9c0.9-0.2,2.2-1.7,1.4-2.9c-0.8-1.2-1.2-2.3-1.2-2.3s-0.5-1.1-0.8-2.5
			c-0.3-1.4-2.3-1.6-3.1-1.1c-1,0.6-2.6,2.4-5.1,3.8c-0.7,0.4-1,0.2-1.2,0.1c-0.5-0.8-1.1-1.7-1.6-2.5c-0.1-0.2-0.1-0.5,0.6-1
			c2.3-1.8,4.6-2.6,5.5-3.3c0.8-0.6,1.4-2.4,0.2-3.3c-1.2-0.8-2-1.7-2-1.7s-0.9-0.8-1.7-2c-0.8-1.2-2.7-0.6-3.3,0.2
			c-0.7,0.9-1.4,3.2-3.3,5.5c-0.5,0.6-0.9,0.6-1,0.5c-0.8-0.6-1.6-1.1-2.5-1.7c-0.1-0.1-0.3-0.5,0.1-1.2c1.4-2.6,3.2-4.2,3.8-5.1
			c0.5-0.8,0.3-2.8-1.1-3.1c-1.4-0.3-2.5-0.8-2.5-0.8s-1.1-0.4-2.3-1.2s-2.7,0.5-2.9,1.4c-0.3,1.1-0.1,3.5-0.9,6.3
			c-0.2,0.8-0.6,0.9-0.7,0.9c-0.9-0.2-1.9-0.4-2.9-0.6c-0.1-0.1-0.4-0.3-0.3-1.1c0.3-2.9,1.4-5.1,1.6-6.2c0.2-1-0.8-2.7-2.2-2.4
			c-1.3,0.2-2.3,0.2-2.6,0.2v70.1C153.9,90.9,155,90.8,156.3,91.1z"/>
	</g>
	<path class="st4" d="M151.2,91.2c-1.4,0.2-2.3-1.5-2.2-2.4c0.2-1.1,1.2-3.3,1.6-6.2c0.1-0.8-0.2-1-0.3-1.1c-1-0.1-2-0.3-2.9-0.6
		c-0.2,0-0.5,0.2-0.7,0.9c-0.8,2.8-0.7,5.2-0.9,6.3c-0.2,0.9-1.7,2.2-2.9,1.4c-1.2-0.8-2.3-1.2-2.3-1.2s-1.1-0.5-2.5-0.8
		c-1.4-0.3-1.6-2.3-1.1-3.1c0.6-1,2.4-2.6,3.8-5.2c0.4-0.7,0.2-1,0.1-1.2c-0.9-0.5-1.7-1.1-2.5-1.7c-0.1-0.1-0.5-0.1-1,0.6
		c-1.9,2.3-2.6,4.6-3.3,5.5c-0.6,0.8-2.4,1.3-3.3,0.2c-0.8-1.2-1.7-2-1.7-2s-0.8-0.9-2-1.7c-1.2-0.8-0.6-2.7,0.2-3.3
		c0.9-0.7,3.2-1.4,5.5-3.3c0.6-0.5,0.6-0.9,0.6-1c-0.6-0.8-1.1-1.6-1.7-2.5c-0.1-0.1-0.4-0.3-1.2,0.1c-2.6,1.4-4.2,3.2-5.2,3.8
		c-0.8,0.5-2.8,0.3-3.1-1.1s-0.8-2.5-0.8-2.5s-0.4-1.1-1.2-2.3c-0.8-1.2,0.5-2.7,1.4-2.9c1.1-0.3,3.5-0.1,6.3-0.9
		c0.8-0.2,0.9-0.5,0.9-0.7c-0.2-1-0.4-1.9-0.6-2.9c-0.1-0.1-0.3-0.4-1.1-0.3c-2.9,0.3-5.1,1.4-6.2,1.5c-1,0.2-2.7-0.8-2.4-2.2
		s0.2-2.6,0.2-2.6s0.1-1.2-0.2-2.6c-0.2-1.4,1.5-2.3,2.4-2.2c1.1,0.2,3.3,1.2,6.2,1.5c0.8,0.1,1-0.2,1.1-0.3c0.1-1,0.3-2,0.6-2.9
		c0-0.2-0.2-0.5-0.9-0.7c-2.8-0.8-5.2-0.7-6.3-0.9c-0.9-0.2-2.2-1.7-1.4-2.9c0.8-1.2,1.2-2.3,1.2-2.3s0.5-1.1,0.8-2.5
		c0.3-1.4,2.3-1.6,3.1-1.1c1,0.6,2.6,2.4,5.2,3.8c0.7,0.4,1,0.2,1.2,0.1c0.5-0.8,1.1-1.7,1.7-2.5c0-0.2,0.1-0.5-0.6-1
		c-2.3-1.8-4.6-2.6-5.5-3.3c-0.8-0.6-1.3-2.4-0.2-3.3c1.2-0.8,2-1.7,2-1.7s0.9-0.8,1.7-2s2.7-0.6,3.3,0.2c0.7,0.9,1.5,3.2,3.3,5.5
		c0.5,0.6,0.9,0.6,1,0.5c0.8-0.6,1.6-1.1,2.5-1.7c0.1-0.1,0.3-0.5-0.1-1.2c-1.4-2.6-3.2-4.2-3.8-5.1c-0.5-0.8-0.3-2.8,1.1-3.1
		c1.4-0.3,2.5-0.8,2.5-0.8s1.1-0.4,2.3-1.2c1.2-0.8,2.7,0.5,2.9,1.4c0.3,1.1,0.1,3.5,0.9,6.3c0.2,0.8,0.6,0.9,0.7,0.9
		c0.9-0.2,1.9-0.4,2.9-0.6c0.1-0.1,0.4-0.3,0.3-1.1c-0.3-2.9-1.4-5.1-1.6-6.2c-0.2-1,0.8-2.7,2.2-2.4c1.3,0.2,2.3,0.2,2.6,0.2V91
		C153.5,91,152.4,91,151.2,91.2z"/>
	<g class="st1">
		<path class="st5" d="M208.6,96.2l4.9-27.8h6.5c4.3,0,7.1,2.5,6,8.2L224,88.2c-1,5.5-3.8,8-8.1,8C215.9,96.2,208.6,96.2,208.6,96.2
			z M215.9,93c2.2,0,4.1-1.5,4.7-5.1l2-11.4c0.6-3.6-0.7-5.1-2.9-5.1h-3.3L212.6,93L215.9,93L215.9,93z"/>
		<path class="st5" d="M227.2,90.1l1.5-8.2c0.7-4.1,2.9-6.3,5.9-6.3c1.9,0,3.3,1,3.6,2.6l0.4-2.2h3.3l-3.6,20.1h-3.3l0.4-2
			c-0.9,1.6-2.2,2.4-4.1,2.4C228.3,96.6,226.5,94.4,227.2,90.1z M236.1,90.1l1.4-7.8c0.4-2.3-0.4-3.6-2.1-3.6s-3,1.3-3.4,3.6
			l-1.4,7.9c-0.4,2.2,0.5,3.5,2.2,3.5C234.5,93.6,235.7,92.4,236.1,90.1z"/>
		<path class="st5" d="M250.6,96c-0.9,0.4-1.9,0.6-3.1,0.6c-2.8,0-4.1-1.6-3.5-4.8l2.3-13h-2.2l0.5-2.7c2.7,0,3.6-0.1,4.8-6.6h2.2
			l-1.2,6.6h3.7l-0.5,2.7h-3.9l-2.2,12.4c-0.3,1.8,0.3,2.3,1.2,2.3c0.9,0,1.8-0.4,2.5-0.8L250.6,96z"/>
		<path class="st5" d="M253.9,90.1l1.5-8.2c0.7-4.1,2.9-6.3,5.9-6.3c1.9,0,3.3,1,3.6,2.6l0.4-2.2h3.3l-3.6,20.1h-3.3l0.4-2
			c-0.9,1.6-2.2,2.4-4.1,2.4C255.1,96.6,253.2,94.4,253.9,90.1z M262.9,90.1l1.3-7.8c0.5-2.3-0.4-3.6-2.1-3.6c-1.7,0-3,1.3-3.4,3.6
			l-1.4,7.9c-0.4,2.2,0.5,3.5,2.2,3.5C261.2,93.6,262.5,92.4,262.9,90.1z"/>
		<path class="st5" d="M279.5,96.2H276l4.9-27.8h6.6c3.9,0,6.3,2.1,5.6,6.3l-0.9,5c-0.7,4.1-3.1,6.2-6.9,6.2h-4.1L279.5,96.2z
			 M288.8,79.3l0.8-4.4c0.4-2.4-0.7-3.4-2.9-3.4h-3l-2,11.4h3C286.9,82.8,288.4,81.8,288.8,79.3z"/>
		<path class="st5" d="M293.4,90l1.4-7.8c0.8-4.4,3.4-6.5,6.9-6.5c3.5,0,6.1,2.1,5.3,6.6l-1.4,7.8c-0.7,4.3-3.4,6.4-6.9,6.4
			C295.3,96.6,292.6,94.5,293.4,90z M302.3,90.1l1.4-7.9c0.4-2.3-0.5-3.6-2.2-3.6c-1.7,0-3,1.3-3.4,3.6l-1.4,7.8
			c-0.4,2.3,0.5,3.5,2.1,3.5C300.6,93.6,301.9,92.4,302.3,90.1z"/>
		<path class="st5" d="M311.8,76.1h3.3l-0.4,2.5c1.1-2.1,2.8-2.9,5.5-2.9l-0.7,3.8c-0.4-0.2-1.3-0.3-1.6-0.3c-2.7,0-3.6,2-4.4,5.9
			l-1.9,11.2h-3.3L311.8,76.1z"/>
		<path class="st5" d="M327.3,96c-0.9,0.4-1.9,0.6-3.1,0.6c-2.8,0-4.1-1.6-3.5-4.8l2.3-13h-2.2l0.5-2.7c2.7,0,3.6-0.1,4.8-6.6h2.2
			l-1.2,6.6h3.7l-0.5,2.7h-3.9l-2.2,12.4c-0.3,1.8,0.3,2.3,1.2,2.3c0.9,0,1.8-0.4,2.5-0.8L327.3,96z"/>
		<path class="st5" d="M330.6,90.1l1.5-8.2c0.7-4.1,2.9-6.3,5.9-6.3c1.8,0,3.3,1,3.6,2.6l0.4-2.2h3.3l-3.6,20.1h-3.3l0.4-2
			c-0.9,1.6-2.2,2.4-4.1,2.4C331.7,96.6,329.9,94.4,330.6,90.1z M339.5,90.1l1.4-7.8c0.5-2.3-0.4-3.6-2.1-3.6s-3,1.3-3.4,3.6
			l-1.4,7.9c-0.4,2.2,0.5,3.5,2.2,3.5C337.9,93.6,339.1,92.4,339.5,90.1z"/>
		<path class="st5" d="M349.2,96.2h-1.5c-1.4,0-1.7-0.6-1.4-1.9l4.5-25.9h3.3L349.2,96.2z"/>
	</g>
</g>
<g>
	<g>
		<path class="st6" d="M51,5.9V11c0.2,0,1.4,0,2.8-0.2c1.5-0.2,2.5,1.6,2.4,2.7c-0.2,1.2-1.4,3.6-1.7,6.8c-0.1,0.9,0.2,1.1,0.4,1.2
			c1.1,0.2,2.2,0.4,3.2,0.6c0.2,0,0.5-0.2,0.8-1c0.9-3.1,0.8-5.7,1-6.9c0.2-1,1.9-2.4,3.2-1.6c1.3,0.8,2.5,1.3,2.5,1.3
			s1.2,0.5,2.7,0.9c1.5,0.4,1.7,2.5,1.2,3.4c-0.7,1-2.6,2.8-4.2,5.6c-0.4,0.8-0.2,1.1-0.1,1.3c0.9,0.5,1.8,1.2,2.7,1.8
			c0.2,0.1,0.6,0.1,1.1-0.6c2-2.5,2.9-5,3.6-6c0.6-0.9,2.6-1.5,3.6-0.2c0.9,1.3,1.9,2.2,1.9,2.2s0.9,1,2.2,1.9
			c1.3,0.9,0.7,2.9-0.2,3.6c-1,0.7-3.5,1.6-6,3.6c-0.7,0.5-0.7,1-0.6,1.1c0.7,0.9,1.2,1.8,1.8,2.7c0.1,0.1,0.5,0.3,1.3-0.1
			c2.8-1.5,4.6-3.5,5.6-4.2c0.9-0.6,3-0.3,3.4,1.2c0.4,1.5,0.9,2.7,0.9,2.7s0.5,1.2,1.3,2.5s-0.5,3-1.6,3.2c-1.2,0.3-3.8,0.1-6.9,1
			c-0.8,0.2-1,0.6-1,0.8c0.3,1,0.5,2.1,0.6,3.2c0.1,0.2,0.3,0.5,1.2,0.4c3.2-0.3,5.6-1.5,6.8-1.7c1-0.2,2.9,0.8,2.7,2.4
			c-0.2,1.5-0.2,2.8-0.2,2.8s0,1.3,0.2,2.8c0.2,1.5-1.6,2.5-2.7,2.4c-1.2-0.2-3.6-1.4-6.8-1.7c-0.9-0.1-1.1,0.2-1.2,0.4
			c-0.2,1.1-0.4,2.2-0.6,3.2c0,0.2,0.2,0.5,1,0.8c3.1,0.9,5.7,0.8,6.9,1c1,0.2,2.4,1.9,1.6,3.2c-0.8,1.3-1.3,2.5-1.3,2.5
			s-0.5,1.2-0.9,2.7s-2.5,1.7-3.4,1.2c-1-0.7-2.8-2.6-5.6-4.2c-0.8-0.4-1.1-0.2-1.3-0.1c-0.5,0.9-1.2,1.8-1.8,2.7
			c-0.1,0.2-0.1,0.6,0.6,1.1c2.5,2,5,2.9,6,3.6c0.9,0.6,1.5,2.6,0.2,3.6S78,76.4,78,76.4s-1,0.9-1.9,2.2s-2.9,0.7-3.6-0.2
			c-0.7-1-1.6-3.5-3.6-6c-0.5-0.7-1-0.7-1.1-0.6c-0.9,0.7-1.8,1.2-2.7,1.8c-0.1,0.1-0.3,0.5,0.1,1.3c1.5,2.8,3.5,4.6,4.2,5.6
			c0.6,0.9,0.3,3-1.2,3.4s-2.7,0.9-2.7,0.9S64.4,85.1,63,86c-1.3,0.8-3-0.5-3.2-1.6c-0.3-1.2-0.1-3.8-1-6.9c-0.2-0.8-0.6-1-0.8-1
			c-1,0.3-2.1,0.5-3.2,0.6c-0.2,0.1-0.5,0.3-0.4,1.2c0.3,3.2,1.5,5.6,1.7,6.8c0.2,1-0.8,2.9-2.4,2.7c-1.4-0.2-2.6-0.2-2.8-0.2V93
			h40.7l16.1-87.1H51z"/>
		<path class="st3" d="M53.8,87.7c1.5,0.2,2.5-1.6,2.4-2.7c-0.2-1.2-1.4-3.6-1.7-6.8c-0.1-0.9,0.2-1.1,0.4-1.2
			c1.1-0.2,2.2-0.4,3.2-0.6c0.2,0,0.5,0.2,0.8,1c0.9,3.1,0.8,5.7,1,6.9c0.2,1,1.9,2.4,3.2,1.6c1.3-0.8,2.5-1.3,2.5-1.3
			s1.2-0.5,2.7-0.9c1.5-0.4,1.7-2.5,1.2-3.4c-0.7-1-2.6-2.8-4.2-5.6c-0.4-0.8-0.2-1.1-0.1-1.3c0.9-0.5,1.8-1.2,2.7-1.8
			c0.2-0.1,0.6-0.1,1.1,0.6c2,2.5,2.9,5,3.6,6c0.6,0.9,2.6,1.5,3.6,0.2c0.9-1.3,1.9-2.2,1.9-2.2s0.9-1,2.2-1.9
			c1.3-0.9,0.7-2.9-0.2-3.6c-1-0.7-3.5-1.6-6-3.6c-0.7-0.5-0.7-1-0.6-1.1c0.7-0.9,1.2-1.8,1.8-2.7c0.1-0.1,0.5-0.3,1.3,0.1
			c2.8,1.5,4.6,3.5,5.6,4.2c0.9,0.6,3,0.3,3.4-1.2s0.9-2.7,0.9-2.7s0.5-1.2,1.3-2.5c0.8-1.3-0.5-3-1.6-3.2c-1.2-0.3-3.8-0.1-6.9-1
			c-0.8-0.2-1-0.6-1-0.8c0.3-1,0.5-2.1,0.6-3.2c0.1-0.2,0.3-0.5,1.2-0.4c3.2,0.3,5.6,1.5,6.8,1.7c1,0.2,2.9-0.8,2.7-2.4
			c-0.2-1.5-0.2-2.8-0.2-2.8s0-1.3,0.2-2.8c0.2-1.5-1.6-2.5-2.7-2.4c-1.2,0.2-3.6,1.4-6.8,1.7c-0.9,0.1-1.1-0.2-1.2-0.4
			c-0.2-1.1-0.4-2.2-0.6-3.2c0-0.2,0.2-0.5,1-0.8c3.1-0.9,5.7-0.8,6.9-1c1-0.2,2.4-1.9,1.6-3.2s-1.3-2.5-1.3-2.5s-0.5-1.2-0.9-2.7
			c-0.4-1.5-2.5-1.7-3.4-1.2c-1,0.7-2.8,2.6-5.6,4.2c-0.8,0.4-1.1,0.2-1.3,0.1c-0.5-0.9-1.2-1.8-1.8-2.7c-0.1-0.2-0.1-0.6,0.6-1.1
			c2.5-2,5-2.9,6-3.6c0.9-0.6,1.5-2.6,0.2-3.6c-1.3-0.9-2.2-1.9-2.2-1.9s-1-0.9-1.9-2.2c-0.9-1.3-2.9-0.7-3.6,0.2
			c-0.7,1-1.6,3.5-3.6,6c-0.5,0.7-1,0.7-1.1,0.6c-0.9-0.7-1.8-1.2-2.7-1.8c-0.1-0.1-0.3-0.5,0.1-1.3c1.5-2.8,3.5-4.6,4.2-5.6
			c0.6-0.9,0.3-3-1.2-3.4c-1.5-0.4-2.7-0.9-2.7-0.9s-1.2-0.5-2.5-1.3c-1.3-0.8-3,0.5-3.2,1.6c-0.3,1.2-0.1,3.8-1,6.9
			c-0.2,0.8-0.6,1-0.8,1c-1-0.3-2.1-0.5-3.2-0.6c-0.2-0.1-0.5-0.3-0.4-1.2c0.3-3.2,1.5-5.6,1.7-6.8c0.2-1-0.8-2.9-2.4-2.7
			c-1.4,0.2-2.6,0.2-2.8,0.2v76.6C51.2,87.5,52.4,87.5,53.8,87.7z"/>
	</g>
	<path class="st7" d="M48.2,87.9c-1.5,0.2-2.5-1.6-2.4-2.7c0.2-1.2,1.4-3.6,1.7-6.8c0.1-0.9-0.2-1.1-0.4-1.2
		c-1.1-0.2-2.2-0.4-3.2-0.6c-0.2,0-0.5,0.2-0.8,1c-0.9,3.1-0.8,5.7-1,6.9c-0.2,1-1.9,2.4-3.2,1.6c-1.3-0.8-2.5-1.3-2.5-1.3
		s-1.2-0.5-2.7-0.9c-1.5-0.4-1.7-2.5-1.2-3.4c0.7-1,2.6-2.8,4.2-5.6c0.4-0.8,0.2-1.1,0.1-1.3c-0.9-0.5-1.8-1.2-2.7-1.8
		c-0.2-0.1-0.6-0.1-1.1,0.6c-2,2.5-2.9,5-3.6,6c-0.6,0.9-2.6,1.5-3.6,0.2S24,76.5,24,76.5s-0.9-1-2.2-1.9S21.2,71.6,22,71
		c1-0.7,3.5-1.6,6-3.6c0.7-0.5,0.7-1,0.6-1.1c-0.7-0.9-1.2-1.8-1.8-2.7c-0.1-0.1-0.5-0.3-1.3,0.1c-2.8,1.5-4.6,3.5-5.6,4.2
		c-0.9,0.6-3,0.3-3.4-1.2S15.6,64,15.6,64s-0.5-1.2-1.3-2.5s0.5-3,1.6-3.2c1.2-0.3,3.8-0.1,6.9-1c0.8-0.2,1-0.6,1-0.8
		c-0.3-1-0.5-2.1-0.6-3.2c-0.1-0.2-0.3-0.5-1.2-0.4c-3.2,0.3-5.6,1.5-6.8,1.7c-1,0.2-2.9-0.8-2.7-2.4c0.2-1.5,0.2-2.8,0.2-2.8
		s0-1.3-0.2-2.8c-0.2-1.5,1.6-2.5,2.7-2.4c1.2,0.2,3.6,1.4,6.8,1.7c0.9,0.1,1.1-0.2,1.2-0.4c0.2-1.1,0.4-2.2,0.6-3.2
		c0-0.2-0.2-0.5-1-0.8c-3.1-0.9-5.7-0.8-6.9-1c-1-0.2-2.4-1.9-1.6-3.2c0.8-1.3,1.3-2.5,1.3-2.5s0.5-1.2,0.9-2.7
		c0.4-1.5,2.5-1.7,3.4-1.2c1,0.7,2.8,2.6,5.6,4.2c0.8,0.4,1.1,0.2,1.3,0.1c0.5-0.9,1.2-1.8,1.8-2.7c0.1-0.2,0.1-0.6-0.6-1.1
		c-2.5-2-5-2.9-6-3.6c-0.9-0.6-1.5-2.6-0.2-3.6c1.3-0.9,2.2-1.9,2.2-1.9s1-0.9,1.9-2.2c0.9-1.3,2.9-0.7,3.6,0.2c0.7,1,1.6,3.5,3.6,6
		c0.5,0.7,1,0.7,1.1,0.6c0.9-0.7,1.8-1.2,2.7-1.8c0.1-0.1,0.3-0.5-0.1-1.3c-1.5-2.8-3.5-4.6-4.2-5.6c-0.6-0.9-0.3-3,1.2-3.4
		c1.5-0.4,2.7-0.9,2.7-0.9s1.2-0.5,2.5-1.3c1.3-0.8,3,0.5,3.2,1.6c0.3,1.2,0.1,3.8,1,6.9c0.2,0.8,0.6,1,0.8,1c1-0.3,2.1-0.5,3.2-0.6
		c0.2-0.1,0.5-0.3,0.4-1.2c-0.3-3.2-1.5-5.6-1.7-6.8c-0.2-1,0.8-2.9,2.4-2.7c1.4,0.2,2.6,0.2,2.8,0.2v76.6
		C50.7,87.7,49.6,87.7,48.2,87.9z"/>
</g>
<g>
	<g>
		<path class="st7" d="M319.4,55.4l7.1-40.4h9.4c6.2,0,10.2,3.7,8.8,11.8l-3,17c-1.4,8-5.5,11.6-11.8,11.6
			C330,55.4,319.4,55.4,319.4,55.4z M330,50.8c3.1,0,5.9-2.1,6.8-7.4l2.9-16.5c0.8-5.2-1.1-7.4-4.2-7.4h-4.8l-5.5,31.2
			C325.2,50.8,330,50.8,330,50.8z"/>
		<path class="st7" d="M345.8,46.6l2.1-11.9c1.1-6,4.2-9.1,8.6-9.1c2.7,0,4.8,1.5,5.3,3.8l0.6-3.2h4.8L362,55.4h-4.8l0.6-2.9
			c-1.3,2.3-3.3,3.5-6,3.5C347.4,56,344.8,52.8,345.8,46.6z M358.8,46.5l2-11.3c0.7-3.4-0.6-5.2-3.1-5.2s-4.4,1.8-5,5.2l-2,11.4
			c-0.6,3.3,0.7,5.1,3.3,5.1C356.4,51.6,358.2,49.8,358.8,46.5z"/>
		<path class="st7" d="M379.2,55.1c-1.2,0.5-2.7,0.9-4.5,0.9c-4,0-5.9-2.3-5.1-7l3.3-18.8h-3.2l0.7-3.9c3.9,0,5.2-0.2,7-9.5h3.1
			l-1.7,9.5h5.4l-0.7,3.9h-5.7l-3.1,18c-0.5,2.6,0.4,3.4,1.8,3.4c1.3,0,2.6-0.5,3.7-1.2L379.2,55.1z"/>
		<path class="st7" d="M383.4,46.6l2.1-11.9c1.1-6,4.2-9.1,8.6-9.1c2.7,0,4.8,1.5,5.3,3.8l0.6-3.2h4.8l-5.2,29.2h-4.8l0.6-2.9
			c-1.3,2.3-3.3,3.5-6,3.5C385,56,382.4,52.8,383.4,46.6z M396.4,46.5l2-11.3c0.7-3.4-0.6-5.2-3.1-5.2s-4.4,1.8-5,5.2l-2,11.4
			c-0.6,3.3,0.7,5.1,3.3,5.1C394,51.6,395.8,49.8,396.4,46.5z"/>
		<path class="st7" d="M419.3,55.4h-5l7.1-40.4h9.6c5.7,0,9.2,3,8.1,9.2l-1.3,7.2c-1,5.9-4.5,8.9-10.1,8.9h-5.9L419.3,55.4z
			 M432.9,30.9l1.1-6.4c0.6-3.5-1.1-5-4.2-5h-4.3L422.7,36h4.4C430.1,36,432.3,34.5,432.9,30.9z"/>
		<path class="st7" d="M438.9,46.4l2-11.3c1.1-6.4,5-9.5,10-9.5c5.1,0,8.9,3.1,7.7,9.6l-2,11.4c-1.1,6.3-4.9,9.3-9.9,9.3
			S437.8,52.9,438.9,46.4z M451.8,46.6l2-11.4c0.6-3.3-0.6-5.2-3.2-5.2c-2.4,0-4.3,1.8-4.9,5.2l-2,11.3c-0.6,3.3,0.6,5.1,3.1,5.1
			C449.3,51.6,451.3,49.8,451.8,46.6z"/>
		<path class="st7" d="M465,26.2h4.8l-0.6,3.6c1.6-3,4-4.2,8-4.2l-1.1,5.5c-0.5-0.3-1.8-0.5-2.3-0.5c-3.9,0-5.3,2.9-6.3,8.5
			l-2.8,16.2h-4.8L465,26.2z"/>
		<path class="st7" d="M486.9,55.1c-1.2,0.5-2.7,0.9-4.5,0.9c-4,0-5.9-2.3-5.1-7l3.3-18.8h-3.2l0.7-3.9c3.9,0,5.2-0.2,7-9.5h3.1
			l-1.7,9.5h5.4l-0.7,3.9h-5.7l-3.1,18c-0.5,2.6,0.4,3.4,1.8,3.4c1.3,0,2.6-0.5,3.7-1.2L486.9,55.1z"/>
		<path class="st7" d="M491.2,46.6l2.1-11.9c1.1-6,4.2-9.1,8.6-9.1c2.7,0,4.8,1.5,5.3,3.8l0.6-3.2h4.8l-5.2,29.2h-4.8l0.6-2.9
			c-1.3,2.3-3.3,3.5-6,3.5C492.8,56,490.1,52.8,491.2,46.6z M504.1,46.5l2-11.3c0.7-3.4-0.6-5.2-3.1-5.2s-4.4,1.8-5,5.2l-2,11.4
			c-0.6,3.3,0.7,5.1,3.3,5.1C501.7,51.6,503.5,49.8,504.1,46.5z"/>
		<path class="st7" d="M517.6,55.4h-2.2c-2,0-2.4-0.8-2.1-2.8l6.6-37.6h4.8L517.6,55.4z"/>
	</g>
	<g>
		<g>
			<path d="M138.6,40.3l-0.6,3c-1.5,8.6-6.6,12.6-13.3,12.6c-7,0-12.2-4-10.5-13.5l2.9-16.6c1.5-8.6,6.3-12.6,13.3-12.6
				c6.7,0,12.2,4.1,10.6,13.1l-0.5,2.6l-7.3,0.5l0.4-2.5c0.7-3.7-0.7-5.3-3.1-5.3c-2.4,0-4.3,1.5-4.9,5.3L123,42.2
				c-0.7,3.9,0.7,5.4,3.1,5.4c2.4,0,4.2-1.5,5-5.4l0.4-2.4L138.6,40.3z"/>
			<path d="M171,26.6l-2.9,16.7c-1.5,8.6-6.9,12.7-14,12.7c-7,0-12.8-4-11.2-13.5l2.9-16.6c1.5-8.6,7-12.6,14.1-12.6
				C166.9,13.3,172.7,17.4,171,26.6z M154.4,27l-2.8,15.2c-0.7,3.9,0.7,5.4,3.1,5.4c2.4,0,4.3-1.5,4.9-5.4l2.7-15.2
				c0.7-3.7-0.7-5.3-3.1-5.3C156.9,21.7,155,23.2,154.4,27z"/>
			<path d="M194.8,13.9h8.1l-15.4,41.5h-10.2l-1.1-41.5h9.4l-0.2,27L194.8,13.9z"/>
			<path d="M215.8,13.9l-7.3,41.5h-8.6l7.3-41.5C207.3,13.9,215.8,13.9,215.8,13.9z"/>
			<path d="M215.1,55.4l7.3-41.5h11.2c7,0,12.2,3.7,10.5,12.9l-2.9,16.3c-1.5,8.6-6.1,12.3-13.1,12.3
				C228.1,55.4,215.1,55.4,215.1,55.4z M227.8,47.3c2.4,0,4.3-1.5,4.9-5.4l2.6-14.7c0.6-3.7-0.7-5.3-3.1-5.3h-2.7l-4.5,25.4
				L227.8,47.3L227.8,47.3z"/>
			<path d="M248.6,33.6h15.6l-1.2,6.3h-15.6L248.6,33.6z"/>
			<path d="M273,17.7l7.5-3.8h1.8l-7.3,41.5h-8.7L273,17.7z"/>
			<path d="M299,37.8c-1.3,1.7-3.2,3.3-6.5,3.3c-5.3,0-8.7-3.2-7.5-10l1-5.5c1.4-8.3,5.6-12.4,12.9-12.4c8,0,12.3,4,10.8,12.4
				l-3,16.9c-1.5,8.2-5.4,13.5-13.5,13.5c-8.1,0-11.5-4.2-10.3-10.6l0.2-1.6l7.3-0.5l0,0.7c-0.5,2.6,0.4,4.2,2.9,4.2s4.3-2.1,5-5.6
				L299,37.8z M301,25.9c0.5-3.1-0.4-4.9-2.9-4.9c-2.6,0-4.1,1.8-4.7,4.9l-0.7,4.2c-0.5,2.9,0.3,4.9,2.9,4.9s4.2-2,4.6-4.9L301,25.9
				z"/>
		</g>
	</g>
</g>
<g class="st0">
	<path class="st8" d="M106.1,91.9l-2.1,3.6h-2.5l9.5-16.6l4.5,16.6h-2.4l-0.9-3.6L106.1,91.9L106.1,91.9z M107.2,89.9h4.4l-1.4-5.5
		L107.2,89.9z"/>
	<path class="st8" d="M125.5,87l-0.4,2.3c-0.4-0.6-0.8-1-1.2-1.2s-0.9-0.4-1.4-0.4c-0.8,0-1.6,0.3-2.1,0.9c-0.6,0.6-0.9,1.4-0.9,2.4
		c-0.1,0.9,0.2,1.7,0.7,2.2c0.5,0.6,1.1,0.8,1.9,0.8c0.8,0,1.6-0.3,2.5-1l-0.4,2.3c-0.9,0.3-1.7,0.5-2.5,0.5c-1.4,0-2.5-0.4-3.3-1.3
		s-1.2-2.1-1.1-3.5c0.1-1.5,0.6-2.7,1.6-3.7c1-1,2.2-1.5,3.6-1.5C123.5,85.8,124.6,86.2,125.5,87z"/>
	<path class="st8" d="M135,87l-0.4,2.3c-0.4-0.6-0.8-1-1.2-1.2c-0.4-0.2-0.9-0.4-1.4-0.4c-0.8,0-1.6,0.3-2.1,0.9
		c-0.6,0.6-0.9,1.4-0.9,2.4c-0.1,0.9,0.2,1.7,0.6,2.2c0.5,0.6,1.1,0.8,1.9,0.8c0.8,0,1.6-0.3,2.5-1l-0.4,2.3
		c-0.9,0.3-1.7,0.5-2.5,0.5c-1.4,0-2.5-0.4-3.3-1.3c-0.8-0.9-1.2-2.1-1.1-3.5c0.1-1.5,0.6-2.7,1.6-3.7c1-1,2.2-1.5,3.6-1.5
		C132.9,85.8,134,86.2,135,87z"/>
	<path class="st8" d="M138.3,91.6c0,0.7,0.2,1.3,0.6,1.7c0.5,0.4,1.1,0.7,1.8,0.7c1,0,1.9-0.4,2.4-1.2l1.6,0.9
		c-0.6,0.8-1.2,1.3-1.9,1.6c-0.6,0.3-1.4,0.5-2.3,0.5c-1.5,0-2.6-0.4-3.4-1.3c-0.8-0.9-1.2-2-1.1-3.5c0.1-1.5,0.6-2.8,1.6-3.8
		c1-1,2.2-1.5,3.7-1.5c1.4,0,2.5,0.4,3.2,1.4c0.8,0.9,1.1,2.1,1,3.7c0,0.2,0,0.4-0.1,0.8L138.3,91.6L138.3,91.6z M143.4,89.8
		c-0.2-1.5-0.9-2.2-2.3-2.2c-1.3,0-2.2,0.7-2.7,2.2H143.4z"/>
	<path class="st8" d="M152.5,78.6l-3,16.9h-2.2l3-16.9H152.5z"/>
	<path class="st8" d="M155.1,91.6c0,0.7,0.2,1.3,0.6,1.7c0.5,0.4,1.1,0.7,1.8,0.7c1,0,1.8-0.4,2.4-1.2l1.6,0.9
		c-0.6,0.8-1.2,1.3-1.9,1.6c-0.6,0.3-1.4,0.5-2.3,0.5c-1.5,0-2.6-0.4-3.4-1.3c-0.8-0.9-1.2-2-1.1-3.5c0.1-1.5,0.6-2.8,1.6-3.8
		c1-1,2.2-1.5,3.7-1.5c1.4,0,2.5,0.4,3.2,1.4c0.8,0.9,1.1,2.1,1,3.7c0,0.2,0,0.4-0.1,0.8L155.1,91.6L155.1,91.6z M160.3,89.8
		c-0.2-1.5-0.9-2.2-2.3-2.2c-1.3,0-2.2,0.7-2.7,2.2H160.3z"/>
	<path class="st8" d="M168,86.1l-0.1,0.8c0.8-0.7,1.6-1.1,2.3-1.1c0.7,0,1.3,0.2,1.8,0.7l-1.5,1.8c-0.4-0.3-0.8-0.5-1.2-0.5
		c-0.3,0-0.5,0.1-0.8,0.2s-0.4,0.3-0.6,0.5s-0.3,0.5-0.4,0.9c-0.1,0.4-0.2,0.8-0.3,1.3l-0.8,4.7h-2.2l1.7-9.4L168,86.1L168,86.1z"/>
	<path class="st8" d="M182.8,86.1l-1.7,9.4h-2.2l0.2-1c-1,0.8-2,1.2-3,1.2c-1.2,0-2.2-0.4-3-1.3s-1.1-1.9-1-3.3
		c0.1-1.6,0.6-2.8,1.6-3.8c1-1,2.2-1.5,3.6-1.5c0.7,0,1.2,0.1,1.7,0.3s0.9,0.6,1.4,1.1l0.2-1.2L182.8,86.1L182.8,86.1z M179.9,90.5
		c0-0.8-0.2-1.5-0.6-2c-0.4-0.5-1.1-0.8-1.8-0.8c-0.8,0-1.5,0.3-2.1,1c-0.6,0.7-0.9,1.5-1,2.4c0,0.8,0.2,1.5,0.6,2s1,0.8,1.8,0.8
		c0.8,0,1.5-0.3,2.2-1C179.5,92.2,179.8,91.4,179.9,90.5z"/>
	<path class="st8" d="M187.9,88.1l-1.3,7.4h-2.2l1.3-7.4h-1.2l0.4-2.1h1.2l0.8-4.4h2.2l-0.8,4.4h2.1l-0.4,2.1H187.9z"/>
	<path class="st8" d="M194.1,86.1l-1.7,9.4h-2.2l1.7-9.4H194.1z M195.1,81.6c0,0.3-0.1,0.6-0.4,0.8c-0.2,0.2-0.5,0.3-0.9,0.3
		s-0.6-0.1-0.8-0.4c-0.2-0.2-0.3-0.5-0.3-0.9c0-0.3,0.1-0.6,0.4-0.8c0.2-0.2,0.5-0.3,0.9-0.3c0.3,0,0.6,0.1,0.8,0.4
		C195,81,195.1,81.2,195.1,81.6z"/>
	<path class="st8" d="M199.4,86.1l-0.1,0.9c0.9-0.7,1.8-1.1,2.7-1.1c0.9,0,1.6,0.3,2.2,0.8c0.5,0.5,0.8,1.2,0.7,2.1
		c0,0.5-0.1,1.1-0.2,1.7l-0.9,5.1h-2.2l1-5.6c0-0.2,0.1-0.4,0.1-0.6c0-0.2,0-0.3,0-0.4c0-0.9-0.4-1.3-1.3-1.3
		c-0.6,0-1.1,0.2-1.5,0.5c-0.4,0.3-0.6,0.6-0.8,1c-0.1,0.2-0.2,0.4-0.3,0.7s-0.1,0.6-0.2,1l-0.8,4.6h-2.2l1.7-9.4L199.4,86.1
		L199.4,86.1z"/>
	<path class="st8" d="M218,86.1l-1.7,9.5c-0.1,0.6-0.2,1.1-0.3,1.5c-0.1,0.4-0.2,0.8-0.4,1.1c-0.3,0.6-0.6,1.1-1.1,1.5
		c-0.9,0.8-2.1,1.2-3.6,1.2c-1.5,0-2.7-0.4-3.5-1.2c-0.4-0.4-0.8-0.8-0.9-1.3c-0.2-0.4-0.2-1.1-0.2-1.9h2.1c0,0.9,0.2,1.5,0.6,1.9
		c0.4,0.4,1,0.6,1.8,0.6c0.9,0,1.6-0.2,2.1-0.7c0.5-0.5,0.8-1.3,1-2.3l0.2-1.3c-1,0.7-2,1.1-3,1.1c-1.3,0-2.3-0.4-3.1-1.3
		c-0.8-0.9-1.1-2-1.1-3.3c0.1-1.5,0.6-2.8,1.6-3.7c1-1,2.3-1.5,3.7-1.5c0.7,0,1.3,0.1,1.7,0.3c0.5,0.2,0.9,0.6,1.4,1.1l0.2-1.2
		L218,86.1L218,86.1z M215.3,90.6c0-0.9-0.2-1.5-0.7-2.1s-1.2-0.8-2-0.8c-0.9,0-1.6,0.3-2.2,1c-0.6,0.6-0.9,1.4-1,2.4
		c0,0.8,0.2,1.5,0.6,2.1c0.5,0.5,1.1,0.8,1.9,0.8c0.9,0,1.7-0.3,2.3-0.9C214.9,92.3,215.2,91.5,215.3,90.6z"/>
	<path class="st8" d="M229.7,86.1l-0.1,0.8c0.8-0.7,1.6-1.1,2.3-1.1c0.7,0,1.3,0.2,1.8,0.7l-1.5,1.8c-0.4-0.3-0.8-0.5-1.2-0.5
		c-0.3,0-0.5,0.1-0.8,0.2s-0.4,0.3-0.6,0.5s-0.3,0.5-0.4,0.9c-0.1,0.4-0.2,0.8-0.3,1.3l-0.8,4.7h-2.2l1.7-9.4L229.7,86.1L229.7,86.1
		z"/>
	<path class="st8" d="M236,91.6c0,0.7,0.2,1.3,0.6,1.7c0.5,0.4,1.1,0.7,1.8,0.7c1,0,1.9-0.4,2.4-1.2l1.6,0.9
		c-0.6,0.8-1.2,1.3-1.9,1.6c-0.6,0.3-1.4,0.5-2.3,0.5c-1.5,0-2.6-0.4-3.4-1.3c-0.8-0.9-1.2-2-1.1-3.5c0.1-1.5,0.6-2.8,1.6-3.8
		c1-1,2.2-1.5,3.7-1.5c1.4,0,2.5,0.4,3.2,1.4c0.8,0.9,1.1,2.1,1,3.7c0,0.2,0,0.4-0.1,0.8L236,91.6L236,91.6z M241.2,89.8
		c-0.2-1.5-0.9-2.2-2.3-2.2c-1.3,0-2.2,0.7-2.7,2.2H241.2z"/>
	<path class="st8" d="M252.3,87.1l-1.3,1.2c-0.6-0.5-1.1-0.8-1.6-0.8c-0.3,0-0.6,0.1-0.9,0.3s-0.4,0.4-0.4,0.7
		c0,0.3,0.1,0.5,0.2,0.7c0.2,0.2,0.6,0.4,1.1,0.8c0.8,0.5,1.4,0.9,1.6,1.3c0.3,0.4,0.4,0.9,0.4,1.5c-0.1,0.9-0.4,1.6-1.1,2.2
		c-0.7,0.5-1.5,0.8-2.5,0.8c-1.4,0-2.5-0.6-3.3-1.9l1.5-1c0.6,0.7,1.2,1.1,1.9,1.1c0.4,0,0.7-0.1,0.9-0.3c0.2-0.2,0.4-0.5,0.4-0.8
		c0-0.3-0.1-0.5-0.3-0.7c-0.1-0.1-0.2-0.2-0.5-0.4c-0.2-0.2-0.5-0.3-0.9-0.6c-0.7-0.4-1.2-0.8-1.4-1.2c-0.2-0.4-0.4-0.9-0.3-1.4
		c0-0.9,0.4-1.6,1.1-2.1c0.7-0.6,1.5-0.8,2.4-0.8C250.5,85.8,251.5,86.2,252.3,87.1z"/>
	<path class="st8" d="M255.9,91.6c0,0.7,0.2,1.3,0.6,1.7c0.5,0.4,1.1,0.7,1.8,0.7c1,0,1.8-0.4,2.4-1.2l1.6,0.9
		c-0.6,0.8-1.2,1.3-1.9,1.6c-0.6,0.3-1.4,0.5-2.3,0.5c-1.5,0-2.6-0.4-3.4-1.3c-0.8-0.9-1.2-2-1.1-3.5c0.1-1.5,0.6-2.8,1.6-3.8
		c1-1,2.2-1.5,3.7-1.5c1.4,0,2.5,0.4,3.2,1.4c0.8,0.9,1.1,2.1,1,3.7c0,0.2,0,0.4-0.1,0.8L255.9,91.6L255.9,91.6z M261,89.8
		c-0.2-1.5-0.9-2.2-2.3-2.2c-1.3,0-2.2,0.7-2.7,2.2H261z"/>
	<path class="st8" d="M275.9,86.1l-1.7,9.4H272l0.2-1c-1,0.8-2,1.2-3,1.2c-1.2,0-2.2-0.4-3-1.3s-1.1-1.9-1-3.3
		c0.1-1.6,0.6-2.8,1.5-3.8c1-1,2.2-1.5,3.6-1.5c0.7,0,1.2,0.1,1.7,0.3c0.5,0.2,0.9,0.6,1.4,1.1l0.2-1.2L275.9,86.1L275.9,86.1z
		 M272.9,90.5c0-0.8-0.2-1.5-0.6-2c-0.4-0.5-1.1-0.8-1.8-0.8c-0.8,0-1.5,0.3-2.1,1c-0.6,0.7-0.9,1.5-1,2.4c0,0.8,0.1,1.5,0.6,2
		s1,0.8,1.8,0.8c0.8,0,1.5-0.3,2.2-1C272.5,92.2,272.9,91.4,272.9,90.5z"/>
	<path class="st8" d="M281.2,86.1l-0.1,0.8c0.8-0.7,1.6-1.1,2.3-1.1c0.7,0,1.3,0.2,1.8,0.7l-1.5,1.8c-0.4-0.3-0.8-0.5-1.2-0.5
		c-0.3,0-0.5,0.1-0.8,0.2c-0.2,0.1-0.4,0.3-0.6,0.5s-0.3,0.5-0.4,0.9c-0.1,0.4-0.2,0.8-0.3,1.3l-0.8,4.7h-2.2l1.7-9.4L281.2,86.1
		L281.2,86.1z"/>
	<path class="st8" d="M293.6,87l-0.4,2.3c-0.4-0.6-0.8-1-1.2-1.2s-0.9-0.4-1.4-0.4c-0.8,0-1.5,0.3-2.1,0.9c-0.6,0.6-0.9,1.4-0.9,2.4
		c0,0.9,0.2,1.7,0.6,2.2c0.5,0.6,1.1,0.8,2,0.8c0.8,0,1.6-0.3,2.5-1l-0.4,2.3c-0.9,0.3-1.7,0.5-2.5,0.5c-1.4,0-2.5-0.4-3.3-1.3
		s-1.2-2.1-1.1-3.5c0.1-1.5,0.6-2.7,1.6-3.7c1-1,2.2-1.5,3.6-1.5C291.6,85.8,292.6,86.2,293.6,87z"/>
	<path class="st8" d="M300,78.6l-1.5,8.3c0.9-0.7,1.9-1,2.8-1c0.9,0,1.6,0.2,2.2,0.7c0.5,0.5,0.8,1.1,0.8,1.9c0,0.2,0,0.4-0.1,0.6
		s-0.1,0.5-0.1,0.8l-1,5.6h-2.2l1-5.7c0.1-0.3,0.1-0.6,0.1-0.8c0-0.8-0.4-1.3-1.4-1.3c-1.4,0-2.3,1-2.6,2.9l-0.9,4.9h-2.2l3-16.9
		L300,78.6L300,78.6z"/>
	<path class="st8" d="M316.1,88.1l-1.3,7.4h-2.2l1.3-7.4h-1.2l0.4-2.1h1.2l0.8-4.4h2.2l-0.8,4.4h2l-0.4,2.1H316.1z"/>
	<path class="st8" d="M323.9,78.6l-1.5,8.3c0.9-0.7,1.9-1,2.8-1c0.9,0,1.6,0.2,2.2,0.7c0.5,0.5,0.8,1.1,0.8,1.9c0,0.2,0,0.4-0.1,0.6
		s-0.1,0.5-0.1,0.8l-1,5.6h-2.2l1-5.7c0.1-0.3,0.1-0.6,0.1-0.8c0-0.8-0.4-1.3-1.4-1.3c-1.4,0-2.3,1-2.6,2.9l-0.9,4.9h-2.2l3-16.9
		L323.9,78.6L323.9,78.6z"/>
	<path class="st8" d="M333.9,86.1l-0.1,0.8c0.8-0.7,1.6-1.1,2.3-1.1c0.7,0,1.3,0.2,1.8,0.7l-1.5,1.8c-0.4-0.3-0.8-0.5-1.2-0.5
		c-0.3,0-0.5,0.1-0.8,0.2s-0.4,0.3-0.6,0.5c-0.2,0.2-0.3,0.5-0.4,0.9c-0.1,0.4-0.2,0.8-0.3,1.3l-0.8,4.7H330l1.7-9.4L333.9,86.1
		L333.9,86.1z"/>
	<path class="st8" d="M348.4,90.7c-0.1,1.4-0.6,2.7-1.7,3.6c-1,1-2.3,1.5-3.8,1.5c-1.5,0-2.8-0.5-3.7-1.4c-0.9-0.9-1.4-2.1-1.3-3.6
		c0.1-1.5,0.6-2.7,1.7-3.7c1.1-1,2.4-1.5,3.9-1.5c1.5,0,2.7,0.5,3.6,1.4C348.1,88.1,348.5,89.2,348.4,90.7z M346.2,90.6
		c0-0.9-0.2-1.6-0.7-2.2c-0.5-0.6-1.2-0.8-2-0.8c-0.9,0-1.6,0.3-2.3,0.9c-0.6,0.6-1,1.4-1,2.3c0,0.9,0.2,1.7,0.7,2.3
		c0.5,0.6,1.2,0.9,2.1,0.9s1.6-0.3,2.2-0.9C345.8,92.4,346.1,91.6,346.2,90.6z"/>
	<path class="st8" d="M359.9,86.1l-1,5.5c-0.1,0.5-0.2,0.9-0.3,1.2c-0.1,0.3-0.2,0.6-0.3,0.9c-0.2,0.4-0.5,0.8-1,1.2
		c-0.8,0.6-1.8,0.9-3,0.9c-1.2,0-2.1-0.3-2.7-0.9c-0.7-0.6-1-1.4-0.9-2.4c0-0.2,0-0.3,0-0.5c0-0.2,0.1-0.4,0.1-0.7l0.9-5.1h2.2
		l-0.9,5.3c0,0.2-0.1,0.4-0.1,0.6s0,0.3,0,0.4c0,1,0.5,1.5,1.7,1.5c0.6,0,1.1-0.2,1.4-0.5c0.3-0.3,0.5-0.9,0.7-1.7l1-5.6H359.9z"/>
	<path class="st8" d="M372.5,86.1l-1.7,9.5c-0.1,0.6-0.2,1.1-0.3,1.5c-0.1,0.4-0.2,0.8-0.4,1.1c-0.3,0.6-0.6,1.1-1.1,1.5
		c-0.9,0.8-2.1,1.2-3.5,1.2c-1.5,0-2.7-0.4-3.5-1.2c-0.5-0.4-0.8-0.8-0.9-1.3c-0.2-0.4-0.2-1.1-0.2-1.9h2.1c0,0.9,0.2,1.5,0.6,1.9
		c0.4,0.4,1,0.6,1.8,0.6c0.9,0,1.6-0.2,2.1-0.7c0.5-0.5,0.8-1.3,1-2.3l0.2-1.3c-1,0.7-2,1.1-3,1.1c-1.3,0-2.3-0.4-3.1-1.3
		c-0.8-0.9-1.1-2-1.1-3.3c0.1-1.5,0.6-2.8,1.6-3.7c1-1,2.3-1.5,3.7-1.5c0.7,0,1.3,0.1,1.7,0.3c0.5,0.2,0.9,0.6,1.4,1.1l0.2-1.2
		L372.5,86.1L372.5,86.1z M369.7,90.6c0-0.9-0.2-1.5-0.7-2.1c-0.5-0.5-1.2-0.8-2-0.8c-0.9,0-1.6,0.3-2.2,1c-0.6,0.6-0.9,1.4-1,2.4
		c0,0.8,0.2,1.5,0.6,2.1c0.5,0.5,1.1,0.8,2,0.8c0.9,0,1.7-0.3,2.3-0.9C369.3,92.3,369.7,91.5,369.7,90.6z"/>
	<path class="st8" d="M379.1,78.6l-1.5,8.3c0.9-0.7,1.9-1,2.8-1c0.9,0,1.6,0.2,2.2,0.7c0.5,0.5,0.8,1.1,0.8,1.9c0,0.2,0,0.4-0.1,0.6
		s-0.1,0.5-0.1,0.8l-1,5.6H380l1-5.7c0.1-0.3,0.1-0.6,0.1-0.8c0-0.8-0.4-1.3-1.4-1.3c-1.4,0-2.3,1-2.6,2.9l-0.9,4.9h-2.2l3-16.9
		L379.1,78.6L379.1,78.6z"/>
	<path class="st8" d="M404.1,78.6l-3,16.9h-2.2l0.2-1c-0.6,0.5-1.1,0.8-1.5,1c-0.4,0.2-0.9,0.2-1.5,0.2c-1.3,0-2.4-0.4-3.2-1.3
		c-0.8-0.9-1.2-2-1.1-3.4c0.1-1.5,0.6-2.7,1.6-3.7s2.2-1.5,3.6-1.5c0.7,0,1.3,0.1,1.8,0.4c0.5,0.2,1,0.7,1.5,1.3l1.6-8.9H404.1z
		 M399.9,90.4c0-0.8-0.2-1.4-0.6-1.9c-0.5-0.5-1.1-0.7-1.9-0.7c-0.9,0-1.6,0.3-2.2,1s-0.9,1.5-1,2.5c0,0.8,0.2,1.5,0.6,2
		c0.5,0.5,1.1,0.8,1.9,0.8c0.8,0,1.6-0.3,2.2-1C399.5,92.2,399.8,91.4,399.9,90.4z"/>
	<path class="st8" d="M415.4,86.1l-1.7,9.4h-2.2l0.2-1c-1,0.8-2,1.2-3,1.2c-1.2,0-2.2-0.4-3-1.3c-0.8-0.8-1.1-1.9-1-3.3
		c0.1-1.6,0.6-2.8,1.6-3.8c1-1,2.2-1.5,3.6-1.5c0.7,0,1.2,0.1,1.7,0.3s0.9,0.6,1.4,1.1l0.2-1.2L415.4,86.1L415.4,86.1z M412.4,90.5
		c0-0.8-0.2-1.5-0.6-2c-0.5-0.5-1.1-0.8-1.8-0.8c-0.8,0-1.5,0.3-2.1,1c-0.6,0.7-0.9,1.5-1,2.4c0,0.8,0.1,1.5,0.6,2s1,0.8,1.8,0.8
		c0.8,0,1.5-0.3,2.2-1C412,92.2,412.4,91.4,412.4,90.5z"/>
	<path class="st8" d="M420.5,88.1l-1.3,7.4h-2.2l1.3-7.4H417l0.4-2.1h1.2l0.8-4.4h2.2l-0.8,4.4h2l-0.4,2.1H420.5z"/>
	<path class="st8" d="M434.1,86.1l-1.7,9.4h-2.2l0.2-1c-1,0.8-2,1.2-3,1.2c-1.2,0-2.2-0.4-3-1.3c-0.8-0.8-1.1-1.9-1-3.3
		c0.1-1.6,0.6-2.8,1.6-3.8c1-1,2.2-1.5,3.6-1.5c0.7,0,1.2,0.1,1.7,0.3s0.9,0.6,1.4,1.1l0.2-1.2L434.1,86.1L434.1,86.1z M431.2,90.5
		c0-0.8-0.2-1.5-0.6-2c-0.5-0.5-1.1-0.8-1.8-0.8c-0.8,0-1.5,0.3-2.1,1c-0.6,0.7-0.9,1.5-1,2.4c0,0.8,0.1,1.5,0.6,2s1,0.8,1.8,0.8
		c0.8,0,1.5-0.3,2.2-1C430.8,92.2,431.1,91.4,431.2,90.5z"/>
	<path class="st8" d="M449.1,87.1l-1.3,1.2c-0.6-0.5-1.1-0.8-1.6-0.8c-0.3,0-0.6,0.1-0.9,0.3c-0.2,0.2-0.4,0.4-0.4,0.7
		c0,0.3,0.1,0.5,0.2,0.7c0.2,0.2,0.6,0.4,1.1,0.8c0.8,0.5,1.4,0.9,1.6,1.3c0.3,0.4,0.4,0.9,0.4,1.5c0,0.9-0.4,1.6-1,2.2
		c-0.7,0.5-1.5,0.8-2.5,0.8c-1.4,0-2.5-0.6-3.3-1.9l1.5-1c0.6,0.7,1.2,1.1,1.9,1.1c0.4,0,0.7-0.1,0.9-0.3c0.2-0.2,0.4-0.5,0.4-0.8
		c0-0.3-0.1-0.5-0.2-0.7c-0.1-0.1-0.2-0.2-0.5-0.4c-0.2-0.2-0.5-0.3-0.9-0.6c-0.7-0.4-1.2-0.8-1.4-1.2c-0.2-0.4-0.4-0.9-0.3-1.4
		c0-0.9,0.4-1.6,1-2.1s1.5-0.8,2.4-0.8C447.3,85.8,448.3,86.2,449.1,87.1z"/>
	<path class="st8" d="M455.4,78.6l-1.5,8.3c0.9-0.7,1.9-1,2.8-1c0.9,0,1.6,0.2,2.2,0.7c0.5,0.5,0.8,1.1,0.8,1.9c0,0.2,0,0.4-0.1,0.6
		s-0.1,0.5-0.1,0.8l-1,5.6h-2.2l1-5.7c0.1-0.3,0.1-0.6,0.1-0.8c0-0.8-0.4-1.3-1.4-1.3c-1.4,0-2.3,1-2.6,2.9l-0.9,4.9h-2.2l3-16.9
		L455.4,78.6L455.4,78.6z"/>
	<path class="st8" d="M472.5,86.1l-1.7,9.4h-2.2l0.2-1c-1,0.8-2,1.2-3,1.2c-1.2,0-2.2-0.4-3-1.3c-0.8-0.8-1.1-1.9-1-3.3
		c0.1-1.6,0.6-2.8,1.6-3.8c1-1,2.2-1.5,3.6-1.5c0.7,0,1.2,0.1,1.7,0.3s0.9,0.6,1.4,1.1l0.2-1.2L472.5,86.1L472.5,86.1z M469.5,90.5
		c0-0.8-0.2-1.5-0.6-2c-0.5-0.5-1.1-0.8-1.8-0.8c-0.8,0-1.5,0.3-2.1,1c-0.6,0.7-0.9,1.5-1,2.4c0,0.8,0.1,1.5,0.6,2s1,0.8,1.8,0.8
		c0.8,0,1.5-0.3,2.2-1C469.2,92.2,469.5,91.4,469.5,90.5z"/>
	<path class="st8" d="M477.8,86.1l-0.1,0.8c0.8-0.7,1.6-1.1,2.3-1.1c0.7,0,1.3,0.2,1.8,0.7l-1.5,1.8c-0.4-0.3-0.8-0.5-1.2-0.5
		c-0.3,0-0.5,0.1-0.8,0.2s-0.4,0.3-0.6,0.5c-0.2,0.2-0.3,0.5-0.4,0.9c-0.1,0.4-0.2,0.8-0.3,1.3l-0.8,4.7h-2.2l1.7-9.4L477.8,86.1
		L477.8,86.1z"/>
	<path class="st8" d="M485.8,86.1l-1.7,9.4H482l1.7-9.4H485.8z M486.8,81.6c0,0.3-0.1,0.6-0.4,0.8c-0.2,0.2-0.5,0.3-0.9,0.3
		s-0.6-0.1-0.8-0.4c-0.2-0.2-0.3-0.5-0.3-0.9c0-0.3,0.1-0.6,0.4-0.8c0.2-0.2,0.5-0.3,0.9-0.3c0.3,0,0.6,0.1,0.8,0.4
		C486.7,81,486.8,81.2,486.8,81.6z"/>
	<path class="st8" d="M491.1,86.1l-0.1,0.9c0.9-0.7,1.8-1.1,2.7-1.1c0.9,0,1.6,0.3,2.2,0.8c0.5,0.5,0.8,1.2,0.7,2.1
		c0,0.5-0.1,1.1-0.2,1.7l-0.9,5.1h-2.2l1-5.6c0-0.2,0.1-0.4,0.1-0.6c0-0.2,0-0.3,0-0.4c0-0.9-0.4-1.3-1.3-1.3
		c-0.6,0-1.1,0.2-1.5,0.5c-0.4,0.3-0.6,0.6-0.8,1c-0.1,0.2-0.2,0.4-0.3,0.7c-0.1,0.3-0.1,0.6-0.2,1l-0.8,4.6h-2.2l1.7-9.4
		L491.1,86.1L491.1,86.1z"/>
	<path class="st8" d="M509.7,86.1l-1.7,9.5c-0.1,0.6-0.2,1.1-0.3,1.5c-0.1,0.4-0.2,0.8-0.4,1.1c-0.3,0.6-0.6,1.1-1.1,1.5
		c-0.9,0.8-2.1,1.2-3.5,1.2c-1.5,0-2.7-0.4-3.5-1.2c-0.5-0.4-0.8-0.8-0.9-1.3c-0.2-0.4-0.2-1.1-0.2-1.9h2.1c0,0.9,0.2,1.5,0.6,1.9
		c0.4,0.4,1,0.6,1.8,0.6c0.9,0,1.6-0.2,2.1-0.7c0.5-0.5,0.8-1.3,1-2.3l0.2-1.3c-1,0.7-2,1.1-3,1.1c-1.3,0-2.3-0.4-3.1-1.3
		c-0.8-0.9-1.1-2-1.1-3.3c0.1-1.5,0.6-2.8,1.6-3.7c1-1,2.3-1.5,3.7-1.5c0.7,0,1.3,0.1,1.7,0.3c0.5,0.2,0.9,0.6,1.4,1.1l0.2-1.2
		L509.7,86.1L509.7,86.1z M507,90.6c0-0.9-0.2-1.5-0.7-2.1c-0.5-0.5-1.2-0.8-2-0.8c-0.9,0-1.6,0.3-2.2,1c-0.6,0.6-0.9,1.4-1,2.4
		c0,0.8,0.2,1.5,0.6,2.1c0.5,0.5,1.1,0.8,2,0.8c0.9,0,1.7-0.3,2.3-0.9C506.6,92.3,506.9,91.5,507,90.6z"/>
</g>
<g>
	<path class="st7" d="M120.6,86.4c0.1-1.1,0-2-0.5-2.7s-1.5-1.4-3-2.1s-2.7-1.3-3.5-2c-1.7-1.4-2.4-3.3-2.3-5.4
		c0.2-2.1,1-3.8,2.5-5.1s3.3-2,5.5-2c2.1,0,3.7,0.8,4.9,2.2s1.7,3.3,1.6,5.5h-3.2c0.1-1.6-0.1-2.8-0.7-3.7s-1.5-1.3-2.7-1.3
		c-1.3,0-2.3,0.4-3.2,1.2s-1.4,1.8-1.5,3.1c-0.1,1,0.1,1.8,0.7,2.5c0.6,0.7,1.5,1.4,2.9,2s2.5,1.2,3.3,1.9c1.8,1.4,2.5,3.4,2.3,5.8
		c-0.2,2.1-1,3.8-2.5,5.1s-3.4,1.9-5.7,1.9c-2.1,0-3.9-0.8-5.2-2.2s-1.9-3.3-1.8-5.5l3.2,0c-0.1,1.5,0.2,2.7,0.8,3.6
		s1.7,1.4,3.1,1.4c1.3,0,2.4-0.3,3.3-1.1S120.4,87.7,120.6,86.4z"/>
	<path class="st7" d="M141.1,87.5l5.2-13.5h3.1l-7.8,19h-2.4l-1.2-13.6L132,93h-2.4l-1.2-19h2.9l0.6,13.1l5.7-13.1h2.4L141.1,87.5z"
		/>
	<path class="st7" d="M156.3,93.4c-2.1,0-3.7-0.8-4.8-2.3s-1.4-3.6-1.2-6.2l0.2-1.9c0.4-3,1.3-5.3,2.7-6.9s3.3-2.5,5.5-2.4
		c1.8,0,3.2,0.7,4.1,1.9s1.3,2.9,1.3,5l-0.2,2.1l-0.3,1.8l-10.2,0c-0.2,1.1-0.2,1.9-0.2,2.5c0,1.2,0.3,2.1,0.9,2.8s1.4,1,2.4,1
		c0.8,0,1.5-0.1,2.2-0.4s1.5-0.9,2.3-1.7l1.4,2c-0.8,1-1.7,1.7-2.8,2.2S157.6,93.4,156.3,93.4z M158.6,76.3
		c-2.1-0.1-3.5,1.2-4.4,3.8l-0.5,1.7l7.3,0l0.1-0.5c0.1-0.5,0.1-1.1,0.1-1.7C161.2,77.5,160.3,76.4,158.6,76.3z"/>
	<path class="st7" d="M174.4,73.6c1.7,0,3,0.8,3.9,2.2l1.8-9.9h3l-4.7,27h-2.8l0.3-2c-1.3,1.6-2.8,2.4-4.5,2.4
		c-1.6,0-2.8-0.6-3.7-1.8s-1.3-2.9-1.3-5.2c0-1,0.1-2.4,0.4-4.1s0.7-3.2,1.2-4.4C169.6,74.9,171.6,73.6,174.4,73.6z M169.6,87.1
		c0.1,2.3,1,3.5,2.9,3.6c0.7,0,1.3-0.1,1.9-0.5s1.2-1,1.8-1.8l1.7-9.6c-0.6-1.5-1.6-2.2-2.9-2.3c-2.8-0.1-4.5,1.9-5,6.1
		C169.7,84.6,169.6,86.1,169.6,87.1z"/>
	<path class="st7" d="M190.4,93.4c-2.1,0-3.7-0.8-4.8-2.3s-1.4-3.6-1.2-6.2l0.2-1.9c0.4-3,1.3-5.3,2.7-6.9s3.3-2.5,5.5-2.4
		c1.8,0,3.2,0.7,4.1,1.9s1.3,2.9,1.3,5l-0.2,2.1l-0.3,1.8l-10.2,0c-0.2,1.1-0.2,1.9-0.2,2.5c0,1.2,0.3,2.1,0.9,2.8s1.4,1,2.4,1
		c0.8,0,1.5-0.1,2.2-0.4s1.5-0.9,2.3-1.7l1.4,2c-0.8,1-1.7,1.7-2.8,2.2S191.6,93.4,190.4,93.4z M192.6,76.3
		c-2.1-0.1-3.5,1.2-4.4,3.8l-0.5,1.7l7.3,0l0.1-0.5c0.1-0.5,0.1-1.1,0.1-1.7C195.3,77.5,194.4,76.4,192.6,76.3z"/>
	<path class="st7" d="M206,74l-0.4,2.1c1.4-1.6,3-2.4,4.7-2.4c1.2,0,2.2,0.4,2.9,1.2s1.1,1.9,1.2,3.3c0,0.8,0,1.6-0.1,2.4L212.2,93
		h-3l2.1-12.5l0.1-1.4c0-1.8-0.7-2.7-2.2-2.7c-1.2,0-2.3,0.7-3.4,2.1l-0.5,0.8L202.8,93h-3l3.3-19L206,74z"/>
</g>
</svg>
