<?xml version="1.0" encoding="utf-8"?>
<!-- Generator: Adobe Illustrator 24.1.2, SVG Export Plug-In . SVG Version: 6.00 Build 0)  -->
<svg version="1.1" id="Layer_1" xmlns="http://www.w3.org/2000/svg" xmlns:xlink="http://www.w3.org/1999/xlink" x="0px" y="0px"
	 viewBox="0 0 106 106" style="enable-background:new 0 0 106 106;" xml:space="preserve">
<style type="text/css">
	.st0{fill:#F6CF32;}
	.st1{fill:#FFFFFF;}
	.st2{fill:#2E68A5;}
</style>
<g>
	<g>
		<path class="st0" d="M45.5,8.9V14c0.2,0,1.4,0,2.8-0.2c1.5-0.2,2.5,1.6,2.4,2.7c-0.2,1.2-1.4,3.6-1.7,6.8
			c-0.1,0.9,0.2,1.1,0.4,1.2c1.1,0.2,2.2,0.4,3.2,0.6c0.2,0,0.5-0.2,0.8-1c0.9-3.1,0.8-5.7,1-6.9c0.2-1,1.9-2.4,3.2-1.6
			c1.3,0.8,2.5,1.3,2.5,1.3s1.2,0.5,2.7,0.9c1.5,0.4,1.7,2.5,1.2,3.4c-0.7,1-2.6,2.8-4.2,5.6c-0.4,0.8-0.2,1.1-0.1,1.3
			c0.9,0.5,1.8,1.2,2.7,1.8c0.2,0.1,0.6,0.1,1.1-0.6c2-2.5,2.9-5,3.6-6c0.6-0.9,2.6-1.5,3.6-0.2c0.9,1.3,1.9,2.2,1.9,2.2
			s0.9,1,2.2,1.9c1.3,0.9,0.7,2.9-0.2,3.6c-1,0.7-3.5,1.6-6,3.6c-0.7,0.5-0.7,1-0.6,1.1c0.7,0.9,1.2,1.8,1.8,2.7
			c0.1,0.1,0.5,0.3,1.3-0.1c2.8-1.5,4.6-3.5,5.6-4.2c0.9-0.6,3-0.3,3.4,1.2c0.4,1.5,0.9,2.7,0.9,2.7s0.5,1.2,1.3,2.5s-0.5,3-1.6,3.2
			c-1.2,0.3-3.8,0.1-6.9,1c-0.8,0.2-1,0.6-1,0.8c0.3,1,0.5,2.1,0.6,3.2c0.1,0.2,0.3,0.5,1.2,0.4c3.2-0.3,5.6-1.5,6.8-1.7
			c1-0.2,2.9,0.8,2.7,2.4c-0.2,1.5-0.2,2.8-0.2,2.8s0,1.3,0.2,2.8c0.2,1.5-1.6,2.5-2.7,2.4c-1.2-0.2-3.6-1.4-6.8-1.7
			c-0.9-0.1-1.1,0.2-1.2,0.4c-0.2,1.1-0.4,2.2-0.6,3.2c0,0.2,0.2,0.5,1,0.8c3.1,0.9,5.7,0.8,6.9,1c1,0.2,2.4,1.9,1.6,3.2
			c-0.8,1.3-1.3,2.5-1.3,2.5s-0.5,1.2-0.9,2.7s-2.5,1.7-3.4,1.2c-1-0.7-2.8-2.6-5.6-4.2c-0.8-0.4-1.1-0.2-1.3-0.1
			c-0.5,0.9-1.2,1.8-1.8,2.7c-0.1,0.2-0.1,0.6,0.6,1.1c2.5,2,5,2.9,6,3.6c0.9,0.6,1.5,2.6,0.2,3.6s-2.2,1.9-2.2,1.9s-1,0.9-1.9,2.2
			s-2.9,0.7-3.6-0.2c-0.7-1-1.6-3.5-3.6-6c-0.5-0.7-1-0.7-1.1-0.6c-0.9,0.7-1.8,1.2-2.7,1.8c-0.1,0.1-0.3,0.5,0.1,1.3
			c1.5,2.8,3.5,4.6,4.2,5.6c0.6,0.9,0.3,3-1.2,3.4c-1.5,0.4-2.7,0.9-2.7,0.9s-1.2,0.5-2.5,1.3c-1.3,0.8-3-0.5-3.2-1.6
			c-0.3-1.2-0.1-3.8-1-6.9c-0.2-0.8-0.6-1-0.8-1c-1,0.3-2.1,0.5-3.2,0.6c-0.2,0.1-0.5,0.3-0.4,1.2c0.3,3.2,1.5,5.6,1.7,6.8
			c0.2,1-0.8,2.9-2.4,2.7c-1.4-0.2-2.6-0.2-2.8-0.2V96h40.7l16.1-87.1H45.5z"/>
		<path class="st1" d="M48.3,90.7c1.5,0.2,2.5-1.6,2.4-2.7c-0.2-1.2-1.4-3.6-1.7-6.8c-0.1-0.9,0.2-1.1,0.4-1.2
			c1.1-0.2,2.2-0.4,3.2-0.6c0.2,0,0.5,0.2,0.8,1c0.9,3.1,0.8,5.7,1,6.9c0.2,1,1.9,2.4,3.2,1.6c1.3-0.8,2.5-1.3,2.5-1.3
			s1.2-0.5,2.7-0.9c1.5-0.4,1.7-2.5,1.2-3.4c-0.7-1-2.6-2.8-4.2-5.6c-0.4-0.8-0.2-1.1-0.1-1.3c0.9-0.5,1.8-1.2,2.7-1.8
			c0.2-0.1,0.6-0.1,1.1,0.6c2,2.5,2.9,5,3.6,6c0.6,0.9,2.6,1.5,3.6,0.2c0.9-1.3,1.9-2.2,1.9-2.2s0.9-1,2.2-1.9
			c1.3-0.9,0.7-2.9-0.2-3.6c-1-0.7-3.5-1.6-6-3.6c-0.7-0.5-0.7-1-0.6-1.1c0.7-0.9,1.2-1.8,1.8-2.7c0.1-0.1,0.5-0.3,1.3,0.1
			c2.8,1.5,4.6,3.5,5.6,4.2c0.9,0.6,3,0.3,3.4-1.2s0.9-2.7,0.9-2.7s0.5-1.2,1.3-2.5s-0.5-3-1.6-3.2c-1.2-0.3-3.8-0.1-6.9-1
			c-0.8-0.2-1-0.6-1-0.8c0.3-1,0.5-2.1,0.6-3.2c0.1-0.2,0.3-0.5,1.2-0.4c3.2,0.3,5.6,1.5,6.8,1.7c1,0.2,2.9-0.8,2.7-2.4
			c-0.2-1.5-0.2-2.8-0.2-2.8s0-1.3,0.2-2.8c0.2-1.5-1.6-2.5-2.7-2.4c-1.2,0.2-3.6,1.4-6.8,1.7c-0.9,0.1-1.1-0.2-1.2-0.4
			c-0.2-1.1-0.4-2.2-0.6-3.2c0-0.2,0.2-0.5,1-0.8c3.1-0.9,5.7-0.8,6.9-1c1-0.2,2.4-1.9,1.6-3.2s-1.3-2.5-1.3-2.5s-0.5-1.2-0.9-2.7
			c-0.4-1.5-2.5-1.7-3.4-1.2c-1,0.7-2.8,2.6-5.6,4.2c-0.8,0.4-1.1,0.2-1.3,0.1c-0.5-0.9-1.2-1.8-1.8-2.7c-0.1-0.2-0.1-0.6,0.6-1.1
			c2.5-2,5-2.9,6-3.6c0.9-0.6,1.5-2.6,0.2-3.6c-1.3-0.9-2.2-1.9-2.2-1.9s-1-0.9-1.9-2.2c-0.9-1.3-2.9-0.7-3.6,0.2
			c-0.7,1-1.6,3.5-3.6,6c-0.5,0.7-1,0.7-1.1,0.6c-0.9-0.7-1.8-1.2-2.7-1.8c-0.1-0.1-0.3-0.5,0.1-1.3c1.5-2.8,3.5-4.6,4.2-5.6
			c0.6-0.9,0.3-3-1.2-3.4c-1.5-0.4-2.7-0.9-2.7-0.9s-1.2-0.5-2.5-1.3s-3,0.5-3.2,1.6c-0.3,1.2-0.1,3.8-1,6.9c-0.2,0.8-0.6,1-0.8,1
			c-1-0.3-2.1-0.5-3.2-0.6c-0.2-0.1-0.5-0.3-0.4-1.2c0.3-3.2,1.5-5.6,1.7-6.8c0.2-1-0.8-2.9-2.4-2.7c-1.4,0.2-2.6,0.2-2.8,0.2v76.6
			C45.7,90.5,46.9,90.5,48.3,90.7z"/>
	</g>
	<path class="st2" d="M42.7,90.9c-1.5,0.2-2.5-1.6-2.4-2.7c0.2-1.2,1.4-3.6,1.7-6.8c0.1-0.9-0.2-1.1-0.4-1.2
		c-1.1-0.2-2.2-0.4-3.2-0.6c-0.2,0-0.5,0.2-0.8,1c-0.9,3.1-0.8,5.7-1,6.9c-0.2,1-1.9,2.4-3.2,1.6c-1.3-0.8-2.5-1.3-2.5-1.3
		s-1.2-0.5-2.7-0.9c-1.5-0.4-1.7-2.5-1.2-3.4c0.7-1,2.6-2.8,4.2-5.6c0.4-0.8,0.2-1.1,0.1-1.3c-0.9-0.5-1.8-1.2-2.7-1.8
		c-0.2-0.1-0.6-0.1-1.1,0.6c-2,2.5-2.9,5-3.6,6c-0.6,0.9-2.6,1.5-3.6,0.2s-1.9-2.2-1.9-2.2s-0.9-1-2.2-1.9s-0.7-2.9,0.2-3.6
		c1-0.7,3.5-1.6,6-3.6c0.7-0.5,0.7-1,0.6-1.1c-0.7-0.9-1.2-1.8-1.8-2.7c-0.1-0.1-0.5-0.3-1.3,0.1c-2.8,1.5-4.6,3.5-5.6,4.2
		c-0.9,0.6-3,0.3-3.4-1.2S10.1,67,10.1,67s-0.5-1.2-1.3-2.5c-0.8-1.3,0.5-3,1.6-3.2c1.2-0.3,3.8-0.1,6.9-1c0.8-0.2,1-0.6,1-0.8
		c-0.3-1-0.5-2.1-0.6-3.2c-0.1-0.2-0.3-0.5-1.2-0.4c-3.2,0.3-5.6,1.5-6.8,1.7c-1,0.2-2.9-0.8-2.7-2.4s0.2-2.8,0.2-2.8s0-1.3-0.2-2.8
		s1.6-2.5,2.7-2.4c1.2,0.2,3.6,1.4,6.8,1.7c0.9,0.1,1.1-0.2,1.2-0.4c0.2-1.1,0.4-2.2,0.6-3.2c0-0.2-0.2-0.5-1-0.8
		c-3.1-0.9-5.7-0.8-6.9-1c-1-0.2-2.4-1.9-1.6-3.2c0.8-1.3,1.3-2.5,1.3-2.5s0.5-1.2,0.9-2.7c0.4-1.5,2.5-1.7,3.4-1.2
		c1,0.7,2.8,2.6,5.6,4.2c0.8,0.4,1.1,0.2,1.3,0.1c0.5-0.9,1.2-1.8,1.8-2.7c0.1-0.2,0.1-0.6-0.6-1.1c-2.5-2-5-2.9-6-3.6
		c-0.9-0.6-1.5-2.6-0.2-3.6c1.3-0.9,2.2-1.9,2.2-1.9s1-0.9,1.9-2.2c0.9-1.3,2.9-0.7,3.6,0.2c0.7,1,1.6,3.5,3.6,6
		c0.5,0.7,1,0.7,1.1,0.6c0.9-0.7,1.8-1.2,2.7-1.8c0.1-0.1,0.3-0.5-0.1-1.3c-1.5-2.8-3.5-4.6-4.2-5.6c-0.6-0.9-0.3-3,1.2-3.4
		c1.5-0.4,2.7-0.9,2.7-0.9s1.2-0.5,2.5-1.3c1.3-0.8,3,0.5,3.2,1.6c0.3,1.2,0.1,3.8,1,6.9c0.2,0.8,0.6,1,0.8,1c1-0.3,2.1-0.5,3.2-0.6
		c0.2-0.1,0.5-0.3,0.4-1.2c-0.3-3.2-1.5-5.6-1.7-6.8c-0.2-1,0.8-2.9,2.4-2.7c1.4,0.2,2.6,0.2,2.8,0.2v76.6
		C45.2,90.7,44.1,90.7,42.7,90.9z"/>
</g>
</svg>
