<?xml version="1.0" encoding="UTF-8" standalone="no"?>
<!-- Generator: Adobe Illustrator 24.1.2, SVG Export Plug-In . SVG Version: 6.00 Build 0)  -->

<svg
   xmlns:dc="http://purl.org/dc/elements/1.1/"
   xmlns:cc="http://creativecommons.org/ns#"
   xmlns:rdf="http://www.w3.org/1999/02/22-rdf-syntax-ns#"
   xmlns:svg="http://www.w3.org/2000/svg"
   xmlns="http://www.w3.org/2000/svg"
   xmlns:sodipodi="http://sodipodi.sourceforge.net/DTD/sodipodi-0.dtd"
   xmlns:inkscape="http://www.inkscape.org/namespaces/inkscape"
   version="1.1"
   id="Layer_1"
   x="0px"
   y="0px"
   viewBox="0 0 479.62069 85.503926"
   enable-background="new 0 0 582.1 172.1"
   xml:space="preserve"
   sodipodi:docname="CV19DP_logo_oneliner_SWE.svg"
   width="479.62067"
   height="85.503929"
   inkscape:version="0.92.4 5da689c313, 2019-01-14"><metadata
   id="metadata75"><rdf:RDF><cc:Work
       rdf:about=""><dc:format>image/svg+xml</dc:format><dc:type
         rdf:resource="http://purl.org/dc/dcmitype/StillImage" /><dc:title></dc:title></cc:Work></rdf:RDF></metadata><defs
   id="defs73" /><sodipodi:namedview
   pagecolor="#ffffff"
   bordercolor="#666666"
   borderopacity="1"
   objecttolerance="10"
   gridtolerance="10"
   guidetolerance="10"
   inkscape:pageopacity="0"
   inkscape:pageshadow="2"
   inkscape:window-width="766"
   inkscape:window-height="480"
   id="namedview71"
   showgrid="false"
   fit-margin-top="0"
   fit-margin-left="0"
   fit-margin-right="0"
   fit-margin-bottom="0"
   inkscape:zoom="0.33648615"
   inkscape:cx="217.46332"
   inkscape:cy="94.470999"
   inkscape:window-x="0"
   inkscape:window-y="0"
   inkscape:window-maximized="0"
   inkscape:current-layer="Layer_1" />
<g
   id="g68"
   transform="translate(-49.77933,-45.4)">
	<g
   id="g6">
		<path
   d="m 75,45.5 v 3.3 c 0.2,0 0.9,0 1.8,-0.1 1,-0.2 1.7,1.1 1.6,1.8 -0.1,0.8 -0.9,2.4 -1.1,4.5 -0.1,0.6 0.1,0.8 0.2,0.8 0.7,0.1 1.4,0.2 2.1,0.4 0.1,0 0.4,-0.1 0.5,-0.6 0.6,-2 0.5,-3.8 0.7,-4.6 0.2,-0.7 1.2,-1.6 2.1,-1 0.9,0.5 1.7,0.8 1.7,0.8 0,0 0.8,0.4 1.8,0.6 1,0.2 1.1,1.6 0.8,2.2 -0.4,0.7 -1.7,1.9 -2.8,3.7 -0.3,0.5 -0.2,0.7 -0.1,0.8 0.6,0.4 1.2,0.8 1.8,1.2 0.1,0 0.4,0.1 0.7,-0.4 1.3,-1.6 1.9,-3.3 2.4,-4 0.4,-0.6 1.7,-1 2.3,-0.1 0.6,0.8 1.2,1.4 1.2,1.4 0,0 0.6,0.6 1.4,1.2 0.8,0.6 0.4,1.9 -0.1,2.3 -0.7,0.5 -2.3,1 -4,2.4 -0.4,0.4 -0.4,0.6 -0.4,0.7 0.4,0.6 0.8,1.2 1.2,1.8 0.1,0.1 0.3,0.2 0.8,-0.1 1.9,-1 3,-2.3 3.7,-2.8 0.6,-0.4 2,-0.2 2.2,0.8 0.2,1 0.6,1.8 0.6,1.8 0,0 0.3,0.8 0.8,1.7 0.5,0.9 -0.3,2 -1,2.1 -0.8,0.2 -2.5,0.1 -4.6,0.7 -0.5,0.2 -0.6,0.4 -0.6,0.5 0.2,0.7 0.3,1.4 0.4,2.1 0,0.1 0.2,0.3 0.8,0.2 2.1,-0.2 3.7,-1 4.5,-1.1 0.7,-0.1 1.9,0.5 1.8,1.6 -0.2,1 -0.1,1.9 -0.1,1.9 0,0 0,0.9 0.1,1.9 0.2,1 -1.1,1.7 -1.8,1.6 -0.8,-0.1 -2.4,-0.9 -4.5,-1.1 -0.6,-0.1 -0.8,0.1 -0.8,0.2 -0.1,0.7 -0.2,1.4 -0.4,2.1 0,0.1 0.1,0.4 0.6,0.5 2,0.6 3.8,0.5 4.6,0.7 0.7,0.2 1.6,1.2 1,2.1 -0.5,0.9 -0.8,1.7 -0.8,1.7 0,0 -0.4,0.8 -0.6,1.8 -0.2,1 -1.6,1.1 -2.2,0.8 -0.7,-0.4 -1.9,-1.7 -3.7,-2.8 -0.5,-0.3 -0.7,-0.2 -0.8,-0.1 -0.4,0.6 -0.8,1.2 -1.2,1.8 0,0.1 -0.1,0.4 0.4,0.7 1.6,1.3 3.3,1.9 4,2.4 0.6,0.4 1,1.7 0.1,2.3 -0.8,0.6 -1.4,1.2 -1.4,1.2 0,0 -0.6,0.6 -1.2,1.4 -0.6,0.8 -1.9,0.4 -2.3,-0.1 -0.5,-0.7 -1,-2.3 -2.4,-4 -0.4,-0.4 -0.6,-0.4 -0.7,-0.4 -0.6,0.4 -1.2,0.8 -1.8,1.2 -0.1,0.1 -0.2,0.3 0.1,0.8 1,1.9 2.3,3 2.8,3.7 0.4,0.6 0.2,2 -0.8,2.2 -1,0.2 -1.8,0.6 -1.8,0.6 0,0 -0.8,0.3 -1.7,0.8 -0.9,0.5 -2,-0.3 -2.1,-1 -0.2,-0.8 -0.1,-2.5 -0.7,-4.6 -0.2,-0.5 -0.4,-0.6 -0.5,-0.6 -0.7,0.2 -1.4,0.3 -2.1,0.4 -0.1,0 -0.3,0.2 -0.2,0.8 0.2,2.1 1,3.7 1.1,4.5 0.1,0.7 -0.5,1.9 -1.6,1.8 -0.9,-0.1 -1.7,-0.1 -1.8,-0.1 v 3.6 h 26.8 L 112.4,45.4 H 75 Z"
   id="path2"
   inkscape:connector-curvature="0"
   style="fill:#3b9dd8" />
		<path
   d="m 76.9,99.5 c 1,0.2 1.7,-1.1 1.6,-1.8 -0.1,-0.8 -0.9,-2.4 -1.1,-4.5 -0.1,-0.6 0.1,-0.8 0.2,-0.8 0.7,-0.1 1.4,-0.2 2.1,-0.4 0.1,0 0.4,0.1 0.5,0.6 0.6,2 0.5,3.8 0.7,4.6 0.2,0.7 1.2,1.6 2.1,1 0.9,-0.5 1.7,-0.8 1.7,-0.8 0,0 0.8,-0.4 1.8,-0.6 1,-0.2 1.1,-1.6 0.8,-2.2 -0.4,-0.7 -1.7,-1.9 -2.8,-3.7 -0.3,-0.5 -0.2,-0.7 -0.1,-0.8 0.6,-0.4 1.2,-0.8 1.8,-1.2 0.1,0 0.4,-0.1 0.7,0.4 1.3,1.6 1.9,3.3 2.4,4 0.4,0.6 1.7,1 2.3,0.1 0.6,-0.8 1.2,-1.4 1.2,-1.4 0,0 0.6,-0.6 1.4,-1.2 0.8,-0.6 0.4,-1.9 -0.1,-2.3 -0.7,-0.5 -2.3,-1 -4,-2.4 -0.4,-0.4 -0.4,-0.6 -0.4,-0.7 0.4,-0.6 0.8,-1.2 1.2,-1.8 0.1,-0.1 0.3,-0.2 0.8,0.1 1.9,1 3,2.3 3.7,2.8 0.6,0.4 2,0.2 2.2,-0.8 0.2,-1 0.6,-1.8 0.6,-1.8 0,0 0.3,-0.8 0.8,-1.7 0.5,-0.9 -0.3,-2 -1,-2.1 -0.8,-0.2 -2.5,-0.1 -4.6,-0.7 -0.5,-0.2 -0.6,-0.4 -0.6,-0.5 0.2,-0.7 0.3,-1.4 0.4,-2.1 0,-0.1 0.2,-0.3 0.8,-0.2 2.1,0.2 3.7,1 4.5,1.1 0.7,0.1 1.9,-0.5 1.8,-1.6 -0.2,-1 -0.1,-1.9 -0.1,-1.9 0,0 0,-0.9 0.1,-1.9 0.2,-1 -1.1,-1.7 -1.8,-1.6 -0.8,0.1 -2.4,0.9 -4.5,1.1 -0.6,0.1 -0.8,-0.1 -0.8,-0.2 -0.1,-0.7 -0.2,-1.4 -0.4,-2.1 0,-0.1 0.1,-0.4 0.6,-0.5 2,-0.6 3.8,-0.5 4.6,-0.7 0.7,-0.2 1.6,-1.2 1,-2.1 -0.5,-0.9 -0.8,-1.7 -0.8,-1.7 0,0 -0.4,-0.8 -0.6,-1.8 -0.2,-1 -1.6,-1.1 -2.2,-0.8 -0.7,0.4 -1.9,1.7 -3.7,2.8 -0.5,0.3 -0.7,0.2 -0.8,0.1 -0.4,-0.6 -0.8,-1.2 -1.2,-1.8 0,-0.1 -0.1,-0.4 0.4,-0.7 1.6,-1.3 3.3,-1.9 4,-2.4 0.6,-0.4 1,-1.7 0.1,-2.3 -0.8,-0.6 -1.4,-1.2 -1.4,-1.2 0,0 -0.6,-0.6 -1.2,-1.4 -0.6,-1 -1.9,-0.6 -2.3,0 -0.5,0.7 -1,2.3 -2.4,4 -0.4,0.4 -0.6,0.4 -0.7,0.4 -0.6,-0.4 -1.2,-0.8 -1.8,-1.2 -0.1,-0.1 -0.2,-0.3 0.1,-0.8 1,-1.9 2.3,-3 2.8,-3.7 0.4,-0.6 0.2,-2 -0.8,-2.2 -1,-0.2 -1.8,-0.6 -1.8,-0.6 0,0 -0.8,-0.4 -1.7,-0.9 -0.9,-0.5 -2,0.3 -2.1,1 -0.2,0.8 -0.1,2.5 -0.7,4.6 -0.2,0.5 -0.4,0.6 -0.5,0.6 -0.7,-0.2 -1.4,-0.3 -2.1,-0.4 -0.1,0 -0.3,-0.2 -0.2,-0.8 0.2,-2.1 1,-3.7 1.1,-4.5 0.1,-0.7 -0.5,-1.9 -1.6,-1.8 -0.9,0.1 -1.7,0.1 -1.8,0.1 v 50.5 c 0.1,0.1 0.9,0.1 1.8,0.2 z"
   id="path4"
   inkscape:connector-curvature="0"
   style="fill:#ffffff" />
	</g>
	<path
   d="m 73.2,99.6 c -1,0.2 -1.7,-1.1 -1.6,-1.8 0.1,-0.8 0.9,-2.4 1.1,-4.5 0.1,-0.6 -0.1,-0.8 -0.2,-0.8 -0.7,-0.1 -1.4,-0.2 -2.1,-0.4 -0.1,0 -0.4,0.1 -0.5,0.6 -0.6,2 -0.5,3.8 -0.7,4.6 -0.2,0.7 -1.2,1.6 -2.1,1 -0.9,-0.5 -1.7,-0.8 -1.7,-0.8 0,0 -0.8,-0.4 -1.8,-0.6 -1,-0.2 -1.1,-1.6 -0.8,-2.2 0.4,-0.7 1.7,-1.9 2.8,-3.7 0.3,-0.5 0.2,-0.7 0.1,-0.8 -0.6,-0.4 -1.2,-0.8 -1.8,-1.2 -0.1,0 -0.4,-0.1 -0.7,0.4 -1.3,1.6 -1.9,3.3 -2.4,4 -0.4,0.6 -1.7,1 -2.3,0.1 -0.6,-0.8 -1.2,-1.4 -1.2,-1.4 0,0 -0.6,-0.6 -1.4,-1.2 -0.8,-0.6 -0.4,-1.9 0.1,-2.3 0.7,-0.5 2.3,-1 4,-2.4 0.4,-0.4 0.4,-0.6 0.4,-0.7 -0.4,-0.6 -0.8,-1.2 -1.2,-1.8 -0.1,-0.1 -0.3,-0.2 -0.8,0.1 -1.9,1 -3,2.3 -3.7,2.8 -0.6,0.4 -2,0.2 -2.2,-0.8 -0.2,-1 -0.6,-1.8 -0.6,-1.8 0,0 -0.3,-0.8 -0.8,-1.7 -0.5,-0.9 0.3,-2 1,-2.1 0.8,-0.2 2.5,-0.1 4.6,-0.7 0.5,-0.2 0.6,-0.4 0.6,-0.5 -0.2,-0.7 -0.3,-1.4 -0.4,-2.1 0,-0.1 -0.2,-0.3 -0.8,-0.2 -2.1,0.2 -3.7,1 -4.5,1.1 -0.7,0.1 -1.9,-0.5 -1.8,-1.6 0.2,-1 0.1,-1.9 0.1,-1.9 0,0 0,-0.9 -0.1,-1.9 -0.2,-1 1.1,-1.7 1.8,-1.6 0.8,0.1 2.4,0.9 4.5,1.1 0.6,0.1 0.8,-0.1 0.8,-0.2 0.1,-0.7 0.2,-1.4 0.4,-2.1 0,-0.1 -0.1,-0.4 -0.6,-0.5 -2,-0.6 -3.8,-0.5 -4.6,-0.7 -0.7,-0.2 -1.6,-1.2 -1,-2.1 0.5,-0.9 0.8,-1.7 0.8,-1.7 0,0 0.4,-0.8 0.6,-1.8 0.2,-1 1.6,-1.1 2.2,-0.8 0.7,0.4 1.9,1.7 3.7,2.8 0.5,0.3 0.7,0.2 0.8,0.1 0.4,-0.6 0.8,-1.2 1.2,-1.8 0,-0.1 0.1,-0.4 -0.4,-0.7 -1.6,-1.3 -3.3,-1.9 -4,-2.4 -0.6,-0.4 -1,-1.7 -0.1,-2.3 0.8,-0.6 1.4,-1.2 1.4,-1.2 0,0 0.6,-0.6 1.2,-1.4 0.6,-0.8 1.9,-0.4 2.3,0.1 0.5,0.7 1,2.3 2.4,4 0.4,0.4 0.6,0.4 0.7,0.4 0.6,-0.4 1.2,-0.8 1.8,-1.2 0.1,-0.1 0.2,-0.3 -0.1,-0.8 -1,-1.9 -2.3,-3 -2.8,-3.7 -0.4,-0.6 -0.2,-2 0.8,-2.2 1,-0.2 1.8,-0.6 1.8,-0.6 0,0 0.8,-0.3 1.7,-0.8 0.9,-0.5 2,0.3 2.1,1 0.2,0.8 0.1,2.5 0.7,4.6 0.2,0.5 0.4,0.6 0.5,0.6 0.7,-0.2 1.4,-0.3 2.1,-0.4 0.1,0 0.3,-0.2 0.2,-0.8 -0.2,-2.1 -1,-3.7 -1.1,-4.5 -0.1,-0.7 0.5,-1.9 1.6,-1.8 0.9,0 1.7,0 1.8,0 v 50.5 c -0.1,0 -0.9,0 -1.8,0.1 z"
   id="path8"
   inkscape:connector-curvature="0"
   style="fill:#de2c6c" />
	<g
   id="g52">
		<g
   id="g30">
			<path
   d="m 324.2,95 7.1,-40.4 h 9.4 c 6.2,0 10.2,3.7 8.7,11.8 l -3,17 C 345,91.4 340.9,95 334.6,95 Z m 10.5,-4.6 c 3.2,0 5.9,-2.1 6.8,-7.4 l 2.9,-16.5 c 0.8,-5.2 -1.1,-7.4 -4.2,-7.4 h -4.8 L 330,90.4 Z"
   id="path10"
   inkscape:connector-curvature="0"
   style="fill:#de2c6c" />
			<path
   d="m 350.6,86.3 2.1,-11.9 c 1.1,-6 4.2,-9.1 8.6,-9.1 2.7,0 4.8,1.5 5.3,3.8 l 0.6,-3.2 H 372 L 366.8,95 H 362 l 0.6,-2.9 c -1.3,2.3 -3.3,3.5 -6,3.5 -4.4,0 -7.1,-3.2 -6,-9.3 z m 13,-0.2 2,-11.3 c 0.7,-3.4 -0.6,-5.2 -3.1,-5.2 -2.5,0 -4.4,1.8 -5,5.2 l -2,11.4 c -0.6,3.3 0.7,5.1 3.3,5.1 2.3,0 4.2,-1.8 4.8,-5.2 z"
   id="path12"
   inkscape:connector-curvature="0"
   style="fill:#de2c6c" />
			<path
   d="m 384,94.7 c -1.3,0.5 -2.7,0.9 -4.5,0.9 -4,0 -5.9,-2.3 -5.1,-7 l 3.3,-18.8 h -3.2 l 0.7,-3.9 c 3.9,0 5.2,-0.2 7,-9.5 h 3.2 l -1.7,9.5 h 5.4 l -0.7,3.9 h -5.7 l -3.2,18 c -0.5,2.6 0.4,3.4 1.8,3.4 1.3,0 2.6,-0.5 3.7,-1.2 z"
   id="path14"
   inkscape:connector-curvature="0"
   style="fill:#de2c6c" />
			<path
   d="m 388.2,86.3 2.1,-11.9 c 1.1,-6 4.2,-9.1 8.6,-9.1 2.7,0 4.8,1.5 5.3,3.8 l 0.6,-3.2 h 4.8 L 404.4,95 h -4.8 l 0.6,-2.9 c -1.3,2.3 -3.3,3.5 -6,3.5 -4.4,0 -7.1,-3.2 -6,-9.3 z m 13,-0.2 2,-11.3 c 0.7,-3.4 -0.6,-5.2 -3.1,-5.2 -2.5,0 -4.4,1.8 -5,5.2 l -2,11.4 c -0.6,3.3 0.7,5.1 3.3,5.1 2.3,0 4.2,-1.8 4.8,-5.2 z"
   id="path16"
   inkscape:connector-curvature="0"
   style="fill:#de2c6c" />
			<path
   d="m 424,95 h -5 l 7.1,-40.4 h 9.6 c 5.7,0 9.2,3 8.1,9.2 l -1.3,7.2 c -1,5.9 -4.5,8.9 -10.1,8.9 h -5.9 z m 13.6,-24.4 1.1,-6.4 c 0.6,-3.5 -1.1,-5 -4.2,-5 h -4.3 l -2.9,16.5 h 4.4 c 3.1,0 5.3,-1.6 5.9,-5.1 z"
   id="path18"
   inkscape:connector-curvature="0"
   style="fill:#de2c6c" />
			<path
   d="m 443.7,86 2,-11.3 c 1.1,-6.4 5,-9.5 10,-9.5 5.1,0 8.9,3.1 7.7,9.6 l -2,11.4 c -1.1,6.3 -4.9,9.3 -9.9,9.3 -5.1,0.1 -9,-2.9 -7.8,-9.5 z m 12.9,0.2 2,-11.4 c 0.6,-3.3 -0.7,-5.2 -3.2,-5.2 -2.4,0 -4.3,1.8 -4.9,5.2 l -2,11.3 c -0.6,3.3 0.7,5.1 3.1,5.1 2.5,0.1 4.4,-1.7 5,-5 z"
   id="path20"
   inkscape:connector-curvature="0"
   style="fill:#de2c6c" />
			<path
   d="m 469.8,65.9 h 4.8 l -0.6,3.6 c 1.6,-3 4,-4.2 8,-4.2 l -1.1,5.5 c -0.5,-0.3 -1.8,-0.5 -2.3,-0.5 -3.9,0 -5.3,2.9 -6.3,8.5 L 469.5,95 h -4.8 z"
   id="path22"
   inkscape:connector-curvature="0"
   style="fill:#de2c6c" />
			<path
   d="m 491.7,94.7 c -1.3,0.5 -2.7,0.9 -4.5,0.9 -4,0 -5.9,-2.3 -5.1,-7 l 3.3,-18.8 h -3.2 l 0.7,-3.9 c 3.9,0 5.2,-0.2 7,-9.5 h 3.2 l -1.7,9.5 h 5.4 l -0.7,3.9 h -5.7 l -3.2,18 c -0.5,2.6 0.4,3.4 1.8,3.4 1.3,0 2.6,-0.5 3.7,-1.2 z"
   id="path24"
   inkscape:connector-curvature="0"
   style="fill:#de2c6c" />
			<path
   d="M 495.9,86.3 498,74.4 c 1.1,-6 4.2,-9.1 8.6,-9.1 2.7,0 4.8,1.5 5.3,3.8 l 0.6,-3.2 h 4.8 L 512.1,95 h -4.8 l 0.6,-2.9 c -1.3,2.3 -3.3,3.5 -6,3.5 -4.4,0 -7.1,-3.2 -6,-9.3 z m 13,-0.2 2,-11.3 c 0.7,-3.4 -0.6,-5.2 -3.1,-5.2 -2.5,0 -4.4,1.8 -5,5.2 l -2,11.4 c -0.6,3.3 0.7,5.1 3.3,5.1 2.3,0 4.2,-1.8 4.8,-5.2 z"
   id="path26"
   inkscape:connector-curvature="0"
   style="fill:#de2c6c" />
			<path
   d="m 522.3,95 h -2.2 c -2,0 -2.4,-0.8 -2.1,-2.8 l 6.6,-37.6 h 4.8 z"
   id="path28"
   inkscape:connector-curvature="0"
   style="fill:#de2c6c" />
		</g>
		<g
   id="g50">
			<g
   id="g48">
				<path
   d="m 143.4,80 -0.6,3 c -1.5,8.6 -6.6,12.7 -13.3,12.7 -7,0 -12.2,-4 -10.5,-13.4 l 2.9,-16.6 c 1.5,-8.6 6.3,-12.7 13.3,-12.7 6.7,0 12.2,4.1 10.6,13.1 l -0.5,2.6 -7.3,0.5 0.4,-2.5 c 0.7,-3.7 -0.7,-5.3 -3.1,-5.3 -2.4,0 -4.3,1.5 -5,5.3 l -2.7,15.2 c -0.7,3.9 0.7,5.4 3.1,5.4 2.4,0 4.2,-1.5 5,-5.4 l 0.4,-2.4 z"
   id="path32"
   inkscape:connector-curvature="0" />
				<path
   d="m 175.8,66.3 -3,16.7 c -1.5,8.6 -6.9,12.7 -14,12.7 -7,0 -12.8,-4 -11.2,-13.4 l 2.9,-16.6 c 1.5,-8.6 7,-12.7 14.1,-12.7 7,-0.1 12.8,4 11.2,13.3 z m -16.7,0.3 -2.8,15.2 c -0.7,3.9 0.7,5.4 3.1,5.4 2.4,0 4.3,-1.5 4.9,-5.4 L 167,66.6 c 0.7,-3.7 -0.7,-5.3 -3.1,-5.3 -2.2,0 -4.2,1.5 -4.8,5.3 z"
   id="path34"
   inkscape:connector-curvature="0" />
				<path
   d="m 199.5,53.5 h 8.1 L 192.2,95 H 182 l -1.1,-41.5 h 9.4 l -0.2,27 z"
   id="path36"
   inkscape:connector-curvature="0" />
				<path
   d="M 220.6,53.5 213.3,95 h -8.6 L 212,53.5 Z"
   id="path38"
   inkscape:connector-curvature="0" />
				<path
   d="m 219.8,95 7.3,-41.5 h 11.2 c 7,0 12.2,3.7 10.5,12.9 l -2.9,16.3 C 244.4,91.3 239.8,95 232.8,95 Z m 12.8,-8.1 c 2.4,0 4.3,-1.5 4.9,-5.4 l 2.6,-14.7 c 0.6,-3.7 -0.7,-5.3 -3.1,-5.3 h -2.7 l -4.5,25.4 z"
   id="path40"
   inkscape:connector-curvature="0" />
				<path
   d="M 253.3,73.3 H 269 l -1.2,6.3 h -15.6 z"
   id="path42"
   inkscape:connector-curvature="0" />
				<path
   d="m 277.8,57.3 7.5,-3.8 h 1.8 L 279.8,95 h -8.7 z"
   id="path44"
   inkscape:connector-curvature="0" />
				<path
   d="m 303.8,77.4 c -1.3,1.7 -3.2,3.3 -6.5,3.3 -5.3,0 -8.7,-3.2 -7.5,-10 l 1,-5.5 c 1.4,-8.3 5.6,-12.3 12.9,-12.3 8,0 12.3,4 10.8,12.3 l -3,16.9 C 310,90.3 306,95.6 298,95.6 289.9,95.6 286.5,91.4 287.7,85 l 0.2,-1.6 7.3,-0.5 -0.1,0.7 c -0.5,2.6 0.4,4.2 2.9,4.2 2.6,0 4.3,-2.1 4.9,-5.6 z m 2,-11.9 c 0.6,-3.1 -0.4,-4.9 -2.9,-4.9 -2.6,0 -4.1,1.8 -4.7,4.9 l -0.7,4.2 c -0.5,2.9 0.3,4.9 2.9,4.9 2.6,0 4.2,-2 4.6,-4.9 z"
   id="path46"
   inkscape:connector-curvature="0" />
			</g>
		</g>
	</g>
	<g
   id="g66">
		<path
   d="m 426.1,124.4 0.2,-1.2 3.5,-0.3 -0.2,1.1 c -0.4,2.6 0,3.4 1.4,3.4 1.5,0 2.6,-1.2 2.6,-3.4 0,-0.9 -0.4,-1.6 -0.9,-2.1 l -2.4,-2 c -1.6,-1.4 -2.4,-2.5 -2.4,-4.6 0,-3.6 2.2,-7.1 6.8,-7.1 3.4,0 6.1,1.5 5.3,5.5 l -0.3,1.6 -3.5,0.3 0.2,-1.3 c 0.3,-1.6 0,-2.7 -1.4,-2.7 -1.4,0 -2.3,1.3 -2.3,3.1 0,0.9 0.3,1.5 1.2,2.2 l 2.6,2 c 1.3,1 2.1,2.3 2.1,4.5 0,3.7 -1.7,7.5 -7.2,7.5 -3.7,0.1 -6.1,-1.7 -5.3,-6.5 z"
   id="path54"
   inkscape:connector-curvature="0"
   style="fill:#3b9dd8" />
		<path
   d="M 456.9,130.7 H 452 l -0.3,-14.4 -5.1,14.4 H 442 v -22.1 h 4.9 l -0.5,13.6 4.9,-13.6 h 3.7 l 0.5,13.7 4.2,-13.7 h 4.6 z"
   id="path56"
   inkscape:connector-curvature="0"
   style="fill:#3b9dd8" />
		<path
   d="m 466.1,108.6 h 10.6 l -0.8,4.5 h -6 l -0.8,4.6 h 4.3 l -0.7,3.7 h -4.3 l -0.8,4.9 h 6.1 l -0.8,4.5 h -10.6 z"
   id="path58"
   inkscape:connector-curvature="0"
   style="fill:#3b9dd8" />
		<path
   d="m 474.8,130.7 3.9,-22.1 h 6 c 3.7,0 6.5,2 5.6,6.9 l -1.5,8.7 c -0.8,4.6 -3.3,6.5 -7,6.5 z m 6.8,-4.3 c 1.3,0 2.3,-0.8 2.6,-2.9 l 1.4,-7.8 c 0.3,-2 -0.4,-2.8 -1.7,-2.8 h -1.4 l -2.4,13.5 z"
   id="path60"
   inkscape:connector-curvature="0"
   style="fill:#3b9dd8" />
		<path
   d="m 493.8,108.6 h 10.6 l -0.8,4.5 h -6 l -0.8,4.6 h 4.3 l -0.7,3.7 h -4.3 l -0.8,4.9 h 6.1 l -0.8,4.5 H 490 Z"
   id="path62"
   inkscape:connector-curvature="0"
   style="fill:#3b9dd8" />
		<path
   d="m 511.5,108.6 2.1,13.6 2.4,-13.6 h 3.5 l -3.9,22.1 h -4.3 l -2.6,-15 -2.7,15 h -3.5 l 3.9,-22.1 z"
   id="path64"
   inkscape:connector-curvature="0"
   style="fill:#3b9dd8" />
	</g>
</g>
</svg>