<svg xmlns="http://www.w3.org/2000/svg" viewBox="0 0 350 63.27"><defs><style>.cls-1{fill:#db316c;}.cls-2{fill:#1d1d1d;}.cls-3{fill:#4b9bd9;}</style></defs><g id="Layer_2" data-name="Layer 2"><g id="Main_layer" data-name="Main layer"><path class="cls-1" d="M43.33,51.54c-.13,0-.4.12-.56.72a31.17,31.17,0,0,0-.67,5.05c-.16.75-1.34,1.75-2.32,1.17a11.76,11.76,0,0,0-1.86-.89,11.15,11.15,0,0,0-2-.63c-1.11-.25-1.29-1.78-.88-2.44a32.85,32.85,0,0,0,3-4.14c.3-.57.16-.83.08-.92a20.3,20.3,0,0,1-2-1.28c-.12,0-.42,0-.81.45A31.49,31.49,0,0,0,32.76,53c-.44.63-1.91,1.11-2.59.2a12,12,0,0,0-1.39-1.55,10.94,10.94,0,0,0-1.58-1.33,1.73,1.73,0,0,1,.11-2.59,33.55,33.55,0,0,0,4.33-2.69c.49-.42.47-.7.42-.83a20.08,20.08,0,0,1-1.34-1.93c-.09-.09-.36-.21-.92.1a32.19,32.19,0,0,0-4,3.1c-.64.41-2.18.29-2.47-.81a11.55,11.55,0,0,0-.69-2,12.06,12.06,0,0,0-1-1.85c-.6-1,.36-2.16,1.1-2.34a33,33,0,0,0,5-.84c.6-.18.7-.45.71-.58A19.74,19.74,0,0,1,28,34.84c-.06-.12-.25-.34-.89-.26a32.51,32.51,0,0,0-4.92,1.31c-.76.14-2.13-.56-2-1.69a12,12,0,0,0,.11-2.07,11.67,11.67,0,0,0-.18-2.06c-.2-1.12,1.15-1.86,1.92-1.76a31.9,31.9,0,0,0,5,1.16c.64.06.83-.17.88-.28a17.73,17.73,0,0,1,.42-2.33c0-.13-.13-.39-.73-.57a33.2,33.2,0,0,0-5-.66c-.75-.17-1.75-1.33-1.18-2.32a11.62,11.62,0,0,0,.89-1.87,10.86,10.86,0,0,0,.63-2c.26-1.11,1.79-1.28,2.44-.89a32.37,32.37,0,0,0,4.14,3c.57.3.83.16.93.08a18.18,18.18,0,0,1,1.28-2c0-.12,0-.41-.45-.8a33.2,33.2,0,0,0-4.41-2.55c-.64-.45-1.11-1.91-.2-2.59a11.78,11.78,0,0,0,1.54-1.38,12.69,12.69,0,0,0,1.34-1.59c.65-.93,2.13-.5,2.59.11a31.38,31.38,0,0,0,2.69,4.33c.41.49.7.46.82.42a22.22,22.22,0,0,1,1.94-1.34c.08-.1.21-.36-.11-.91a31.19,31.19,0,0,0-3.09-4.05c-.42-.65-.3-2.18.8-2.46a12.59,12.59,0,0,0,2-.69,12.87,12.87,0,0,0,1.84-.95c1-.61,2.17.34,2.35,1.09a31.49,31.49,0,0,0,.83,5c.18.58.45.68.58.7A20.18,20.18,0,0,1,45,11.52c.12-.06.34-.25.27-.9A31.7,31.7,0,0,0,44,5.7c-.14-.75.56-2.12,1.69-2a17.26,17.26,0,0,0,4.06-.19c1.13-.19,1.87,1.16,1.76,1.91a32.1,32.1,0,0,0-1.17,5c0,.64.18.83.3.88.55.07,1.09.18,1.62.29L54.11.91H10.86L0,62.36H43.25l1.86-10.5C44.51,51.77,43.91,51.68,43.33,51.54Z"/><path class="cls-2" d="M77.3.91H96c10,0,14.57,5.52,13,14.39l-1,5.79c-1.27,7-5.43,9.32-8.33,10.5l-.09.36c2.72,1,6.15,4.07,4.8,11.59l-.82,4.7c-1.72,9.87-7.78,14.12-16.92,14.12H66.44Zm3.9,50.23h4.16c3.44,0,5.52-1.81,6.24-6.06l.64-2.9c.72-4.26-1.18-5.79-4.07-5.79H83.73ZM85.45,26.7H89.7c2.81,0,5.16-1.54,5.8-5.43l.63-3.62c.63-3.53-.81-5.25-4.25-5.25H88Z"/><path class="cls-2" d="M133.24,35.48l-4.71,26.88H115.86l4.71-26.61L112.42.91h13.85L129.44,22,140.57.91h12.58Z"/><path class="cls-2" d="M139.12,32h23.17l-1.72,9.32H137.49Z"/><path class="cls-2" d="M202.47,40.1l-.81,4.43C199.4,57.29,191.88,63.27,182,63.27c-10.41,0-18-6-15.57-19.91l4.34-24.62C173.06,6.06,180.12,0,190.43,0c10,0,18,6.06,15.66,19.46l-.72,3.8L194.6,24l.54-3.72c1.09-5.52-1-7.78-4.52-7.78s-6.34,2.26-7.34,7.78l-4,22.54c-1,5.8,1.09,8,4.62,8s6.24-2.17,7.33-8l.63-3.53Z"/><path class="cls-2" d="M248.18,19.82l-4.35,24.71c-2.17,12.76-10.23,18.74-20.72,18.74s-18.92-6-16.57-19.91l4.35-24.62C213.15,6.06,221.2,0,231.7,0,242,0,250.62,6.06,248.18,19.82Zm-24.71.45-4.08,22.54c-1,5.8,1.09,8,4.62,8s6.34-2.17,7.33-8l4-22.54c1-5.52-1.08-7.78-4.52-7.78S224.37,14.75,223.47,20.27Z"/><path class="cls-2" d="M281,.91h12L270.17,62.36H255.05L253.42.91h13.94l-.27,40Z"/><path class="cls-2" d="M310,.91,299.13,62.36H286.46L297.32.91Z"/><path class="cls-2" d="M306.55,62.36,317.41.91H334c10.41,0,18,5.52,15.57,19.09l-4.25,24.17c-2.27,12.76-9.06,18.19-19.46,18.19Zm18.91-11.94c3.53,0,6.34-2.18,7.34-8l3.89-21.81c.9-5.52-1.09-7.79-4.62-7.79h-4l-6.7,37.57Z"/><polygon class="cls-1" points="74.39 0.91 63.53 62.36 69.69 62.36 80.55 0.91 74.39 0.91"/><path class="cls-3" d="M66.44,31.64a2.9,2.9,0,0,1-.21,1.06h0a2.19,2.19,0,0,1-.25.48s0,0,0,0a2.56,2.56,0,0,1-.36.44L55.53,43.72a2.85,2.85,0,0,1-4-4l5.21-5.21H34.44a2.85,2.85,0,0,1,0-5.7H56.71L51.5,23.57a2.85,2.85,0,0,1,4-4L65.6,29.62a2.56,2.56,0,0,1,.36.44,0,0,0,0,0,0,0,3,3,0,0,1,.24.47,0,0,0,0,1,0,0A2.91,2.91,0,0,1,66.44,31.64Z"/></g></g></svg>