<?xml version="1.0" encoding="utf-8"?>
<!-- Generator: Adobe Illustrator 24.1.0, SVG Export Plug-In . SVG Version: 6.00 Build 0)  -->
<svg version="1.1" xmlns="http://www.w3.org/2000/svg" xmlns:xlink="http://www.w3.org/1999/xlink" x="0px" y="0px"
	 viewBox="0 0 510.24 70.87" style="enable-background:new 0 0 510.24 70.87;" xml:space="preserve">
<style type="text/css">
	.st0{display:none;}
	.st1{display:inline;}
	.st2{fill:#3B9DD8;}
	.st3{fill:#FFFFFF;}
	.st4{display:inline;fill:#DE2C6C;}
	.st5{fill:#DE2C6C;}
	.st6{display:inline;fill:#706F6F;}
</style>
<g id="Layer_1" class="st0">
	<g class="st1">
		<g>
			<path d="M211.35,45.21l-0.61,3.35c-1.71,9.63-7.37,14.13-14.81,14.13c-7.85,0-13.58-4.51-11.74-15.02l3.28-18.57
				c1.71-9.56,7.03-14.13,14.81-14.13c7.51,0,13.58,4.57,11.81,14.68l-0.55,2.87l-8.12,0.55l0.41-2.8c0.82-4.16-0.75-5.87-3.41-5.87
				c-2.66,0-4.78,1.71-5.53,5.87l-3,17c-0.75,4.37,0.82,6.01,3.48,6.01c2.66,0,4.71-1.64,5.53-6.01l0.48-2.66L211.35,45.21z"/>
			<path d="M247.53,29.92l-3.28,18.64c-1.64,9.63-7.71,14.13-15.63,14.13c-7.85,0-14.27-4.51-12.49-15.02l3.28-18.57
				c1.71-9.56,7.78-14.13,15.7-14.13C242.89,14.97,249.37,19.54,247.53,29.92z M228.89,30.26l-3.07,17
				c-0.75,4.37,0.82,6.01,3.48,6.01c2.66,0,4.78-1.64,5.53-6.01l3-17c0.75-4.16-0.82-5.87-3.41-5.87
				C231.76,24.39,229.58,26.1,228.89,30.26z"/>
			<path d="M274.02,15.65h9.01l-17.2,46.35h-11.4l-1.23-46.35h10.51l-0.2,30.17L274.02,15.65z"/>
			<path d="M297.58,15.65l-8.19,46.35h-9.56l8.19-46.35H297.58z"/>
			<path d="M296.69,62.01l8.19-46.35h12.49c7.85,0,13.58,4.16,11.74,14.4l-3.21,18.23c-1.71,9.63-6.83,13.72-14.68,13.72H296.69z
				 M310.96,52.99c2.66,0,4.78-1.64,5.53-6.01l2.94-16.45c0.68-4.16-0.82-5.87-3.48-5.87h-3l-5.05,28.33H310.96z"/>
			<path d="M334.16,37.4h17.48l-1.3,7.03h-17.41L334.16,37.4z"/>
			<path d="M361.48,19.89l8.4-4.23h2.05l-8.19,46.35h-9.69L361.48,19.89z"/>
			<path d="M390.5,42.35c-1.5,1.91-3.62,3.69-7.31,3.69c-5.94,0-9.69-3.55-8.4-11.13l1.16-6.14c1.57-9.28,6.28-13.79,14.4-13.79
				c8.94,0,13.72,4.51,12.08,13.79L399.1,47.6c-1.64,9.22-6.08,15.09-15.09,15.09c-9.08,0-12.83-4.64-11.54-11.81l0.27-1.77
				l8.12-0.61l-0.07,0.82c-0.55,2.87,0.41,4.71,3.28,4.71s4.85-2.32,5.53-6.21L390.5,42.35z M392.75,29.03
				c0.61-3.48-0.48-5.46-3.28-5.46c-2.87,0-4.57,1.98-5.26,5.46l-0.82,4.71c-0.55,3.28,0.34,5.46,3.28,5.46
				c2.93,0,4.64-2.19,5.19-5.46L392.75,29.03z"/>
		</g>
	</g>
	<g class="st1">
		<path class="st2" d="M122.71,16.12v4.64c0.22,0.01,1.29,0.02,2.56-0.18c1.42-0.22,2.33,1.49,2.17,2.44
			c-0.19,1.12-1.25,3.3-1.55,6.22c-0.08,0.81,0.2,1.04,0.34,1.11c0.99,0.14,1.97,0.33,2.92,0.57c0.17-0.02,0.5-0.15,0.72-0.89
			c0.84-2.82,0.69-5.24,0.94-6.34c0.22-0.94,1.71-2.17,2.94-1.43c1.22,0.75,2.33,1.16,2.33,1.16s1.08,0.5,2.47,0.83
			c1.39,0.34,1.58,2.26,1.07,3.09c-0.6,0.96-2.42,2.57-3.82,5.15c-0.38,0.71-0.22,1.04-0.11,1.16c0.85,0.5,1.68,1.05,2.47,1.65
			c0.15,0.05,0.52,0.08,1.02-0.55c1.85-2.28,2.64-4.58,3.3-5.5c0.56-0.79,2.42-1.35,3.26-0.19c0.84,1.16,1.71,1.97,1.71,1.97
			s0.81,0.87,1.97,1.71c1.16,0.84,0.59,2.7-0.19,3.26c-0.92,0.66-3.22,1.45-5.5,3.3c-0.62,0.5-0.6,0.87-0.55,1.02
			c0.6,0.79,1.14,1.61,1.65,2.47c0.12,0.11,0.45,0.27,1.16-0.11c2.58-1.4,4.19-3.22,5.15-3.82c0.82-0.51,2.75-0.33,3.09,1.07
			c0.34,1.39,0.83,2.47,0.83,2.47s0.41,1.11,1.16,2.34c0.75,1.22-0.48,2.72-1.43,2.94c-1.1,0.26-3.53,0.11-6.34,0.94
			c-0.75,0.22-0.88,0.55-0.89,0.72c0.25,0.95,0.44,1.93,0.57,2.92c0.07,0.14,0.31,0.43,1.11,0.34c2.92-0.31,5.11-1.37,6.22-1.55
			c0.96-0.16,2.66,0.75,2.44,2.17c-0.22,1.42-0.18,2.6-0.18,2.6s-0.05,1.19,0.18,2.6c0.22,1.42-1.49,2.33-2.44,2.17
			c-1.12-0.19-3.3-1.25-6.22-1.55c-0.81-0.08-1.04,0.2-1.11,0.34c-0.14,0.99-0.33,1.97-0.57,2.92c0.02,0.17,0.15,0.5,0.89,0.72
			c2.82,0.84,5.24,0.69,6.34,0.94c0.94,0.22,2.17,1.71,1.43,2.94c-0.75,1.22-1.16,2.34-1.16,2.34s-0.5,1.08-0.83,2.47
			s-2.26,1.58-3.09,1.07c-0.96-0.6-2.57-2.42-5.15-3.82c-0.71-0.38-1.04-0.22-1.16-0.11c-0.5,0.85-1.05,1.68-1.65,2.47
			c-0.05,0.15-0.08,0.52,0.55,1.02c2.28,1.85,4.58,2.64,5.5,3.3c0.79,0.56,1.35,2.42,0.19,3.26c-1.16,0.84-1.97,1.71-1.97,1.71
			s-0.87,0.81-1.71,1.97c-0.84,1.16-2.7,0.59-3.26-0.19c-0.66-0.92-1.45-3.22-3.3-5.5c-0.5-0.62-0.87-0.6-1.02-0.55
			c-0.79,0.6-1.61,1.14-2.47,1.65c-0.11,0.12-0.27,0.45,0.11,1.16c1.4,2.58,3.22,4.19,3.82,5.15c0.51,0.82,0.33,2.75-1.07,3.09
			c-1.39,0.34-2.47,0.83-2.47,0.83s-1.11,0.41-2.34,1.16c-1.22,0.75-2.72-0.48-2.94-1.43c-0.26-1.1-0.11-3.53-0.94-6.34
			c-0.22-0.75-0.55-0.88-0.72-0.89c-0.95,0.25-1.93,0.44-2.92,0.57c-0.14,0.07-0.43,0.31-0.34,1.11c0.31,2.92,1.37,5.11,1.55,6.22
			c0.16,0.96-0.75,2.66-2.17,2.44c-1.26-0.2-2.34-0.18-2.56-0.18v4.93h37.23l14.71-79.68H122.71z"/>
		<path class="st3" d="M125.27,91.05c1.42,0.22,2.33-1.49,2.17-2.44c-0.19-1.12-1.25-3.3-1.55-6.22c-0.08-0.81,0.2-1.04,0.34-1.11
			c0.99-0.14,1.97-0.33,2.92-0.57c0.17,0.02,0.5,0.15,0.72,0.89c0.84,2.82,0.69,5.24,0.94,6.34c0.22,0.94,1.71,2.17,2.94,1.43
			c1.22-0.75,2.34-1.16,2.34-1.16s1.08-0.5,2.47-0.83c1.39-0.34,1.58-2.26,1.07-3.09c-0.6-0.96-2.42-2.57-3.82-5.15
			c-0.38-0.71-0.22-1.04-0.11-1.16c0.85-0.5,1.68-1.05,2.47-1.65c0.15-0.05,0.52-0.08,1.02,0.55c1.85,2.28,2.64,4.58,3.3,5.5
			c0.56,0.79,2.42,1.35,3.26,0.19c0.84-1.16,1.71-1.97,1.71-1.97s0.81-0.87,1.97-1.71c1.16-0.84,0.59-2.7-0.19-3.26
			c-0.92-0.66-3.22-1.45-5.5-3.3c-0.62-0.5-0.6-0.87-0.55-1.02c0.6-0.79,1.14-1.61,1.65-2.47c0.12-0.11,0.45-0.27,1.16,0.11
			c2.58,1.4,4.19,3.22,5.15,3.82c0.82,0.51,2.75,0.33,3.09-1.07s0.83-2.47,0.83-2.47s0.41-1.11,1.16-2.34
			c0.75-1.22-0.48-2.72-1.43-2.94c-1.1-0.26-3.53-0.11-6.34-0.94c-0.75-0.22-0.88-0.55-0.89-0.72c0.25-0.95,0.44-1.93,0.57-2.92
			c0.07-0.14,0.31-0.43,1.11-0.34c2.92,0.31,5.11,1.37,6.22,1.55c0.96,0.16,2.66-0.75,2.44-2.17c-0.22-1.42-0.18-2.6-0.18-2.6
			s-0.05-1.19,0.18-2.6c0.22-1.42-1.49-2.33-2.44-2.17c-1.12,0.19-3.3,1.25-6.22,1.55c-0.81,0.08-1.04-0.2-1.11-0.34
			c-0.14-0.99-0.33-1.97-0.57-2.92c0.02-0.17,0.15-0.5,0.89-0.72c2.82-0.84,5.24-0.69,6.34-0.94c0.94-0.22,2.17-1.71,1.43-2.94
			c-0.75-1.22-1.16-2.34-1.16-2.34s-0.5-1.08-0.83-2.47c-0.34-1.39-2.26-1.58-3.09-1.07c-0.96,0.6-2.57,2.42-5.15,3.82
			c-0.71,0.38-1.04,0.22-1.16,0.11c-0.5-0.85-1.05-1.68-1.65-2.47c-0.05-0.15-0.08-0.52,0.55-1.02c2.28-1.85,4.58-2.64,5.5-3.3
			c0.79-0.56,1.35-2.42,0.19-3.26c-1.16-0.84-1.97-1.71-1.97-1.71s-0.87-0.81-1.71-1.97c-0.84-1.16-2.7-0.59-3.26,0.19
			c-0.66,0.92-1.45,3.22-3.3,5.5c-0.5,0.62-0.87,0.6-1.02,0.55c-0.79-0.6-1.61-1.14-2.47-1.65c-0.11-0.12-0.27-0.45,0.11-1.16
			c1.4-2.58,3.22-4.19,3.82-5.15c0.51-0.82,0.33-2.75-1.07-3.09c-1.39-0.34-2.47-0.83-2.47-0.83s-1.11-0.41-2.33-1.16
			c-1.22-0.75-2.72,0.48-2.94,1.43c-0.26,1.1-0.11,3.53-0.94,6.34c-0.22,0.75-0.55,0.88-0.72,0.89c-0.95-0.25-1.93-0.44-2.92-0.57
			c-0.14-0.07-0.43-0.31-0.34-1.11c0.31-2.92,1.37-5.11,1.55-6.22c0.16-0.96-0.75-2.66-2.17-2.44c-1.26,0.2-2.34,0.18-2.56,0.18
			v70.11C122.93,90.86,124,90.85,125.27,91.05z"/>
	</g>
	<path class="st4" d="M120.16,91.19c-1.42,0.22-2.33-1.49-2.17-2.44c0.19-1.12,1.25-3.3,1.55-6.22c0.08-0.81-0.2-1.04-0.34-1.11
		c-0.99-0.14-1.97-0.33-2.92-0.57c-0.17,0.02-0.5,0.15-0.72,0.89c-0.84,2.82-0.69,5.24-0.94,6.34c-0.22,0.94-1.71,2.17-2.94,1.43
		c-1.22-0.75-2.34-1.16-2.34-1.16s-1.08-0.5-2.47-0.83c-1.39-0.34-1.58-2.26-1.07-3.09c0.6-0.96,2.42-2.57,3.82-5.15
		c0.38-0.71,0.22-1.04,0.11-1.16c-0.85-0.5-1.68-1.05-2.47-1.65c-0.15-0.05-0.52-0.08-1.02,0.55c-1.85,2.28-2.64,4.58-3.3,5.5
		c-0.56,0.79-2.42,1.35-3.26,0.19c-0.84-1.16-1.71-1.97-1.71-1.97s-0.81-0.87-1.97-1.71c-1.16-0.84-0.59-2.7,0.19-3.26
		c0.92-0.66,3.22-1.45,5.5-3.3c0.62-0.5,0.6-0.87,0.55-1.02c-0.6-0.79-1.14-1.61-1.65-2.47c-0.12-0.11-0.45-0.27-1.16,0.11
		c-2.58,1.4-4.19,3.22-5.15,3.82c-0.82,0.51-2.75,0.33-3.09-1.07s-0.83-2.47-0.83-2.47s-0.41-1.11-1.16-2.34
		c-0.75-1.22,0.48-2.72,1.43-2.94c1.1-0.26,3.53-0.11,6.34-0.94c0.75-0.22,0.88-0.55,0.89-0.72c-0.25-0.95-0.44-1.93-0.57-2.92
		c-0.07-0.14-0.31-0.43-1.11-0.34c-2.92,0.31-5.11,1.37-6.22,1.55c-0.96,0.16-2.66-0.75-2.44-2.17c0.22-1.42,0.18-2.6,0.18-2.6
		s0.05-1.19-0.18-2.6c-0.22-1.42,1.49-2.33,2.44-2.17c1.12,0.19,3.3,1.25,6.22,1.55c0.81,0.08,1.04-0.2,1.11-0.34
		c0.14-0.99,0.33-1.97,0.57-2.92c-0.02-0.17-0.15-0.5-0.89-0.72c-2.82-0.84-5.24-0.69-6.34-0.94c-0.94-0.22-2.17-1.71-1.43-2.94
		c0.75-1.22,1.16-2.34,1.16-2.34s0.5-1.08,0.83-2.47c0.34-1.39,2.26-1.58,3.09-1.07c0.96,0.6,2.57,2.42,5.15,3.82
		c0.71,0.38,1.04,0.22,1.16,0.11c0.5-0.85,1.05-1.68,1.65-2.47c0.05-0.15,0.08-0.52-0.55-1.02c-2.28-1.85-4.58-2.64-5.5-3.3
		c-0.79-0.56-1.35-2.42-0.19-3.26c1.16-0.84,1.97-1.71,1.97-1.71s0.87-0.81,1.71-1.97c0.84-1.16,2.7-0.59,3.26,0.19
		c0.66,0.92,1.45,3.22,3.3,5.5c0.5,0.62,0.87,0.6,1.02,0.55c0.79-0.6,1.61-1.14,2.47-1.65c0.11-0.12,0.27-0.45-0.11-1.16
		c-1.4-2.58-3.22-4.19-3.82-5.15c-0.51-0.82-0.33-2.75,1.07-3.09c1.39-0.34,2.47-0.83,2.47-0.83s1.11-0.41,2.34-1.16
		c1.22-0.75,2.72,0.48,2.94,1.43c0.26,1.1,0.11,3.53,0.94,6.34c0.22,0.75,0.55,0.88,0.72,0.89c0.95-0.25,1.93-0.44,2.92-0.57
		c0.14-0.07,0.43-0.31,0.34-1.11c-0.31-2.92-1.37-5.11-1.55-6.22c-0.16-0.96,0.75-2.66,2.17-2.44c1.26,0.2,2.34,0.18,2.56,0.18
		v70.11C122.5,91.01,121.42,90.99,120.16,91.19z"/>
	<g class="st1">
		<path class="st5" d="M177.6,96.17l4.92-27.84H189c4.26,0,7.05,2.54,6.03,8.16l-2.05,11.68c-0.98,5.49-3.81,8-8.12,8H177.6z
			 M184.86,93.01c2.17,0,4.06-1.48,4.72-5.08l2.01-11.36c0.57-3.57-0.74-5.08-2.91-5.08h-3.28l-3.77,21.53H184.86z"/>
		<path class="st5" d="M196.22,90.14l1.48-8.2c0.74-4.14,2.87-6.27,5.9-6.27c1.85,0,3.32,1.02,3.65,2.62l0.41-2.21h3.28l-3.57,20.09
			h-3.28l0.41-1.97c-0.9,1.56-2.25,2.38-4.1,2.38C197.32,96.58,195.48,94.37,196.22,90.14z M205.15,90.06l1.35-7.79
			c0.45-2.34-0.41-3.61-2.13-3.61c-1.72,0-3.03,1.27-3.44,3.57l-1.39,7.87c-0.41,2.25,0.49,3.49,2.25,3.49
			C203.47,93.59,204.74,92.36,205.15,90.06z"/>
		<path class="st5" d="M219.63,95.97c-0.86,0.37-1.89,0.62-3.12,0.62c-2.75,0-4.06-1.56-3.53-4.84l2.3-12.96h-2.21l0.49-2.71
			c2.67,0,3.57-0.12,4.8-6.56h2.17l-1.19,6.56h3.69l-0.49,2.71h-3.94l-2.17,12.38c-0.33,1.76,0.29,2.34,1.23,2.34
			c0.9,0,1.8-0.37,2.54-0.82L219.63,95.97z"/>
		<path class="st5" d="M222.95,90.14l1.48-8.2c0.74-4.14,2.87-6.27,5.9-6.27c1.85,0,3.32,1.02,3.65,2.62l0.41-2.21h3.28l-3.57,20.09
			h-3.28l0.41-1.97c-0.9,1.56-2.25,2.38-4.1,2.38C224.06,96.58,222.21,94.37,222.95,90.14z M231.89,90.06l1.35-7.79
			c0.45-2.34-0.41-3.61-2.13-3.61c-1.72,0-3.03,1.27-3.44,3.57l-1.39,7.87c-0.41,2.25,0.49,3.49,2.25,3.49
			C230.21,93.59,231.48,92.36,231.89,90.06z"/>
		<path class="st5" d="M248.45,96.17h-3.44l4.92-27.84h6.64c3.94,0,6.31,2.09,5.58,6.35l-0.9,4.96c-0.7,4.06-3.08,6.15-6.93,6.15
			h-4.06L248.45,96.17z M257.84,79.32l0.78-4.39c0.41-2.38-0.74-3.44-2.87-3.44h-2.95l-2.01,11.36h3.03
			C255.91,82.85,257.43,81.78,257.84,79.32z"/>
		<path class="st5" d="M262.39,89.98l1.39-7.79c0.78-4.39,3.44-6.52,6.89-6.52c3.48,0,6.11,2.13,5.29,6.64l-1.39,7.83
			c-0.74,4.35-3.4,6.44-6.85,6.44C264.28,96.58,261.61,94.49,262.39,89.98z M271.29,90.1l1.39-7.87c0.41-2.3-0.45-3.57-2.21-3.57
			c-1.68,0-2.95,1.27-3.36,3.61l-1.39,7.79c-0.41,2.3,0.45,3.53,2.13,3.53C269.56,93.59,270.92,92.36,271.29,90.1z"/>
		<path class="st5" d="M280.8,76.08h3.32l-0.41,2.46c1.11-2.09,2.75-2.87,5.49-2.87l-0.74,3.81c-0.37-0.21-1.27-0.33-1.6-0.33
			c-2.71,0-3.65,2.01-4.35,5.86l-1.93,11.15h-3.32L280.8,76.08z"/>
		<path class="st5" d="M296.3,95.97c-0.86,0.37-1.89,0.62-3.12,0.62c-2.75,0-4.06-1.56-3.53-4.84l2.3-12.96h-2.21l0.49-2.71
			c2.67,0,3.57-0.12,4.8-6.56h2.17l-1.19,6.56h3.69l-0.49,2.71h-3.94l-2.17,12.38c-0.33,1.76,0.29,2.34,1.23,2.34
			c0.9,0,1.8-0.37,2.54-0.82L296.3,95.97z"/>
		<path class="st5" d="M299.62,90.14l1.48-8.2c0.74-4.14,2.87-6.27,5.9-6.27c1.84,0,3.32,1.02,3.65,2.62l0.41-2.21h3.28l-3.57,20.09
			h-3.28l0.41-1.97c-0.9,1.56-2.25,2.38-4.1,2.38C300.72,96.58,298.88,94.37,299.62,90.14z M308.55,90.06l1.35-7.79
			c0.45-2.34-0.41-3.61-2.13-3.61c-1.72,0-3.03,1.27-3.44,3.57l-1.39,7.87c-0.41,2.25,0.49,3.49,2.25,3.49
			C306.87,93.59,308.15,92.36,308.55,90.06z"/>
		<path class="st5" d="M318.23,96.17h-1.52c-1.35,0-1.68-0.57-1.43-1.93l4.55-25.91h3.32L318.23,96.17z"/>
	</g>
</g>
<g id="Layer_2">
	<g>
		<path class="st2" d="M26.28,5.9v3.34c0.16,0,0.93,0.01,1.84-0.13c1.02-0.16,1.68,1.07,1.56,1.76c-0.13,0.81-0.9,2.38-1.12,4.49
			c-0.06,0.58,0.14,0.75,0.25,0.8c0.71,0.1,1.42,0.24,2.1,0.41c0.12-0.01,0.36-0.11,0.52-0.64c0.6-2.03,0.5-3.78,0.68-4.57
			c0.16-0.68,1.24-1.57,2.12-1.03c0.88,0.54,1.68,0.84,1.68,0.84s0.78,0.36,1.78,0.6c1,0.24,1.14,1.63,0.77,2.22
			c-0.43,0.69-1.74,1.85-2.75,3.72c-0.28,0.51-0.16,0.75-0.08,0.83c0.62,0.36,1.21,0.76,1.78,1.19c0.11,0.04,0.38,0.05,0.74-0.39
			c1.33-1.65,1.9-3.3,2.38-3.96c0.41-0.57,1.74-0.98,2.35-0.14c0.61,0.84,1.24,1.42,1.24,1.42s0.58,0.63,1.42,1.24
			c0.84,0.61,0.43,1.94-0.14,2.35c-0.66,0.47-2.32,1.05-3.96,2.38c-0.45,0.36-0.43,0.63-0.39,0.74c0.43,0.57,0.82,1.16,1.19,1.78
			c0.09,0.08,0.33,0.2,0.83-0.08c1.86-1.01,3.02-2.32,3.72-2.75c0.59-0.37,1.98-0.23,2.22,0.77c0.24,1,0.6,1.78,0.6,1.78
			s0.3,0.8,0.84,1.68c0.54,0.88-0.35,1.96-1.03,2.12c-0.8,0.18-2.54,0.08-4.57,0.68c-0.54,0.16-0.63,0.4-0.64,0.52
			c0.18,0.69,0.31,1.39,0.41,2.1c0.05,0.1,0.22,0.31,0.8,0.25c2.11-0.22,3.68-0.99,4.49-1.12c0.69-0.11,1.92,0.54,1.76,1.56
			c-0.16,1.02-0.13,1.87-0.13,1.87s-0.03,0.85,0.13,1.87c0.16,1.02-1.07,1.68-1.76,1.56c-0.81-0.13-2.38-0.9-4.49-1.12
			c-0.58-0.06-0.75,0.14-0.8,0.25c-0.1,0.71-0.24,1.42-0.41,2.1c0.01,0.12,0.11,0.36,0.64,0.52c2.03,0.6,3.78,0.5,4.57,0.68
			c0.68,0.16,1.57,1.24,1.03,2.12c-0.54,0.88-0.84,1.68-0.84,1.68s-0.36,0.78-0.6,1.78s-1.63,1.14-2.22,0.77
			c-0.69-0.43-1.85-1.74-3.72-2.75c-0.51-0.28-0.75-0.16-0.83-0.08c-0.36,0.62-0.76,1.21-1.19,1.78c-0.04,0.11-0.05,0.38,0.39,0.74
			c1.65,1.33,3.3,1.9,3.96,2.38c0.57,0.41,0.98,1.74,0.14,2.35c-0.84,0.61-1.42,1.24-1.42,1.24s-0.63,0.58-1.24,1.42
			c-0.61,0.84-1.94,0.43-2.35-0.14c-0.47-0.66-1.05-2.32-2.38-3.96c-0.36-0.45-0.63-0.43-0.74-0.39c-0.57,0.43-1.16,0.82-1.78,1.19
			c-0.08,0.09-0.2,0.33,0.08,0.83c1.01,1.86,2.32,3.02,2.75,3.72c0.37,0.59,0.23,1.98-0.77,2.22c-1,0.24-1.78,0.6-1.78,0.6
			s-0.8,0.3-1.68,0.84c-0.88,0.54-1.96-0.35-2.12-1.03c-0.18-0.8-0.08-2.54-0.68-4.57c-0.16-0.54-0.4-0.63-0.52-0.64
			c-0.69,0.18-1.39,0.31-2.1,0.41c-0.1,0.05-0.31,0.22-0.25,0.8c0.22,2.11,0.99,3.68,1.12,4.49c0.11,0.69-0.54,1.92-1.56,1.76
			c-0.91-0.14-1.69-0.13-1.84-0.13v3.56h26.83L63.71,5.9H26.28z"/>
		<path class="st3" d="M28.12,59.91c1.02,0.16,1.68-1.07,1.56-1.76c-0.13-0.81-0.9-2.38-1.12-4.49c-0.06-0.58,0.14-0.75,0.25-0.8
			c0.71-0.1,1.42-0.24,2.1-0.41c0.12,0.01,0.36,0.11,0.52,0.64c0.6,2.03,0.5,3.78,0.68,4.57c0.16,0.68,1.24,1.57,2.12,1.03
			c0.88-0.54,1.68-0.84,1.68-0.84s0.78-0.36,1.78-0.6c1-0.24,1.14-1.63,0.77-2.22c-0.43-0.69-1.74-1.85-2.75-3.72
			c-0.28-0.51-0.16-0.75-0.08-0.83c0.62-0.36,1.21-0.76,1.78-1.19c0.11-0.04,0.38-0.05,0.74,0.39c1.33,1.65,1.9,3.3,2.38,3.96
			c0.41,0.57,1.74,0.98,2.35,0.14c0.61-0.84,1.24-1.42,1.24-1.42s0.58-0.63,1.42-1.24c0.84-0.61,0.43-1.94-0.14-2.35
			c-0.66-0.47-2.32-1.05-3.96-2.38c-0.45-0.36-0.43-0.63-0.39-0.74c0.43-0.57,0.82-1.16,1.19-1.78c0.09-0.08,0.33-0.2,0.83,0.08
			c1.86,1.01,3.02,2.32,3.72,2.75c0.59,0.37,1.98,0.23,2.22-0.77s0.6-1.78,0.6-1.78s0.3-0.8,0.84-1.68
			c0.54-0.88-0.35-1.96-1.03-2.12c-0.8-0.18-2.54-0.08-4.57-0.68c-0.54-0.16-0.63-0.4-0.64-0.52c0.18-0.69,0.31-1.39,0.41-2.1
			c0.05-0.1,0.22-0.31,0.8-0.25c2.11,0.22,3.68,0.99,4.49,1.12c0.69,0.11,1.92-0.54,1.76-1.56c-0.16-1.02-0.13-1.87-0.13-1.87
			s-0.03-0.85,0.13-1.87c0.16-1.02-1.07-1.68-1.76-1.56c-0.81,0.13-2.38,0.9-4.49,1.12c-0.58,0.06-0.75-0.14-0.8-0.25
			c-0.1-0.72-0.24-1.42-0.41-2.1c0.01-0.12,0.11-0.36,0.64-0.52c2.03-0.6,3.78-0.5,4.57-0.68c0.68-0.16,1.57-1.24,1.03-2.12
			c-0.54-0.88-0.84-1.68-0.84-1.68s-0.36-0.78-0.6-1.78c-0.24-1-1.63-1.14-2.22-0.77c-0.69,0.43-1.85,1.74-3.72,2.75
			c-0.51,0.28-0.75,0.16-0.83,0.08c-0.36-0.62-0.76-1.21-1.19-1.78c-0.04-0.11-0.05-0.38,0.39-0.74c1.65-1.33,3.3-1.9,3.96-2.38
			c0.57-0.41,0.98-1.74,0.14-2.35c-0.84-0.61-1.42-1.24-1.42-1.24s-0.63-0.58-1.24-1.42c-0.61-0.84-1.94-0.43-2.35,0.14
			c-0.47,0.66-1.05,2.32-2.38,3.96c-0.36,0.45-0.63,0.43-0.74,0.39c-0.57-0.43-1.16-0.82-1.78-1.19c-0.08-0.09-0.2-0.33,0.08-0.83
			c1.01-1.86,2.32-3.02,2.75-3.72c0.37-0.59,0.23-1.98-0.77-2.22c-1-0.24-1.78-0.6-1.78-0.6s-0.8-0.3-1.68-0.84
			c-0.88-0.54-1.96,0.35-2.12,1.03c-0.18,0.8-0.08,2.54-0.68,4.57c-0.16,0.54-0.4,0.63-0.52,0.64c-0.69-0.18-1.39-0.31-2.1-0.41
			c-0.1-0.05-0.31-0.22-0.25-0.8c0.22-2.11,0.99-3.68,1.12-4.49c0.11-0.69-0.54-1.92-1.56-1.76c-0.91,0.14-1.69,0.13-1.84,0.13
			v50.53C26.43,59.78,27.21,59.77,28.12,59.91z"/>
	</g>
	<path class="st5" d="M24.44,60.01c-1.02,0.16-1.68-1.07-1.56-1.76c0.13-0.81,0.9-2.38,1.12-4.49c0.06-0.58-0.14-0.75-0.25-0.8
		c-0.71-0.1-1.42-0.24-2.1-0.41c-0.12,0.01-0.36,0.11-0.52,0.64c-0.6,2.03-0.5,3.78-0.68,4.57c-0.16,0.68-1.24,1.57-2.12,1.03
		c-0.88-0.54-1.68-0.84-1.68-0.84s-0.78-0.36-1.78-0.6c-1-0.24-1.14-1.63-0.77-2.22c0.43-0.69,1.74-1.85,2.75-3.72
		c0.28-0.51,0.16-0.75,0.08-0.83c-0.62-0.36-1.21-0.76-1.78-1.19c-0.11-0.04-0.38-0.05-0.74,0.39c-1.33,1.65-1.9,3.3-2.38,3.96
		c-0.41,0.57-1.74,0.98-2.35,0.14c-0.61-0.84-1.24-1.42-1.24-1.42s-0.58-0.63-1.42-1.24c-0.84-0.61-0.43-1.94,0.14-2.35
		c0.66-0.47,2.32-1.05,3.96-2.38c0.45-0.36,0.43-0.63,0.39-0.74c-0.43-0.57-0.82-1.16-1.19-1.78c-0.09-0.08-0.33-0.2-0.83,0.08
		c-1.86,1.01-3.02,2.32-3.72,2.75c-0.59,0.37-1.98,0.23-2.22-0.77s-0.6-1.78-0.6-1.78s-0.3-0.8-0.84-1.68
		c-0.54-0.88,0.35-1.96,1.03-2.12c0.8-0.18,2.54-0.08,4.57-0.68c0.54-0.16,0.63-0.4,0.64-0.52c-0.18-0.69-0.31-1.39-0.41-2.1
		c-0.05-0.1-0.22-0.31-0.8-0.25c-2.11,0.22-3.68,0.99-4.49,1.12c-0.69,0.11-1.92-0.54-1.76-1.56c0.16-1.02,0.13-1.87,0.13-1.87
		s0.03-0.85-0.13-1.87c-0.16-1.02,1.07-1.68,1.76-1.56c0.81,0.13,2.38,0.9,4.49,1.12c0.58,0.06,0.75-0.14,0.8-0.25
		c0.1-0.72,0.24-1.42,0.41-2.1c-0.01-0.12-0.11-0.36-0.64-0.52c-2.03-0.6-3.78-0.5-4.57-0.68c-0.68-0.16-1.57-1.24-1.03-2.12
		c0.54-0.88,0.84-1.68,0.84-1.68s0.36-0.78,0.6-1.78c0.24-1,1.63-1.14,2.22-0.77c0.69,0.43,1.85,1.74,3.72,2.75
		c0.51,0.28,0.75,0.16,0.83,0.08c0.36-0.62,0.76-1.21,1.19-1.78c0.04-0.11,0.05-0.38-0.39-0.74c-1.65-1.33-3.3-1.9-3.96-2.38
		c-0.57-0.41-0.98-1.74-0.14-2.35c0.84-0.61,1.42-1.24,1.42-1.24s0.63-0.58,1.24-1.42c0.61-0.84,1.94-0.43,2.35,0.14
		c0.47,0.66,1.05,2.32,2.38,3.96c0.36,0.45,0.63,0.43,0.74,0.39c0.57-0.43,1.16-0.82,1.78-1.19c0.08-0.09,0.2-0.33-0.08-0.83
		c-1.01-1.86-2.32-3.02-2.75-3.72c-0.37-0.59-0.23-1.98,0.77-2.22c1-0.24,1.78-0.6,1.78-0.6s0.8-0.3,1.68-0.84
		c0.88-0.54,1.96,0.35,2.12,1.03c0.18,0.8,0.08,2.54,0.68,4.57c0.16,0.54,0.4,0.63,0.52,0.64c0.69-0.18,1.39-0.31,2.1-0.41
		c0.1-0.05,0.31-0.22,0.25-0.8c-0.22-2.11-0.99-3.68-1.12-4.49c-0.11-0.69,0.54-1.92,1.56-1.76c0.91,0.14,1.69,0.13,1.84,0.13v50.53
		C26.12,59.88,25.35,59.87,24.44,60.01z"/>
	<g>
		<g>
			<path class="st5" d="M275.41,55.38l7.14-40.4h9.4c6.19,0,10.23,3.69,8.75,11.84l-2.97,16.96c-1.43,7.97-5.53,11.6-11.78,11.6
				H275.41z M285.95,50.8c3.15,0,5.89-2.14,6.84-7.38l2.92-16.48c0.83-5.18-1.07-7.38-4.23-7.38h-4.76l-5.47,31.24H285.95z"/>
			<path class="st5" d="M301.84,46.64l2.14-11.9c1.07-6.01,4.17-9.1,8.57-9.1c2.68,0,4.82,1.49,5.3,3.81l0.59-3.21h4.76l-5.18,29.16
				h-4.76l0.6-2.86c-1.31,2.26-3.27,3.45-5.95,3.45C303.44,55.98,300.77,52.77,301.84,46.64z M314.81,46.52l1.96-11.31
				c0.66-3.39-0.59-5.24-3.09-5.24c-2.5,0-4.4,1.84-5,5.18l-2.02,11.43c-0.59,3.27,0.71,5.06,3.27,5.06
				C312.37,51.64,314.21,49.85,314.81,46.52z"/>
			<path class="st5" d="M335.22,55.09c-1.25,0.54-2.74,0.89-4.52,0.89c-3.99,0-5.89-2.26-5.12-7.02l3.33-18.8h-3.21l0.71-3.93
				c3.87,0,5.18-0.18,6.96-9.52h3.15l-1.73,9.52h5.36l-0.72,3.93h-5.71l-3.15,17.97c-0.48,2.56,0.42,3.39,1.78,3.39
				c1.31,0,2.62-0.54,3.69-1.19L335.22,55.09z"/>
			<path class="st5" d="M339.44,46.64l2.14-11.9c1.07-6.01,4.17-9.1,8.57-9.1c2.68,0,4.82,1.49,5.3,3.81l0.59-3.21h4.76l-5.18,29.16
				h-4.76l0.6-2.86c-1.31,2.26-3.27,3.45-5.95,3.45C341.05,55.98,338.37,52.77,339.44,46.64z M352.42,46.52l1.96-11.31
				c0.66-3.39-0.59-5.24-3.09-5.24c-2.5,0-4.4,1.84-5,5.18l-2.02,11.43c-0.59,3.27,0.71,5.06,3.27,5.06
				C349.98,51.64,351.82,49.85,352.42,46.52z"/>
			<path class="st5" d="M375.27,55.38h-5l7.14-40.4h9.64c5.71,0,9.16,3.03,8.09,9.22l-1.31,7.2c-1.01,5.89-4.46,8.93-10.06,8.93
				h-5.89L375.27,55.38z M388.9,30.93l1.13-6.37c0.6-3.45-1.07-5-4.17-5h-4.28l-2.92,16.48h4.4C386.1,36.04,388.3,34.5,388.9,30.93z
				"/>
			<path class="st5" d="M394.91,46.4l2.02-11.31c1.13-6.37,5-9.46,10-9.46c5.06,0,8.87,3.09,7.68,9.64l-2.02,11.37
				c-1.07,6.31-4.94,9.34-9.94,9.34C397.65,55.98,393.78,52.94,394.91,46.4z M407.82,46.58l2.02-11.43
				c0.59-3.33-0.65-5.18-3.21-5.18c-2.44,0-4.28,1.84-4.88,5.24l-2.02,11.31c-0.59,3.33,0.65,5.12,3.09,5.12
				C405.32,51.64,407.29,49.85,407.82,46.58z"/>
			<path class="st5" d="M421.03,26.23h4.82l-0.59,3.57c1.61-3.04,3.99-4.17,7.97-4.17l-1.07,5.53c-0.54-0.3-1.84-0.48-2.32-0.48
				c-3.93,0-5.3,2.92-6.31,8.51l-2.8,16.18h-4.82L421.03,26.23z"/>
			<path class="st5" d="M442.93,55.09c-1.25,0.54-2.74,0.89-4.52,0.89c-3.99,0-5.89-2.26-5.12-7.02l3.33-18.8h-3.21l0.71-3.93
				c3.87,0,5.18-0.18,6.96-9.52h3.15l-1.73,9.52h5.36l-0.72,3.93h-5.71l-3.15,17.97c-0.48,2.56,0.42,3.39,1.79,3.39
				c1.31,0,2.62-0.54,3.69-1.19L442.93,55.09z"/>
			<path class="st5" d="M447.16,46.64l2.14-11.9c1.07-6.01,4.17-9.1,8.57-9.1c2.68,0,4.82,1.49,5.3,3.81l0.59-3.21h4.76l-5.18,29.16
				h-4.76l0.6-2.86c-1.31,2.26-3.27,3.45-5.95,3.45C448.76,55.98,446.09,52.77,447.16,46.64z M460.13,46.52l1.96-11.31
				c0.66-3.39-0.59-5.24-3.09-5.24c-2.5,0-4.4,1.84-5,5.18l-2.02,11.43c-0.59,3.27,0.71,5.06,3.27,5.06
				C457.69,51.64,459.54,49.85,460.13,46.52z"/>
			<path class="st5" d="M473.58,55.38h-2.2c-1.96,0-2.44-0.83-2.08-2.8l6.61-37.61h4.82L473.58,55.38z"/>
		</g>
		<g>
			<g>
				<path d="M94.64,40.33l-0.55,2.99c-1.53,8.62-6.6,12.65-13.26,12.65c-7.03,0-12.16-4.03-10.51-13.45l2.93-16.62
					c1.53-8.56,6.3-12.65,13.26-12.65c6.72,0,12.16,4.09,10.57,13.14l-0.49,2.57l-7.27,0.49l0.37-2.51
					c0.73-3.73-0.67-5.26-3.06-5.26c-2.38,0-4.28,1.53-4.95,5.26L79,42.17c-0.67,3.91,0.73,5.38,3.12,5.38
					c2.38,0,4.22-1.47,4.95-5.38l0.43-2.38L94.64,40.33z"/>
				<path d="M127.04,26.64l-2.93,16.68c-1.47,8.62-6.91,12.65-14,12.65c-7.03,0-12.77-4.03-11.18-13.45l2.93-16.62
					c1.53-8.56,6.97-12.65,14.06-12.65C122.88,13.26,128.69,17.35,127.04,26.64z M110.35,26.95l-2.75,15.22
					c-0.67,3.91,0.73,5.38,3.12,5.38c2.38,0,4.28-1.47,4.95-5.38l2.69-15.22c0.67-3.73-0.73-5.26-3.06-5.26
					C112.92,21.69,110.96,23.22,110.35,26.95z"/>
				<path d="M150.75,13.87h8.07l-15.4,41.5h-10.21l-1.1-41.5h9.41l-0.18,27.01L150.75,13.87z"/>
				<path d="M171.84,13.87l-7.33,41.5h-8.56l7.33-41.5H171.84z"/>
				<path d="M171.05,55.37l7.33-41.5h11.18c7.03,0,12.16,3.73,10.51,12.9l-2.87,16.32c-1.53,8.62-6.11,12.28-13.14,12.28H171.05z
					 M183.82,47.3c2.38,0,4.28-1.47,4.95-5.38l2.63-14.73c0.61-3.73-0.73-5.26-3.12-5.26h-2.69l-4.52,25.36H183.82z"/>
				<path d="M204.6,33.64h15.65l-1.16,6.3h-15.59L204.6,33.64z"/>
				<path d="M229.05,17.66l7.52-3.79h1.83l-7.33,41.5h-8.68L229.05,17.66z"/>
				<path d="M255.03,37.77c-1.34,1.71-3.24,3.3-6.54,3.3c-5.32,0-8.68-3.18-7.52-9.96l1.04-5.5c1.4-8.31,5.62-12.35,12.89-12.35
					c8.01,0,12.28,4.03,10.82,12.35l-2.99,16.87c-1.47,8.25-5.44,13.51-13.51,13.51c-8.13,0-11.49-4.16-10.33-10.57l0.24-1.59
					l7.27-0.55L246.35,44c-0.49,2.57,0.37,4.22,2.93,4.22c2.57,0,4.34-2.08,4.95-5.56L255.03,37.77z M257.04,25.85
					c0.55-3.12-0.43-4.89-2.93-4.89c-2.57,0-4.09,1.77-4.71,4.89l-0.73,4.22c-0.49,2.93,0.3,4.89,2.93,4.89
					c2.63,0,4.16-1.96,4.65-4.89L257.04,25.85z"/>
			</g>
		</g>
	</g>
	<g class="st0">
		<path class="st6" d="M75.13,91.89l-2.08,3.64h-2.5L80,78.93l4.48,16.59h-2.4l-0.93-3.64H75.13z M76.23,89.9h4.37l-1.38-5.51
			L76.23,89.9z"/>
		<path class="st6" d="M94.54,86.99l-0.4,2.26c-0.42-0.58-0.84-1-1.24-1.25c-0.4-0.25-0.87-0.37-1.43-0.37
			c-0.84,0-1.55,0.31-2.13,0.93c-0.57,0.62-0.89,1.42-0.94,2.4c-0.05,0.92,0.17,1.65,0.65,2.2c0.49,0.56,1.14,0.83,1.95,0.83
			c0.78,0,1.61-0.34,2.48-1.01l-0.41,2.34c-0.87,0.35-1.7,0.52-2.48,0.52c-1.38,0-2.49-0.45-3.31-1.35
			c-0.82-0.9-1.19-2.07-1.11-3.51c0.08-1.48,0.61-2.71,1.59-3.7c0.99-1,2.18-1.49,3.57-1.49C92.48,85.77,93.55,86.17,94.54,86.99z"
			/>
		<path class="st6" d="M103.96,86.99l-0.4,2.26c-0.42-0.58-0.84-1-1.24-1.25c-0.4-0.25-0.87-0.37-1.43-0.37
			c-0.84,0-1.55,0.31-2.13,0.93c-0.57,0.62-0.89,1.42-0.94,2.4c-0.05,0.92,0.17,1.65,0.65,2.2c0.49,0.56,1.14,0.83,1.95,0.83
			c0.78,0,1.61-0.34,2.48-1.01l-0.41,2.34c-0.87,0.35-1.7,0.52-2.48,0.52c-1.38,0-2.49-0.45-3.31-1.35
			c-0.82-0.9-1.19-2.07-1.11-3.51c0.08-1.48,0.61-2.71,1.59-3.7c0.99-1,2.18-1.49,3.57-1.49C101.9,85.77,102.97,86.17,103.96,86.99z
			"/>
		<path class="st6" d="M107.26,91.6c-0.04,0.7,0.17,1.27,0.63,1.72c0.46,0.45,1.08,0.67,1.83,0.67c1.04,0,1.85-0.39,2.45-1.16
			l1.61,0.91c-0.62,0.78-1.24,1.32-1.86,1.63c-0.63,0.31-1.41,0.47-2.33,0.47c-1.46,0-2.61-0.43-3.43-1.29
			c-0.82-0.86-1.2-2.02-1.12-3.46c0.08-1.51,0.62-2.78,1.63-3.79c1-1.01,2.23-1.51,3.68-1.51c1.4,0,2.49,0.45,3.25,1.36
			c0.77,0.92,1.12,2.14,1.04,3.68c-0.01,0.16-0.03,0.42-0.07,0.78H107.26z M112.44,89.81c-0.16-1.46-0.93-2.19-2.3-2.19
			c-1.3,0-2.19,0.73-2.66,2.19H112.44z"/>
		<path class="st6" d="M121.5,78.58l-2.96,16.94h-2.22l2.97-16.94H121.5z"/>
		<path class="st6" d="M124.11,91.6c-0.04,0.7,0.17,1.27,0.63,1.72c0.46,0.45,1.08,0.67,1.83,0.67c1.04,0,1.85-0.39,2.45-1.16
			l1.61,0.91c-0.62,0.78-1.24,1.32-1.86,1.63c-0.63,0.31-1.41,0.47-2.33,0.47c-1.46,0-2.61-0.43-3.43-1.29
			c-0.82-0.86-1.2-2.02-1.12-3.46c0.08-1.51,0.62-2.78,1.63-3.79c1-1.01,2.23-1.51,3.68-1.51c1.4,0,2.49,0.45,3.25,1.36
			c0.77,0.92,1.12,2.14,1.04,3.68c-0.01,0.16-0.03,0.42-0.07,0.78H124.11z M129.29,89.81c-0.16-1.46-0.93-2.19-2.3-2.19
			c-1.3,0-2.19,0.73-2.66,2.19H129.29z"/>
		<path class="st6" d="M137.04,86.08l-0.14,0.81c0.79-0.71,1.56-1.06,2.32-1.06c0.67,0,1.26,0.24,1.79,0.73l-1.51,1.83
			c-0.39-0.35-0.79-0.52-1.2-0.52c-0.28,0-0.53,0.06-0.75,0.17c-0.22,0.11-0.41,0.28-0.58,0.52c-0.17,0.24-0.32,0.54-0.44,0.92
			c-0.12,0.37-0.23,0.82-0.32,1.34l-0.83,4.72h-2.22l1.66-9.45H137.04z"/>
		<path class="st6" d="M151.81,86.08l-1.66,9.45h-2.22l0.18-1.02c-0.99,0.83-2,1.24-3.01,1.24c-1.25,0-2.25-0.42-2.99-1.27
			c-0.74-0.85-1.08-1.95-1.01-3.3c0.08-1.56,0.6-2.84,1.56-3.83c0.97-1,2.17-1.49,3.6-1.49c0.68,0,1.24,0.11,1.71,0.33
			c0.47,0.22,0.94,0.6,1.41,1.14l0.22-1.24H151.81z M148.87,90.53c0.04-0.84-0.16-1.51-0.62-2.04c-0.45-0.53-1.06-0.79-1.82-0.79
			c-0.83,0-1.54,0.32-2.14,0.97c-0.6,0.66-0.92,1.46-0.97,2.41c-0.04,0.83,0.16,1.51,0.6,2.04s1.03,0.79,1.76,0.79
			c0.82,0,1.54-0.33,2.17-0.99C148.49,92.24,148.83,91.45,148.87,90.53z"/>
		<path class="st6" d="M156.92,88.13l-1.3,7.39h-2.22l1.3-7.39h-1.25l0.36-2.06h1.25l0.77-4.38h2.22l-0.77,4.38h2.05l-0.36,2.06
			H156.92z"/>
		<path class="st6" d="M163.14,86.08l-1.66,9.45h-2.22l1.66-9.45H163.14z M164.07,81.58c-0.02,0.32-0.15,0.6-0.39,0.83
			c-0.25,0.24-0.53,0.35-0.86,0.35s-0.61-0.12-0.83-0.36c-0.22-0.25-0.32-0.54-0.31-0.87c0.02-0.33,0.15-0.6,0.38-0.83
			c0.25-0.23,0.53-0.35,0.85-0.35c0.33,0,0.61,0.12,0.83,0.37C163.98,80.96,164.09,81.25,164.07,81.58z"/>
		<path class="st6" d="M168.45,86.08l-0.15,0.87c0.91-0.73,1.82-1.1,2.72-1.1c0.92,0,1.65,0.26,2.18,0.77
			c0.51,0.52,0.75,1.22,0.7,2.11c-0.03,0.48-0.1,1.06-0.21,1.73l-0.9,5.08h-2.21l0.97-5.56c0.04-0.21,0.07-0.39,0.08-0.55
			c0.02-0.16,0.03-0.3,0.04-0.43c0.04-0.86-0.39-1.28-1.32-1.28c-0.57,0-1.07,0.17-1.49,0.52c-0.35,0.27-0.61,0.61-0.8,1
			c-0.1,0.2-0.18,0.45-0.26,0.74c-0.08,0.29-0.15,0.63-0.21,1.01l-0.8,4.55h-2.22l1.66-9.45H168.45z"/>
		<path class="st6" d="M187.04,86.08l-1.66,9.52c-0.1,0.57-0.21,1.06-0.32,1.48c-0.11,0.42-0.23,0.77-0.36,1.06
			c-0.26,0.59-0.64,1.09-1.12,1.52c-0.94,0.8-2.12,1.2-3.55,1.2c-1.48,0-2.66-0.39-3.53-1.16c-0.45-0.39-0.75-0.83-0.91-1.32
			c-0.16-0.45-0.22-1.09-0.18-1.92h2.15c0.01,0.89,0.2,1.54,0.58,1.94c0.38,0.41,0.99,0.61,1.83,0.61c0.91,0,1.61-0.24,2.11-0.73
			c0.5-0.48,0.84-1.26,1.02-2.31l0.23-1.29c-0.97,0.72-1.98,1.07-3.01,1.07c-1.28,0-2.32-0.44-3.11-1.31
			c-0.79-0.9-1.15-2.01-1.08-3.35c0.08-1.5,0.63-2.75,1.65-3.74c1.03-1,2.28-1.49,3.74-1.49c0.7,0,1.27,0.1,1.69,0.31
			c0.46,0.2,0.94,0.57,1.42,1.09l0.2-1.17H187.04z M184.26,90.56c0.04-0.86-0.18-1.54-0.67-2.07c-0.49-0.53-1.16-0.79-2.01-0.79
			c-0.88,0-1.62,0.32-2.24,0.96c-0.61,0.64-0.94,1.44-0.99,2.4c-0.04,0.84,0.17,1.53,0.63,2.07c0.47,0.52,1.12,0.77,1.95,0.77
			c0.92,0,1.69-0.31,2.31-0.94C183.87,92.32,184.21,91.52,184.26,90.56z"/>
		<path class="st6" d="M198.71,86.08l-0.14,0.81c0.79-0.71,1.56-1.06,2.32-1.06c0.67,0,1.26,0.24,1.79,0.73l-1.51,1.83
			c-0.39-0.35-0.79-0.52-1.2-0.52c-0.28,0-0.53,0.06-0.75,0.17c-0.22,0.11-0.41,0.28-0.58,0.52c-0.17,0.24-0.32,0.54-0.44,0.92
			c-0.12,0.37-0.23,0.82-0.32,1.34l-0.83,4.72h-2.22l1.66-9.45H198.71z"/>
		<path class="st6" d="M205.04,91.6c-0.04,0.7,0.17,1.27,0.63,1.72c0.46,0.45,1.08,0.67,1.83,0.67c1.04,0,1.85-0.39,2.45-1.16
			l1.61,0.91c-0.62,0.78-1.24,1.32-1.86,1.63c-0.63,0.31-1.41,0.47-2.33,0.47c-1.46,0-2.61-0.43-3.43-1.29
			c-0.82-0.86-1.2-2.02-1.12-3.46c0.08-1.51,0.62-2.78,1.63-3.79c1-1.01,2.23-1.51,3.68-1.51c1.4,0,2.49,0.45,3.25,1.36
			c0.77,0.92,1.12,2.14,1.04,3.68c-0.01,0.16-0.03,0.42-0.07,0.78H205.04z M210.22,89.81c-0.16-1.46-0.93-2.19-2.3-2.19
			c-1.3,0-2.19,0.73-2.66,2.19H210.22z"/>
		<path class="st6" d="M221.33,87.12l-1.32,1.25c-0.56-0.53-1.09-0.79-1.59-0.79c-0.34,0-0.63,0.1-0.86,0.29
			c-0.23,0.19-0.36,0.43-0.37,0.71c-0.01,0.27,0.07,0.5,0.24,0.69c0.18,0.19,0.55,0.45,1.13,0.78c0.82,0.47,1.37,0.91,1.64,1.3
			c0.29,0.39,0.41,0.89,0.38,1.52c-0.05,0.9-0.4,1.61-1.05,2.16c-0.66,0.54-1.5,0.8-2.52,0.8c-1.38,0-2.5-0.62-3.34-1.88l1.51-1.01
			c0.56,0.72,1.17,1.07,1.85,1.07c0.38,0,0.69-0.1,0.93-0.3c0.24-0.2,0.37-0.46,0.39-0.78c0.01-0.28-0.07-0.51-0.26-0.68
			c-0.09-0.09-0.25-0.21-0.47-0.36c-0.23-0.15-0.53-0.34-0.92-0.55c-0.69-0.39-1.16-0.78-1.41-1.15c-0.25-0.39-0.37-0.88-0.34-1.44
			c0.04-0.86,0.4-1.57,1.05-2.13c0.66-0.56,1.47-0.84,2.44-0.84C219.51,85.77,220.47,86.22,221.33,87.12z"/>
		<path class="st6" d="M224.87,91.6c-0.04,0.7,0.17,1.27,0.63,1.72c0.46,0.45,1.08,0.67,1.83,0.67c1.04,0,1.85-0.39,2.45-1.16
			l1.61,0.91c-0.62,0.78-1.24,1.32-1.86,1.63c-0.63,0.31-1.41,0.47-2.33,0.47c-1.46,0-2.61-0.43-3.43-1.29
			c-0.82-0.86-1.2-2.02-1.12-3.46c0.08-1.51,0.62-2.78,1.63-3.79c1-1.01,2.23-1.51,3.68-1.51c1.4,0,2.49,0.45,3.25,1.36
			c0.77,0.92,1.12,2.14,1.04,3.68c-0.01,0.16-0.03,0.42-0.07,0.78H224.87z M230.05,89.81c-0.16-1.46-0.93-2.19-2.3-2.19
			c-1.3,0-2.19,0.73-2.66,2.19H230.05z"/>
		<path class="st6" d="M244.85,86.08l-1.66,9.45h-2.22l0.18-1.02c-0.99,0.83-2,1.24-3.01,1.24c-1.25,0-2.25-0.42-2.99-1.27
			c-0.74-0.85-1.08-1.95-1.01-3.3c0.08-1.56,0.6-2.84,1.55-3.83c0.97-1,2.17-1.49,3.6-1.49c0.67,0,1.24,0.11,1.71,0.33
			c0.47,0.22,0.94,0.6,1.41,1.14l0.22-1.24H244.85z M241.92,90.53c0.04-0.84-0.16-1.51-0.62-2.04c-0.45-0.53-1.06-0.79-1.82-0.79
			c-0.83,0-1.54,0.32-2.14,0.97c-0.6,0.66-0.92,1.46-0.97,2.41c-0.04,0.83,0.15,1.51,0.59,2.04s1.03,0.79,1.76,0.79
			c0.82,0,1.54-0.33,2.17-0.99C241.53,92.24,241.87,91.45,241.92,90.53z"/>
		<path class="st6" d="M250.17,86.08l-0.14,0.81c0.79-0.71,1.56-1.06,2.32-1.06c0.67,0,1.26,0.24,1.79,0.73l-1.51,1.83
			c-0.39-0.35-0.79-0.52-1.2-0.52c-0.28,0-0.53,0.06-0.75,0.17c-0.22,0.11-0.41,0.28-0.58,0.52c-0.17,0.24-0.32,0.54-0.44,0.92
			c-0.12,0.37-0.23,0.82-0.32,1.34l-0.83,4.72h-2.22l1.66-9.45H250.17z"/>
		<path class="st6" d="M262.64,86.99l-0.4,2.26c-0.42-0.58-0.84-1-1.24-1.25c-0.4-0.25-0.87-0.37-1.43-0.37
			c-0.84,0-1.55,0.31-2.13,0.93c-0.57,0.62-0.89,1.42-0.94,2.4c-0.05,0.92,0.17,1.65,0.65,2.2c0.49,0.56,1.14,0.83,1.95,0.83
			c0.78,0,1.61-0.34,2.48-1.01l-0.41,2.34c-0.87,0.35-1.7,0.52-2.48,0.52c-1.38,0-2.49-0.45-3.31-1.35
			c-0.82-0.9-1.19-2.07-1.11-3.51c0.08-1.48,0.61-2.71,1.59-3.7c0.99-1,2.18-1.49,3.57-1.49C260.58,85.77,261.65,86.17,262.64,86.99
			z"/>
		<path class="st6" d="M268.95,78.58l-1.46,8.3c0.93-0.69,1.85-1.03,2.76-1.03c0.92,0,1.65,0.24,2.17,0.73
			c0.54,0.48,0.79,1.11,0.75,1.9c-0.01,0.19-0.03,0.4-0.06,0.64c-0.03,0.24-0.07,0.51-0.12,0.81l-0.99,5.61h-2.22l1-5.73
			c0.06-0.31,0.09-0.58,0.1-0.83c0.04-0.84-0.43-1.26-1.42-1.26c-1.42,0-2.29,0.96-2.63,2.88l-0.87,4.95h-2.22l2.97-16.94H268.95z"
			/>
		<path class="st6" d="M285.12,88.13l-1.3,7.39h-2.22l1.3-7.39h-1.25l0.36-2.06h1.25l0.77-4.38h2.22l-0.77,4.38h2.05l-0.36,2.06
			H285.12z"/>
		<path class="st6" d="M292.87,78.58l-1.46,8.3c0.93-0.69,1.85-1.03,2.76-1.03c0.92,0,1.65,0.24,2.17,0.73
			c0.54,0.48,0.79,1.11,0.75,1.9c-0.01,0.19-0.03,0.4-0.06,0.64c-0.03,0.24-0.07,0.51-0.12,0.81l-0.99,5.61h-2.22l1-5.73
			c0.06-0.31,0.09-0.58,0.1-0.83c0.04-0.84-0.43-1.26-1.42-1.26c-1.42,0-2.29,0.96-2.63,2.88l-0.87,4.95h-2.22l2.97-16.94H292.87z"
			/>
		<path class="st6" d="M302.9,86.08l-0.14,0.81c0.79-0.71,1.56-1.06,2.32-1.06c0.67,0,1.26,0.24,1.79,0.73l-1.51,1.83
			c-0.39-0.35-0.79-0.52-1.2-0.52c-0.28,0-0.53,0.06-0.75,0.17c-0.22,0.11-0.41,0.28-0.58,0.52c-0.17,0.24-0.32,0.54-0.44,0.92
			c-0.12,0.37-0.23,0.82-0.32,1.34l-0.83,4.72h-2.22l1.66-9.45H302.9z"/>
		<path class="st6" d="M317.43,90.71c-0.08,1.44-0.64,2.66-1.7,3.64c-1.05,0.98-2.3,1.47-3.77,1.47c-1.53,0-2.76-0.46-3.68-1.39
			c-0.93-0.94-1.35-2.12-1.28-3.55c0.08-1.46,0.65-2.68,1.71-3.65c1.07-0.98,2.36-1.46,3.89-1.46c1.5,0,2.69,0.46,3.59,1.38
			C317.09,88.06,317.51,89.25,317.43,90.71z M315.2,90.6c0.05-0.91-0.18-1.63-0.68-2.16c-0.5-0.55-1.18-0.82-2.03-0.82
			c-0.89,0-1.64,0.3-2.26,0.91c-0.61,0.62-0.95,1.39-0.99,2.32c-0.05,0.94,0.19,1.69,0.7,2.26c0.52,0.58,1.21,0.87,2.08,0.87
			s1.6-0.32,2.2-0.95C314.82,92.4,315.15,91.59,315.2,90.6z"/>
		<path class="st6" d="M328.9,86.08l-0.96,5.5c-0.08,0.47-0.17,0.88-0.26,1.22c-0.1,0.35-0.2,0.64-0.31,0.87
			c-0.21,0.45-0.55,0.85-1.01,1.19c-0.78,0.59-1.78,0.88-3.01,0.88c-1.16,0-2.08-0.3-2.74-0.89c-0.66-0.6-0.97-1.41-0.92-2.42
			c0.01-0.15,0.03-0.33,0.05-0.54c0.03-0.21,0.06-0.44,0.11-0.71l0.89-5.11h2.22l-0.93,5.31c-0.04,0.23-0.07,0.43-0.09,0.6
			c-0.02,0.17-0.04,0.31-0.04,0.43c-0.05,1,0.51,1.5,1.68,1.5c0.64,0,1.11-0.16,1.43-0.49c0.32-0.33,0.55-0.9,0.69-1.73l0.99-5.61
			H328.9z"/>
		<path class="st6" d="M341.5,86.08l-1.66,9.52c-0.1,0.57-0.21,1.06-0.32,1.48c-0.11,0.42-0.23,0.77-0.36,1.06
			c-0.26,0.59-0.64,1.09-1.12,1.52c-0.94,0.8-2.12,1.2-3.55,1.2c-1.48,0-2.66-0.39-3.53-1.16c-0.45-0.39-0.75-0.83-0.91-1.32
			c-0.16-0.45-0.22-1.09-0.18-1.92H332c0.01,0.89,0.2,1.54,0.58,1.94c0.38,0.41,0.99,0.61,1.83,0.61c0.91,0,1.62-0.24,2.12-0.73
			c0.5-0.48,0.84-1.26,1.02-2.31l0.23-1.29c-0.97,0.72-1.98,1.07-3.01,1.07c-1.28,0-2.32-0.44-3.11-1.31
			c-0.79-0.9-1.15-2.01-1.08-3.35c0.08-1.5,0.63-2.75,1.65-3.74c1.03-1,2.28-1.49,3.74-1.49c0.7,0,1.27,0.1,1.69,0.31
			c0.46,0.2,0.94,0.57,1.42,1.09l0.2-1.17H341.5z M338.72,90.56c0.04-0.86-0.18-1.54-0.67-2.07c-0.49-0.53-1.16-0.79-2.01-0.79
			c-0.88,0-1.62,0.32-2.24,0.96c-0.61,0.64-0.94,1.44-0.99,2.4c-0.04,0.84,0.17,1.53,0.63,2.07c0.47,0.52,1.12,0.77,1.95,0.77
			c0.92,0,1.68-0.31,2.31-0.94C338.32,92.32,338.66,91.52,338.72,90.56z"/>
		<path class="st6" d="M348.14,78.58l-1.46,8.3c0.93-0.69,1.85-1.03,2.76-1.03c0.92,0,1.65,0.24,2.17,0.73
			c0.54,0.48,0.79,1.11,0.75,1.9c-0.01,0.19-0.03,0.4-0.06,0.64c-0.03,0.24-0.07,0.51-0.12,0.81l-0.99,5.61h-2.22l1-5.73
			c0.06-0.31,0.09-0.58,0.1-0.83c0.04-0.84-0.43-1.26-1.42-1.26c-1.42,0-2.29,0.96-2.63,2.88l-0.87,4.95h-2.22l2.97-16.94H348.14z"
			/>
		<path class="st6" d="M373.12,78.58l-2.97,16.94h-2.21l0.17-1.01c-0.57,0.49-1.07,0.82-1.48,0.99c-0.4,0.16-0.9,0.24-1.48,0.24
			c-1.32,0-2.38-0.44-3.18-1.31c-0.8-0.88-1.16-2.02-1.09-3.41c0.08-1.48,0.6-2.72,1.58-3.7s2.16-1.47,3.56-1.47
			c0.72,0,1.31,0.12,1.79,0.37c0.5,0.25,1,0.69,1.53,1.29l1.56-8.93H373.12z M368.85,90.39c0.04-0.8-0.17-1.45-0.64-1.95
			c-0.47-0.49-1.1-0.74-1.91-0.74c-0.87,0-1.61,0.32-2.21,0.97c-0.6,0.65-0.93,1.47-0.98,2.46c-0.04,0.84,0.16,1.51,0.63,2.02
			c0.46,0.5,1.1,0.75,1.91,0.75c0.84,0,1.57-0.34,2.19-1.02C368.46,92.21,368.8,91.38,368.85,90.39z"/>
		<path class="st6" d="M384.35,86.08l-1.66,9.45h-2.22l0.18-1.02c-0.99,0.83-2,1.24-3.01,1.24c-1.25,0-2.25-0.42-2.99-1.27
			c-0.75-0.85-1.08-1.95-1.01-3.3c0.08-1.56,0.6-2.84,1.56-3.83c0.97-1,2.17-1.49,3.6-1.49c0.67,0,1.24,0.11,1.71,0.33
			c0.47,0.22,0.94,0.6,1.41,1.14l0.22-1.24H384.35z M381.42,90.53c0.04-0.84-0.16-1.51-0.62-2.04c-0.45-0.53-1.06-0.79-1.82-0.79
			c-0.83,0-1.54,0.32-2.14,0.97c-0.6,0.66-0.92,1.46-0.97,2.41c-0.04,0.83,0.15,1.51,0.59,2.04c0.44,0.53,1.03,0.79,1.76,0.79
			c0.82,0,1.54-0.33,2.17-0.99C381.03,92.24,381.37,91.45,381.42,90.53z"/>
		<path class="st6" d="M389.46,88.13l-1.3,7.39h-2.22l1.3-7.39h-1.25l0.36-2.06h1.25l0.77-4.38h2.22l-0.77,4.38h2.05l-0.36,2.06
			H389.46z"/>
		<path class="st6" d="M403.12,86.08l-1.66,9.45h-2.22l0.18-1.02c-0.99,0.83-2,1.24-3.01,1.24c-1.25,0-2.25-0.42-2.99-1.27
			c-0.75-0.85-1.08-1.95-1.01-3.3c0.08-1.56,0.6-2.84,1.56-3.83c0.97-1,2.17-1.49,3.6-1.49c0.67,0,1.24,0.11,1.71,0.33
			c0.47,0.22,0.94,0.6,1.41,1.14l0.22-1.24H403.12z M400.19,90.53c0.04-0.84-0.16-1.51-0.62-2.04c-0.45-0.53-1.06-0.79-1.82-0.79
			c-0.83,0-1.54,0.32-2.14,0.97c-0.6,0.66-0.92,1.46-0.97,2.41c-0.04,0.83,0.15,1.51,0.59,2.04c0.44,0.53,1.03,0.79,1.76,0.79
			c0.82,0,1.54-0.33,2.17-0.99C399.8,92.24,400.14,91.45,400.19,90.53z"/>
		<path class="st6" d="M418.13,87.12l-1.32,1.25c-0.56-0.53-1.09-0.79-1.59-0.79c-0.34,0-0.63,0.1-0.86,0.29
			c-0.23,0.19-0.36,0.43-0.37,0.71c-0.01,0.27,0.07,0.5,0.24,0.69c0.18,0.19,0.56,0.45,1.13,0.78c0.82,0.47,1.37,0.91,1.64,1.3
			c0.29,0.39,0.41,0.89,0.38,1.52c-0.05,0.9-0.4,1.61-1.05,2.16c-0.66,0.54-1.5,0.8-2.52,0.8c-1.38,0-2.5-0.62-3.34-1.88l1.51-1.01
			c0.56,0.72,1.17,1.07,1.85,1.07c0.38,0,0.69-0.1,0.93-0.3c0.24-0.2,0.37-0.46,0.39-0.78c0.01-0.28-0.07-0.51-0.25-0.68
			c-0.09-0.09-0.25-0.21-0.47-0.36c-0.23-0.15-0.53-0.34-0.92-0.55c-0.69-0.39-1.16-0.78-1.41-1.15c-0.25-0.39-0.36-0.88-0.34-1.44
			c0.04-0.86,0.4-1.57,1.05-2.13s1.47-0.84,2.44-0.84C416.32,85.77,417.28,86.22,418.13,87.12z"/>
		<path class="st6" d="M424.39,78.58l-1.46,8.3c0.93-0.69,1.85-1.03,2.76-1.03c0.92,0,1.65,0.24,2.17,0.73
			c0.54,0.48,0.79,1.11,0.75,1.9c-0.01,0.19-0.03,0.4-0.06,0.64c-0.03,0.24-0.07,0.51-0.12,0.81l-0.99,5.61h-2.22l1-5.73
			c0.06-0.31,0.09-0.58,0.1-0.83c0.04-0.84-0.43-1.26-1.42-1.26c-1.42,0-2.29,0.96-2.63,2.88l-0.87,4.95h-2.22l2.97-16.94H424.39z"
			/>
		<path class="st6" d="M441.48,86.08l-1.66,9.45h-2.22l0.18-1.02c-0.99,0.83-2,1.24-3.01,1.24c-1.25,0-2.25-0.42-2.99-1.27
			c-0.75-0.85-1.08-1.95-1.01-3.3c0.08-1.56,0.6-2.84,1.56-3.83c0.97-1,2.17-1.49,3.6-1.49c0.67,0,1.24,0.11,1.71,0.33
			c0.47,0.22,0.94,0.6,1.41,1.14l0.22-1.24H441.48z M438.54,90.53c0.04-0.84-0.16-1.51-0.62-2.04c-0.45-0.53-1.06-0.79-1.82-0.79
			c-0.83,0-1.54,0.32-2.14,0.97c-0.6,0.66-0.92,1.46-0.97,2.41c-0.04,0.83,0.15,1.51,0.59,2.04c0.44,0.53,1.03,0.79,1.76,0.79
			c0.82,0,1.54-0.33,2.17-0.99C438.16,92.24,438.5,91.45,438.54,90.53z"/>
		<path class="st6" d="M446.79,86.08l-0.14,0.81c0.79-0.71,1.56-1.06,2.32-1.06c0.67,0,1.26,0.24,1.79,0.73l-1.51,1.83
			c-0.39-0.35-0.79-0.52-1.2-0.52c-0.28,0-0.53,0.06-0.75,0.17c-0.22,0.11-0.41,0.28-0.58,0.52c-0.17,0.24-0.32,0.54-0.44,0.92
			c-0.12,0.37-0.23,0.82-0.32,1.34l-0.83,4.72h-2.22l1.66-9.45H446.79z"/>
		<path class="st6" d="M454.84,86.08l-1.66,9.45h-2.22l1.66-9.45H454.84z M455.77,81.58c-0.02,0.32-0.15,0.6-0.4,0.83
			c-0.25,0.24-0.53,0.35-0.86,0.35c-0.33,0-0.61-0.12-0.83-0.36c-0.22-0.25-0.32-0.54-0.31-0.87c0.02-0.33,0.15-0.6,0.38-0.83
			c0.25-0.23,0.53-0.35,0.85-0.35c0.33,0,0.61,0.12,0.83,0.37C455.68,80.96,455.79,81.25,455.77,81.58z"/>
		<path class="st6" d="M460.15,86.08L460,86.95c0.91-0.73,1.82-1.1,2.72-1.1c0.92,0,1.65,0.26,2.18,0.77
			c0.51,0.52,0.75,1.22,0.7,2.11c-0.03,0.48-0.1,1.06-0.21,1.73l-0.9,5.08h-2.21l0.97-5.56c0.04-0.21,0.07-0.39,0.08-0.55
			c0.02-0.16,0.03-0.3,0.04-0.43c0.04-0.86-0.4-1.28-1.32-1.28c-0.57,0-1.07,0.17-1.49,0.52c-0.35,0.27-0.61,0.61-0.8,1
			c-0.1,0.2-0.18,0.45-0.26,0.74c-0.08,0.29-0.15,0.63-0.21,1.01l-0.8,4.55h-2.22l1.66-9.45H460.15z"/>
		<path class="st6" d="M478.74,86.08l-1.66,9.52c-0.1,0.57-0.21,1.06-0.32,1.48c-0.11,0.42-0.23,0.77-0.36,1.06
			c-0.26,0.59-0.64,1.09-1.12,1.52c-0.94,0.8-2.12,1.2-3.55,1.2c-1.48,0-2.66-0.39-3.53-1.16c-0.45-0.39-0.75-0.83-0.91-1.32
			c-0.16-0.45-0.22-1.09-0.18-1.92h2.15c0.01,0.89,0.2,1.54,0.58,1.94c0.38,0.41,0.99,0.61,1.83,0.61c0.91,0,1.62-0.24,2.12-0.73
			c0.5-0.48,0.84-1.26,1.02-2.31l0.23-1.29c-0.97,0.72-1.98,1.07-3.01,1.07c-1.28,0-2.32-0.44-3.11-1.31
			c-0.79-0.9-1.15-2.01-1.08-3.35c0.08-1.5,0.63-2.75,1.65-3.74c1.03-1,2.28-1.49,3.74-1.49c0.7,0,1.27,0.1,1.69,0.31
			c0.46,0.2,0.94,0.57,1.42,1.09l0.2-1.17H478.74z M475.95,90.56c0.04-0.86-0.18-1.54-0.67-2.07c-0.49-0.53-1.16-0.79-2.01-0.79
			c-0.88,0-1.62,0.32-2.24,0.96c-0.61,0.64-0.94,1.44-0.99,2.4c-0.04,0.84,0.17,1.53,0.63,2.07c0.47,0.52,1.12,0.77,1.95,0.77
			c0.92,0,1.68-0.31,2.31-0.94C475.56,92.32,475.9,91.52,475.95,90.56z"/>
	</g>
	<g>
	</g>
	<g>
	</g>
	<g>
	</g>
	<g>
	</g>
	<g>
	</g>
	<g>
	</g>
</g>
</svg>
