<svg xmlns="http://www.w3.org/2000/svg" xmlns:xlink="http://www.w3.org/1999/xlink" version="1.1" width="841.89pt" height="595.275pt" viewBox="0 0 841.89 595.275">
<defs>
<clipPath id="clip_0">
<path transform="matrix(1,0,0,-1,0,595.275)" d="M0 595.275H841.89V0H0Z"/>
</clipPath>
</defs>
<g id="layer_1" data-name="">
<g clip-path="url(#clip_0)">
<path transform="matrix(1,0,0,-1,179.0537,435.57383)" d="M0 0C-.519 7.065-7.519 8.231-10.825 8.231-19.121 8.231-19.445 1.556-19.445 .324-19.445-5.186-14.908-6.87-9.723-8.88-4.667-10.824 2.463-13.547 2.463-21.39 2.463-27.224-2.139-32.149-11.603-32.149-12.38-32.149-16.075-32.149-20.871-30.854-21.455-30.724-21.714-30.658-21.908-30.658-22.751-30.658-22.622-31.371-22.557-31.761L-23.853-31.695C-23.788-28.131-24.76-23.918-25.603-21.131-25.149-21.001-25.02-20.936-24.566-20.871-23.334-24.76-22.88-26.251-20.417-27.612-18.603-28.584-14.584-30.399-9.853-30.399-8.556-30.399-1.75-30.399-1.75-23.205-1.75-16.917-6.352-15.167-11.991-13.028-18.473-10.63-23.399-7.973-23.399-1.62-23.399 4.343-18.992 9.528-9.853 9.528-8.686 9.528-6.546 9.528-3.306 8.815-2.009 8.556-1.88 8.556-1.685 8.556-.843 8.556-.194 8.945 .454 9.334 .648 9.334 .907 9.269 1.102 9.204 .907 7.843 .583 5.834 .648 4.213 .713 3.111 .972 .713 .972 .064Z" fill="#231f20"/>
<path transform="matrix(1,0,0,-1,194.6465,442.37953)" d="M0 0C-2.917-.26-3.241-.324-3.241-1.231-3.241-2.593-1.426-7.324-.583-9.398L3.046-18.668C3.371-17.76 4.991-13.741 5.38-12.964 5.769-12.056 7.648-8.103 8.038-7.26 5.38-.194 4.473-.13 2.398 .064V1.102C4.667 .972 7.065 .972 7.519 .972 8.297 .972 11.213 .972 13.742 1.167L13.677 .13C11.473-.064 10.241-.194 10.241-1.62 10.241-3.565 14.649-14.195 16.658-18.732 17.825-16.14 22.168-4.019 22.168-2.593 22.168-.13 19.251-.064 17.76-.064V1.037C20.807 .972 22.881 .972 24.177 .972 24.89 .972 28.131 1.102 28.844 1.102L28.779 .13C26.964 0 25.214-.064 23.27-5.25L16.723-22.881C16.464-23.594 15.945-25.214 15.815-25.668H14.714C14.195-23.334 11.927-17.241 11.927-17.177L8.75-9.204 6.806-13.482C4.019-19.575 3.436-21.325 2.204-25.668H1.102C.713-24.242-4.278-9.01-7.194-3.176-8.686-.194-9.204-.13-12.186 .064V1.102C-11.083 1.167-6.222 .972-5.185 .972-3.435 .972-2.787 .972 0 1.102Z" fill="#231f20"/>
<path transform="matrix(1,0,0,-1,226.1108,441.21253)" d="M0 0C1.815-.065 6.871-.195 8.945-.195 12.186-.195 17.241-.13 20.482 .064 20.482-.584 20.482-1.231 20.288-2.593 20.223-3.111 19.834-5.251 19.834-5.704L18.797-5.574C18.927-2.982 18.667-1.361 12.704-1.361 11.538-1.361 8.815-1.621 7.519-1.88 7.195-3.824 7.065-6.611 7.065-8.232 7.065-8.621 7.065-10.177 7.195-11.927 7.778-11.991 11.667-12.187 15.621-11.668 16.463-11.538 16.917-11.084 17.436-9.075H18.408C18.214-12.77 18.214-13.612 18.278-17.048H17.436C16.723-13.741 16.204-13.288 11.083-13.288 10.371-13.288 8.75-13.288 7-13.547L7.065-18.603C7.13-22.038 7.259-23.075 7.389-23.854 8.686-24.372 9.658-24.696 11.991-24.696 17.76-24.696 20.028-22.687 21.13-19.64L21.973-19.705C21.39-23.982 20.547-25.279 20.028-26.122 18.408-26.122 11.278-25.992 9.787-25.992 7.324-25.992 3.046-25.992-.454-26.381L-.583-25.344C1.231-25.149 2.398-24.825 2.593-23.788 2.917-21.974 3.176-16.594 3.176-13.094 3.176-10.954 3.176-3.371 2.657-2.01 2.463-1.361 2.204-1.297 0-.908Z" fill="#231f20"/>
<path transform="matrix(1,0,0,-1,263.7046,466.10313)" d="M0 0C6.093 0 11.278 4.278 11.278 11.732 11.278 18.214 6.611 23.724-.194 23.724-.519 23.724-2.657 23.854-4.796 23.205-4.926 21.52-5.121 18.344-5.121 11.538-5.121 5.964-4.926 3.177-4.731 .908-3.306 .454-1.75 0 0 0M-12.51-.194C-10.565-.129-9.852 .13-9.528 .908-9.074 2.204-9.074 8.427-9.074 10.501-9.074 14.001-9.333 21.001-9.528 21.974-9.723 23.399-10.889 23.594-12.38 23.659V24.695H-7.713C-5.833 24.695-4.278 24.761-2.981 24.825-1.426 24.891-.259 25.085 .908 25.085 10.565 25.085 15.88 18.279 15.88 11.797 15.88 6.223 11.603-1.296 .259-1.296-.324-1.296-2.074-1.231-3.759-1.166-5.445-1.166-7.065-1.102-7.648-1.102-8.426-1.102-11.148-1.166-12.51-1.231Z" fill="#231f20"/>
<path transform="matrix(1,0,0,-1,282.4375,441.21253)" d="M0 0 2.269-.065C3.241-.065 4.148-.195 6.352-.195 8.556-.195 9.658-.13 10.695-.065H13.547V-1.167C12.898-1.103 10.306-.908 9.528-2.204 8.945-3.241 8.88-5.898 8.88-16.334 8.88-17.89 8.88-22.945 9.139-23.854 9.528-25.149 10.695-25.149 13.288-25.149L13.352-26.187C12.38-26.187 8.167-25.992 7.324-25.992H3.565C2.917-25.992 .194-26.122-.324-26.122V-25.215C.519-25.149 3.629-24.891 4.278-23.724 5.056-22.362 4.991-16.464 4.991-14.325 4.991-12.445 4.926-4.084 4.407-2.787 4.083-1.945 3.435-1.231 0-1.103Z" fill="#231f20"/>
<path transform="matrix(1,0,0,-1,314.3267,441.21253)" d="M0 0 .843-.13C.713-.648 .454-2.01 .454-3.306 .454-3.824 .778-6.093 .778-6.547H-.13C-.389-5.38-.648-4.148-1.75-3.111-2.139-2.658-4.019-1.037-6.806-1.037-10.047-1.037-11.862-3.047-11.862-5.574-11.862-8.427-9.204-9.594-6.223-10.76-2.852-12.121 2.009-14.065 2.009-19.121 2.009-22.881-1.491-26.511-7.519-26.511-9.463-26.511-11.019-26.122-11.732-25.928-11.991-25.862-13.158-25.538-13.547-25.538-13.936-25.538-14.195-25.992-14.325-26.316L-15.232-26.251C-15.167-22.881-15.491-21.52-16.334-18.668H-15.232C-15.038-19.575-14.584-21.325-13.158-22.557-11.991-23.529-9.204-24.825-6.287-24.825-2.852-24.825-1.491-22.427-1.491-20.548-1.491-17.048-3.759-16.14-8.621-14.131-11.408-12.964-15.103-11.473-15.103-7.065-15.103-2.917-11.603 .259-6.093 .259-4.408 .259-3.241 .064-.843-.584Z" fill="#231f20"/>
<path transform="matrix(1,0,0,-1,322.4658,451.90785)" d="M0 0C.129 9.334-.389 9.528-3.5 9.593L-3.565 10.695C-3.046 10.76-2.333 10.824-1.621 10.824-.908 10.824 .129 10.76 1.361 10.695 2.593 10.565 3.5 10.5 4.278 10.5 5.38 10.5 6.611 10.5 7.972 10.63L8.037 9.464C4.343 9.334 4.278 8.88 4.083 2.981L3.954-1.296 12.38-1.231C13.806-1.231 18.473-1.231 19.575-1.102V2.204C19.575 3.565 19.575 7.584 18.927 8.556 18.538 9.14 18.278 9.204 15.945 9.723V10.695H17.436C18.019 10.695 18.732 10.695 19.51 10.63 20.288 10.565 20.936 10.5 22.038 10.5 23.593 10.5 25.603 10.695 26.575 10.76L26.64 9.593C24.501 9.334 24.047 8.945 23.917 7.843 23.723 6.223 23.658 3.436 23.658 .648L23.593-7C23.529-13.158 23.593-14.065 26.834-14.584V-15.621C25.214-15.491 24.177-15.427 23.334-15.361 22.556-15.297 21.973-15.297 21.195-15.297 19.121-15.297 18.473-15.427 16.139-15.621V-14.39C19.056-14.13 19.575-14.001 19.575-7.519V-3.306C17.63-3.176 6.611-3.241 4.019-3.436V-7.778C4.019-12.056 4.019-13.417 5.056-13.936 5.639-14.26 6.806-14.324 7.778-14.324L7.648-15.621C6.352-15.427 5.25-15.361 4.278-15.361 3.241-15.297 2.398-15.297 1.62-15.297-.324-15.297-1.686-15.427-3.695-15.621V-14.584C-1.491-14.13-.778-14.001-.454-12.898-.065-11.537-.065-6.547-.065-5.12Z" fill="#231f20"/>
<path transform="matrix(1,0,0,-1,396.2275,434.148)" d="M0 0C-.324 4.148-.454 6.093-11.603 6.093-13.741 6.093-17.047 6.093-18.797 5.64-19.056 2.204-19.056-4.472-19.056-5.963V-10.954C-16.01-11.213-14.973-11.278-11.862-11.278-2.917-11.278-2.917-10.5-2.917-7.26L-1.685-7.13C-1.621-8.167-1.556-8.814-1.556-10.954-1.556-11.473-1.556-14.26-1.685-17.565H-2.981C-2.981-16.723-2.981-14.39-3.5-14.065-4.473-13.417-8.491-12.704-13.353-12.704-15.232-12.704-17.112-12.704-18.992-12.898-19.056-15.88-19.121-19.51-19.121-23.594-19.121-30.464-19.121-30.982-12.315-31.825V-33.057C-12.963-32.992-13.676-32.992-14.778-32.927-15.815-32.862-17.177-32.862-19.186-32.862H-22.297C-22.88-32.862-25.667-32.927-28.131-33.121L-28.066-32.084C-25.084-31.565-24.566-30.724-24.307-29.297-23.594-25.538-23.594-19.38-23.594-11.991-23.594-8.88-23.594 2.528-24.436 4.797-25.02 6.417-26.575 6.547-28.844 6.806V7.843H-24.76C-23.205 7.843-20.417 7.584-18.992 7.584-16.464 7.584-13.806 7.52-12.899 7.52-7.519 7.52-1.685 7.714 1.491 7.973 1.231 5.315 1.231 2.917 1.296 0Z" fill="#231f20"/>
<path transform="matrix(1,0,0,-1,412.8203,466.10313)" d="M0 0C4.861 0 7.908 4.797 7.908 9.398 7.908 16.724 3.695 23.594-2.592 23.594-7.583 23.594-10.63 19.187-10.63 14.065-10.63 7.324-6.741 0 0 0M-1.361 25.279C6.936 25.279 12.057 18.668 12.057 11.927 12.057 4.473 5.575-1.685-1.75-1.685-9.333-1.685-14.778 4.473-14.778 11.927-14.778 19.057-8.491 25.279-1.361 25.279" fill="#231f20"/>
<path transform="matrix(1,0,0,-1,434.1172,457.02793)" d="M0 0C0-2.853 0-9.01 7.52-9.01 15.621-9.01 16.334-3.63 16.334 5.314V7.648C16.334 7.777 16.334 12.833 15.232 13.936 14.584 14.584 13.223 14.648 11.926 14.648V15.75C12.963 15.75 14.065 15.62 16.723 15.62 19.963 15.62 20.547 15.686 21.584 15.75L21.52 14.713C18.213 14.519 18.279 13.547 18.213 11.537L18.148 7.713C17.955-5.51 17.111-10.825 6.417-10.825-.713-10.825-4.148-7.648-4.148-1.945-4.148-.584-3.824 5.38-3.824 6.676-3.824 8.037-3.889 13.676-4.797 14.26-5.25 14.584-5.834 14.584-7.584 14.584L-7.648 15.62C-7.13 15.686-3.564 15.75-1.814 15.75-.973 15.75 3.111 15.88 4.537 15.815V14.713C.324 14.324 0 14 0 4.926Z" fill="#231f20"/>
<path transform="matrix(1,0,0,-1,480.0078,457.15785)" d="M0 0C.584-.519 2.918-2.853 3.436-3.371 3.436-2.269 3.564 1.296 3.564 2.463 3.564 14.584 3.176 14.843-1.166 15.103L-.973 16.074C-.584 16.14 .064 16.14 .648 16.14 1.361 16.14 2.203 16.01 3.371 15.88 4.602 15.75 6.027 15.75 8.816 15.75V14.778C7.584 14.778 5.705 14.648 5.445 12.574 5.25 11.473 4.992 3.046 4.992-.389 4.992-2.787 4.992-8.427 5.121-10.565L3.889-10.501C2.723-8.167 .648-5.769-5.963 .389L-9.592 3.759C-9.658 3.889-14.195 8.231-15.621 9.787L-15.686 7.713-15.814-3.241C-15.881-7.584-15.881-8.297-10.76-9.204V-10.306C-11.148-10.241-11.732-10.177-12.574-10.177-13.482-10.111-14.52-10.047-15.49-10.047-16.463-10.047-17.436-10.111-18.408-10.177-19.381-10.241-20.352-10.306-21.324-10.306V-9.334C-20.936-9.27-20.352-9.14-19.834-9.01-18.861-8.815-18.148-8.686-17.955-7-17.76-5.51-17.564-.324-17.564 1.426L-17.5 6.028C-17.371 13.547-18.148 14.13-21.908 14.843L-21.973 15.945C-21.324 15.945-20.742 15.88-20.094 15.815-19.445 15.75-18.797 15.75-18.148 15.75-16.852 15.75-16.398 15.75-15.361 15.815-11.99 11.537-5.574 5.314-3.305 3.176Z" fill="#231f20"/>
<path transform="matrix(1,0,0,-1,504.25,466.10313)" d="M0 0C6.092 0 11.277 4.278 11.277 11.732 11.277 18.214 6.611 23.724-.195 23.724-.52 23.724-2.658 23.854-4.797 23.205-4.926 21.52-5.121 18.344-5.121 11.538-5.121 5.964-4.926 3.177-4.732 .908-3.307 .454-1.75 0 0 0M-12.51-.194C-10.566-.129-9.854 .13-9.529 .908-9.074 2.204-9.074 8.427-9.074 10.501-9.074 14.001-9.334 21.001-9.529 21.974-9.723 23.399-10.891 23.594-12.381 23.659V24.695H-7.713C-5.834 24.695-4.279 24.761-2.982 24.825-1.426 24.891-.26 25.085 .906 25.085 10.564 25.085 15.88 18.279 15.88 11.797 15.88 6.223 11.602-1.296 .26-1.296-.324-1.296-2.074-1.231-3.76-1.166-5.445-1.166-7.066-1.102-7.648-1.102-8.426-1.102-11.148-1.166-12.51-1.231Z" fill="#231f20"/>
<path transform="matrix(1,0,0,-1,529.3408,456.44496)" d="M0 0C2.398-.194 3.76-.194 3.824-.194 4.473-.194 6.74-.13 7.324-.064L3.629 8.686C2.723 6.481 2.592 6.287 1.945 4.731ZM.129-11.019C-.453-10.954-1.102-10.89-1.879-10.824-2.594-10.76-3.371-10.76-4.148-10.76-4.926-10.76-5.703-10.76-6.352-10.824-7.064-10.89-7.713-10.89-8.232-10.954L-8.168-10.047C-6.027-9.853-5.25-8.427-3.824-5.056L2.268 9.528C2.916 11.148 4.084 13.936 4.408 15.621H5.379C6.092 12.898 7.52 9.398 8.102 7.907L12.703-3.5C14.844-8.75 15.881-9.658 18.02-9.787V-10.76C16.918-10.695 15.102-10.695 13.094-10.76 11.084-10.824 8.945-10.89 7.129-11.019L7.195-10.047C10.24-9.593 10.24-9.074 10.24-8.621 10.24-7.778 9.658-6.223 9.463-5.704L8.037-1.944C6.676-1.75 5.25-1.686 3.76-1.686 1.297-1.686 .26-1.815-.713-1.944-1.621-3.63-2.982-7.26-2.982-8.361-2.982-9.269-1.879-9.593 .129-9.982Z" fill="#231f20"/>
<path transform="matrix(1,0,0,-1,564.5361,467.46345)" d="M0 0C-1.297 0-2.334 .064-3.436 .129-4.537 .194-5.703 .259-6.416 .259-8.297 .259-9.592 .194-10.629 .064-11.602 .064-12.445-.065-13.158-.13L-13.352 .777C-12.834 .842-12.25 .907-11.342 1.036-9.203 1.426-8.814 1.879-8.686 2.657-8.426 4.343-8.361 12.25-8.361 14.324-8.361 17.63-8.426 20.871-8.686 24.177-10.5 24.371-11.99 24.371-12.379 24.371-16.982 24.371-17.953 23.269-18.797 21L-19.639 21.519C-19.574 21.778-17.824 26.445-17.695 26.77H-16.982C-16.787 26.51-16.463 26.186-15.102 26.121-13.611 26.056-11.797 26.056-9.398 26.056H-1.879C0 26.056 3.176 26.056 3.76 26.121 5.314 26.315 5.51 26.445 6.029 26.834L6.676 26.251C6.094 24.76 5.834 23.723 5.381 21.26L4.344 21.13 4.473 23.334C3.307 24.047 2.27 24.371-1.426 24.371-3.76 24.371-4.018 24.371-4.018 23.593-4.018 21.713-4.277 13.546-4.277 11.926-4.277 10.046-4.277 2.916-3.436 1.944-2.98 1.49-1.814 1.296-1.102 1.166-.582 1.036-.193 .972 .131 .972Z" fill="#231f20"/>
<path transform="matrix(1,0,0,-1,574.6104,441.21253)" d="M0 0 2.268-.065C3.24-.065 4.148-.195 6.352-.195 8.557-.195 9.658-.13 10.695-.065H13.547V-1.167C12.898-1.103 10.307-.908 9.527-2.204 8.945-3.241 8.879-5.898 8.879-16.334 8.879-17.89 8.879-22.945 9.139-23.854 9.527-25.149 10.695-25.149 13.287-25.149L13.352-26.187C12.381-26.187 8.166-25.992 7.324-25.992H3.564C2.916-25.992 .193-26.122-.324-26.122V-25.215C.518-25.149 3.629-24.891 4.277-23.724 5.055-22.362 4.99-16.464 4.99-14.325 4.99-12.445 4.926-4.084 4.408-2.787 4.084-1.945 3.436-1.231 0-1.103Z" fill="#231f20"/>
<path transform="matrix(1,0,0,-1,606.1104,466.10313)" d="M0 0C4.861 0 7.908 4.797 7.908 9.398 7.908 16.724 3.695 23.594-2.592 23.594-7.582 23.594-10.629 19.187-10.629 14.065-10.629 7.324-6.74 0 0 0M-1.361 25.279C6.936 25.279 12.057 18.668 12.057 11.927 12.057 4.473 5.574-1.685-1.75-1.685-9.334-1.685-14.777 4.473-14.777 11.927-14.777 19.057-8.49 25.279-1.361 25.279" fill="#231f20"/>
<path transform="matrix(1,0,0,-1,643.7041,457.15785)" d="M0 0C.584-.519 2.918-2.853 3.436-3.371 3.436-2.269 3.564 1.296 3.564 2.463 3.564 14.584 3.176 14.843-1.166 15.103L-.973 16.074C-.584 16.14 .064 16.14 .648 16.14 1.361 16.14 2.203 16.01 3.371 15.88 4.602 15.75 6.027 15.75 8.816 15.75V14.778C7.584 14.778 5.705 14.648 5.445 12.574 5.25 11.473 4.992 3.046 4.992-.389 4.992-2.787 4.992-8.427 5.121-10.565L3.889-10.501C2.723-8.167 .648-5.769-5.963 .389L-9.592 3.759C-9.658 3.889-14.195 8.231-15.621 9.787L-15.686 7.713-15.814-3.241C-15.881-7.584-15.881-8.297-10.76-9.204V-10.306C-11.148-10.241-11.732-10.177-12.574-10.177-13.482-10.111-14.52-10.047-15.49-10.047-16.463-10.047-17.436-10.111-18.408-10.177-19.381-10.241-20.352-10.306-21.324-10.306V-9.334C-20.936-9.27-20.352-9.14-19.834-9.01-18.861-8.815-18.148-8.686-17.955-7-17.76-5.51-17.564-.324-17.564 1.426L-17.5 6.028C-17.371 13.547-18.148 14.13-21.908 14.843L-21.973 15.945C-21.324 15.945-20.742 15.88-20.094 15.815-19.445 15.75-18.797 15.75-18.148 15.75-16.852 15.75-16.398 15.75-15.361 15.815-11.99 11.537-5.574 5.314-3.305 3.176Z" fill="#231f20"/>
<path transform="matrix(1,0,0,-1,679.083,450.45564)" d="M0 0H-5.705L-7.053-9.334C-8.35-18.46-9.957-23.075-14.053-26.912-16.334-29.038-19.135-30.438-22.299-30.438-23.18-30.438-24.684-30.387-24.684-29.194-24.684-27.794-22.973-27.794-22.557-27.794-22.143-27.794-20.379-27.897-20.016-27.897-12.652-27.897-11.305-20.689-10.061-11.875L-8.297 .052-12.082 .104C-12.031 .674-11.979 .829-11.824 1.348L-8.039 1.452C-7.676 3.785-7.053 7.83-3.527 11.097-1.4 13.067 .932 13.638 2.281 13.638 3.422 13.638 4.148 13.119 4.148 12.341 4.148 10.89 2.281 10.837 1.295 10.837L.154 10.89C-3.838 10.89-4.512 8.504-5.498 1.504H.361Z" fill="#231f20"/>
<path transform="matrix(1,0,0,-1,689.4092,456.73005)" d="M0 0C0 1.866-.83 6.119-4.666 6.119-5.549 6.119-6.119 5.911-6.533 5.393-7.104 4.719-8.764 1.814-8.764-1.452-8.764-4.615-7.777-8.66-4.822-8.66-3.734-8.66-3.422-8.504-3.111-8.4-1.141-6.326 0-2.748 0 0M-5.6-10.89C-8.66-10.89-11.305-7.882-11.305-2.748-11.305 2.022-6.533 8.4-2.801 8.4-.83 8.4 2.178 6.066 2.178 1.089 2.178-.312 1.711-5.652-4.045-10.63-4.408-10.733-4.822-10.89-5.6-10.89" fill="#231f20"/>
<path transform="matrix(1,0,0,-1,695.3564,467.2564)" d="M0 0 1.244 5.444C1.66 7.26 2.904 12.859 2.904 14.208 2.904 14.882 2.748 15.038 2.334 15.142 1.557 14.727 .311 13.689-.57 12.808-1.555 11.822-1.658 11.719-2.074 11.356-2.229 11.512-2.385 11.615-2.592 11.719-1.297 13.43 2.281 17.578 4.408 19.082 5.082 18.46 5.496 17.683 5.496 16.437 5.496 15.712 5.342 14.001 4.459 10.267L4.562 10.163 5.445 12.082C6.275 13.741 8.971 18.979 11.148 18.979 11.252 18.979 13.223 18.979 13.223 17.008 13.223 16.23 11.822 15.297 11.719 15.297 11.461 15.297 10.318 15.815 10.061 15.815 9.074 15.815 7.727 13.896 7.363 13.378 4.408 9.229 3.631 5.756 2.385 0Z" fill="#231f20"/>
<path transform="matrix(1,0,0,-1,216.5776,492.61384)" d="M0 0C-.519 7.065-7.519 8.231-10.825 8.231-19.121 8.231-19.445 1.556-19.445 .324-19.445-5.186-14.908-6.87-9.723-8.88-4.667-10.824 2.463-13.547 2.463-21.39 2.463-27.224-2.139-32.149-11.603-32.149-12.38-32.149-16.075-32.149-20.871-30.854-21.455-30.724-21.714-30.658-21.908-30.658-22.751-30.658-22.621-31.372-22.557-31.761L-23.853-31.695C-23.788-28.131-24.76-23.918-25.603-21.131-25.149-21.001-25.02-20.936-24.566-20.871-23.334-24.76-22.881-26.251-20.417-27.612-18.603-28.584-14.584-30.399-9.853-30.399-8.556-30.399-1.75-30.399-1.75-23.204-1.75-16.917-6.352-15.167-11.991-13.028-18.473-10.63-23.399-7.973-23.399-1.62-23.399 4.343-18.992 9.528-9.853 9.528-8.686 9.528-6.546 9.528-3.306 8.815-2.009 8.556-1.88 8.556-1.686 8.556-.843 8.556-.194 8.945 .454 9.334 .648 9.334 .907 9.269 1.102 9.204 .907 7.843 .583 5.834 .648 4.213 .713 3.111 .972 .713 .972 .064Z" fill="#231f20"/>
<path transform="matrix(1,0,0,-1,240.4673,524.50357)" d="M0 0C-1.296 0-2.333 .064-3.436 .129-4.537 .194-5.704 .259-6.417 .259-8.297 .259-9.593 .194-10.63 .064-11.603 .064-12.445-.065-13.158-.13L-13.353 .777C-12.834 .842-12.25 .907-11.343 1.036-9.204 1.426-8.815 1.879-8.686 2.657-8.426 4.343-8.361 12.25-8.361 14.324-8.361 17.63-8.426 20.871-8.686 24.177-10.5 24.371-11.991 24.371-12.38 24.371-16.982 24.371-17.955 23.269-18.797 21L-19.64 21.519C-19.575 21.778-17.825 26.445-17.695 26.77H-16.982C-16.788 26.51-16.464 26.186-15.103 26.121-13.612 26.056-11.797 26.056-9.398 26.056H-1.88C0 26.056 3.176 26.056 3.759 26.121 5.315 26.315 5.509 26.445 6.028 26.834L6.676 26.251C6.093 24.76 5.833 23.723 5.38 21.26L4.343 21.13 4.472 23.334C3.306 24.047 2.269 24.371-1.426 24.371-3.76 24.371-4.019 24.371-4.019 23.593-4.019 21.713-4.278 13.546-4.278 11.926-4.278 10.046-4.278 2.916-3.436 1.944-2.982 1.49-1.815 1.296-1.102 1.166-.583 1.036-.194 .972 .129 .972Z" fill="#231f20"/>
<path transform="matrix(1,0,0,-1,257.1899,510.43904)" d="M0 0C.778-.129 2.009-.129 2.787-.129 3.759-.129 9.204-.129 9.204 5.057 9.204 7.454 7.454 10.955 2.852 10.955 .13 10.955 .13 10.631 .065 6.223ZM-7.519 12.187C-6.676 12.121-5.898 12.057-5.056 12.057-4.278 11.991-3.435 11.991-2.657 11.991-2.074 11.991-.583 12.121 .908 12.251 2.398 12.381 3.5 12.381 4.408 12.381 9.917 12.381 13.417 9.399 13.417 5.38 13.417 1.751 10.112-.453 7.519-1.102 12.899-8.88 13.871-10.046 15.945-11.991 16.205-12.25 17.825-13.741 19.834-13.87L19.77-14.843C15.297-14.843 13.093-13.093 11.926-12.186 7.973-9.074 4.083-2.916 3.371-1.62 2.269-1.62 1.815-1.62-.065-1.49V-5.25C-.065-6.935-.129-10.694 .389-11.731 .713-12.314 2.658-12.898 3.954-13.287L4.019-14.26C2.463-14 0-13.806-1.685-13.806-2.593-13.806-6.611-14.064-7.454-14.13L-7.648-13.352C-7.259-13.287-4.926-12.769-4.343-11.667-3.889-10.694-3.954-5.25-3.954-3.5V2.723C-3.954 10.76-4.343 10.89-7.583 11.084Z" fill="#231f20"/>
<path transform="matrix(1,0,0,-1,286.4873,513.4849)" d="M0 0C2.398-.194 3.759-.194 3.824-.194 4.472-.194 6.741-.13 7.324-.064L3.629 8.686C2.722 6.481 2.593 6.287 1.944 4.731ZM.129-11.019C-.454-10.954-1.102-10.89-1.88-10.824-2.593-10.76-3.371-10.76-4.148-10.76-4.926-10.76-5.704-10.76-6.352-10.824-7.065-10.89-7.713-10.89-8.232-10.954L-8.167-10.047C-6.028-9.853-5.25-8.427-3.824-5.056L2.269 9.528C2.917 11.148 4.083 13.936 4.407 15.621H5.38C6.093 12.898 7.519 9.398 8.102 7.907L12.704-3.5C14.843-8.75 15.88-9.658 18.019-9.787V-10.76C16.917-10.695 15.103-10.695 13.093-10.76 11.083-10.824 8.945-10.89 7.13-11.019L7.195-10.047C10.241-9.593 10.241-9.074 10.241-8.621 10.241-7.778 9.658-6.223 9.463-5.704L8.037-1.944C6.676-1.75 5.25-1.686 3.759-1.686 1.296-1.686 .259-1.815-.713-1.944-1.621-3.63-2.982-7.26-2.982-8.361-2.982-9.269-1.88-9.593 .129-9.982Z" fill="#231f20"/>
<path transform="matrix(1,0,0,-1,320.9189,524.50357)" d="M0 0C-1.296 0-2.333 .064-3.436 .129-4.537 .194-5.704 .259-6.417 .259-8.297 .259-9.593 .194-10.63 .064-11.603 .064-12.445-.065-13.158-.13L-13.353 .777C-12.834 .842-12.25 .907-11.343 1.036-9.204 1.426-8.815 1.879-8.686 2.657-8.426 4.343-8.361 12.25-8.361 14.324-8.361 17.63-8.426 20.871-8.686 24.177-10.5 24.371-11.991 24.371-12.38 24.371-16.982 24.371-17.955 23.269-18.797 21L-19.64 21.519C-19.575 21.778-17.825 26.445-17.695 26.77H-16.982C-16.788 26.51-16.464 26.186-15.103 26.121-13.612 26.056-11.797 26.056-9.398 26.056H-1.88C0 26.056 3.176 26.056 3.759 26.121 5.315 26.315 5.509 26.445 6.028 26.834L6.676 26.251C6.093 24.76 5.833 23.723 5.38 21.26L4.343 21.13 4.472 23.334C3.306 24.047 2.269 24.371-1.426 24.371-3.759 24.371-4.019 24.371-4.019 23.593-4.019 21.713-4.278 13.546-4.278 11.926-4.278 10.046-4.278 2.916-3.436 1.944-2.982 1.49-1.815 1.296-1.102 1.166-.583 1.036-.194 .972 .129 .972Z" fill="#231f20"/>
<path transform="matrix(1,0,0,-1,330.3174,498.25254)" d="M0 0C1.815-.065 6.871-.195 8.945-.195 12.186-.195 17.241-.13 20.482 .064 20.482-.584 20.482-1.231 20.288-2.593 20.223-3.111 19.834-5.251 19.834-5.704L18.797-5.574C18.927-2.982 18.667-1.361 12.704-1.361 11.538-1.361 8.815-1.621 7.519-1.88 7.195-3.824 7.065-6.611 7.065-8.232 7.065-8.621 7.065-10.177 7.195-11.927 7.778-11.991 11.667-12.187 15.621-11.668 16.463-11.538 16.917-11.084 17.436-9.075H18.408C18.213-12.77 18.213-13.612 18.278-17.048H17.436C16.723-13.741 16.204-13.288 11.083-13.288 10.371-13.288 8.75-13.288 7-13.547L7.065-18.603C7.13-22.038 7.259-23.075 7.389-23.854 8.686-24.372 9.658-24.696 11.991-24.696 17.76-24.696 20.028-22.687 21.13-19.64L21.973-19.705C21.39-23.982 20.547-25.279 20.028-26.122 18.408-26.122 11.278-25.992 9.788-25.992 7.324-25.992 3.046-25.992-.454-26.381L-.583-25.344C1.231-25.149 2.398-24.825 2.593-23.788 2.917-21.974 3.176-16.594 3.176-13.094 3.176-10.954 3.176-3.371 2.657-2.01 2.463-1.361 2.204-1.297 0-.908Z" fill="#231f20"/>
<path transform="matrix(1,0,0,-1,383.0786,512.12368)" d="M0 0C-2.009-.389-2.269-.907-2.269-3.436V-5.704C-2.269-7.454-2.333-9.593-1.231-10.307V-11.02C-5.315-11.862-9.14-12.575-12.64-12.575-21.195-12.575-27.224-7.195-27.224 .519-27.224 7.907-20.677 14.13-12.25 14.13-9.788 14.13-7.519 13.547-6.806 13.353-6.417 13.223-5.963 13.093-5.769 13.093-5.704 13.093-5.186 13.093-4.667 14L-3.889 13.936-3.306 7.519-4.148 7.26C-4.538 7.973-4.991 8.686-5.704 9.463-6.871 10.76-9.075 12.769-12.705 12.769-17.177 12.769-22.945 9.01-22.945 1.62-22.945-6.417-17.242-11.02-11.667-11.02-9.917-11.02-7.584-10.501-6.676-9.528-6.158-9.01-6.093-8.297-6.093-6.806L-6.028-4.861C-5.963-1.037-6.611-.454-9.658-.454L-11.084-.519-11.019 .519-8.556 .647C-4.148 .647-1.75 .777 0 .907Z" fill="#231f20"/>
<path transform="matrix(1,0,0,-1,387.3838,498.25254)" d="M0 0 2.269-.065C3.241-.065 4.148-.195 6.352-.195 8.556-.195 9.658-.13 10.695-.065H13.547V-1.167C12.898-1.103 10.306-.908 9.528-2.204 8.945-3.241 8.88-5.898 8.88-16.334 8.88-17.89 8.88-22.945 9.139-23.854 9.528-25.149 10.695-25.149 13.288-25.149L13.352-26.187C12.38-26.187 8.167-25.992 7.324-25.992H3.565C2.917-25.992 .194-26.122-.324-26.122V-25.215C.519-25.149 3.629-24.891 4.278-23.724 5.056-22.362 4.991-16.464 4.991-14.325 4.991-12.445 4.926-4.084 4.407-2.787 4.083-1.945 3.435-1.231 0-1.103Z" fill="#231f20"/>
<path transform="matrix(1,0,0,-1,425.3662,504.86384)" d="M0 0C.065 .389 .065 .647 .065 1.296 .065 2.203-.065 2.916-.778 3.37-2.528 4.472-4.926 5.38-7.13 5.38-12.898 5.38-16.528-.195-16.528-6.612-16.528-14.39-11.084-18.538-5.833-18.538-4.667-18.538-1.944-18.538 .647-14.325 1.361-13.158 1.426-13.028 1.685-13.028 1.75-13.028 2.333-13.353 2.333-13.547 2.333-13.677 1.491-16.27 1.426-16.529 1.037-17.631 1.037-18.02 1.037-18.538-1.361-19.316-4.148-19.964-6.676-19.964-16.14-19.964-21.13-12.899-21.13-6.288-21.13 1.36-13.936 6.935-5.963 6.935-5.38 6.935-3.695 6.935-1.167 6.157-.907 6.093 1.103 5.509 1.231 5.509 2.14 5.509 2.14 5.509 2.14 5.185 2.14 4.731 1.88 3.759 1.815 3.564 1.167 1.556 1.103 1.166 .907-.324Z" fill="#231f20"/>
<path transform="matrix(1,0,0,-1,459.9492,484.31703)" d="M0 0C-1.361 0-4.73-.324-5.186-1.491-5.898-3.047-5.898-12.77-5.898-18.344-5.119-18.538-3.758-18.862-.777-18.862 1.361-18.862 10.307-18.862 10.307-10.241 10.307-6.547 7.324 0 0 0M.844-20.547C-1.619-20.547-3.758-20.482-6.092-20.158L-6.156-27.742C-6.156-29.881-6.092-35.649-5.379-37.335-4.861-38.437-4.602-38.566-1.75-39.345-1.166-39.539-1.037-39.539-1.037-39.798-1.037-40.058-1.102-40.446-1.49-40.446-1.75-40.446-2.852-40.316-4.148-40.187-5.51-40.058-6.936-39.928-7.453-39.928-8.943-39.928-10.5-39.992-11.731-40.122-13.027-40.187-14-40.316-14.324-40.316-14.713-40.316-14.973-40.187-14.973-39.863-14.973-39.409-14.843-39.345-13.676-39.021-11.148-38.308-10.436-37.659-10.37-27.548V-13.547C-10.305-1.037-10.564-.973-14.907-.389-14.843 .13-14.843 .324-14.777 .648-13.092 .583-11.666 .583-10.5 .583-8.879 .583-.777 1.361 1.037 1.361 10.242 1.361 15.104-4.148 15.104-9.464 15.104-13.482 12.445-17.695 6.287-19.964L7.715-22.103C13.678-31.112 20.705-44.187 27.121-44.641 27.512-44.705 27.705-44.835 27.705-45.289 27.705-45.613 27.705-45.872 26.086-45.872 17.4-45.872 9.982-33.641 4.473-25.732Z" fill="#231f20"/>
<path transform="matrix(1,0,0,-1,485.0156,498.25254)" d="M0 0C1.814-.065 6.871-.195 8.945-.195 12.186-.195 17.242-.13 20.482 .064 20.482-.584 20.482-1.231 20.287-2.593 20.223-3.111 19.834-5.251 19.834-5.704L18.797-5.574C18.926-2.982 18.668-1.361 12.705-1.361 11.537-1.361 8.814-1.621 7.52-1.88 7.195-3.824 7.064-6.611 7.064-8.232 7.064-8.621 7.064-10.177 7.195-11.927 7.777-11.991 11.668-12.187 15.621-11.668 16.463-11.538 16.918-11.084 17.436-9.075H18.408C18.213-12.77 18.213-13.612 18.279-17.048H17.436C16.723-13.741 16.205-13.288 11.084-13.288 10.371-13.288 8.75-13.288 7-13.547L7.064-18.603C7.129-22.038 7.26-23.075 7.389-23.854 8.686-24.372 9.658-24.696 11.99-24.696 17.76-24.696 20.029-22.687 21.131-19.64L21.973-19.705C21.391-23.982 20.547-25.279 20.029-26.122 18.408-26.122 11.277-25.992 9.787-25.992 7.324-25.992 3.047-25.992-.453-26.381L-.584-25.344C1.232-25.149 2.398-24.825 2.592-23.788 2.916-21.974 3.176-16.594 3.176-13.094 3.176-10.954 3.176-3.371 2.658-2.01 2.463-1.361 2.203-1.297 0-.908Z" fill="#231f20"/>
<path transform="matrix(1,0,0,-1,526.4326,498.25254)" d="M0 0 .844-.13C.715-.648 .455-2.01 .455-3.306 .455-3.824 .779-6.093 .779-6.547H-.129C-.389-5.38-.646-4.148-1.75-3.111-2.139-2.658-4.018-1.037-6.805-1.037-10.045-1.037-11.86-3.047-11.86-5.574-11.86-8.427-9.203-9.594-6.221-10.76-2.852-12.121 2.01-14.065 2.01-19.121 2.01-22.881 1.51-26.511-4.518-26.511-6.463-26.511-11.018-26.122-11.73-25.928-11.991-25.862-13.157-25.538-13.546-25.538-13.935-25.538-14.194-25.992-14.323-26.316L-15.231-26.251C-15.167-22.881-15.491-21.52-16.333-18.668H-15.231C-15.036-19.575-14.583-21.325-13.157-22.557-11.991-23.529-9.203-24.825-6.287-24.825-2.852-24.825-1.49-22.427-1.49-20.548-1.49-17.048-3.758-16.14-8.619-14.131-11.406-12.964-15.101-11.473-15.101-7.065-15.101-2.917-11.602 .259-6.092 .259-4.406 .259-3.24 .064-.842-.584Z" fill="#231f20"/>
<path transform="matrix(1,0,0,-1,532.7197,498.25254)" d="M0 0C1.816-.065 6.871-.195 8.945-.195 12.188-.195 17.242-.13 20.482 .064 20.482-.584 20.482-1.231 20.289-2.593 20.225-3.111 19.836-5.251 19.836-5.704L18.799-5.574C18.928-2.982 18.668-1.361 12.705-1.361 11.539-1.361 8.816-1.621 7.52-1.88 7.195-3.824 7.066-6.611 7.066-8.232 7.066-8.621 7.066-10.177 7.195-11.927 7.779-11.991 11.668-12.187 15.621-11.668 16.465-11.538 16.918-11.084 17.437-9.075H18.408C18.215-12.77 18.215-13.612 18.279-17.048H17.437C16.725-13.741 16.205-13.288 11.084-13.288 10.371-13.288 8.752-13.288 7.002-13.547L7.066-18.603C7.131-22.038 7.26-23.075 7.391-23.854 8.686-24.372 9.658-24.696 11.992-24.696 17.762-24.696 20.029-22.687 21.131-19.64L21.975-19.705C21.391-23.982 20.549-25.279 20.029-26.122 18.408-26.122 11.279-25.992 9.789-25.992 7.326-25.992 6.047-25.992 2.547-26.381L-.582-25.344C1.232-25.149 2.398-24.825 2.594-23.788 2.918-21.974 3.178-16.594 3.178-13.094 3.178-10.954 3.178-3.371 2.658-2.01 2.465-1.361 2.205-1.297 0-.908Z" fill="#231f20"/>
<path transform="matrix(1,0,0,-1,564.3232,513.4849)" d="M0 0C2.398-.194 3.76-.194 3.824-.194 4.473-.194 6.742-.13 7.324-.064L3.631 8.686C2.723 6.481 2.594 6.287 1.945 4.731ZM.131-11.019C-.453-10.954-1.102-10.89-1.879-10.824-2.592-10.76-3.369-10.76-4.148-10.76-4.926-10.76-5.703-10.76-6.352-10.824-7.064-10.89-7.713-10.89-8.23-10.954L-8.166-10.047C-6.027-9.853-5.25-8.427-3.824-5.056L2.27 9.528C2.918 11.148 4.084 13.936 4.408 15.621H5.381C6.094 12.898 7.52 9.398 8.104 7.907L12.705-3.5C14.844-8.75 15.881-9.658 18.02-9.787V-10.76C16.918-10.695 15.104-10.695 13.094-10.76 11.084-10.824 8.945-10.89 7.131-11.019L7.195-10.047C10.242-9.593 10.242-9.074 10.242-8.621 10.242-7.778 9.658-6.223 9.465-5.704L8.039-1.944C6.678-1.75 5.252-1.686 3.76-1.686 1.297-1.686 .26-1.815-.713-1.944-1.619-3.63-2.98-7.26-2.98-8.361-2.98-9.269-1.879-9.593 .131-9.982Z" fill="#231f20"/>
<path transform="matrix(1,0,0,-1,592.4541,510.43904)" d="M0 0C.777-.129 2.01-.129 2.787-.129 3.76-.129 9.205-.129 9.205 5.057 9.205 7.454 7.453 10.955 2.852 10.955 .129 10.955 .129 10.631 .064 6.223ZM-7.52 12.187C-6.676 12.121-5.898 12.057-5.057 12.057-4.277 11.991-3.436 11.991-2.658 11.991-2.074 11.991-.584 12.121 .908 12.251 2.398 12.381 3.5 12.381 4.408 12.381 9.918 12.381 13.418 9.399 13.418 5.38 13.418 1.751 10.111-.453 7.52-1.102 12.898-8.88 13.871-10.046 15.945-11.991 16.205-12.25 17.824-13.741 19.834-13.87L22.77-14.843C18.297-14.843 13.094-13.093 11.926-12.186 7.973-9.074 4.084-2.916 3.371-1.62 2.27-1.62 1.814-1.62-.064-1.49V-5.25C-.064-6.935-.129-10.694 .389-11.731 .713-12.314 2.658-12.898 3.953-13.287L7.02-14.26C5.463-14 0-13.806-1.686-13.806-2.592-13.806-6.611-14.064-7.453-14.13L-7.648-13.352C-7.26-13.287-4.926-12.769-4.342-11.667-3.889-10.694-3.953-5.25-3.953-3.5V2.723C-3.953 10.76-4.342 10.89-7.584 11.084Z" fill="#231f20"/>
<path transform="matrix(1,0,0,-1,631.4893,504.86384)" d="M0 0C.064 .389 .064 .647 .064 1.296 .064 2.203-.064 2.916-.777 3.37-2.527 4.472-4.926 5.38-7.129 5.38-12.898 5.38-16.527-.195-16.527-6.612-16.527-14.39-11.084-18.538-5.834-18.538-4.666-18.538-1.943-18.538 .648-14.325 1.361-13.158 1.426-13.028 1.686-13.028 1.75-13.028 2.334-13.353 2.334-13.547 2.334-13.677 1.492-16.27 1.426-16.529 1.037-17.631 1.037-18.02 1.037-18.538-1.361-19.316-1.148-19.964-3.676-19.964-13.139-19.964-21.131-12.899-21.131-6.288-21.131 1.36-13.936 6.935-5.963 6.935-5.379 6.935-3.693 6.935-1.166 6.157-.906 6.093 1.102 5.509 1.232 5.509 2.139 5.509 2.139 5.509 2.139 5.185 2.139 4.731 1.881 3.759 1.814 3.564 1.168 1.556 1.102 1.166 .908-.324Z" fill="#231f20"/>
<path transform="matrix(1,0,0,-1,641.0088,508.9478)" d="M0 0C.129 9.334-.389 9.528-3.5 9.593L-3.566 10.695C-3.047 10.76-2.334 10.824-1.621 10.824-.908 10.824 .129 10.76 1.361 10.695 2.592 10.565 3.5 10.5 4.277 10.5 5.379 10.5 6.611 10.5 7.973 10.63L8.037 9.464C4.342 9.334 4.277 8.88 4.082 2.981L3.953-1.296 12.379-1.231C13.805-1.231 18.473-1.231 19.574-1.102V2.204C19.574 3.565 19.574 7.584 18.926 8.556 18.537 9.14 18.277 9.204 15.945 9.723V10.695H17.436C18.02 10.695 18.732 10.695 19.51 10.63 20.287 10.565 20.936 10.5 22.037 10.5 23.594 10.5 25.602 10.695 26.574 10.76L26.639 9.593C24.5 9.334 24.047 8.945 23.916 7.843 23.723 6.223 23.658 3.436 23.658 .648L23.594-7C23.527-13.158 23.594-14.065 26.834-14.584V-15.621C25.213-15.491 24.176-15.427 23.334-15.361 22.557-15.297 21.973-15.297 21.195-15.297 19.121-15.297 18.473-15.427 16.139-15.621V-14.39C19.057-14.13 19.574-14.001 19.574-7.519V-3.306C17.629-3.176 6.611-3.241 4.018-3.436V-7.778C4.018-12.056 4.018-13.417 5.055-13.936 5.639-14.26 6.805-14.324 7.777-14.324L7.648-15.621C6.352-15.427 5.25-15.361 4.277-15.361 3.24-15.297 2.398-15.297 1.619-15.297-.324-15.297-1.686-15.427-3.695-15.621V-14.584C-1.492-14.13-.779-14.001-.455-12.898-.066-11.537-.066-6.547-.066-5.12Z" fill="#231f20"/>
<path transform="matrix(1,0,0,-1,0,595.275)" d="M610.305 410.709H587.322V424.953H610.305Z" fill="#ffffff"/>
<path transform="matrix(1,0,0,-1,410.2251,73.78723)" d="M0 0 28.674-.036 29.79-16.871 55.078-21.771 62.406-6.627 88.958-17.393 83.705-33.381 105.275-47.441 117.722-36.166 138.307-56.066 127.327-68.763 142.207-90.006 158.002-84.196 165.326-99.164 169.105-108.835 172.27-118.722C172.27-118.722 141.048-177.337 114.956-170.89 43.191-153.16-23.617-155.785-94.877-163.875L-144.12-118.481-140.962-108.658-137.197-99.046-129.781-83.966-113.562-90.01-98.99-69.106-109.973-55.79-89.278-35.895-76.627-47.42-55.042-33.364-60.4-17.167-33.779-6.468-26.405-21.766-1.113-16.866Z" fill="#80a2b7"/>
<path transform="matrix(1,0,0,-1,622.209,181.33362)" stroke-width="3" stroke-linecap="round" stroke-miterlimit="4" stroke-linejoin="miter" fill="none" stroke="#c85d5a" d="M0 0C15.883 8.849 11.5-3.5 24.5 5.5"/>
<path transform="matrix(1,0,0,-1,596.6064,180.07184)" d="M0 0C-2.126-.417-5.366 .365-5.715 2.149-5.9 3.091-3.394 6.044-1.267 6.462 .861 6.878 4.158 5.33 4.274 4.197 4.372 3.241 2.128 .417 0 0M-21.397 13.238C-50.652 12.155-62.726-27.255-60.066-40.811-51.546-84.248-85.189-156.154-173.304-153.312-227.796-151.556-257.762-94.664-271.583-57.411L-314-16.02C-343.398-116.762-258.463-203.549-172.073-203.549-97.151-203.549-19.879-152.319-18.135-43.557-17.897-28.762-8.345-25.239-1.667-23.43 21.103-17.262 30.603-14.966 30.603-1.262 30.603 15.738 5.603 14.238-21.397 13.238" fill="#566c10"/>
<path transform="matrix(1,0,0,-1,537.5518,236.57721)" d="M0 0C0-62.495-50.663-113.159-113.159-113.159-175.654-113.159-226.317-62.495-226.317 0-226.317 62.495-175.654 113.158-113.159 113.158-50.663 113.158 0 62.495 0 0" fill="#ffffff"/>
<path transform="matrix(1,0,0,-1,518.8691,202.48444)" d="M0 0H-.051C-2.951-.021-4.775 3.566-4.777 11.067-4.83 18.417-3.055 22.079-.205 22.099 2.846 22.12 4.422 18.331 4.473 11.131 4.523 3.732 2.95 .021 0 0M.432-61.998H.383C-2.518-62.019-4.342-58.431-4.346-50.931-4.396-43.582-2.623-39.918 .229-39.898 3.278-39.877 4.854-43.667 4.905-50.867 4.957-58.267 3.383-61.977 .432-61.998M-9.213-69.767-8.951-70.923C-10.063-68.953-11.574-67.386-13.537-66.41L-13.752-35.637C-9.123-33.203-6.859-27.387-6.912-19.848-6.928-17.491-7.195-15.223-7.727-13.153L-2.178-10.465-2.078-10.464-1.91-34.369C-8.785-35.616-12.004-42.507-11.945-51.083-11.85-58.702-9.252-65.154-3.596-67.121ZM-18.982-31.133H-19.033C-21.934-31.153-23.758-27.567-23.762-20.066-23.812-12.716-22.037-9.054-19.187-9.034-16.137-9.013-14.561-12.802-14.512-20.002-14.459-27.401-16.033-31.112-18.982-31.133M-18.551-93.13-18.602-93.131C-21.5-93.152-23.326-89.564-23.328-82.064-23.379-74.715-21.605-71.052-18.756-71.033-15.705-71.011-14.129-74.801-14.078-82-14.027-89.4-15.602-93.111-18.551-93.13M-28.197-100.9-27.936-102.056C-29.045-100.083-30.557-98.519-32.52-97.542L-32.734-66.771C-28.105-64.337-25.842-58.52-25.895-50.982-25.91-48.625-26.178-46.356-26.709-44.285L-21.16-41.599-21.061-41.598-20.895-65.502C-27.768-66.75-30.986-73.64-30.928-82.216-30.832-89.834-28.234-96.287-22.58-98.253ZM-38.398-.268H-38.449C-41.348-.289-43.174 3.298-43.176 10.799-43.227 18.149-41.453 21.811-38.604 21.831-35.553 21.852-33.977 18.063-33.926 10.863-33.875 3.464-35.449-.248-38.398-.268M-37.965-62.266H-38.016C-40.916-62.287-42.74-58.7-42.744-51.199-42.795-43.849-41.02-40.187-38.17-40.167-35.119-40.146-33.543-43.935-33.494-51.134-33.441-58.535-35.016-62.246-37.965-62.266M-37.533-124.263-37.584-124.265C-40.482-124.285-42.309-120.697-42.311-113.199-42.361-105.849-40.588-102.185-37.738-102.166-34.688-102.144-33.111-105.935-33.061-113.134-33.01-120.533-34.584-124.244-37.533-124.263M-46.918-133.189C-48.027-131.218-49.539-129.652-51.502-128.675L-51.717-97.904C-47.088-95.47-44.824-89.653-44.877-82.115-44.893-79.757-45.16-77.49-45.691-75.419L-40.143-72.733-40.043-72.732-39.877-96.636C-46.75-97.882-49.969-104.773-49.91-113.351-49.814-120.968-47.217-127.421-41.563-129.386L-47.18-132.033ZM-57.381-31.401H-57.432C-60.332-31.421-62.156-27.835-62.158-20.334-62.21-12.984-60.436-9.322-57.586-9.302-54.535-9.281-52.959-13.07-52.908-20.27-52.857-27.669-54.432-31.38-57.381-31.401M-56.948-93.399-56.998-93.4C-59.898-93.419-61.724-89.833-61.727-82.332-61.777-74.984-60.003-71.321-57.152-71.3-54.104-71.279-52.527-75.07-52.477-82.267-52.424-89.667-53.998-93.378-56.948-93.399M-66.595-101.167-66.332-102.324C-67.443-100.353-68.955-98.789-70.918-97.812L-71.133-67.039C-66.504-64.605-64.24-58.789-64.293-51.25-64.309-48.892-64.576-46.625-65.106-44.554L-59.559-41.867H-59.459L-59.292-65.771C-66.166-67.017-69.385-73.909-69.325-82.485-69.23-90.103-66.633-96.556-60.977-98.523ZM-71.565-5.04C-66.937-2.606-64.673 3.21-64.726 10.749-64.742 13.106-65.008 15.374-65.539 17.444L-59.991 20.132H-59.892L-59.725-3.772C-66.6-5.019-69.818-11.91-69.758-20.487-69.664-28.104-67.065-34.557-61.411-36.524L-67.027-39.169-66.766-40.326C-67.876-38.355-69.389-36.79-71.351-35.813ZM-56.469 52.707C-53.418 52.728-51.842 48.939-51.793 41.739-51.74 34.34-53.314 30.629-56.264 30.608H-56.314C-59.215 30.588-61.039 34.174-61.042 41.675-61.094 49.025-59.318 52.687-56.469 52.707M-41.994-67.389-47.611-70.035-47.35-71.191C-48.461-69.22-49.973-67.655-51.936-66.678L-52.15-35.905C-47.521-33.471-45.258-27.655-45.311-20.116-45.326-17.759-45.592-15.491-46.123-13.421L-40.576-10.733-40.477-10.732-40.309-34.637C-47.184-35.884-50.402-42.775-50.342-51.352-50.248-58.97-47.648-65.422-41.994-67.389M-44.193 41.893C-44.209 44.25-44.477 46.519-45.006 48.589L-39.459 51.275-39.359 51.276-39.193 27.541C-47.135 27.104-50.84 19.843-50.775 10.646-50.68 3.03-48.082-3.423-42.43-5.391L-48.045-8.036-47.781-9.193C-48.893-7.222-50.406-5.657-52.367-4.681L-52.578 25.463C-46.912 27.346-44.135 33.563-44.193 41.893M-33.168-4.772C-28.537-2.338-26.275 3.479-26.326 11.017-26.344 13.374-26.609 15.642-27.141 17.712L-21.594 20.4H-21.494L-21.326-3.504C-28.201-4.751-31.42-11.642-31.359-20.219-31.266-27.835-28.668-34.288-23.014-36.256L-28.629-38.901-28.367-40.056C-29.479-38.086-30.99-36.521-32.953-35.545ZM-76.797-.536H-76.848C-79.747-.557-81.572 3.03-81.574 10.531-81.626 17.881-79.852 21.543-77.002 21.563-73.951 21.584-72.375 17.795-72.324 10.595-72.273 3.196-73.848-.516-76.797-.536M-76.364-62.535H-76.414C-79.314-62.554-81.139-58.968-81.142-51.467-81.193-44.118-79.419-40.455-76.568-40.435-73.519-40.414-71.942-44.204-71.893-51.403-71.84-58.803-73.414-62.513-76.364-62.535M-75.932-124.533H-75.981C-78.881-124.552-80.706-120.966-80.709-113.466-80.76-106.117-78.986-102.455-76.136-102.433-73.086-102.412-71.51-106.203-71.459-113.402-71.407-120.8-72.981-124.511-75.932-124.533M-85.578-132.3-85.315-133.457C-86.426-131.486-87.938-129.921-89.9-128.945L-90.115-98.171C-85.486-95.738-83.223-89.921-83.275-82.383-83.292-80.026-83.559-77.757-84.09-75.688L-78.541-73.001-78.441-73-78.274-96.904C-85.148-98.15-88.368-105.042-88.309-113.619-88.213-121.236-85.615-127.689-79.96-129.656ZM-95.779-31.669H-95.83C-98.73-31.689-100.555-28.103-100.557-20.603-100.609-13.252-98.834-9.59-95.984-9.57-92.934-9.549-91.357-13.338-91.308-20.538-91.256-27.937-92.83-31.648-95.779-31.669M-95.348-93.667H-95.397C-98.297-93.687-100.122-90.101-100.125-82.6-100.176-75.251-98.401-71.589-95.551-71.569-92.502-71.547-90.925-75.337-90.875-82.536-90.823-89.936-92.397-93.646-95.348-93.667M-104.993-101.435-104.731-102.593C-105.842-100.621-107.354-99.056-109.316-98.08L-109.531-67.306C-104.902-64.873-102.639-59.056-102.691-51.518-102.708-49.161-102.974-46.892-103.505-44.822L-97.957-42.134H-97.857L-97.69-66.039C-104.564-67.286-107.784-74.177-107.724-82.753-107.629-90.371-105.031-96.824-99.375-98.791ZM-109.964-5.308C-105.335-2.875-103.071 2.942-103.124 10.481-103.141 12.838-103.407 15.106-103.938 17.176L-98.39 19.864H-98.29L-98.123-4.041C-104.998-5.287-108.216-12.178-108.157-20.755-108.062-28.372-105.464-34.825-99.81-36.792L-105.426-39.437-105.164-40.593C-106.274-38.624-107.787-37.058-109.75-36.082ZM-94.867 52.438C-91.817 52.46-90.24 48.671-90.19 41.471-90.139 34.072-91.713 30.361-94.662 30.34H-94.713C-97.613 30.32-99.438 33.906-99.44 41.407-99.492 48.757-97.717 52.418-94.867 52.438M-80.393-67.658-86.01-70.302-85.748-71.459C-86.859-69.488-88.371-67.923-90.334-66.947L-90.549-36.173C-85.92-33.739-83.656-27.923-83.709-20.385-83.725-18.027-83.991-15.759-84.521-13.689L-78.975-11.001-78.875-11-78.707-34.905C-85.581-36.152-88.801-43.042-88.74-51.621-88.646-59.238-86.048-65.691-80.393-67.658M-82.592 41.625C-82.607 43.982-82.874 46.25-83.405 48.32L-77.857 51.007-77.758 51.008-77.592 27.272C-85.533 26.836-89.238 19.575-89.174 10.378-89.079 2.762-86.481-3.691-80.827-5.659L-86.443-8.304-86.181-9.461C-87.291-7.49-88.805-5.925-90.767-4.949L-90.977 25.195C-85.311 27.078-82.533 33.294-82.592 41.625M-115.195-.804H-115.246C-118.146-.825-119.97 2.762-119.973 10.263-120.024 17.613-118.25 21.275-115.4 21.295-112.35 21.316-110.773 17.527-110.723 10.327-110.671 2.928-112.246-.784-115.195-.804M-114.763-62.802H-114.813C-117.713-62.823-119.538-59.236-119.54-51.736-119.591-44.386-117.817-40.722-114.967-40.703-111.917-40.681-110.341-44.472-110.291-51.671-110.239-59.072-111.813-62.782-114.763-62.802M-114.33-124.8H-114.38C-117.28-124.82-119.105-121.234-119.107-113.734-119.159-106.384-117.384-102.722-114.534-102.703-111.484-102.681-109.908-106.47-109.857-113.669-109.806-121.07-111.38-124.779-114.33-124.8M-123.976-132.57-123.714-133.726C-124.825-131.755-126.337-130.189-128.299-129.212L-128.514-98.439C-123.885-96.005-121.622-90.189-121.674-82.652-121.69-80.294-121.957-78.026-122.488-75.957L-116.939-73.269-116.84-73.268-116.673-97.171C-123.547-98.419-126.767-105.31-126.707-113.886-126.612-121.503-124.014-127.957-118.358-129.923ZM-134.178-31.937H-134.229C-137.128-31.958-138.953-28.371-138.956-20.871-139.007-13.52-137.233-9.858-134.383-9.838-131.333-9.817-129.756-13.606-129.706-20.806-129.654-28.206-131.229-31.917-134.178-31.937M-133.746-93.935H-133.796C-136.695-93.956-138.521-90.369-138.523-82.869-138.574-75.519-136.8-71.857-133.95-71.837-130.9-71.816-129.323-75.605-129.273-82.804-129.222-90.205-130.796-93.915-133.746-93.935M-143.392-101.705-143.129-102.859C-144.241-100.888-145.752-99.324-147.714-98.347L-147.929-67.575C-143.3-65.141-141.037-59.324-141.089-51.787-141.105-49.429-141.372-47.16-141.903-45.089L-136.355-42.403-136.256-42.402-136.089-66.306C-142.963-67.554-146.182-74.445-146.122-83.021-146.027-90.639-143.429-97.091-137.774-99.058ZM-148.362-5.576C-143.733-3.143-141.469 2.674-141.522 10.213-141.539 12.57-141.805 14.838-142.336 16.908L-136.788 19.596H-136.688L-136.521-4.309C-143.396-5.555-146.615-12.446-146.555-21.023-146.46-28.64-143.862-35.093-138.208-37.06L-143.824-39.706-143.562-40.861C-144.673-38.891-146.186-37.325-148.147-36.35ZM-133.266 52.17C-130.216 52.192-128.639 48.403-128.589 41.203-128.538 33.804-130.112 30.093-133.062 30.072H-133.112C-136.011 30.052-137.836 33.638-137.839 41.139-137.89 48.489-136.116 52.15-133.266 52.17M-118.792-67.925-124.409-70.571-124.147-71.728C-125.258-69.756-126.77-68.191-128.732-67.214L-128.947-36.441C-124.318-34.007-122.054-28.191-122.107-20.653-122.123-18.295-122.39-16.027-122.921-13.957L-117.373-11.27-117.273-11.269-117.106-35.173C-123.979-36.42-127.199-43.311-127.139-51.888-127.045-59.505-124.446-65.958-118.792-67.925M-120.99 41.357C-121.006 43.714-121.272 45.982-121.804 48.052L-116.255 50.739-116.156 50.74-115.99 27.004C-123.932 26.568-127.636 19.307-127.572 10.11-127.478 2.494-124.88-3.959-119.226-5.927L-124.842-8.572-124.579-9.729C-125.69-7.758-127.203-6.193-129.165-5.217L-129.375 24.927C-123.709 26.81-120.932 33.026-120.99 41.357M-153.593-1.072H-153.644C-156.543-1.093-158.369 2.494-158.371 9.995-158.422 17.345-156.648 21.007-153.798 21.027-150.748 21.048-149.171 17.259-149.121 10.059-149.069 2.66-150.644-1.052-153.593-1.072M-153.161-63.07H-153.211C-156.111-63.091-157.936-59.503-157.938-52.003-157.989-44.654-156.215-40.991-153.365-40.97-150.315-40.95-148.739-44.74-148.688-51.939-148.637-59.339-150.211-63.05-153.161-63.07M-152.728-125.068H-152.778C-155.678-125.089-157.503-121.501-157.505-114.001-157.557-106.652-155.782-102.99-152.932-102.97-149.882-102.949-148.306-106.738-148.255-113.937-148.204-121.337-149.778-125.048-152.728-125.068M-162.807-70.839-162.545-71.996C-163.656-70.025-165.167-68.458-167.13-67.482L-167.345-36.709C-162.716-34.275-160.452-28.459-160.505-20.921-160.521-18.563-160.788-16.295-161.319-14.226L-155.771-11.538-155.671-11.537-155.504-35.441C-162.378-36.688-165.597-43.58-165.538-52.156-165.443-59.774-162.844-66.227-157.189-68.193ZM-167.773 24.659C-162.108 26.542-159.33 32.758-159.388 41.089-159.404 43.446-159.671 45.714-160.202 47.785L-154.654 50.471-154.554 50.472-154.389 26.736C-162.331 26.3-166.034 19.039-165.97 9.842-165.875 2.226-163.278-4.228-157.624-6.195L-163.24-8.84-162.977-9.998C-164.088-8.026-165.601-6.461-167.563-5.485ZM-172.576-32.205-172.626-32.206C-175.526-32.226-177.351-28.639-177.354-21.139-177.405-13.788-175.631-10.126-172.781-10.106-169.73-10.085-168.154-13.874-168.104-21.074-168.052-28.474-169.626-32.185-172.576-32.205M-172.144-94.203-172.194-94.204C-175.094-94.224-176.918-90.636-176.921-83.136-176.972-75.788-175.198-72.125-172.348-72.105-169.298-72.083-167.722-75.874-167.671-83.072-167.62-90.472-169.194-94.183-172.144-94.203M-181.79-101.972-181.528-103.128C-182.639-101.158-184.15-99.591-186.113-98.615L-186.328-67.843C-181.699-65.41-179.435-59.592-179.488-52.054-179.504-49.697-179.771-47.428-180.301-45.359L-174.753-42.671-174.654-42.67-174.487-66.575C-181.36-67.822-184.58-74.712-184.52-83.289-184.425-90.908-181.827-97.361-176.172-99.326ZM-186.761-5.844C-182.131-3.411-179.868 2.406-179.92 9.945-179.937 12.302-180.203 14.57-180.734 16.64L-175.186 19.328H-175.086L-174.919-4.577C-181.793-5.823-185.013-12.714-184.953-21.292-184.858-28.908-182.261-35.36-176.606-37.328L-182.223-39.974-181.96-41.129C-183.071-39.16-184.583-37.594-186.546-36.618ZM-191.559-63.338H-191.609C-194.509-63.359-196.334-59.772-196.336-52.271-196.388-44.921-194.614-41.259-191.764-41.239-188.713-41.218-187.137-45.007-187.087-52.207-187.035-59.607-188.609-63.318-191.559-63.338M18.681-33.303C18.675-32.458 18.654-31.617 18.63-30.776 16.162-30.216 14.641-26.641 14.638-19.798 14.607-15.518 15.201-12.498 16.261-10.71 15.784-8.441 15.234-6.199 14.624-3.982 9.433-6.268 6.986-12.466 7.039-19.951 7.134-27.567 9.731-34.02 15.386-35.988L9.769-38.633 10.031-39.789C8.921-37.819 7.408-36.253 5.446-35.277L5.231-4.504C8.58-2.744 10.684 .793 11.575 5.465 8.397 13.981 4.221 22.008-.807 29.409L-.795 27.809C-8.736 27.372-12.441 20.111-12.377 10.914-12.283 3.298-9.686-3.155-4.031-5.123L-9.646-7.768-9.385-8.925C-10.496-6.954-12.008-5.389-13.971-4.413L-14.18 25.731C-9.832 27.176-7.191 31.182-6.221 36.73-8.521 39.592-10.957 42.339-13.52 44.963-13.447 44.049-13.402 43.07-13.395 42.007-13.342 34.608-14.916 30.897-17.867 30.876H-17.916C-20.816 30.856-22.641 34.442-22.645 41.943-22.678 46.745-21.928 49.962-20.613 51.628-22.254 53.043-23.936 54.413-25.658 55.733-28.791 52.708-30.283 47.646-30.242 41.79-30.152 34.555-27.801 28.374-22.719 26.085L-29.062 23.098-28.801 21.941C-29.619 23.394-30.645 24.639-31.92 25.578L-31.83 25.579-32.057 58.078-32.266 58.076C-31.73 58.477-31.24 58.937-30.783 59.44-32.6 60.68-34.451 61.873-36.34 63.007-37.012 62.169-37.842 61.737-38.832 61.73H-38.881C-40.84 61.717-42.305 63.355-43.053 66.725-45.678 68.068-48.361 69.315-51.1 70.453-50.539 63.422-47.656 57.736-41.941 56.322L-46.928 53.974-46.666 52.817C-48.055 55.279-50.068 57.107-52.805 57.941L-52.898 71.174C-55.314 72.13-57.771 73.003-60.266 73.793L-60.154 57.844C-65.965 55.9-68.696 49.429-68.641 41.522-68.551 34.287-66.198 28.106-61.117 25.817L-67.461 22.83-67.197 21.672C-68.018 23.125-69.043 24.37-70.317 25.31L-70.228 25.311-70.455 57.81-70.664 57.808C-66.938 60.597-65.111 65.975-65.158 72.747-65.164 73.599-65.215 74.433-65.287 75.256-67.838 75.936-70.423 76.531-73.041 77.033-72.866 75.736-72.77 74.261-72.758 72.594-72.706 65.194-74.28 61.483-77.23 61.462H-77.28C-80.18 61.442-82.005 65.029-82.008 72.529-82.023 74.82-81.861 76.753-81.545 78.329-83.978 78.606-86.432 78.806-88.908 78.926-89.387 76.919-89.623 74.714-89.606 72.376-89.507 64.356-86.639 57.612-80.34 56.054L-85.326 53.706-85.064 52.547C-86.451 55.01-88.467 56.839-91.203 57.673L-91.353 79.015C-92.652 79.051-93.955 79.072-95.266 79.063-96.416 79.055-97.561 79.024-98.703 78.982L-98.553 57.576C-104.363 55.632-107.095 49.161-107.04 41.254-106.95 34.019-104.597 27.838-99.515 25.549L-105.859 22.562-105.596 21.404C-106.416 22.857-107.441 24.102-108.716 25.042H-108.626L-108.853 57.542-109.063 57.54C-105.336 60.329-103.51 65.707-103.557 72.479-103.572 74.639-103.808 76.718-104.254 78.645-106.727 78.433-109.174 78.137-111.598 77.77-111.321 76.253-111.171 74.441-111.156 72.326-111.104 64.926-112.679 61.215-115.628 61.194H-115.679C-118.579 61.174-120.403 64.761-120.406 72.261-120.416 73.685-120.355 74.967-120.234 76.114-122.844 75.506-125.418 74.807-127.956 74.022-127.989 73.394-128.01 72.757-128.005 72.108-127.905 64.088-125.038 57.344-118.738 55.786L-123.725 53.438-123.462 52.279C-124.85 54.742-126.866 56.571-129.602 57.405L-129.714 73.463C-132.197 72.65-134.643 71.757-137.046 70.781L-136.952 57.308C-142.761 55.364-145.493 48.893-145.438 40.986-145.348 33.75-142.995 27.57-137.914 25.281L-144.257 22.293-143.995 21.137C-144.814 22.589-145.84 23.834-147.114 24.773L-147.025 24.774-147.251 57.273-147.461 57.272C-144.43 59.54-142.656 63.52-142.125 68.57-144.976 67.245-147.76 65.801-150.475 64.251-151.226 62.052-152.42 60.938-154.026 60.926H-154.077C-154.569 60.922-155.028 61.032-155.455 61.238-157.348 60.025-159.203 58.759-161.016 57.438-159.905 56.548-158.619 55.885-157.137 55.518L-162.123 53.169-161.861 52.013C-162.509 53.163-163.301 54.167-164.233 55.004-165.946 53.661-167.624 52.273-169.255 50.835-167.784 49.247-167.022 45.904-166.987 40.935-166.936 33.536-168.51 29.825-171.459 29.804H-171.51C-174.41 29.784-176.234 33.37-176.237 40.871-176.246 42.108-176.198 43.232-176.107 44.261-178.67 41.591-181.103 38.797-183.396 35.888-182.5 30.826-180.213 26.77-176.311 25.013L-182.655 22.025-182.393 20.868C-183.211 22.321-184.238 23.566-185.513 24.505L-185.423 24.506-185.483 33.163C-188.493 29.096-191.232 24.819-193.684 20.361-193.229 20.622-192.732 20.755-192.196 20.759-189.146 20.78-187.57 16.991-187.52 9.791-187.468 2.392-189.042-1.32-191.992-1.34H-192.042C-194.942-1.361-196.767 2.226-196.77 9.727-196.784 11.849-196.643 13.654-196.371 15.163-198.755 10.239-200.793 5.117-202.454-.171-201.089-3.175-198.977-5.435-196.022-6.463L-201.638-9.108-201.375-10.266C-202.151-8.89-203.137-7.727-204.32-6.808-205.288-10.716-206.047-14.706-206.596-18.761-206.541-19.566-206.509-20.426-206.502-21.342-206.478-24.91-206.834-27.611-207.537-29.464-207.609-31.26-207.644-33.066-207.631-34.883-207.582-41.912-206.888-48.785-205.614-55.452L-205.744-36.978C-201.114-34.544-198.851-28.728-198.903-21.189-198.92-18.832-199.186-16.563-199.717-14.494L-194.169-11.806-194.069-11.805-193.902-35.71C-200.777-36.957-203.996-43.847-203.936-52.424-203.841-60.042-201.243-66.496-195.588-68.461L-201.205-71.107-200.943-72.263C-201-72.164-201.069-72.078-201.128-71.98-200.504-73.736-199.839-75.47-199.132-77.183-199.184-76.954-199.227-76.718-199.284-76.493L-193.736-73.805-193.636-73.804-193.531-88.839C-189.589-95.957-184.904-102.603-179.579-108.673-179.667-108.23-179.759-107.787-179.869-107.357L-174.32-104.669H-174.221L-174.152-114.439C-171.788-116.785-169.318-119.021-166.755-121.15L-166.912-98.708C-162.283-96.275-160.02-90.458-160.072-82.919-160.088-80.562-160.355-78.294-160.886-76.224L-155.337-73.537H-155.238L-155.071-97.439C-161.945-98.687-165.165-105.578-165.104-114.156-165.059-117.857-164.416-121.277-163.124-124.048-158.205-127.808-152.97-131.175-147.465-134.099L-147.497-129.574C-142.867-127.138-140.604-121.322-140.656-113.785-140.673-111.427-140.939-109.16-141.47-107.087L-135.922-104.402H-135.823L-135.656-128.304C-139.775-129.052-142.572-131.835-144.148-135.785-141.988-136.843-139.792-137.837-137.558-138.757-136.836-135.492-135.418-133.849-133.517-133.835-130.91-133.816-129.383-136.593-128.963-141.892-126.433-142.701-123.865-143.423-121.261-144.056-121.315-141.914-121.569-139.849-122.055-137.955L-116.507-135.267H-116.407L-116.338-145.14C-113.913-145.615-111.458-146.007-108.979-146.324L-109.099-129.304C-104.469-126.871-102.206-121.054-102.258-113.517-102.275-111.16-102.541-108.89-103.072-106.822L-97.524-104.134-97.424-104.132-97.257-128.037C-104.132-129.285-107.351-136.175-107.291-144.751-107.283-145.355-107.254-145.949-107.215-146.537-104.704-146.818-102.169-147.023-99.611-147.136-99.664-146.347-99.691-145.503-99.692-144.599-99.743-137.25-97.969-133.587-95.119-133.566-92.068-133.546-90.492-137.335-90.441-144.535-90.436-145.476-90.455-146.357-90.502-147.179-87.947-147.091-85.416-146.914-82.906-146.66-82.863-145.917-82.838-145.162-82.843-144.382-82.859-142.025-83.125-139.755-83.656-137.687L-78.108-135-78.009-134.998-77.932-146.041C-75.458-145.679-73.009-145.242-70.59-144.722L-70.7-129.037C-66.07-126.603-63.807-120.787-63.859-113.25-63.877-110.892-64.143-108.623-64.674-106.552L-59.125-103.867-59.025-103.865-58.859-127.769C-65.694-129.009-68.912-135.83-68.891-144.339-66.309-143.742-63.762-143.056-61.252-142.287-60.98-136.31-59.291-133.316-56.721-133.298-54.498-133.283-53.061-135.3-52.424-139.179-44.439-135.98-36.908-131.896-29.945-127.052-26.904-124.091-25.418-119.103-25.461-112.98-25.479-110.623-25.744-108.355-26.275-106.285L-20.727-103.597H-20.627L-20.516-119.728C-17.98-117.537-15.545-115.236-13.213-112.83L-13.318-97.636C-8.689-95.202-6.426-89.384-6.479-81.847-6.496-79.49-6.762-77.222-7.293-75.152L-1.744-72.464H-1.645L-1.479-96.367C-7.775-97.509-10.998-103.396-11.449-110.968-4.678-103.658 1.138-95.454 5.805-86.553L5.665-66.502C10.293-64.069 12.557-58.251 12.504-50.714 12.487-48.357 12.222-46.087 11.69-44.018L17.239-41.331 17.339-41.33 17.407-51.109C18.282-45.305 18.723-39.359 18.681-33.303M7.472-81.949C7.477-82.356 7.493-82.758 7.513-83.159 10.077-77.839 12.238-72.291 13.955-66.549 9.521-69.189 7.423-75.017 7.472-81.949" fill="#e6e7e8"/>
<path transform="matrix(1,0,0,-1,295.7432,270.41563)" d="M0 0C-15.148 13.943-28.422 5.971-42.347 14.288-63.265 26.783-60.143 50.375-58.062 71.531-42.139 44.733-25.775 49.84-12.798 37.723-5.707 31.104-8.228 19.515 0 0" fill="#a59a00"/>
<path transform="matrix(1,0,0,-1,302.0679,272.74275)" d="M0 0C5.162 20.716 17.056 23.444 25.588 35.243 38.434 53.016 32.073 71.369 25 89.145 13.033 69.979 11.855 75.753-2.818 52.716-7.508 45.353-8.5 27.25 0 0" fill="#a59a00"/>
<path transform="matrix(1,0,0,-1,289.6094,230.56552)" d="M0 0C2.681 23.465 24.739 25.672 11.302 42.885-3.691 62.09-35.483 67.297-56.734 66.732-32.706 47.403-46.625 24.598-30.125 18.044-16.315 12.558-12.146 11.265 0 0" fill="#a59a00"/>
<path transform="matrix(1,0,0,-1,310.8916,305.01524)" d="M0 0C-11.706 4.303-31.281 3.785-41.142 9.123-57.186 17.81-60.084 28.9-61.454 44.756-50.954 35.461-35.295 39.731-23.392 33.816-8.866 26.598-12.947 14.122 0 0" fill="#a59a00"/>
<path transform="matrix(1,0,0,-1,330.6274,328.33064)" d="M0 0C-12.85 1.625-20.951-5.845-33.49-1.149-46.418 3.691-55.541 12.471-63.115 26.414-47.623 19.185-41.328 21.215-27.31 18.667-17.842 16.946-8.891 10.061 0 0" fill="#a59a00"/>
<path transform="matrix(1,0,0,-1,355.6479,350.11683)" d="M0 0C-11.878 .688-15.347-.5-25.821-2.582-37.5-4.903-52.033 4.418-60.421 15.665-44.892 10.645-35.729 17.595-25.993 16.698-12.911 15.493-7.058 4.992 0 0" fill="#a59a00"/>
<path transform="matrix(1,0,0,-1,380.6084,362.16664)" d="M0 0C-11.706-2.409-10.014-5.798-20.528-7.665-33.784-10.019-43.548-7.633-56.462 3.443-41.313 2.066-39.248 6.714-27.542 7.059-18.417 7.327-5.585 2.76 0 0" fill="#a59a00"/>
<path transform="matrix(1,0,0,-1,404.5361,368.70765)" d="M0 0C-8.851-4.771-7.08-8.361-18.653-13.269-27.761-17.13-46.081-11.688-55.257-7.058-40.797-8.091-36.322-4.476-30.894-1.568-20.744 3.868-9.233 2.229 0 0" fill="#a59a00"/>
<path transform="matrix(1,0,0,-1,321.0479,309.14704)" d="M0 0C-9.794 11.438-16.181 21.862-13.943 32.535-11.213 45.555 5.195 54.212 13.427 70.406 14.397 57.075 17.259 46.795 11.723 28.727 9.079 20.101-.001 16.49 0 0" fill="#a59a00"/>
<path transform="matrix(1,0,0,-1,343.4263,333.59043)" d="M0 0C-5.204 3.136-17.206 14.261-17.042 22.895-16.727 39.473-3.016 41.324-2.705 65.456 6.093 46.764 7.188 41.889 7.23 32.534 7.277 21.918-1.081 16.575 0 0" fill="#a59a00"/>
<path transform="matrix(1,0,0,-1,369.936,352.52595)" d="M0 0C-6.222 3.521-19.111 10.031-20.657 20.829-22.314 32.397-13.078 39.713-13.239 55.913-2.591 41.525-.255 35.713 0 24.788 .173 17.373-4.268 12.895 0 0" fill="#a59a00"/>
<path transform="matrix(1,0,0,-1,400.4048,363.02693)" d="M0 0C-10.273 2.12-24.536 7.908-25.821 15.148-27.837 26.507-21.69 32.19-26.04 45.072-17.469 36.132-13.161 35.371-8.751 24.117-5.325 15.371-8.263 7.746 0 0" fill="#a59a00"/>
<path transform="matrix(1,0,0,-1,423.9902,370.00746)" d="M0 0C-3.948-4.155-6.104-9.522-10.181-13.09-16.171-18.324-26.12-17.922-35.119-15.742-27.703-11.933-24.161-8.644-21.243-5.351-17.531-1.163-10.156 1.205 0 0" fill="#a59a00"/>
<path transform="matrix(1,0,0,-1,421.2896,365.6441)" d="M0 0C-7.704-.809-14.688 2.1-17.27 5.371-21.166 10.307-19.68 18.282-23.983 27.922-15.833 23.492-10.517 19.518-7.71 15.481-4.956 11.521-5.194 6.025 0 0" fill="#a59a00"/>
<path transform="matrix(1,0,0,-1,439.1582,370.42344)" d="M0 0C-3.1-3.959-1.115-10.714-4.779-13.92-10.164-18.626-17.883-19.411-25.972-17.452-22.325-15.578-18.438-14.24-14.752-7.687-11.013-1.038-9.438 1.254 0 0" fill="#a59a00"/>
<path transform="matrix(1,0,0,-1,439.7812,365.43614)" d="M0 0C-6.926-.728-13.09-1.663-16.622 5.401-19.027 10.212-18.076 12.674-24.31 20.361-14.545 18.284-9.796 15.263-7.272 11.635-4.797 8.075-5.818 5.194 0 0" fill="#a59a00"/>
<path transform="matrix(1,0,0,-1,500.7676,216.26233)" d="M0 0C-.883 11.299-1.236 16.599-31.604 16.599-37.433 16.599-46.439 16.599-51.205 15.362-51.911 6.004-51.911-12.184-51.911-16.246V-29.841C-43.615-30.548-40.787-30.725-32.313-30.725-7.944-30.725-7.944-28.603-7.944-19.774L-4.593-19.424C-4.414-22.248-4.237-24.014-4.237-29.841-4.237-31.25-4.237-38.844-4.593-47.85H-8.121C-8.121-45.554-8.121-39.198-9.534-38.315-12.182-36.549-23.132-34.606-36.373-34.606-41.493-34.606-46.614-34.606-51.734-35.138-51.911-43.258-52.088-53.148-52.088-64.27-52.088-82.986-52.088-84.401-33.549-86.694V-90.048C-37.256-89.871-41.319-89.521-52.265-89.521H-60.74C-62.329-89.521-69.922-89.698-76.631-90.227L-76.454-87.4C-68.333-85.989-66.922-83.691-66.213-79.809-64.271-69.566-64.271-52.794-64.271-32.665-64.271-24.188-64.271 6.886-66.568 13.065-68.156 17.479-72.394 17.835-78.574 18.539V21.365H-67.451C-63.213 21.365-55.621 20.659-51.734 20.659-44.85 20.659-37.609 20.482-35.137 20.482-20.481 20.482-4.593 21.012 4.061 21.719 3.354 14.479 3.354 7.945 3.53 0Z" fill="#a7a9ac"/>
<path transform="matrix(1,0,0,-1,421.7637,197.37162)" d="M0 0C-1.413 19.247-20.481 22.425-29.486 22.425-52.086 22.425-52.97 4.239-52.97 .883-52.97-14.125-40.609-18.716-26.485-24.189-12.712-29.486 6.711-36.901 6.711-58.266 6.711-74.155-5.826-87.575-31.605-87.575-33.725-87.575-43.789-87.575-56.855-84.045-58.443-83.691-59.15-83.513-59.678-83.513-61.977-83.513-61.623-85.456-61.446-86.516L-64.977-86.339C-64.799-76.63-67.447-65.15-69.744-57.562-68.508-57.204-68.154-57.031-66.92-56.853-63.564-67.443-62.328-71.508-55.617-75.217-50.676-77.866-39.727-82.809-26.838-82.809-23.308-82.809-4.768-82.809-4.768-63.208-4.768-46.082-17.305-41.316-32.664-35.49-50.322-28.958-63.74-21.718-63.74-4.414-63.74 11.831-51.735 25.956-26.838 25.956-23.661 25.956-17.834 25.956-9.004 24.015-5.474 23.306-5.12 23.306-4.59 23.306-2.296 23.306-.527 24.368 1.236 25.426 1.767 25.426 2.473 25.251 3.003 25.074 2.473 21.365 1.588 15.892 1.767 11.478 1.941 8.477 2.648 1.943 2.648 .177Z" fill="#a7a9ac"/>
<path transform="matrix(1,0,0,-1,461.5127,185.70563)" d="M0 0C-1.413 19.245-20.481 22.424-29.489 22.424-52.089 22.424-52.974 4.236-52.974 .883-52.974-14.125-40.61-18.716-26.485-24.189-12.714-29.486 6.708-36.903 6.708-58.267 6.708-74.16-5.827-87.576-31.606-87.576-33.726-87.576-43.79-87.576-56.857-84.047-58.447-83.692-59.153-83.518-59.684-83.518-61.976-83.518-61.622-85.455-61.446-86.519L-64.979-86.34C-64.804-76.633-67.452-65.153-69.746-57.56-68.511-57.207-68.158-57.032-66.92-56.854-63.567-67.449-62.331-71.508-55.621-75.218-50.677-77.869-39.729-82.807-26.839-82.807-23.311-82.807-4.768-82.807-4.768-63.21-4.768-46.085-17.304-41.317-32.667-35.492-50.323-28.957-63.742-21.719-63.742-4.414-63.742 11.83-51.735 25.957-26.839 25.957-23.661 25.957-17.835 25.957-9.007 24.014-5.474 23.308-5.12 23.308-4.593 23.308-2.296 23.308-.53 24.365 1.234 25.425 1.765 25.425 2.471 25.25 3.001 25.074 2.471 21.366 1.588 15.891 1.765 11.477 1.941 8.477 2.647 1.942 2.647 .176Z" fill="#808285"/>
</g>
<g id="layer_1" data-name="">
</g>
</g>
</svg>
