<svg xmlns="http://www.w3.org/2000/svg" xmlns:xlink="http://www.w3.org/1999/xlink" version="1.1" width="841.89pt" height="595.275pt" viewBox="0 0 841.89 595.275">
<defs>
<clipPath id="clip_0">
<path transform="matrix(1,0,0,-1,0,595.275)" d="M0 595.275H841.89V0H0Z"/>
</clipPath>
</defs>
<g id="layer_1" data-name="">
<g clip-path="url(#clip_0)">
<path transform="matrix(1,0,0,-1,307.478,423.81404)" d="M0 0C-.519 7.066-7.519 8.232-10.825 8.232-19.121 8.232-19.445 1.557-19.445 .324-19.445-5.186-14.908-6.869-9.723-8.879-4.667-10.824 2.463-13.547 2.463-21.389 2.463-27.223-2.139-32.148-11.603-32.148-12.38-32.148-16.075-32.148-20.871-30.854-21.455-30.723-21.714-30.658-21.908-30.658-22.751-30.658-22.622-31.371-22.557-31.76L-23.853-31.695C-23.788-28.131-24.76-23.918-25.603-21.131-25.149-21-25.02-20.936-24.566-20.871-23.334-24.76-22.88-26.25-20.417-27.611-18.603-28.584-14.584-30.398-9.853-30.398-8.556-30.398-1.75-30.398-1.75-23.205-1.75-16.916-6.352-15.166-11.991-13.027-18.473-10.629-23.399-7.973-23.399-1.619-23.399 4.344-18.992 9.529-9.853 9.529-8.686 9.529-6.546 9.529-3.306 8.816-2.009 8.557-1.88 8.557-1.685 8.557-.843 8.557-.194 8.945 .454 9.334 .648 9.334 .907 9.27 1.102 9.205 .907 7.844 .583 5.834 .648 4.213 .713 3.111 .972 .713 .972 .064Z" fill="#231f20"/>
<path transform="matrix(1,0,0,-1,330.2661,455.70274)" d="M0 0C-1.296 0-2.333 .064-3.436 .129-4.537 .193-5.704 .258-6.417 .258-8.297 .258-9.593 .193-10.63 .064-11.603 .064-12.445-.066-13.158-.131L-13.353 .777C-12.834 .842-12.25 .906-11.343 1.035-9.204 1.426-8.815 1.879-8.686 2.656-8.426 4.342-8.361 12.25-8.361 14.324-8.361 17.629-8.426 20.871-8.686 24.176-10.5 24.371-11.991 24.371-12.38 24.371-16.982 24.371-17.955 23.268-18.797 21L-19.64 21.518C-19.575 21.777-17.825 26.445-17.695 26.77H-16.982C-16.788 26.51-16.464 26.186-15.103 26.121-13.612 26.055-11.797 26.055-9.398 26.055H-1.88C0 26.055 3.176 26.055 3.759 26.121 5.315 26.314 5.509 26.445 6.028 26.834L6.676 26.25C6.093 24.76 5.833 23.723 5.38 21.26L4.343 21.129 4.472 23.334C3.306 24.047 2.269 24.371-1.426 24.371-3.759 24.371-4.019 24.371-4.019 23.592-4.019 21.713-4.278 13.545-4.278 11.926-4.278 10.045-4.278 2.916-3.436 1.943-2.982 1.49-1.815 1.295-1.102 1.166-.583 1.035-.194 .971 .129 .971Z" fill="#231f20"/>
<path transform="matrix(1,0,0,-1,339.0811,429.45274)" d="M0 0 2.269-.064C3.241-.064 4.148-.195 6.352-.195 8.556-.195 9.658-.129 10.695-.064H13.547V-1.166C12.898-1.102 10.306-.908 9.528-2.203 8.945-3.24 8.88-5.898 8.88-16.334 8.88-17.889 8.88-22.945 9.139-23.854 9.528-25.148 10.695-25.148 13.288-25.148L13.352-26.186C12.38-26.186 8.167-25.992 7.324-25.992H3.565C2.917-25.992 .194-26.121-.324-26.121V-25.215C.519-25.148 3.629-24.891 4.278-23.723 5.056-22.361 4.991-16.463 4.991-14.324 4.991-12.445 4.926-4.084 4.407-2.787 4.083-1.945 3.435-1.23 0-1.102Z" fill="#231f20"/>
<path transform="matrix(1,0,0,-1,356.3218,429.648)" d="M0 0C1.361 .131 1.491 .195 2.463 .195 3.176 .195 5.121 .131 7 .066 8.88 0 10.759 0 11.408 0 15.556 0 16.463 0 20.223 .391 20.223-.713 19.899-4.537 19.963-5.314L18.926-5.379C18.732-4.537 18.408-3.369 17.5-2.656 16.528-1.879 14.13-1.295 11.083-1.295 10.695-1.295 9.333-1.359 7.778-1.555L7.713-5.963C7.713-8.037 7.583-10.111 7.713-11.666 9.398-11.861 9.852-11.926 11.473-11.926 16.658-11.926 16.853-11.018 17.176-9.008H18.149C18.213-11.537 18.213-14 18.019-16.463H17.112C16.982-15.49 16.658-14.324 16.075-14.129 15.232-13.74 12.25-13.223 9.982-13.223 9.658-13.223 8.686-13.223 7.648-13.352L7.519-18.406C7.454-19.963 7.454-23.01 7.972-23.658 8.75-24.629 11.861-24.889 12.51-24.953V-26.055C10.565-25.926 9.463-25.861 8.556-25.861 7.713-25.797 7.13-25.797 6.287-25.797 5.509-25.797 2.722-25.861 .194-26.055L.259-25.084C1.361-24.889 2.852-24.5 3.111-23.334 3.241-22.621 3.629-17.629 3.629-13.223 3.629-3.824 3.565-2.787 2.852-1.684 2.333-.906 1.231-.777 0-.713Z" fill="#231f20"/>
<path transform="matrix(1,0,0,-1,398.9341,455.70274)" d="M0 0C-1.296 0-2.333 .064-3.436 .129-4.537 .193-5.704 .258-6.417 .258-8.297 .258-9.593 .193-10.63 .064-11.603 .064-12.445-.066-13.158-.131L-13.353 .777C-12.834 .842-12.25 .906-11.343 1.035-9.204 1.426-8.815 1.879-8.686 2.656-8.426 4.342-8.361 12.25-8.361 14.324-8.361 17.629-8.426 20.871-8.686 24.176-10.5 24.371-11.991 24.371-12.38 24.371-16.982 24.371-17.955 23.268-18.797 21L-19.64 21.518C-19.575 21.777-17.825 26.445-17.695 26.77H-16.982C-16.788 26.51-16.464 26.186-15.103 26.121-13.612 26.055-11.797 26.055-9.398 26.055H-1.88C0 26.055 3.176 26.055 3.759 26.121 5.315 26.314 5.509 26.445 6.028 26.834L6.676 26.25C6.093 24.76 5.833 23.723 5.38 21.26L4.343 21.129 4.472 23.334C3.306 24.047 2.269 24.371-1.426 24.371-3.759 24.371-4.019 24.371-4.019 23.592-4.019 21.713-4.278 13.545-4.278 11.926-4.278 10.045-4.278 2.916-3.436 1.943-2.982 1.49-1.815 1.295-1.102 1.166-.583 1.035-.194 .971 .129 .971Z" fill="#231f20"/>
<path transform="matrix(1,0,0,-1,408.3325,429.45274)" d="M0 0C1.815-.064 6.871-.195 8.945-.195 12.186-.195 17.242-.129 20.482 .064 20.482-.584 20.482-1.23 20.288-2.592 20.223-3.111 19.833-5.25 19.833-5.703L18.796-5.574C18.927-2.982 18.667-1.361 12.704-1.361 11.538-1.361 8.815-1.621 7.519-1.879 7.195-3.824 7.065-6.611 7.065-8.232 7.065-8.621 7.065-10.176 7.195-11.926 7.778-11.99 11.667-12.186 15.621-11.668 16.463-11.537 16.917-11.084 17.436-9.074H18.408C18.213-12.77 18.213-13.611 18.279-17.047H17.436C16.722-13.74 16.205-13.287 11.083-13.287 10.371-13.287 8.75-13.287 7-13.547L7.065-18.602C7.13-22.037 7.259-23.074 7.389-23.854 8.686-24.371 9.658-24.695 11.991-24.695 17.759-24.695 20.029-22.686 21.13-19.639L21.973-19.705C21.39-23.982 20.546-25.279 20.029-26.121 18.408-26.121 11.278-25.992 9.788-25.992 7.324-25.992 3.046-25.992-.454-26.381L-.583-25.344C1.231-25.148 2.398-24.824 2.593-23.787 2.917-21.973 3.176-16.594 3.176-13.094 3.176-10.953 3.176-3.371 2.657-2.01 2.463-1.361 2.204-1.297 0-.908Z" fill="#231f20"/>
<path transform="matrix(1,0,0,-1,433.0918,454.47224)" d="M0 0C3.76 .129 3.824 1.297 3.824 9.527V15.232C3.824 22.881 3.695 23.854 .26 23.854L.195 24.824H5.964C7.714 24.824 9.594 24.824 11.797 25.02V23.982C9.399 23.789 8.427 23.529 8.038 21.779 7.908 20.871 7.779 20.418 7.779 13.287V8.297C7.779 6.871 7.779 2.074 8.297 1.166 8.621 .648 10.566 .648 11.538 .648 19.187 .648 20.548 2.463 21.391 5.574L22.363 5.51C22.363 4.084 22.104 3.24 20.678-1.426 20.354-1.297 19.835-1.23 18.992-1.102 18.149-1.037 17.048-.973 15.492-.973H-.064Z" fill="#231f20"/>
<path transform="matrix(1,0,0,-1,474.6035,429.45274)" d="M0 0 .843-.129C.713-.648 .454-2.01 .454-3.305 .454-3.824 .777-6.092 .777-6.547H-.13C-.389-5.379-.648-4.148-1.75-3.111-2.139-2.658-4.019-1.037-6.806-1.037-10.047-1.037-11.861-3.047-11.861-5.574-11.861-8.426-9.204-9.594-6.223-10.76-2.852-12.121 2.01-14.064 2.01-19.121 2.01-22.881-1.491-26.51-7.519-26.51-9.463-26.51-11.019-26.121-11.732-25.928-11.991-25.861-13.158-25.537-13.547-25.537-13.936-25.537-14.195-25.992-14.324-26.316L-15.232-26.25C-15.167-22.881-15.491-21.52-16.334-18.668H-15.232C-15.038-19.574-14.584-21.324-13.158-22.557-11.991-23.529-9.204-24.824-6.287-24.824-2.852-24.824-1.491-22.426-1.491-20.547-1.491-17.047-3.76-16.139-8.621-14.131-11.408-12.963-15.103-11.473-15.103-7.064-15.103-2.916-11.603 .26-6.093 .26-4.407 .26-3.241 .064-.843-.584Z" fill="#231f20"/>
<path transform="matrix(1,0,0,-1,480.2139,429.45274)" d="M0 0C1.815-.064 6.871-.195 8.945-.195 12.187-.195 17.242-.129 20.482 .064 20.482-.584 20.482-1.23 20.288-2.592 20.224-3.111 19.835-5.25 19.835-5.703L18.798-5.574C18.927-2.982 18.668-1.361 12.705-1.361 11.538-1.361 8.815-1.621 7.52-1.879 7.195-3.824 7.065-6.611 7.065-8.232 7.065-8.621 7.065-10.176 7.195-11.926 7.778-11.99 11.668-12.186 15.621-11.668 16.464-11.537 16.918-11.084 17.437-9.074H18.408C18.214-12.77 18.214-13.611 18.279-17.047H17.437C16.724-13.74 16.205-13.287 11.084-13.287 10.371-13.287 8.751-13.287 7.001-13.547L7.065-18.602C7.13-22.037 7.26-23.074 7.39-23.854 8.686-24.371 9.658-24.695 11.991-24.695 17.761-24.695 20.029-22.686 21.131-19.639L21.974-19.705C21.391-23.982 20.548-25.279 20.029-26.121 18.408-26.121 11.278-25.992 9.788-25.992 7.325-25.992 3.047-25.992-.453-26.381L-.583-25.344C1.232-25.148 2.398-24.824 2.593-23.787 2.917-21.973 3.177-16.594 3.177-13.094 3.177-10.953 3.177-3.371 2.658-2.01 2.464-1.361 2.204-1.297 0-.908Z" fill="#231f20"/>
<path transform="matrix(1,0,0,-1,526.624,445.398)" d="M0 0C.583-.518 2.917-2.852 3.436-3.371 3.436-2.268 3.564 1.297 3.564 2.463 3.564 14.584 3.176 14.844-1.167 15.104L-.973 16.074C-.584 16.141 .064 16.141 .648 16.141 1.361 16.141 2.203 16.01 3.37 15.881 4.602 15.75 6.027 15.75 8.815 15.75V14.779C7.583 14.779 5.704 14.648 5.444 12.574 5.25 11.473 4.991 3.047 4.991-.389 4.991-2.787 4.991-8.426 5.12-10.564L3.889-10.5C2.722-8.166 .648-5.768-5.964 .389L-9.593 3.76C-9.658 3.889-14.195 8.232-15.621 9.787L-15.686 7.713-15.815-3.24C-15.881-7.584-15.881-8.297-10.76-9.203V-10.305C-11.148-10.24-11.732-10.176-12.575-10.176-13.482-10.111-14.52-10.047-15.491-10.047-16.464-10.047-17.437-10.111-18.408-10.176-19.381-10.24-20.353-10.305-21.325-10.305V-9.334C-20.937-9.27-20.353-9.139-19.834-9.01-18.862-8.814-18.149-8.686-17.955-7-17.76-5.51-17.565-.324-17.565 1.426L-17.501 6.029C-17.371 13.547-18.149 14.131-21.908 14.844L-21.974 15.945C-21.325 15.945-20.742 15.881-20.094 15.816-19.445 15.75-18.797 15.75-18.149 15.75-16.853 15.75-16.399 15.75-15.362 15.816-11.991 11.537-5.574 5.314-3.306 3.176Z" fill="#231f20"/>
<path transform="matrix(1,0,0,-1,562.001,438.69496)" d="M0 0H-5.704L-7.053-9.334C-8.349-18.461-9.956-23.076-14.053-26.912-16.334-29.039-19.135-30.439-22.298-30.439-23.179-30.439-24.683-30.387-24.683-29.195-24.683-27.795-22.972-27.795-22.557-27.795-22.142-27.795-20.379-27.898-20.016-27.898-12.652-27.898-11.305-20.689-10.06-11.875L-8.297 .051-12.082 .104C-12.03 .674-11.979 .828-11.823 1.348L-8.038 1.451C-7.675 3.785-7.053 7.83-3.526 11.096-1.4 13.066 .933 13.637 2.281 13.637 3.422 13.637 4.148 13.119 4.148 12.34 4.148 10.889 2.281 10.836 1.296 10.836L.155 10.889C-3.838 10.889-4.512 8.504-5.497 1.504H.362Z" fill="#231f20"/>
<path transform="matrix(1,0,0,-1,576.3633,428.79063)" d="M0 0C1.037 0 1.867-.883 1.867-1.867 1.867-2.957 .985-3.787 0-3.787-.985-3.787-1.866-2.957-1.866-1.867-1.866-.883-1.089 0 0 0M-7.519 0C-6.43 0-5.651-.883-5.651-1.867-5.651-2.904-6.481-3.787-7.519-3.787-8.504-3.787-9.385-3.008-9.385-1.867-9.385-.83-8.556 0-7.519 0M-2.593-16.18C-2.593-14.313-3.422-10.061-7.259-10.061-8.141-10.061-8.711-10.268-9.126-10.787-9.696-11.461-11.355-14.365-11.355-17.631-11.355-20.795-10.37-24.84-7.415-24.84-6.326-24.84-6.015-24.684-5.703-24.58-3.733-22.506-2.593-18.928-2.593-16.18M-8.192-27.068C-11.252-27.068-13.896-24.061-13.896-18.928-13.896-14.156-9.126-7.779-5.393-7.779-3.422-7.779-.414-10.113-.414-15.09-.414-16.49-.881-21.832-6.637-26.809-7-26.912-7.415-27.068-8.192-27.068" fill="#231f20"/>
<path transform="matrix(1,0,0,-1,579.7197,455.49574)" d="M0 0 1.244 5.443C1.659 7.26 2.903 12.859 2.903 14.207 2.903 14.881 2.748 15.037 2.333 15.141 1.556 14.727 .311 13.689-.57 12.807-1.556 11.822-1.659 11.719-2.074 11.355-2.229 11.512-2.386 11.615-2.593 11.719-1.297 13.43 2.281 17.578 4.407 19.082 5.081 18.459 5.496 17.682 5.496 16.437 5.496 15.711 5.341 14 4.459 10.266L4.562 10.162 5.444 12.082C6.274 13.74 8.971 18.979 11.148 18.979 11.252 18.979 13.223 18.979 13.223 17.008 13.223 16.23 11.822 15.297 11.719 15.297 11.46 15.297 10.318 15.814 10.06 15.814 9.074 15.814 7.726 13.896 7.363 13.377 4.407 9.229 3.63 5.756 2.385 0Z" fill="#231f20"/>
<path transform="matrix(1,0,0,-1,206.5493,480.85313)" d="M0 0C-.519 7.064-7.519 8.23-10.825 8.23-19.121 8.23-19.445 1.555-19.445 .324-19.445-5.186-14.908-6.871-9.723-8.881-4.667-10.824 2.463-13.547 2.463-21.391 2.463-27.225-2.139-32.15-11.603-32.15-12.38-32.15-16.075-32.15-20.871-30.854-21.455-30.725-21.714-30.658-21.908-30.658-22.751-30.658-22.622-31.373-22.557-31.762L-23.853-31.695C-23.788-28.131-24.76-23.918-25.603-21.131-25.149-21.002-25.02-20.936-24.566-20.871-23.334-24.76-22.88-26.252-20.417-27.613-18.603-28.584-14.584-30.4-9.853-30.4-8.556-30.4-1.75-30.4-1.75-23.205-1.75-16.918-6.352-15.168-11.991-13.029-18.473-10.631-23.399-7.973-23.399-1.621-23.399 4.342-18.992 9.527-9.853 9.527-8.686 9.527-6.546 9.527-3.306 8.814-2.009 8.555-1.88 8.555-1.685 8.555-.843 8.555-.194 8.945 .454 9.334 .648 9.334 .907 9.268 1.102 9.203 .907 7.842 .583 5.834 .648 4.213 .713 3.111 .972 .713 .972 .064Z" fill="#231f20"/>
<path transform="matrix(1,0,0,-1,230.3374,512.7437)" d="M0 0C-1.296 0-2.333 .064-3.436 .129-4.537 .195-5.704 .26-6.417 .26-8.297 .26-9.593 .195-10.63 .064-11.603 .064-12.445-.064-13.158-.129L-13.353 .777C-12.834 .842-12.25 .908-11.343 1.037-9.204 1.426-8.815 1.879-8.686 2.658-8.426 4.344-8.361 12.25-8.361 14.324-8.361 17.631-8.426 20.871-8.686 24.178-10.5 24.371-11.991 24.371-12.38 24.371-16.982 24.371-17.955 23.27-18.797 21L-19.64 21.52C-19.575 21.779-17.825 26.445-17.695 26.77H-16.982C-16.788 26.51-16.464 26.186-15.103 26.121-13.612 26.057-11.797 26.057-9.398 26.057H-1.88C0 26.057 3.176 26.057 3.759 26.121 5.315 26.316 5.509 26.445 6.028 26.834L6.676 26.252C6.093 24.76 5.833 23.723 5.38 21.26L4.343 21.131 4.472 23.334C3.306 24.047 2.269 24.371-1.426 24.371-3.759 24.371-4.019 24.371-4.019 23.594-4.019 21.713-4.278 13.547-4.278 11.926-4.278 10.047-4.278 2.916-3.436 1.945-2.982 1.49-1.815 1.297-1.102 1.166-.583 1.037-.194 .973 .129 .973Z" fill="#231f20"/>
<path transform="matrix(1,0,0,-1,247.0596,498.67933)" d="M0 0C.778-.129 2.009-.129 2.787-.129 3.759-.129 9.204-.129 9.204 5.057 9.204 7.455 7.454 10.955 2.852 10.955 .13 10.955 .13 10.631 .065 6.223ZM-7.519 12.188C-6.676 12.121-5.898 12.057-5.056 12.057-4.278 11.992-3.435 11.992-2.657 11.992-2.074 11.992-.583 12.121 .908 12.252 2.398 12.381 3.5 12.381 4.408 12.381 9.917 12.381 13.417 9.4 13.417 5.381 13.417 1.752 10.112-.453 7.519-1.102 12.899-8.879 13.871-10.045 15.945-11.99 16.205-12.25 17.825-13.74 19.834-13.869L19.77-14.842C15.297-14.842 13.093-13.092 11.926-12.186 7.973-9.074 4.083-2.916 3.371-1.619 2.269-1.619 1.815-1.619-.065-1.49V-5.25C-.065-6.934-.129-10.693 .389-11.73 .713-12.314 2.658-12.898 3.954-13.287L4.019-14.26C2.463-14 0-13.805-1.685-13.805-2.593-13.805-6.611-14.064-7.454-14.129L-7.648-13.352C-7.259-13.287-4.926-12.768-4.343-11.666-3.889-10.693-3.954-5.25-3.954-3.5V2.723C-3.954 10.76-4.343 10.891-7.583 11.084Z" fill="#231f20"/>
<path transform="matrix(1,0,0,-1,276.3569,501.72425)" d="M0 0C2.398-.195 3.759-.195 3.824-.195 4.472-.195 6.741-.131 7.324-.064L3.629 8.686C2.722 6.48 2.593 6.287 1.944 4.73ZM.129-11.02C-.454-10.955-1.102-10.891-1.88-10.824-2.593-10.76-3.371-10.76-4.148-10.76-4.926-10.76-5.704-10.76-6.352-10.824-7.065-10.891-7.713-10.891-8.232-10.955L-8.167-10.047C-6.028-9.854-5.25-8.428-3.824-5.057L2.269 9.527C2.917 11.148 4.083 13.936 4.407 15.621H5.38C6.093 12.898 7.519 9.398 8.102 7.906L12.704-3.5C14.843-8.75 15.88-9.658 18.019-9.787V-10.76C16.917-10.695 15.103-10.695 13.093-10.76 11.083-10.824 8.945-10.891 7.13-11.02L7.195-10.047C10.241-9.594 10.241-9.074 10.241-8.621 10.241-7.779 9.658-6.223 9.463-5.705L8.037-1.945C6.676-1.75 5.25-1.686 3.759-1.686 1.296-1.686 .259-1.816-.713-1.945-1.621-3.631-2.982-7.26-2.982-8.361-2.982-9.27-1.88-9.594 .129-9.982Z" fill="#231f20"/>
<path transform="matrix(1,0,0,-1,311.9785,512.7437)" d="M0 0C-1.296 0-2.333 .064-3.436 .129-4.537 .195-5.704 .26-6.417 .26-8.297 .26-9.593 .195-10.63 .064-11.603 .064-12.445-.064-13.158-.129L-13.353 .777C-12.834 .842-12.25 .908-11.343 1.037-9.204 1.426-8.815 1.879-8.686 2.658-8.426 4.344-8.361 12.25-8.361 14.324-8.361 17.631-8.426 20.871-8.686 24.178-10.5 24.371-11.991 24.371-12.38 24.371-16.982 24.371-17.955 23.27-18.797 21L-19.64 21.52C-19.575 21.779-17.825 26.445-17.695 26.77H-16.982C-16.788 26.51-16.464 26.186-15.103 26.121-13.612 26.057-11.797 26.057-9.398 26.057H-1.88C0 26.057 3.176 26.057 3.759 26.121 5.315 26.316 5.509 26.445 6.028 26.834L6.676 26.252C6.093 24.76 5.833 23.723 5.38 21.26L4.343 21.131 4.472 23.334C3.306 24.047 2.269 24.371-1.426 24.371-3.76 24.371-4.019 24.371-4.019 23.594-4.019 21.713-4.278 13.547-4.278 11.926-4.278 10.047-4.278 2.916-3.436 1.945-2.982 1.49-1.815 1.297-1.102 1.166-.583 1.037-.194 .973 .129 .973Z" fill="#231f20"/>
<path transform="matrix(1,0,0,-1,320.6357,486.49183)" d="M0 0C1.815-.066 6.871-.195 8.945-.195 12.186-.195 17.241-.131 20.482 .064 20.482-.584 20.482-1.232 20.288-2.594 20.223-3.111 19.834-5.252 19.834-5.705L18.797-5.574C18.927-2.982 18.667-1.361 12.704-1.361 11.538-1.361 8.815-1.621 7.519-1.881 7.195-3.824 7.065-6.611 7.065-8.232 7.065-8.621 7.065-10.178 7.195-11.928 7.778-11.992 11.667-12.188 15.621-11.668 16.463-11.539 16.917-11.084 17.436-9.076H18.408C18.214-12.77 18.214-13.613 18.278-17.049H17.436C16.723-13.742 16.204-13.289 11.083-13.289 10.371-13.289 8.75-13.289 7-13.547L7.065-18.604C7.13-22.039 7.259-23.076 7.389-23.854 8.686-24.373 9.658-24.697 11.991-24.697 17.76-24.697 20.028-22.687 21.13-19.641L21.973-19.705C21.39-23.982 20.547-25.279 20.028-26.123 18.408-26.123 11.278-25.992 9.787-25.992 7.324-25.992 3.046-25.992-.454-26.381L-.583-25.344C1.231-25.15 2.398-24.826 2.593-23.789 2.917-21.975 3.176-16.594 3.176-13.094 3.176-10.955 3.176-3.371 2.657-2.01 2.463-1.361 2.204-1.297 0-.908Z" fill="#231f20"/>
<path transform="matrix(1,0,0,-1,373.0732,500.3629)" d="M0 0C-2.009-.389-2.269-.908-2.269-3.436V-5.705C-2.269-7.455-2.333-9.594-1.231-10.307V-11.02C-5.315-11.863-9.14-12.576-12.64-12.576-21.195-12.576-27.224-7.195-27.224 .518-27.224 7.906-20.677 14.129-12.25 14.129-9.788 14.129-7.519 13.547-6.806 13.352-6.417 13.223-5.963 13.092-5.769 13.092-5.704 13.092-5.186 13.092-4.667 14L-3.889 13.936-3.306 7.518-4.148 7.26C-4.538 7.973-4.991 8.686-5.704 9.463-6.871 10.76-9.075 12.768-12.705 12.768-17.177 12.768-22.945 9.01-22.945 1.619-22.945-6.418-17.242-11.02-11.667-11.02-9.917-11.02-7.584-10.502-6.676-9.529-6.158-9.01-6.093-8.297-6.093-6.807L-6.028-4.861C-5.963-1.037-6.611-.455-9.658-.455L-11.084-.52-11.019 .518-8.556 .646C-4.148 .646-1.75 .777 0 .906Z" fill="#231f20"/>
<path transform="matrix(1,0,0,-1,376.1191,486.49183)" d="M0 0 2.269-.066C3.241-.066 4.148-.195 6.352-.195 8.556-.195 9.658-.131 10.695-.066H13.547V-1.168C12.898-1.104 10.306-.908 9.528-2.205 8.945-3.242 8.88-5.898 8.88-16.334 8.88-17.891 8.88-22.945 9.139-23.854 9.528-25.15 10.695-25.15 13.288-25.15L13.352-26.187C12.38-26.187 8.167-25.992 7.324-25.992H3.565C2.917-25.992 .194-26.123-.324-26.123V-25.215C.519-25.15 3.629-24.891 4.278-23.725 5.056-22.363 4.991-16.465 4.991-14.326 4.991-12.445 4.926-4.084 4.407-2.787 4.083-1.945 3.435-1.232 0-1.104Z" fill="#231f20"/>
<path transform="matrix(1,0,0,-1,409.8511,486.49183)" d="M0 0 .843-.131C.713-.648 .454-2.01 .454-3.307 .454-3.824 .778-6.094 .778-6.547H-.13C-.389-5.381-.648-4.148-1.75-3.111-2.139-2.658-4.019-1.037-6.806-1.037-10.047-1.037-11.862-3.047-11.862-5.574-11.862-8.428-9.204-9.594-6.223-10.76-2.852-12.121 2.009-14.066 2.009-19.121 2.009-22.881-1.491-26.512-7.519-26.512-9.463-26.512-11.019-26.123-11.732-25.928-11.991-25.863-13.158-25.539-13.547-25.539-13.936-25.539-14.195-25.992-14.325-26.316L-15.232-26.252C-15.167-22.881-15.491-21.52-16.334-18.668H-15.232C-15.038-19.576-14.584-21.326-13.158-22.557-11.991-23.529-9.204-24.826-6.287-24.826-2.852-24.826-1.491-22.428-1.491-20.549-1.491-17.049-3.759-16.141-8.621-14.131-11.408-12.965-15.103-11.473-15.103-7.066-15.103-2.918-11.603 .258-6.093 .258-4.408 .258-3.241 .064-.843-.584Z" fill="#231f20"/>
<path transform="matrix(1,0,0,-1,418.1196,496.0855)" d="M0 0C0 8.166-.13 8.166-3.241 8.557L-3.176 9.594C-2.009 9.463 .064 9.398 1.815 9.398 4.148 9.398 6.093 9.527 7.324 9.658L7.259 8.75C6.158 8.557 4.602 8.297 4.278 7.195 3.824 6.027 3.694 3.436 3.629-3.047 6.935 .064 7.712 .777 10.63 3.953 12.705 6.223 12.963 6.807 12.963 7.389 12.963 8.232 12.056 8.426 10.565 8.621L10.63 9.527C12.898 9.463 14.519 9.398 15.685 9.398 17.371 9.398 18.019 9.463 20.222 9.527L20.158 8.557C18.213 8.297 17.306 7.973 15.621 6.611 13.676 4.99 11.148 2.203 6.675-2.27L17.112-11.602C20.417-14.584 21.583-15.361 23.14-15.881V-16.658C21.39-16.398 17.63-16.27 17.5-16.27 16.788-16.27 14.843-16.334 12.509-16.594L12.445-15.75C13.546-15.621 14.713-15.426 14.713-14.844 14.713-14.389 12.185-12.057 11.343-11.279 8.88-9.01 5.704-6.158 3.694-4.602 3.759-14.779 3.759-15.168 7.519-15.75L7.583-16.594C7.195-16.594 6.028-16.529 4.925-16.463 3.759-16.463 2.657-16.398 2.269-16.398H-3.63V-15.557C-.195-15.361 0-15.104 0-7.52Z" fill="#231f20"/>
<path transform="matrix(1,0,0,-1,485.7236,479.4273)" d="M0 0C-.324 4.148-.454 6.092-11.603 6.092-13.741 6.092-17.047 6.092-18.797 5.639-19.057 2.203-19.057-4.473-19.057-5.963V-10.955C-16.01-11.213-14.973-11.279-11.861-11.279-2.917-11.279-2.917-10.5-2.917-7.26L-1.686-7.131C-1.62-8.168-1.556-8.814-1.556-10.955-1.556-11.473-1.556-14.26-1.686-17.566H-2.981C-2.981-16.723-2.981-14.391-3.5-14.066-4.473-13.418-8.491-12.705-13.353-12.705-15.232-12.705-17.112-12.705-18.991-12.898-19.057-15.881-19.121-19.51-19.121-23.594-19.121-30.465-19.121-30.982-12.315-31.826V-33.057C-12.964-32.992-13.677-32.992-14.778-32.928-15.815-32.863-17.177-32.863-19.186-32.863H-22.297C-22.881-32.863-25.668-32.928-28.131-33.121L-28.066-32.084C-25.084-31.566-24.565-30.725-24.307-29.297-23.594-25.539-23.594-19.381-23.594-11.992-23.594-8.881-23.594 2.527-24.437 4.797-25.02 6.416-26.575 6.547-28.844 6.805V7.842H-24.761C-23.205 7.842-20.418 7.584-18.991 7.584-16.464 7.584-13.806 7.52-12.898 7.52-7.519 7.52-1.686 7.713 1.491 7.973 1.231 5.314 1.231 2.916 1.296 0Z" fill="#231f20"/>
<path transform="matrix(1,0,0,-1,502.2891,511.38243)" d="M0 0C4.861 0 7.908 4.797 7.908 9.398 7.908 16.723 3.694 23.594-2.593 23.594-7.583 23.594-10.63 19.186-10.63 14.064-10.63 7.324-6.741 0 0 0M-1.361 25.279C6.936 25.279 12.057 18.668 12.057 11.926 12.057 4.473 5.574-1.686-1.75-1.686-9.334-1.686-14.778 4.473-14.778 11.926-14.778 19.057-8.491 25.279-1.361 25.279" fill="#231f20"/>
<path transform="matrix(1,0,0,-1,524.3271,498.67933)" d="M0 0C.777-.129 2.009-.129 2.787-.129 3.759-.129 9.204-.129 9.204 5.057 9.204 7.455 7.453 10.955 2.852 10.955 .129 10.955 .129 10.631 .064 6.223ZM-7.52 12.188C-6.677 12.121-5.898 12.057-5.057 12.057-4.278 11.992-3.436 11.992-2.658 11.992-2.074 11.992-.584 12.121 .907 12.252 2.397 12.381 3.5 12.381 4.407 12.381 9.917 12.381 13.417 9.4 13.417 5.381 13.417 1.752 10.111-.453 7.519-1.102 12.898-8.879 13.87-10.045 15.944-11.99 16.204-12.25 17.824-13.74 19.834-13.869L19.769-14.842C15.297-14.842 13.093-13.092 11.926-12.186 7.972-9.074 4.083-2.916 3.37-1.619 2.269-1.619 1.814-1.619-.065-1.49V-5.25C-.065-6.934-.13-10.693 .389-11.73 .713-12.314 2.657-12.898 3.953-13.287L4.019-14.26C2.463-14 0-13.805-1.686-13.805-2.593-13.805-6.611-14.064-7.454-14.129L-7.648-13.352C-7.26-13.287-4.927-12.768-4.343-11.666-3.89-10.693-3.954-5.25-3.954-3.5V2.723C-3.954 10.76-4.343 10.891-7.584 11.084Z" fill="#231f20"/>
<path transform="matrix(1,0,0,-1,561.9844,486.49183)" d="M0 0 .843-.131C.714-.648 .454-2.01 .454-3.307 .454-3.824 .778-6.094 .778-6.547H-.129C-.389-5.381-.647-4.148-1.75-3.111-2.139-2.658-4.019-1.037-6.806-1.037-10.046-1.037-11.861-3.047-11.861-5.574-11.861-8.428-9.204-9.594-6.222-10.76-2.852-12.121 2.01-14.066 2.01-19.121 2.01-22.881-1.49-26.512-7.519-26.512-9.463-26.512-11.019-26.123-11.731-25.928-11.991-25.863-13.157-25.539-13.547-25.539-13.936-25.539-14.194-25.992-14.324-26.316L-15.231-26.252C-15.167-22.881-15.491-21.52-16.334-18.668H-15.231C-15.037-19.576-14.583-21.326-13.157-22.557-11.991-23.529-9.204-24.826-6.287-24.826-2.852-24.826-1.49-22.428-1.49-20.549-1.49-17.049-3.759-16.141-8.62-14.131-11.407-12.965-15.102-11.473-15.102-7.066-15.102-2.918-11.602 .258-6.093 .258-4.407 .258-3.24 .064-.842-.584Z" fill="#231f20"/>
<path transform="matrix(1,0,0,-1,571.9014,496.0855)" d="M0 0C0 8.166-.129 8.166-3.24 8.557L-3.176 9.594C-2.009 9.463 .065 9.398 1.815 9.398 4.148 9.398 6.093 9.527 7.324 9.658L7.26 8.75C6.158 8.557 4.603 8.297 4.278 7.195 3.824 6.027 3.695 3.436 3.63-3.047 6.936 .064 7.714 .777 10.63 3.953 12.704 6.223 12.964 6.807 12.964 7.389 12.964 8.232 12.057 8.426 10.565 8.621L10.63 9.527C12.899 9.463 14.52 9.398 15.687 9.398 17.371 9.398 18.02 9.463 20.224 9.527L20.158 8.557C18.214 8.297 17.307 7.973 15.621 6.611 13.677 4.99 11.148 2.203 6.677-2.27L17.112-11.602C20.418-14.584 21.585-15.361 23.14-15.881V-16.658C21.39-16.398 17.631-16.27 17.501-16.27 16.788-16.27 14.844-16.334 12.51-16.594L12.445-15.75C13.547-15.621 14.714-15.426 14.714-14.844 14.714-14.389 12.186-12.057 11.344-11.279 8.88-9.01 5.704-6.158 3.695-4.602 3.76-14.779 3.76-15.168 7.52-15.75L7.584-16.594C7.195-16.594 6.028-16.529 4.927-16.463 3.76-16.463 2.658-16.398 2.269-16.398H-3.63V-15.557C-.194-15.361 0-15.104 0-7.52Z" fill="#231f20"/>
<path transform="matrix(1,0,0,-1,617.7002,502.43714)" d="M0 0C.583-.52 2.917-2.854 3.436-3.371 3.436-2.27 3.564 1.295 3.564 2.463 3.564 14.584 3.176 14.842-1.167 15.102L-.973 16.074C-.584 16.139 .064 16.139 .648 16.139 1.361 16.139 2.203 16.01 3.37 15.879 4.602 15.75 6.027 15.75 8.815 15.75V14.777C7.583 14.777 5.704 14.648 5.444 12.574 5.25 11.473 4.991 3.045 4.991-.389 4.991-2.787 4.991-8.428 5.12-10.566L3.889-10.502C2.722-8.168 .648-5.77-5.964 .389L-9.593 3.758C-9.658 3.889-14.195 8.23-15.621 9.787L-15.686 7.713-15.815-3.242C-15.881-7.584-15.881-8.297-10.76-9.205V-10.307C-11.148-10.242-11.732-10.178-12.575-10.178-13.482-10.111-14.52-10.047-15.491-10.047-16.464-10.047-17.437-10.111-18.408-10.178-19.381-10.242-20.353-10.307-21.325-10.307V-9.334C-20.937-9.27-20.353-9.141-19.834-9.01-18.862-8.816-18.149-8.686-17.955-7-17.76-5.51-17.565-.324-17.565 1.426L-17.501 6.027C-17.371 13.547-18.149 14.129-21.908 14.842L-21.974 15.945C-21.325 15.945-20.742 15.879-20.094 15.814-19.445 15.75-18.797 15.75-18.149 15.75-16.853 15.75-16.399 15.75-15.362 15.814-11.991 11.537-5.574 5.314-3.306 3.176Z" fill="#231f20"/>
<path transform="matrix(1,0,0,-1,629.2646,486.49183)" d="M0 0 2.269-.066C3.241-.066 4.148-.195 6.353-.195 8.557-.195 9.658-.131 10.695-.066H13.547V-1.168C12.899-1.104 10.307-.908 9.528-2.205 8.945-3.242 8.88-5.898 8.88-16.334 8.88-17.891 8.88-22.945 9.14-23.854 9.528-25.15 10.695-25.15 13.288-25.15L13.353-26.187C12.381-26.187 8.167-25.992 7.325-25.992H3.565C2.917-25.992 .194-26.123-.324-26.123V-25.215C.519-25.15 3.63-24.891 4.278-23.725 5.056-22.363 4.991-16.465 4.991-14.326 4.991-12.445 4.927-4.084 4.408-2.787 4.084-1.945 3.436-1.232 0-1.104Z" fill="#231f20"/>
<path transform="matrix(1,0,0,-1,667.5996,502.43714)" d="M0 0C.583-.52 2.917-2.854 3.436-3.371 3.436-2.27 3.564 1.295 3.564 2.463 3.564 14.584 3.176 14.842-1.167 15.102L-.973 16.074C-.584 16.139 .064 16.139 .648 16.139 1.361 16.139 2.203 16.01 3.37 15.879 4.602 15.75 6.027 15.75 8.815 15.75V14.777C7.583 14.777 5.704 14.648 5.444 12.574 5.25 11.473 4.991 3.045 4.991-.389 4.991-2.787 4.991-8.428 5.12-10.566L3.889-10.502C2.722-8.168 .648-5.77-5.964 .389L-9.593 3.758C-9.658 3.889-14.195 8.23-15.621 9.787L-15.686 7.713-15.815-3.242C-15.881-7.584-15.881-8.297-10.76-9.205V-10.307C-11.148-10.242-11.732-10.178-12.575-10.178-13.482-10.111-14.52-10.047-15.491-10.047-16.464-10.047-17.437-10.111-18.408-10.178-19.381-10.242-20.353-10.307-21.325-10.307V-9.334C-20.937-9.27-20.353-9.141-19.834-9.01-18.862-8.816-18.149-8.686-17.955-7-17.76-5.51-17.565-.324-17.565 1.426L-17.501 6.027C-17.371 13.547-18.149 14.129-21.908 14.842L-21.974 15.945C-21.325 15.945-20.742 15.879-20.094 15.814-19.445 15.75-18.797 15.75-18.149 15.75-16.853 15.75-16.399 15.75-15.362 15.814-11.991 11.537-5.574 5.314-3.306 3.176Z" fill="#231f20"/>
<path transform="matrix(1,0,0,-1,706.0361,500.3629)" d="M0 0C-2.01-.389-2.269-.908-2.269-3.436V-5.705C-2.269-7.455-2.334-9.594-1.231-10.307V-11.02C-5.315-11.863-9.14-12.576-12.64-12.576-21.195-12.576-27.224-7.195-27.224 .518-27.224 7.906-20.677 14.129-12.251 14.129-9.787 14.129-7.519 13.547-6.806 13.352-6.417 13.223-5.963 13.092-5.769 13.092-5.704 13.092-5.186 13.092-4.667 14L-3.89 13.936-3.306 7.518-4.148 7.26C-4.537 7.973-4.991 8.686-5.704 9.463-6.871 10.76-9.074 12.768-12.704 12.768-17.177 12.768-22.945 9.01-22.945 1.619-22.945-6.418-17.241-11.02-11.667-11.02-9.917-11.02-7.584-10.502-6.677-9.529-6.158-9.01-6.093-8.297-6.093-6.807L-6.028-4.861C-5.963-1.037-6.611-.455-9.658-.455L-11.084-.52-11.02 .518-8.556 .646C-4.148 .646-1.75 .777 0 .906Z" fill="#231f20"/>
<path transform="matrix(1,0,0,-1,0,595.275)" d="M611.922 423.862H596.865V436.409H611.922Z" fill="#ffffff"/>
<path transform="matrix(1,0,0,-1,419.1177,62.02704)" d="M0 0 28.674-.036 29.79-16.871 55.078-21.771 62.406-6.627 88.958-17.393 83.705-33.381 105.275-47.441 117.722-36.166 138.307-56.066 127.327-68.763 142.207-90.006 158.002-84.196 165.326-99.164 169.105-108.835 172.27-118.722C172.27-118.722 141.048-177.337 114.956-170.89 43.191-153.16-23.617-155.785-94.877-163.875L-144.12-118.481-140.962-108.658-137.197-99.046-129.781-83.966-113.562-90.01-98.99-69.106-109.973-55.79-89.278-35.895-76.627-47.42-55.042-33.364-60.4-17.167-33.779-6.468-26.405-21.766-1.113-16.866Z" fill="#80a2b7"/>
<path transform="matrix(1,0,0,-1,631.1016,169.57334)" stroke-width="3" stroke-linecap="round" stroke-miterlimit="4" stroke-linejoin="miter" fill="none" stroke="#a59a00" d="M0 0C15.883 8.849 11.5-3.5 24.5 5.5"/>
<path transform="matrix(1,0,0,-1,605.499,168.31162)" d="M0 0C-2.126-.417-5.366 .365-5.715 2.149-5.9 3.091-3.394 6.044-1.267 6.462 .861 6.878 4.158 5.33 4.274 4.197 4.372 3.241 2.128 .417 0 0M-21.397 13.238C-50.652 12.155-62.726-27.255-60.066-40.811-51.546-84.248-85.189-156.155-173.304-153.313-227.796-151.555-257.762-94.664-271.583-57.411L-314-16.02C-343.398-116.762-258.463-203.549-172.073-203.549-97.151-203.549-19.879-152.319-18.135-43.557-17.897-28.762-8.345-25.239-1.667-23.43 21.103-17.262 30.603-14.966 30.603-1.262 30.603 15.738 5.603 14.238-21.397 13.238" fill="#566c10"/>
<path transform="matrix(1,0,0,-1,546.4443,224.81702)" d="M0 0C0-62.495-50.663-113.159-113.159-113.159-175.654-113.159-226.317-62.495-226.317 0-226.317 62.495-175.654 113.158-113.159 113.158-50.663 113.158 0 62.495 0 0" fill="#ffffff"/>
<path transform="matrix(1,0,0,-1,527.7607,190.72422)" d="M0 0H-.049C-2.95-.021-4.774 3.566-4.776 11.067-4.829 18.417-3.054 22.079-.203 22.099 2.847 22.12 4.423 18.331 4.474 11.131 4.524 3.732 2.951 .021 0 0M.434-61.998H.383C-2.517-62.019-4.341-58.431-4.345-50.931-4.396-43.582-2.622-39.918 .229-39.898 3.279-39.877 4.855-43.667 4.906-50.867 4.958-58.267 3.384-61.977 .434-61.998M-9.212-69.767-8.95-70.923C-10.062-68.953-11.573-67.386-13.536-66.41L-13.751-35.637C-9.122-33.203-6.858-27.387-6.911-19.848-6.927-17.491-7.194-15.223-7.726-13.153L-2.177-10.465-2.077-10.464-1.909-34.369C-8.784-35.616-12.003-42.507-11.944-51.083-11.849-58.702-9.251-65.154-3.595-67.121ZM-18.981-31.133H-19.032C-21.933-31.153-23.757-27.567-23.761-20.066-23.812-12.716-22.036-9.054-19.187-9.034-16.136-9.013-14.56-12.802-14.511-20.002-14.458-27.401-16.032-31.112-18.981-31.133M-18.55-93.13-18.601-93.131C-21.499-93.152-23.325-89.564-23.327-82.064-23.378-74.715-21.604-71.052-18.755-71.033-15.704-71.011-14.128-74.801-14.077-82-14.026-89.4-15.601-93.111-18.55-93.13M-28.196-100.9-27.935-102.056C-29.044-100.083-30.556-98.519-32.519-97.542L-32.733-66.771C-28.104-64.337-25.841-58.52-25.894-50.982-25.909-48.625-26.177-46.356-26.708-44.285L-21.159-41.599-21.06-41.598-20.894-65.502C-27.767-66.75-30.985-73.64-30.927-82.216-30.831-89.834-28.233-96.287-22.579-98.253ZM-38.397-.268H-38.448C-41.347-.289-43.173 3.298-43.175 10.799-43.226 18.149-41.452 21.811-38.603 21.831-35.552 21.852-33.976 18.063-33.925 10.863-33.874 3.464-35.448-.248-38.397-.268M-37.964-62.266H-38.015C-40.915-62.287-42.739-58.7-42.743-51.199-42.794-43.849-41.019-40.187-38.169-40.167-35.118-40.146-33.542-43.935-33.493-51.134-33.44-58.535-35.015-62.246-37.964-62.266M-37.532-124.264-37.583-124.266C-40.481-124.285-42.308-120.697-42.31-113.199-42.36-105.849-40.587-102.185-37.737-102.166-34.687-102.144-33.11-105.935-33.06-113.135-33.009-120.533-34.583-124.244-37.532-124.264M-46.917-133.189C-48.026-131.219-49.538-129.652-51.501-128.676L-51.716-97.904C-47.087-95.47-44.823-89.653-44.876-82.115-44.892-79.757-45.159-77.49-45.69-75.419L-40.142-72.733-40.042-72.732-39.876-96.636C-46.749-97.882-49.968-104.773-49.909-113.352-49.813-120.969-47.216-127.422-41.562-129.387L-47.179-132.033ZM-57.38-31.401H-57.431C-60.331-31.421-62.155-27.835-62.157-20.334-62.209-12.984-60.435-9.322-57.585-9.302-54.534-9.281-52.958-13.07-52.907-20.27-52.856-27.669-54.431-31.38-57.38-31.401M-56.947-93.399-56.997-93.4C-59.897-93.419-61.723-89.833-61.726-82.332-61.776-74.984-60.002-71.321-57.151-71.3-54.103-71.279-52.526-75.07-52.476-82.267-52.423-89.667-53.997-93.378-56.947-93.399M-66.594-101.167-66.331-102.324C-67.442-100.353-68.954-98.789-70.917-97.812L-71.132-67.039C-66.503-64.605-64.239-58.789-64.292-51.25-64.308-48.892-64.575-46.625-65.105-44.554L-59.558-41.867H-59.458L-59.291-65.771C-66.165-67.017-69.384-73.909-69.324-82.485-69.229-90.103-66.632-96.556-60.976-98.523ZM-71.564-5.04C-66.936-2.606-64.672 3.21-64.725 10.749-64.741 13.106-65.007 15.374-65.538 17.444L-59.99 20.132H-59.891L-59.724-3.772C-66.599-5.019-69.817-11.91-69.757-20.487-69.663-28.104-67.064-34.557-61.41-36.524L-67.026-39.169-66.765-40.326C-67.875-38.355-69.388-36.79-71.35-35.813ZM-56.468 52.707C-53.417 52.728-51.841 48.939-51.792 41.739-51.739 34.34-53.313 30.629-56.263 30.608H-56.313C-59.214 30.588-61.038 34.174-61.041 41.675-61.093 49.025-59.317 52.687-56.468 52.707M-41.993-67.389-47.61-70.035-47.349-71.191C-48.46-69.22-49.972-67.655-51.935-66.678L-52.149-35.905C-47.521-33.471-45.257-27.655-45.31-20.116-45.325-17.759-45.591-15.491-46.122-13.421L-40.575-10.733-40.476-10.732-40.308-34.637C-47.183-35.884-50.401-42.775-50.341-51.352-50.247-58.97-47.647-65.422-41.993-67.389M-44.192 41.893C-44.208 44.25-44.476 46.519-45.005 48.589L-39.458 51.275-39.358 51.276-39.192 27.541C-47.134 27.104-50.839 19.843-50.774 10.646-50.679 3.03-48.081-3.423-42.429-5.391L-48.044-8.036-47.78-9.193C-48.892-7.222-50.405-5.657-52.366-4.681L-52.577 25.463C-46.911 27.346-44.134 33.563-44.192 41.893M-33.167-4.772C-28.536-2.338-26.274 3.479-26.325 11.017-26.343 13.374-26.608 15.642-27.14 17.712L-21.593 20.4H-21.493L-21.325-3.504C-28.2-4.751-31.419-11.642-31.358-20.219-31.265-27.835-28.667-34.288-23.013-36.256L-28.628-38.901-28.366-40.056C-29.478-38.086-30.989-36.521-32.952-35.545ZM-76.796-.536H-76.847C-79.746-.557-81.571 3.03-81.573 10.531-81.625 17.881-79.851 21.543-77.001 21.563-73.95 21.584-72.374 17.795-72.323 10.595-72.272 3.196-73.847-.516-76.796-.536M-76.363-62.535H-76.413C-79.313-62.554-81.138-58.968-81.141-51.467-81.192-44.118-79.418-40.455-76.567-40.435-73.518-40.414-71.941-44.204-71.892-51.403-71.839-58.803-73.413-62.513-76.363-62.535M-75.931-124.533H-75.98C-78.88-124.553-80.705-120.967-80.708-113.467-80.759-106.117-78.985-102.455-76.135-102.433-73.085-102.412-71.509-106.203-71.458-113.402-71.406-120.801-72.98-124.512-75.931-124.533M-85.577-132.301-85.314-133.457C-86.425-131.486-87.938-129.922-89.899-128.945L-90.114-98.171C-85.485-95.738-83.222-89.921-83.274-82.383-83.291-80.026-83.558-77.757-84.089-75.688L-78.54-73.001-78.44-73-78.273-96.904C-85.147-98.15-88.367-105.042-88.308-113.619-88.212-121.236-85.614-127.689-79.959-129.656ZM-95.778-31.669H-95.829C-98.729-31.689-100.554-28.103-100.556-20.603-100.608-13.252-98.833-9.59-95.983-9.57-92.933-9.549-91.356-13.338-91.307-20.538-91.255-27.937-92.829-31.648-95.778-31.669M-95.347-93.667H-95.396C-98.296-93.687-100.121-90.101-100.124-82.6-100.175-75.251-98.4-71.589-95.55-71.569-92.501-71.547-90.924-75.337-90.874-82.536-90.822-89.936-92.396-93.646-95.347-93.667M-104.992-101.435-104.729-102.593C-105.841-100.621-107.353-99.056-109.315-98.08L-109.53-67.306C-104.901-64.873-102.638-59.056-102.69-51.518-102.706-49.161-102.974-46.892-103.504-44.822L-97.956-42.134H-97.856L-97.689-66.039C-104.563-67.286-107.783-74.177-107.723-82.753-107.628-90.371-105.03-96.824-99.374-98.791ZM-109.963-5.308C-105.334-2.875-103.07 2.942-103.123 10.481-103.14 12.838-103.405 15.106-103.937 17.176L-98.389 19.864H-98.289L-98.122-4.041C-104.997-5.287-108.215-12.178-108.156-20.755-108.061-28.372-105.463-34.825-99.809-36.792L-105.425-39.437-105.163-40.593C-106.273-38.624-107.786-37.058-109.749-36.082ZM-94.866 52.438C-91.816 52.46-90.239 48.671-90.189 41.471-90.138 34.072-91.712 30.361-94.661 30.34H-94.712C-97.612 30.32-99.437 33.906-99.439 41.407-99.491 48.757-97.716 52.418-94.866 52.438M-80.392-67.658-86.009-70.302-85.747-71.459C-86.858-69.488-88.37-67.923-90.333-66.947L-90.548-36.173C-85.919-33.739-83.655-27.923-83.708-20.385-83.724-18.027-83.99-15.759-84.521-13.689L-78.974-11.001-78.874-11-78.706-34.905C-85.58-36.152-88.8-43.042-88.739-51.621-88.646-59.238-86.047-65.691-80.392-67.658M-82.591 41.625C-82.606 43.982-82.873 46.25-83.404 48.32L-77.856 51.007-77.757 51.008-77.591 27.272C-85.532 26.836-89.237 19.575-89.173 10.378-89.078 2.762-86.48-3.691-80.826-5.659L-86.442-8.304-86.18-9.461C-87.29-7.49-88.804-5.925-90.766-4.949L-90.976 25.195C-85.31 27.078-82.532 33.294-82.591 41.625M-115.194-.804H-115.245C-118.145-.825-119.969 2.762-119.972 10.263-120.023 17.613-118.249 21.275-115.399 21.295-112.349 21.316-110.772 17.527-110.722 10.327-110.67 2.928-112.245-.784-115.194-.804M-114.762-62.802H-114.812C-117.712-62.823-119.537-59.236-119.539-51.736-119.59-44.386-117.816-40.722-114.966-40.703-111.916-40.681-110.34-44.472-110.29-51.671-110.238-59.072-111.812-62.782-114.762-62.802M-114.329-124.801H-114.379C-117.279-124.82-119.104-121.234-119.106-113.734-119.158-106.384-117.383-102.722-114.533-102.703-111.483-102.681-109.907-106.47-109.856-113.67-109.805-121.07-111.379-124.779-114.329-124.801M-123.975-132.57-123.713-133.727C-124.824-131.756-126.336-130.189-128.298-129.213L-128.513-98.439C-123.884-96.005-121.621-90.189-121.673-82.652-121.689-80.294-121.956-78.026-122.487-75.957L-116.938-73.269-116.839-73.268-116.672-97.171C-123.546-98.419-126.766-105.31-126.706-113.887-126.611-121.504-124.013-127.957-118.357-129.924ZM-134.177-31.937H-134.228C-137.127-31.958-138.952-28.371-138.955-20.871-139.006-13.52-137.232-9.858-134.382-9.838-131.332-9.817-129.755-13.606-129.705-20.806-129.653-28.206-131.228-31.917-134.177-31.937M-133.745-93.935H-133.795C-136.694-93.956-138.52-90.369-138.522-82.869-138.573-75.519-136.799-71.857-133.949-71.837-130.899-71.816-129.322-75.605-129.272-82.804-129.221-90.205-130.795-93.915-133.745-93.935M-143.391-101.705-143.128-102.859C-144.24-100.888-145.751-99.324-147.713-98.347L-147.928-67.575C-143.299-65.141-141.036-59.324-141.088-51.787-141.104-49.429-141.371-47.16-141.902-45.089L-136.354-42.403-136.255-42.402-136.088-66.306C-142.962-67.554-146.181-74.445-146.121-83.021-146.026-90.639-143.428-97.091-137.773-99.058ZM-148.361-5.576C-143.732-3.143-141.468 2.674-141.521 10.213-141.538 12.57-141.804 14.838-142.335 16.908L-136.787 19.596H-136.687L-136.521-4.309C-143.395-5.555-146.614-12.446-146.554-21.023-146.459-28.64-143.861-35.093-138.207-37.06L-143.823-39.706-143.562-40.861C-144.672-38.891-146.185-37.325-148.146-36.35ZM-133.265 52.17C-130.215 52.192-128.638 48.403-128.588 41.203-128.537 33.804-130.111 30.093-133.061 30.072H-133.111C-136.01 30.052-137.835 33.638-137.838 41.139-137.889 48.489-136.115 52.15-133.265 52.17M-118.791-67.925-124.408-70.571-124.146-71.728C-125.257-69.756-126.769-68.191-128.731-67.214L-128.946-36.441C-124.317-34.007-122.053-28.191-122.106-20.653-122.122-18.295-122.389-16.027-122.92-13.957L-117.372-11.27-117.272-11.269-117.105-35.173C-123.979-36.42-127.198-43.311-127.138-51.888-127.044-59.505-124.445-65.958-118.791-67.925M-120.989 41.357C-121.005 43.714-121.271 45.982-121.803 48.052L-116.254 50.739-116.155 50.74-115.989 27.004C-123.931 26.568-127.635 19.307-127.571 10.11-127.477 2.494-124.879-3.959-119.225-5.927L-124.841-8.572-124.578-9.729C-125.689-7.758-127.202-6.193-129.164-5.217L-129.375 24.927C-123.708 26.81-120.931 33.026-120.989 41.357M-153.592-1.072H-153.643C-156.542-1.093-158.368 2.494-158.37 9.995-158.421 17.345-156.647 21.007-153.797 21.027-150.747 21.048-149.17 17.259-149.12 10.059-149.068 2.66-150.643-1.052-153.592-1.072M-153.16-63.07H-153.21C-156.11-63.091-157.935-59.503-157.937-52.003-157.988-44.654-156.214-40.991-153.364-40.97-150.314-40.95-148.738-44.74-148.687-51.939-148.636-59.339-150.21-63.05-153.16-63.07M-152.727-125.068H-152.777C-155.677-125.09-157.502-121.502-157.504-114.002-157.556-106.652-155.781-102.99-152.931-102.97-149.881-102.949-148.305-106.738-148.254-113.938-148.203-121.338-149.777-125.049-152.727-125.068M-162.806-70.839-162.544-71.996C-163.655-70.025-165.167-68.458-167.129-67.482L-167.344-36.709C-162.715-34.275-160.451-28.459-160.504-20.921-160.521-18.563-160.787-16.295-161.318-14.226L-155.77-11.538-155.67-11.537-155.503-35.441C-162.377-36.688-165.596-43.58-165.537-52.156-165.442-59.774-162.843-66.227-157.188-68.193ZM-167.772 24.659C-162.107 26.542-159.329 32.758-159.387 41.089-159.403 43.446-159.67 45.714-160.201 47.785L-154.653 50.471-154.553 50.472-154.388 26.736C-162.33 26.3-166.033 19.039-165.969 9.842-165.875 2.226-163.277-4.228-157.623-6.195L-163.239-8.84-162.976-9.998C-164.087-8.026-165.6-6.461-167.562-5.485ZM-172.575-32.205-172.625-32.206C-175.525-32.226-177.35-28.639-177.353-21.139-177.404-13.788-175.63-10.126-172.78-10.106-169.729-10.085-168.153-13.874-168.103-21.074-168.051-28.474-169.625-32.185-172.575-32.205M-172.143-94.203-172.193-94.204C-175.093-94.224-176.917-90.636-176.92-83.136-176.971-75.788-175.197-72.125-172.347-72.105-169.297-72.083-167.721-75.874-167.67-83.072-167.619-90.472-169.193-94.183-172.143-94.203M-181.789-101.972-181.527-103.128C-182.638-101.158-184.149-99.591-186.112-98.615L-186.327-67.843C-181.698-65.41-179.434-59.592-179.487-52.054-179.503-49.697-179.77-47.428-180.3-45.359L-174.752-42.671-174.653-42.67-174.486-66.575C-181.359-67.822-184.579-74.712-184.519-83.289-184.424-90.908-181.826-97.361-176.171-99.326ZM-186.76-5.844C-182.13-3.411-179.867 2.406-179.919 9.945-179.936 12.302-180.202 14.57-180.733 16.64L-175.185 19.328H-175.085L-174.918-4.577C-181.792-5.823-185.012-12.714-184.952-21.292-184.857-28.908-182.26-35.36-176.605-37.328L-182.222-39.974-181.959-41.129C-183.07-39.16-184.583-37.594-186.545-36.618ZM-191.558-63.338H-191.608C-194.508-63.359-196.333-59.772-196.335-52.271-196.387-44.921-194.613-41.259-191.763-41.239-188.712-41.218-187.136-45.007-187.086-52.207-187.034-59.607-188.608-63.318-191.558-63.338M18.682-33.303C18.676-32.458 18.655-31.617 18.631-30.776 16.163-30.216 14.642-26.641 14.639-19.798 14.608-15.518 15.202-12.498 16.262-10.71 15.785-8.441 15.235-6.199 14.625-3.982 9.434-6.268 6.987-12.466 7.04-19.951 7.135-27.567 9.732-34.02 15.387-35.988L9.77-38.633 10.032-39.789C8.922-37.819 7.409-36.253 5.447-35.277L5.232-4.504C8.581-2.744 10.685 .793 11.576 5.465 8.398 13.981 4.222 22.008-.806 29.409L-.794 27.809C-8.735 27.372-12.44 20.111-12.376 10.914-12.282 3.298-9.685-3.155-4.03-5.123L-9.646-7.768-9.384-8.925C-10.495-6.954-12.007-5.389-13.97-4.413L-14.179 25.731C-9.831 27.176-7.19 31.182-6.22 36.73-8.521 39.592-10.956 42.339-13.519 44.963-13.446 44.049-13.401 43.07-13.394 42.007-13.341 34.608-14.915 30.897-17.866 30.876H-17.915C-20.815 30.856-22.64 34.442-22.644 41.943-22.677 46.745-21.927 49.962-20.612 51.628-22.253 53.043-23.935 54.413-25.657 55.733-28.79 52.708-30.282 47.646-30.241 41.79-30.151 34.555-27.8 28.374-22.718 26.085L-29.062 23.098-28.8 21.941C-29.618 23.394-30.644 24.639-31.919 25.578L-31.829 25.579-32.056 58.078-32.265 58.076C-31.729 58.477-31.239 58.937-30.782 59.44-32.599 60.68-34.45 61.873-36.339 63.007-37.011 62.169-37.841 61.737-38.831 61.73H-38.88C-40.839 61.717-42.304 63.355-43.052 66.725-45.677 68.068-48.36 69.315-51.099 70.453-50.538 63.422-47.655 57.736-41.94 56.322L-46.927 53.974-46.665 52.817C-48.054 55.279-50.067 57.107-52.804 57.941L-52.897 71.174C-55.313 72.13-57.771 73.003-60.265 73.793L-60.153 57.844C-65.964 55.9-68.695 49.429-68.64 41.522-68.55 34.287-66.197 28.106-61.116 25.817L-67.46 22.83-67.196 21.672C-68.017 23.125-69.042 24.37-70.316 25.31L-70.227 25.311-70.454 57.81-70.663 57.808C-66.937 60.597-65.11 65.975-65.157 72.747-65.163 73.599-65.214 74.433-65.286 75.256-67.837 75.936-70.422 76.531-73.04 77.033-72.865 75.736-72.769 74.261-72.757 72.594-72.705 65.194-74.279 61.483-77.229 61.462H-77.279C-80.179 61.442-82.004 65.029-82.007 72.529-82.022 74.82-81.86 76.753-81.544 78.329-83.977 78.606-86.431 78.806-88.907 78.926-89.386 76.919-89.622 74.714-89.605 72.376-89.506 64.356-86.638 57.612-80.339 56.054L-85.325 53.706-85.063 52.547C-86.45 55.01-88.466 56.839-91.202 57.673L-91.352 79.015C-92.651 79.051-93.954 79.072-95.265 79.063-96.415 79.055-97.56 79.024-98.702 78.982L-98.552 57.576C-104.362 55.632-107.094 49.161-107.039 41.254-106.949 34.019-104.596 27.838-99.515 25.549L-105.858 22.562-105.595 21.404C-106.415 22.857-107.44 24.102-108.715 25.042H-108.625L-108.852 57.542-109.062 57.54C-105.335 60.329-103.509 65.707-103.556 72.479-103.571 74.639-103.807 76.718-104.253 78.645-106.726 78.433-109.173 78.137-111.597 77.77-111.32 76.253-111.17 74.441-111.155 72.326-111.104 64.926-112.678 61.215-115.627 61.194H-115.678C-118.578 61.174-120.402 64.761-120.405 72.261-120.415 73.685-120.354 74.967-120.233 76.114-122.843 75.506-125.417 74.807-127.955 74.022-127.988 73.394-128.009 72.757-128.004 72.108-127.904 64.088-125.037 57.344-118.737 55.786L-123.724 53.438-123.461 52.279C-124.849 54.742-126.865 56.571-129.601 57.405L-129.713 73.463C-132.196 72.65-134.642 71.757-137.045 70.781L-136.951 57.308C-142.76 55.364-145.492 48.893-145.437 40.986-145.347 33.75-142.994 27.57-137.913 25.281L-144.256 22.293-143.994 21.137C-144.813 22.589-145.839 23.834-147.113 24.773L-147.024 24.774-147.25 57.273-147.46 57.272C-144.429 59.54-142.655 63.52-142.124 68.57-144.975 67.245-147.759 65.801-150.474 64.251-151.225 62.052-152.419 60.938-154.025 60.926H-154.076C-154.568 60.922-155.027 61.032-155.454 61.238-157.347 60.025-159.202 58.759-161.015 57.438-159.904 56.548-158.618 55.885-157.136 55.518L-162.122 53.169-161.86 52.013C-162.508 53.163-163.3 54.167-164.232 55.004-165.945 53.661-167.623 52.273-169.254 50.835-167.783 49.247-167.021 45.904-166.986 40.935-166.935 33.536-168.509 29.825-171.458 29.804H-171.509C-174.409 29.784-176.233 33.37-176.236 40.871-176.245 42.108-176.197 43.232-176.106 44.261-178.669 41.591-181.102 38.797-183.395 35.888-182.5 30.826-180.212 26.77-176.31 25.013L-182.654 22.025-182.392 20.868C-183.21 22.321-184.237 23.566-185.512 24.505L-185.422 24.506-185.482 33.163C-188.492 29.096-191.231 24.819-193.683 20.361-193.228 20.622-192.731 20.755-192.195 20.759-189.146 20.78-187.569 16.991-187.519 9.791-187.467 2.392-189.042-1.32-191.991-1.34H-192.041C-194.941-1.361-196.766 2.226-196.769 9.727-196.783 11.849-196.642 13.654-196.37 15.163-198.754 10.239-200.792 5.117-202.453-.171-201.088-3.175-198.976-5.435-196.021-6.463L-201.637-9.108-201.375-10.266C-202.15-8.89-203.136-7.727-204.319-6.808-205.287-10.716-206.046-14.706-206.595-18.761-206.54-19.566-206.508-20.426-206.501-21.342-206.477-24.91-206.833-27.611-207.536-29.464-207.608-31.26-207.643-33.066-207.63-34.883-207.581-41.912-206.887-48.785-205.613-55.452L-205.743-36.978C-201.113-34.544-198.85-28.728-198.902-21.189-198.919-18.832-199.185-16.563-199.716-14.494L-194.168-11.806-194.068-11.805-193.901-35.71C-200.776-36.957-203.995-43.847-203.935-52.424-203.84-60.042-201.242-66.496-195.587-68.461L-201.204-71.107-200.942-72.263C-200.999-72.164-201.068-72.078-201.127-71.98-200.503-73.736-199.838-75.47-199.131-77.183-199.183-76.954-199.226-76.718-199.283-76.493L-193.735-73.805-193.635-73.804-193.53-88.839C-189.588-95.957-184.903-102.603-179.578-108.674-179.666-108.23-179.758-107.787-179.868-107.357L-174.319-104.669H-174.22L-174.151-114.439C-171.787-116.785-169.317-119.021-166.754-121.15L-166.911-98.708C-162.282-96.275-160.019-90.458-160.071-82.919-160.087-80.562-160.354-78.294-160.885-76.224L-155.336-73.537H-155.237L-155.07-97.439C-161.944-98.687-165.164-105.578-165.104-114.156-165.058-117.857-164.415-121.277-163.123-124.049-158.204-127.809-152.969-131.176-147.464-134.1L-147.496-129.574C-142.866-127.139-140.603-121.322-140.655-113.785-140.672-111.428-140.938-109.16-141.469-107.087L-135.921-104.402H-135.822L-135.655-128.305C-139.774-129.053-142.571-131.836-144.147-135.785-141.987-136.844-139.791-137.838-137.557-138.758-136.835-135.492-135.417-133.85-133.516-133.836-130.909-133.816-129.382-136.594-128.962-141.893-126.432-142.701-123.864-143.424-121.26-144.057-121.314-141.914-121.568-139.85-122.054-137.955L-116.506-135.268H-116.406L-116.337-145.141C-113.912-145.615-111.457-146.008-108.979-146.324L-109.098-129.305C-104.468-126.871-102.204-121.055-102.257-113.518-102.274-111.16-102.54-108.891-103.071-106.822L-97.522-104.134-97.423-104.132-97.257-128.037C-104.131-129.285-107.35-136.176-107.29-144.752-107.282-145.355-107.253-145.949-107.214-146.537-104.702-146.818-102.169-147.023-99.61-147.137-99.663-146.348-99.69-145.504-99.69-144.6-99.742-137.25-97.968-133.588-95.118-133.566-92.067-133.547-90.491-137.336-90.44-144.535-90.435-145.477-90.454-146.357-90.501-147.18-87.946-147.092-85.415-146.914-82.905-146.66-82.862-145.918-82.837-145.162-82.842-144.383-82.858-142.025-83.124-139.756-83.655-137.687L-78.107-135-78.008-134.998-77.931-146.041C-75.457-145.68-73.008-145.242-70.589-144.723L-70.699-129.037C-66.069-126.604-63.806-120.787-63.858-113.25-63.876-110.893-64.142-108.623-64.673-106.552L-59.124-103.867-59.024-103.865-58.858-127.77C-65.693-129.01-68.911-135.83-68.89-144.34-66.308-143.742-63.761-143.057-61.251-142.287-60.979-136.311-59.29-133.316-56.72-133.299-54.497-133.283-53.06-135.301-52.423-139.18-44.438-135.98-36.907-131.896-29.944-127.053-26.903-124.092-25.417-119.104-25.46-112.98-25.478-110.623-25.743-108.355-26.274-106.285L-20.726-103.597H-20.626L-20.515-119.729C-17.979-117.537-15.544-115.236-13.212-112.83L-13.317-97.636C-8.688-95.202-6.425-89.384-6.478-81.847-6.495-79.49-6.761-77.222-7.292-75.152L-1.743-72.464H-1.644L-1.478-96.367C-7.774-97.509-10.997-103.396-11.448-110.969-4.677-103.658 1.139-95.454 5.806-86.553L5.666-66.502C10.294-64.069 12.558-58.251 12.505-50.714 12.488-48.357 12.223-46.087 11.691-44.018L17.24-41.331 17.34-41.33 17.408-51.109C18.283-45.305 18.724-39.359 18.682-33.303M7.473-81.949C7.478-82.356 7.494-82.758 7.514-83.159 10.078-77.839 12.239-72.291 13.956-66.549 9.521-69.189 7.424-75.017 7.473-81.949" fill="#e6e7e8"/>
<path transform="matrix(1,0,0,-1,304.6357,258.65534)" d="M0 0C-15.148 13.943-28.422 5.971-42.347 14.288-63.265 26.783-60.143 50.375-58.062 71.531-42.139 44.733-25.775 49.84-12.798 37.723-5.707 31.104-8.228 19.515 0 0" fill="#a59a00"/>
<path transform="matrix(1,0,0,-1,310.9604,260.9825)" d="M0 0C5.162 20.716 17.056 23.444 25.588 35.243 38.434 53.016 32.073 71.369 25 89.145 13.033 69.979 11.855 75.753-2.818 52.716-7.508 45.353-8.5 27.25 0 0" fill="#a59a00"/>
<path transform="matrix(1,0,0,-1,298.502,218.80524)" d="M0 0C2.681 23.465 24.739 25.672 11.302 42.885-3.691 62.09-35.483 67.297-56.734 66.732-32.706 47.403-46.625 24.598-30.125 18.044-16.315 12.558-12.146 11.265 0 0" fill="#a59a00"/>
<path transform="matrix(1,0,0,-1,319.7842,293.2549)" d="M0 0C-11.706 4.303-31.281 3.785-41.142 9.123-57.186 17.81-60.084 28.9-61.454 44.756-50.954 35.461-35.295 39.731-23.392 33.816-8.866 26.598-12.947 14.122 0 0" fill="#a59a00"/>
<path transform="matrix(1,0,0,-1,339.52,316.56993)" d="M0 0C-12.85 1.625-20.951-5.846-33.49-1.15-46.418 3.691-55.541 12.471-63.115 26.414-47.623 19.184-41.328 21.214-27.31 18.667-17.842 16.945-8.891 10.061 0 0" fill="#a59a00"/>
<path transform="matrix(1,0,0,-1,364.5405,338.35704)" d="M0 0C-11.878 .689-15.347-.5-25.821-2.582-37.5-4.902-52.033 4.418-60.421 15.666-44.892 10.645-35.729 17.596-25.993 16.699-12.911 15.494-7.058 4.992 0 0" fill="#a59a00"/>
<path transform="matrix(1,0,0,-1,389.501,350.40583)" d="M0 0C-11.706-2.41-10.014-5.799-20.528-7.666-33.784-10.02-43.548-7.633-56.462 3.443-41.313 2.066-39.248 6.713-27.542 7.059-18.417 7.326-5.585 2.76 0 0" fill="#a59a00"/>
<path transform="matrix(1,0,0,-1,413.4287,356.94685)" d="M0 0C-8.851-4.771-7.08-8.361-18.653-13.27-27.761-17.131-46.081-11.688-55.257-7.059-40.797-8.092-36.322-4.477-30.894-1.568-20.744 3.867-9.233 2.229 0 0" fill="#a59a00"/>
<path transform="matrix(1,0,0,-1,329.9404,297.3868)" d="M0 0C-9.794 11.438-16.181 21.862-13.943 32.535-11.213 45.555 5.195 54.212 13.427 70.406 14.397 57.075 17.259 46.795 11.723 28.727 9.079 20.101-.001 16.49 0 0" fill="#a59a00"/>
<path transform="matrix(1,0,0,-1,352.3188,321.8297)" d="M0 0C-5.204 3.135-17.206 14.26-17.042 22.894-16.727 39.472-3.016 41.324-2.705 65.456 6.093 46.763 7.188 41.888 7.23 32.534 7.277 21.918-1.081 16.574 0 0" fill="#a59a00"/>
<path transform="matrix(1,0,0,-1,378.8286,340.76524)" d="M0 0C-6.222 3.521-19.111 10.031-20.657 20.828-22.314 32.396-13.078 39.713-13.239 55.913-2.591 41.525-.255 35.713 0 24.787 .173 17.373-4.268 12.895 0 0" fill="#a59a00"/>
<path transform="matrix(1,0,0,-1,409.2974,351.2672)" d="M0 0C-10.273 2.121-24.536 7.908-25.821 15.148-27.837 26.508-21.69 32.191-26.04 45.072-17.469 36.133-13.161 35.371-8.751 24.117-5.325 15.371-8.263 7.746 0 0" fill="#a59a00"/>
<path transform="matrix(1,0,0,-1,432.8828,358.24763)" d="M0 0C-3.947-4.154-6.104-9.521-10.181-13.09-16.171-18.324-26.12-17.922-35.119-15.742-27.703-11.932-24.161-8.643-21.243-5.35-17.531-1.162-10.156 1.205 0 0" fill="#a59a00"/>
<path transform="matrix(1,0,0,-1,430.1816,353.88435)" d="M0 0C-7.703-.809-14.688 2.1-17.27 5.371-21.165 10.307-19.679 18.283-23.983 27.922-15.833 23.492-10.517 19.518-7.709 15.482-4.955 11.521-5.193 6.025 0 0" fill="#a59a00"/>
<path transform="matrix(1,0,0,-1,448.0508,358.66365)" d="M0 0C-3.1-3.959-1.115-10.713-4.779-13.92-10.164-18.625-17.883-19.41-25.973-17.451-22.324-15.578-18.437-14.24-14.752-7.687-11.013-1.037-9.438 1.254 0 0" fill="#a59a00"/>
<path transform="matrix(1,0,0,-1,448.6738,353.6754)" d="M0 0C-6.926-.729-13.09-1.664-16.622 5.4-19.027 10.211-18.076 12.674-24.31 20.361-14.545 18.283-9.796 15.262-7.272 11.635-4.797 8.074-5.818 5.193 0 0" fill="#a59a00"/>
<path transform="matrix(1,0,0,-1,506.6602,204.50202)" d="M0 0C-.883 11.299-1.236 16.599-31.604 16.599-37.433 16.599-46.439 16.599-51.205 15.362-51.911 6.004-51.911-12.184-51.911-16.246V-29.841C-43.615-30.548-40.787-30.725-32.313-30.725-7.944-30.725-7.944-28.603-7.944-19.774L-4.593-19.424C-4.414-22.248-4.237-24.014-4.237-29.841-4.237-31.25-4.237-38.844-4.593-47.85H-8.121C-8.121-45.554-8.121-39.198-9.534-38.315-12.182-36.549-23.132-34.606-36.373-34.606-41.493-34.606-46.614-34.606-51.734-35.138-51.911-43.258-52.088-53.148-52.088-64.27-52.088-82.986-52.088-84.401-33.549-86.694V-90.048C-37.256-89.871-41.319-89.521-52.265-89.521H-60.74C-62.329-89.521-69.922-89.698-76.631-90.227L-76.454-87.4C-68.333-85.989-66.922-83.691-66.213-79.809-64.271-69.566-64.271-52.794-64.271-32.665-64.271-24.188-64.271 6.886-66.568 13.065-68.156 17.479-72.394 17.835-78.574 18.539V21.365H-67.451C-63.213 21.365-55.621 20.659-51.734 20.659-44.85 20.659-37.609 20.482-35.137 20.482-20.481 20.482-4.593 21.012 4.061 21.719 3.354 14.479 3.354 7.945 3.53 0Z" fill="#a7a9ac"/>
<path transform="matrix(1,0,0,-1,427.6562,185.61142)" d="M0 0C-1.413 19.247-20.481 22.425-29.486 22.425-52.086 22.425-52.97 4.239-52.97 .883-52.97-14.125-40.609-18.716-26.485-24.189-12.712-29.486 6.711-36.901 6.711-58.266 6.711-74.155-5.826-87.575-31.605-87.575-33.725-87.575-43.789-87.575-56.855-84.045-58.443-83.691-59.15-83.513-59.678-83.513-61.977-83.513-61.623-85.456-61.446-86.516L-64.977-86.339C-64.799-76.63-67.447-65.15-69.744-57.562-68.508-57.204-68.154-57.031-66.92-56.853-63.564-67.443-62.328-71.508-55.617-75.217-50.676-77.866-39.727-82.809-26.838-82.809-23.308-82.809-4.768-82.809-4.768-63.208-4.768-46.082-17.305-41.316-32.664-35.49-50.322-28.958-63.74-21.718-63.74-4.414-63.74 11.831-51.735 25.956-26.838 25.956-23.661 25.956-17.834 25.956-9.004 24.015-5.474 23.306-5.12 23.306-4.59 23.306-2.296 23.306-.527 24.368 1.236 25.426 1.767 25.426 2.473 25.251 3.003 25.074 2.473 21.365 1.588 15.892 1.767 11.478 1.941 8.477 2.648 1.943 2.648 .177Z" fill="#a7a9ac"/>
<path transform="matrix(1,0,0,-1,467.4053,173.94544)" d="M0 0C-1.413 19.245-20.481 22.424-29.489 22.424-52.089 22.424-52.974 4.236-52.974 .883-52.974-14.125-40.61-18.716-26.485-24.189-12.714-29.486 6.708-36.903 6.708-58.267 6.708-74.16-5.827-87.576-31.606-87.576-33.726-87.576-43.79-87.576-56.857-84.047-58.447-83.692-59.153-83.518-59.684-83.518-61.976-83.518-61.622-85.455-61.446-86.519L-64.979-86.34C-64.804-76.633-67.452-65.153-69.746-57.56-68.511-57.207-68.158-57.032-66.92-56.854-63.567-67.449-62.331-71.508-55.621-75.218-50.677-77.869-39.729-82.807-26.839-82.807-23.311-82.807-4.768-82.807-4.768-63.21-4.768-46.085-17.304-41.317-32.667-35.492-50.323-28.957-63.742-21.719-63.742-4.414-63.742 11.83-51.735 25.957-26.839 25.957-23.661 25.957-17.835 25.957-9.007 24.014-5.474 23.308-5.12 23.308-4.593 23.308-2.296 23.308-.53 24.365 1.234 25.425 1.765 25.425 2.471 25.25 3.001 25.074 2.471 21.366 1.588 15.891 1.765 11.477 1.941 8.477 2.647 1.942 2.647 .176Z" fill="#808285"/>
</g>
<g id="layer_1" data-name="">
</g>
</g>
</svg>
