<?xml version="1.0" encoding="UTF-8"?><svg id="Layer_1" xmlns="http://www.w3.org/2000/svg" viewBox="0 0 479.8 86.1"><defs><style>.cls-1{fill:#fff;}.cls-2{fill:#de2c6c;}.cls-3{fill:#1d1d1b;}.cls-4{fill:#3b9dd8;}</style></defs><path class="cls-4" d="m25.4.6v3.3h1.9c1-.2,1.6,1,1.5,1.7-.5,1.5-.8,3-1.1,4.5-.1.6.1.8.3.8l2.1.4c.1,0,.3-.1.5-.6.3-1.5.6-3.1.7-4.6.2-.8,1-1.3,1.8-1.1.1,0,.2.1.3.1l1.7.8c.5.3,1.1.5,1.7.6.9.4,1.2,1.4.8,2.3h0c-1,1.1-1.9,2.4-2.7,3.7-.3.5-.2.7-.1.8l1.8,1.2c.1,0,.3,0,.7-.4.9-1.3,1.7-2.6,2.4-4,.4-.5,1.7-.9,2.3-.1.4.5.8,1,1.3,1.4.4.5.9.9,1.4,1.2.8.6.4,2-.2,2.4s-2.3,1-3.9,2.4-.5.6-.4.7l1.2,1.7c0,.1.3.2.8-.1,1.3-.8,2.5-1.7,3.7-2.7.6-.4,2-.3,2.2.7s.6,1.8.6,1.8c.2.6.5,1.2.9,1.7.5.9-.4,1.9-1.1,2.1-1.5.1-3,.4-4.5.7-.6.1-.7.4-.7.5.2.7.3,1.4.4,2.1.2.2.5.3.8.3,1.5-.3,3-.7,4.5-1.2.7-.1,1.9.6,1.8,1.6-.1.6-.2,1.3-.1,1.9-.1.6,0,1.2.1,1.8,0,.9-.7,1.6-1.6,1.6h-.2c-1.5-.5-3-.8-4.5-1.1-.3-.1-.6,0-.8.2-.1.7-.2,1.4-.4,2.1,0,.2.1.4.7.6,1.5.4,3,.6,4.5.6.7.2,1.6,1.3,1.1,2.2-.4.5-.7,1-.9,1.6,0,0-.3.8-.6,1.8-.3.8-1.1,1.2-1.9.9-.1,0-.2-.1-.3-.1-1.2-1-2.4-1.9-3.7-2.8-.5-.2-.8-.1-.8,0l-1.2,1.7c-.1.1-.1.4.4.8,1.3.9,2.6,1.7,3.9,2.4.7.5.9,1.4.4,2.1l-.2.2c-.5.3-1,.7-1.4,1.2-.5.4-.9.9-1.3,1.5-.6.6-1.5.6-2.1,0l-.2-.2c-.7-1.3-1.5-2.6-2.4-3.9-.4-.5-.6-.5-.7-.4l-1.8,1.1c-.1.1-.2.4.1.9.8,1.3,1.7,2.5,2.7,3.7.4.7.2,1.6-.5,2.1-.1.1-.2.1-.3.1l-1.7.6c-.6.2-1.2.5-1.7.9-.8.3-1.7-.1-2.1-1v-.1c-.1-1.5-.4-3-.7-4.5-.2-.6-.4-.7-.5-.7l-2.1.4c-.2.1-.4.2-.3.8.3,1.5.6,3,1.1,4.5.1.7-.5,1.9-1.5,1.8-.6-.1-1.3-.2-1.9-.2v3.6h26.9L62.9.6H25.4Z"/><path class="cls-1" d="m27.3,54.6c1,.1,1.6-1.1,1.5-1.8-.5-1.5-.8-3-1.1-4.5-.1-.6.1-.7.3-.8l2.1-.4c.1,0,.3.1.5.7.3,1.5.6,3,.7,4.5.2.9,1.1,1.4,2,1.1h.1c.5-.4,1.1-.7,1.7-.9l1.7-.6c.8-.3,1.2-1.1.9-1.9,0-.1-.1-.2-.1-.3-1-1.2-1.9-2.4-2.7-3.7-.3-.5-.2-.8-.1-.9l1.8-1.1c.1-.1.3-.1.7.4.9,1.3,1.7,2.6,2.4,3.9.5.7,1.4.9,2.1.4l.2-.2c.4-.6.8-1.1,1.3-1.5.4-.5.9-.9,1.4-1.2.6-.6.6-1.5,0-2.1l-.2-.2c-1.3-.7-2.6-1.5-3.9-2.4-.5-.4-.5-.7-.4-.8l1.2-1.7c0-.1.3-.2.8,0,1.3.9,2.5,1.8,3.7,2.8.7.4,1.6.2,2.1-.5.1-.1.1-.2.1-.3.3-1,.6-1.8.6-1.8.2-.6.5-1.1.9-1.6.5-.9-.4-2-1.1-2.2-1.5,0-3-.2-4.5-.6-.6-.2-.7-.4-.7-.6.2-.7.3-1.4.4-2.1.2-.2.5-.3.8-.2,1.5.3,3,.6,4.5,1.1.9.1,1.7-.5,1.8-1.4v-.2c-.1-.6-.2-1.2-.1-1.8-.1-.6,0-1.3.1-1.9.1-1-1.1-1.7-1.8-1.6-1.5.5-3,.9-4.5,1.2-.3,0-.6-.1-.8-.3-.1-.7-.2-1.4-.4-2.1,0-.1.1-.4.7-.5,1.5-.3,3-.6,4.5-.7.7-.2,1.6-1.2,1.1-2.1-.4-.5-.7-1.1-.9-1.7,0,0-.3-.8-.6-1.8s-1.6-1.1-2.2-.7c-1.2,1-2.4,1.9-3.7,2.7-.5.3-.8.2-.8.1l-1.2-1.8c-.1-.1-.1-.4.4-.7s3.3-1.9,3.9-2.4,1-1.8.2-2.4c-.5-.3-1-.7-1.4-1.2-.5-.4-.9-.9-1.3-1.4-.6-.8-1.9-.4-2.3.1-.7,1.4-1.5,2.7-2.4,4-.4.4-.6.4-.7.4l-1.8-1.2c-.1-.1-.2-.3.1-.8.8-1.3,1.7-2.6,2.7-3.7.4-.8.1-1.9-.8-2.3h0c-.6-.1-1.2-.3-1.7-.6l-1.7-.8c-.7-.4-1.6,0-2,.7,0,.1-.1.2-.1.3-.1,1.5-.4,3.1-.7,4.6-.2.5-.4.6-.5.6l-2.1-.4c-.2,0-.4-.2-.3-.8.3-1.5.6-3,1.1-4.5.1-.7-.5-1.9-1.5-1.7h-1.9v50.6c.6,0,1.3.1,1.9.2Z"/><path class="cls-2" d="m23.6,54.7c-1,.1-1.7-1.1-1.6-1.8.5-1.5.9-3,1.1-4.5.1-.6-.1-.7-.2-.8l-2.1-.4c-.1,0-.4.1-.5.7-.3,1.5-.6,3-.7,4.5-.2.7-1.3,1.6-2.1,1.1-.5-.4-1.1-.7-1.7-.9l-1.8-.6c-1-.2-1.1-1.6-.8-2.2,1-1.1,2-2.4,2.8-3.7.2-.2.2-.5.1-.8l-1.8-1.2c-.1-.1-.4-.1-.7.4-.9,1.2-1.7,2.5-2.4,3.9-.4.6-1.8,1-2.4.2-.4-.5-.8-1-1.2-1.5l-1.4-1.2c-.6-.6-.7-1.5-.1-2.1q.1-.1.2-.2c1.4-.7,2.7-1.5,4-2.4.4-.4.4-.6.4-.8-.5-.5-.9-1.1-1.2-1.7-.1-.1-.3-.2-.9,0-.6.2-3,2.4-3.7,2.8-.8.4-1.8.1-2.2-.7v-.1c-.1-.6-.3-1.2-.6-1.8-.2-.6-.5-1.1-.8-1.6-.6-.9.3-2,1-2.2,1.6,0,3.1-.2,4.6-.6.5-.2.6-.4.6-.6-.2-.7-.3-1.4-.4-2.1,0-.1-.2-.3-.8-.2-1.5.3-3,.6-4.5,1.1-.7.1-1.9-.5-1.7-1.5.2-1,.1-1.9.1-1.9,0,0,0-.9-.1-1.9s1-1.7,1.7-1.6c1.5.5,3,.9,4.5,1.2.6,0,.8-.2.8-.3.1-.7.2-1.4.4-2.1,0-.1-.1-.4-.6-.5-1.5-.3-3.1-.6-4.6-.7-.8-.2-1.3-1-1.1-1.8,0-.1.1-.2.1-.3.3-.5.6-1.1.8-1.7.3-.6.5-1.2.6-1.8.3-.8,1.2-1.1,2-.8.1,0,.2.1.2.1,1.2,1,2.4,1.9,3.7,2.7.6.3.8.2.9.1.3-.6.7-1.2,1.2-1.8,0-.3-.2-.6-.4-.7-1.3-.9-2.6-1.7-4-2.4-.7-.6-.8-1.6-.2-2.3,0-.1.1-.1.1-.1l1.4-1.2c.4-.4.8-.9,1.2-1.4.6-.8,2-.4,2.4.1.6,1.4,1.4,2.8,2.4,4,.1.2.4.4.7.4l1.8-1.2c.1-.3.1-.6-.1-.8-.8-1.4-1.7-2.6-2.8-3.7-.3-.6-.2-2,.8-2.3.6-.1,1.2-.3,1.8-.6l1.7-.8c.8-.5,1.9.3,2.1,1,.1,1.5.4,3.1.7,4.6.1.5.4.6.5.6l2.1-.4c.1,0,.3-.2.2-.8-.2-1.5-.6-3-1.1-4.5-.1-.6.6-1.9,1.6-1.7h1.8v50.6l-1.8.2Z"/><path class="cls-2" d="m274.6,50l7.1-40.4h9.4c6.2,0,10.2,3.7,8.7,11.9l-2.9,16.9c-1.5,8-5.6,11.6-11.8,11.6h-10.5Zm10.5-4.5c3.1,0,5.9-2.2,6.8-7.4l3-16.5c.8-5.2-1.1-7.4-4.3-7.4h-4.7l-5.5,31.3h4.7Z"/><path class="cls-2" d="m301,41.3l2.1-11.9c1.1-6,4.2-9.1,8.6-9.1,2.7,0,4.8,1.5,5.3,3.8l.6-3.2h4.7l-5.1,29.1h-4.8l.6-2.8c-1.2,2.2-3.4,3.5-5.9,3.4-4.5,0-7.2-3.2-6.1-9.3Zm13-.1l1.9-11.3c.7-3.4-.6-5.3-3.1-5.3s-4.4,1.9-5,5.2l-2,11.4c-.6,3.3.7,5.1,3.3,5.1s4.3-1.8,4.9-5.1Z"/><path class="cls-2" d="m334.4,49.7c-1.4.6-3,.9-4.6.9-3.9,0-5.8-2.2-5.1-7l3.4-18.8h-3.3l.8-3.9c3.8,0,5.1-.2,6.9-9.5h3.2l-1.8,9.5h5.4l-.7,3.9h-5.7l-3.2,18c-.5,2.5.4,3.4,1.8,3.4,1.3-.1,2.6-.5,3.7-1.2l-.8,4.7Z"/><path class="cls-2" d="m338.6,41.3l2.1-11.9c1.1-6,4.2-9.1,8.6-9.1,2.7,0,4.8,1.5,5.3,3.8l.6-3.2h4.8l-5.2,29.1h-4.8l.6-2.8c-1.2,2.2-3.4,3.5-5.9,3.4-4.5,0-7.2-3.2-6.1-9.3Zm13-.1l1.9-11.3c.7-3.4-.6-5.3-3.1-5.3s-4.4,1.9-5,5.2l-2,11.4c-.6,3.3.7,5.1,3.3,5.1s4.3-1.8,4.9-5.1Z"/><path class="cls-2" d="m374.4,50h-5l7.2-40.4h9.6c5.7,0,9.2,3.1,8.1,9.3l-1.3,7.2c-1,5.9-4.5,8.9-10.1,8.9h-5.9l-2.6,15Zm13.6-24.4l1.2-6.4c.6-3.4-1.1-5-4.2-5h-4.3l-2.9,16.5h4.4c3,0,5.2-1.5,5.8-5.1Z"/><path class="cls-2" d="m394.1,41.1l2-11.3c1.1-6.4,5-9.5,10-9.5s8.8,3.1,7.7,9.6l-2.1,11.4c-1,6.3-4.9,9.3-9.9,9.3s-8.9-3-7.7-9.5Zm12.9.1l2-11.4c.6-3.3-.7-5.2-3.2-5.2s-4.3,1.9-4.9,5.3l-2,11.3c-.6,3.3.6,5.1,3.1,5.1s4.4-1.8,5-5.1Z"/><path class="cls-2" d="m420.2,20.9h4.8l-.6,3.6c1.6-3.1,4-4.2,8-4.2l-1.1,5.5c-.7-.3-1.5-.5-2.3-.5-3.9,0-5.3,3-6.3,8.6l-2.8,16.1h-4.8l5.1-29.1Z"/><path class="cls-2" d="m442.1,49.7c-1.4.6-3,.9-4.5.9-4,0-5.9-2.2-5.2-7l3.4-18.8h-3.2l.7-3.9c3.8,0,5.1-.2,6.9-9.5h3.2l-1.7,9.5h5.3l-.7,3.9h-5.7l-3.2,18c-.4,2.5.5,3.4,1.8,3.4,1.3-.1,2.6-.5,3.7-1.2l-.8,4.7Z"/><path class="cls-2" d="m446.3,41.3l2.1-11.9c1.1-6,4.2-9.1,8.6-9.1,2.7,0,4.8,1.5,5.3,3.8l.6-3.2h4.8l-5.2,29.1h-4.8l.6-2.8c-1.2,2.2-3.4,3.5-5.9,3.4-4.5,0-7.2-3.2-6.1-9.3Zm13-.1l1.9-11.3c.7-3.4-.6-5.3-3.1-5.3s-4.4,1.9-5,5.2l-2,11.4c-.6,3.3.7,5.1,3.3,5.1s4.3-1.8,4.9-5.1Z"/><path class="cls-2" d="m472.7,50h-2.2c-1.9,0-2.4-.8-2.1-2.8l6.6-37.6h4.9l-7.2,40.4Z"/><path class="cls-3" d="m93.8,35l-.6,3c-1.5,8.6-6.6,12.6-13.2,12.6s-12.2-4-10.5-13.4l2.9-16.6c1.5-8.6,6.3-12.7,13.3-12.7s12.1,4.1,10.5,13.2l-.5,2.5-7.2.5.3-2.5c.8-3.7-.6-5.2-3-5.2s-4.3,1.5-5,5.2l-2.7,15.2c-.6,3.9.8,5.4,3.2,5.4s4.2-1.5,4.9-5.4l.4-2.4,7.2.6Z"/><path class="cls-3" d="m126.2,21.3l-3,16.7c-1.4,8.6-6.9,12.6-13.9,12.6s-12.8-4-11.2-13.4l2.9-16.6c1.5-8.6,7-12.7,14.1-12.7s12.7,4.1,11.1,13.4Zm-16.7.3l-2.8,15.2c-.6,3.9.8,5.4,3.2,5.4s4.2-1.5,4.9-5.4l2.7-15.2c.7-3.7-.7-5.2-3.1-5.2s-4.3,1.5-4.9,5.2Z"/><path class="cls-3" d="m149.9,8.5h8.1l-15.4,41.5h-10.2l-1.1-41.5h9.4l-.2,27,9.4-27Z"/><path class="cls-3" d="m171,8.5l-7.3,41.5h-8.6l7.3-41.5h8.6Z"/><path class="cls-3" d="m170.2,50l7.3-41.5h11.2c7,0,12.2,3.8,10.5,12.9l-2.9,16.3c-1.5,8.7-6.1,12.3-13.1,12.3,0,0-13,0-13,0Zm12.8-8c2.3,0,4.2-1.5,4.9-5.4l2.6-14.7c.7-3.8-.7-5.3-3.1-5.3h-2.7l-4.5,25.4h2.8Z"/><path class="cls-3" d="m203.7,28.3h15.7l-1.2,6.3h-15.6l1.1-6.3Z"/><path class="cls-3" d="m228.2,12.3l7.5-3.8h1.8l-7.3,41.5h-8.7l6.7-37.7Z"/><path class="cls-3" d="m254.2,32.4c-1.5,2.1-4,3.3-6.6,3.3-5.3,0-8.6-3.2-7.5-9.9l1.1-5.5c1.4-8.3,5.6-12.4,12.8-12.4s12.3,4.1,10.9,12.4l-3,16.8c-1.5,8.3-5.5,13.5-13.5,13.5s-11.5-4.1-10.4-10.5l.3-1.6,7.3-.6v.8c-.5,2.5.4,4.2,2.9,4.2s4.4-2.1,5-5.6l.7-4.9Zm2-11.9c.5-3.1-.4-4.9-2.9-4.9s-4.1,1.8-4.8,4.9l-.7,4.2c-.5,3,.3,4.9,2.9,4.9s4.2-1.9,4.7-4.9l.8-4.2Z"/><polygon class="cls-4" points="332.09 73.21 330.07 62.11 326.18 62.11 322.11 85.18 326.27 85.18 328.23 74.08 330.32 85.18 334.15 85.18 338.21 62.11 334.05 62.11 332.09 73.21"/><polygon class="cls-4" points="336.77 85.18 347.2 85.18 347.93 81.02 341.67 81.02 342.63 75.54 348.09 75.54 348.79 71.57 343.34 71.57 344.3 66.09 350.56 66.09 351.26 62.11 340.84 62.11 336.77 85.18"/><polygon class="cls-4" points="350.8 66.09 354.46 66.09 351.09 85.18 355.26 85.18 358.62 66.09 362.28 66.09 362.98 62.11 351.5 62.11 350.8 66.09"/><polygon class="cls-4" points="369.55 71.57 366.65 71.57 368.31 62.11 364.15 62.11 360.08 85.18 364.25 85.18 365.98 75.36 368.88 75.36 367.15 85.18 371.31 85.18 375.38 62.11 371.22 62.11 369.55 71.57"/><polygon class="cls-4" points="374.06 85.18 384.49 85.18 385.22 81.02 378.96 81.02 379.93 75.54 385.38 75.54 386.08 71.57 380.63 71.57 381.59 66.09 387.86 66.09 388.56 62.11 378.13 62.11 374.06 85.18"/><path class="cls-4" d="m399.54,72.61c.6-.97,1.03-2.15,1.27-3.52,1.02-5.77-2.08-6.98-4.85-6.98h-5.58l-4.07,23.07h4.16l1.66-9.42h1.02l1.28,9.42h4.41l-1.68-10.35c1.02-.58,1.82-1.33,2.37-2.22Zm-5.7-6.52h1.14c.91,0,1.49.22,1.69.62.11.25.16.56.14.92-.01.4-.07.87-.16,1.4s-.21,1-.33,1.4c-.12.36-.26.66-.42.87-.17.21-.38.37-.65.48-.28.12-.67.19-1.15.19h-1.3l1.04-5.88Z"/><polygon class="cls-4" points="408.52 62.11 404.36 62.11 400.29 85.18 410.72 85.18 411.45 81.02 405.19 81.02 408.52 62.11"/><path class="cls-4" d="m420.21,62.11l-9.22,23.07h4.2l1.77-4.74h3.49l.09,4.74h4.2l-1.08-23.07h-3.44Zm.15,14.35h-1.95l1.86-5.03.09,5.03Z"/><polygon class="cls-4" points="435.79 73.21 433.76 62.11 429.87 62.11 425.8 85.18 429.97 85.18 431.92 74.08 434.01 85.18 437.84 85.18 441.91 62.11 437.75 62.11 435.79 73.21"/><path class="cls-4" d="m449.72,62.11h-5.18l-4.07,23.07h4.9c2.01,0,3.68-.54,4.96-1.62,1.29-1.07,2.14-2.73,2.52-4.93l1.82-10.32c.34-1.94.09-3.48-.74-4.56-.84-1.09-2.26-1.64-4.21-1.64Zm-1.72,3.98h.96c.76,0,1.24.17,1.43.51.22.39.26.96.13,1.72l-1.87,10.63c-.15.83-.4,1.42-.75,1.77-.33.32-.86.49-1.59.49h-.96l2.67-15.12Z"/><path class="cls-4" d="m468.45,69.47l.36-2.05c.25-1.41-.06-2.67-.91-3.76-.43-.52-.97-.94-1.62-1.25-.66-.32-1.42-.48-2.27-.48-1,0-1.91.18-2.71.53-.8.35-1.5.83-2.08,1.42-.6.59-1.1,1.3-1.49,2.1-.38.79-.65,1.63-.8,2.5-.26,1.46-.22,2.7.1,3.68.34,1.03,1.2,1.85,2.57,2.45l2.1.93c.34.16.61.3.8.43.15.11.27.24.33.37.06.17.08.41.06.71-.02.35-.08.81-.18,1.37-.09.48-.18.92-.27,1.31-.08.33-.21.61-.38.83-.15.21-.34.36-.57.47-.17.08-.49.18-1.06.18-.64,0-1.04-.16-1.23-.49-.21-.38-.27-.79-.19-1.27l.26-1.49h-4.16l-.3,1.68c-.14.81-.12,1.57.06,2.26.18.68.49,1.29.92,1.81s.99.93,1.65,1.23c.67.29,1.42.44,2.25.44,1.08,0,2.05-.18,2.88-.54.84-.37,1.57-.88,2.16-1.52.56-.61,1.02-1.36,1.37-2.21.34-.83.6-1.74.77-2.7.15-.83.23-1.57.26-2.22.03-.68-.03-1.29-.19-1.86-.18-.53-.48-1-.9-1.41-.41-.4-.97-.74-1.66-1.03l-2.25-.96c-.35-.15-.62-.3-.8-.44-.15-.12-.26-.26-.32-.42-.06-.17-.09-.36-.07-.59.02-.27.07-.62.14-1.03.06-.34.15-.67.26-.98.1-.28.24-.53.39-.73.16-.19.35-.34.58-.47.21-.12.49-.17.82-.17.63,0,1.02.18,1.2.56.21.45.26.97.15,1.6l-.21,1.21h4.16Z"/></svg>