<?xml version="1.0" encoding="utf-8"?>
<!-- Generator: Adobe Illustrator 24.3.0, SVG Export Plug-In . SVG Version: 6.00 Build 0)  -->
<svg version="1.1" id="Layer_1" xmlns="http://www.w3.org/2000/svg" xmlns:xlink="http://www.w3.org/1999/xlink" x="0px" y="0px"
	 viewBox="0 0 480.3 86.4" style="enable-background:new 0 0 480.3 86.4;" xml:space="preserve">
<style type="text/css">
	.st0{fill:#3B9DD8;}
	.st1{fill:#FFFFFF;}
	.st2{fill:#DE2C6C;}
</style>
<g>
	<g>
		<path class="st0" d="M25.6,0.7V4c0.2,0,0.9,0,1.8-0.1c1-0.2,1.7,1.1,1.6,1.8c-0.1,0.8-0.9,2.4-1.1,4.5C27.8,10.8,28,11,28.1,11
			c0.7,0.1,1.4,0.2,2.1,0.4c0.1,0,0.4-0.1,0.5-0.6c0.6-2,0.5-3.8,0.7-4.6c0.2-0.7,1.2-1.6,2.1-1C34.4,5.7,35.2,6,35.2,6
			S36,6.4,37,6.6s1.1,1.6,0.8,2.2c-0.4,0.7-1.7,1.9-2.8,3.7c-0.3,0.5-0.2,0.7-0.1,0.8c0.6,0.4,1.2,0.8,1.8,1.2
			c0.1,0,0.4,0.1,0.7-0.4c1.3-1.6,1.9-3.3,2.4-4c0.4-0.6,1.7-1,2.3-0.1c0.6,0.8,1.2,1.4,1.2,1.4s0.6,0.6,1.4,1.2
			c0.8,0.6,0.4,1.9-0.1,2.3c-0.7,0.5-2.3,1-4,2.4c-0.4,0.4-0.4,0.6-0.4,0.7c0.4,0.6,0.8,1.2,1.2,1.8c0.1,0.1,0.3,0.2,0.8-0.1
			c1.9-1,3-2.3,3.7-2.8c0.6-0.4,2-0.2,2.2,0.8s0.6,1.8,0.6,1.8s0.3,0.8,0.8,1.7c0.5,0.9-0.3,2-1,2.1c-0.8,0.2-2.5,0.1-4.6,0.7
			c-0.5,0.2-0.6,0.4-0.6,0.5c0.2,0.7,0.3,1.4,0.4,2.1c0,0.1,0.2,0.3,0.8,0.2c2.1-0.2,3.7-1,4.5-1.1c0.7-0.1,1.9,0.5,1.8,1.6
			c-0.2,1-0.1,1.9-0.1,1.9s0,0.9,0.1,1.9c0.2,1-1.1,1.7-1.8,1.6c-0.8-0.1-2.4-0.9-4.5-1.1c-0.6-0.1-0.8,0.1-0.8,0.2
			c-0.1,0.7-0.2,1.4-0.4,2.1c0,0.1,0.1,0.4,0.6,0.5c2,0.6,3.8,0.5,4.6,0.7c0.7,0.2,1.6,1.2,1,2.1c-0.5,0.9-0.8,1.7-0.8,1.7
			s-0.4,0.8-0.6,1.8s-1.6,1.1-2.2,0.8c-0.7-0.4-1.9-1.7-3.7-2.8c-0.5-0.3-0.7-0.2-0.8-0.1c-0.4,0.6-0.8,1.2-1.2,1.8
			c0,0.1-0.1,0.4,0.4,0.7c1.6,1.3,3.3,1.9,4,2.4c0.6,0.4,1,1.7,0.1,2.3c-0.8,0.6-1.4,1.2-1.4,1.2s-0.6,0.6-1.2,1.4
			c-0.6,0.8-1.9,0.4-2.3-0.1c-0.5-0.7-1-2.3-2.4-4c-0.4-0.4-0.6-0.4-0.7-0.4c-0.6,0.4-1.2,0.8-1.8,1.2c-0.1,0.1-0.2,0.3,0.1,0.8
			c1,1.9,2.3,3,2.8,3.7c0.4,0.6,0.2,2-0.8,2.2c-1,0.2-1.8,0.6-1.8,0.6s-0.8,0.3-1.7,0.8s-2-0.3-2.1-1c-0.2-0.8-0.1-2.5-0.7-4.6
			c-0.2-0.5-0.4-0.6-0.5-0.6c-0.7,0.2-1.4,0.3-2.1,0.4c-0.1,0-0.3,0.2-0.2,0.8c0.2,2.1,1,3.7,1.1,4.5c0.1,0.7-0.5,1.9-1.6,1.8
			c-0.9-0.1-1.7-0.1-1.8-0.1V58h26.8L63,0.6L25.6,0.7L25.6,0.7z"/>
		<path class="st1" d="M27.5,54.7c1,0.2,1.7-1.1,1.6-1.8c-0.1-0.8-0.9-2.4-1.1-4.5c-0.1-0.6,0.1-0.8,0.2-0.8
			c0.7-0.1,1.4-0.2,2.1-0.4c0.1,0,0.4,0.1,0.5,0.6c0.6,2,0.5,3.8,0.7,4.6c0.2,0.7,1.2,1.6,2.1,1c0.9-0.5,1.7-0.8,1.7-0.8
			s0.8-0.4,1.8-0.6c1-0.2,1.1-1.6,0.8-2.2c-0.4-0.7-1.7-1.9-2.8-3.7c-0.3-0.5-0.2-0.7-0.1-0.8c0.6-0.4,1.2-0.8,1.8-1.2
			c0.1,0,0.4-0.1,0.7,0.4c1.3,1.6,1.9,3.3,2.4,4c0.4,0.6,1.7,1,2.3,0.1c0.6-0.8,1.2-1.4,1.2-1.4s0.6-0.6,1.4-1.2
			c0.8-0.6,0.4-1.9-0.1-2.3c-0.7-0.5-2.3-1-4-2.4c-0.4-0.4-0.4-0.6-0.4-0.7c0.4-0.6,0.8-1.2,1.2-1.8c0.1-0.1,0.3-0.2,0.8,0.1
			c1.9,1,3,2.3,3.7,2.8c0.6,0.4,2,0.2,2.2-0.8s0.6-1.8,0.6-1.8s0.3-0.8,0.8-1.7s-0.3-2-1-2.1c-0.8-0.2-2.5-0.1-4.6-0.7
			c-0.5-0.2-0.6-0.4-0.6-0.5c0.2-0.7,0.3-1.4,0.4-2.1c0-0.1,0.2-0.3,0.8-0.2c2.1,0.2,3.7,1,4.5,1.1c0.7,0.1,1.9-0.5,1.8-1.6
			c-0.2-1-0.1-1.9-0.1-1.9s0-0.9,0.1-1.9c0.2-1-1.1-1.7-1.8-1.6c-0.8,0.1-2.4,0.9-4.5,1.1c-0.6,0.1-0.8-0.1-0.8-0.2
			c-0.1-0.7-0.2-1.4-0.4-2.1c0-0.1,0.1-0.4,0.6-0.5c2-0.6,3.8-0.5,4.6-0.7c0.7-0.2,1.6-1.2,1-2.1c-0.5-0.9-0.8-1.7-0.8-1.7
			s-0.2-0.9-0.5-1.9c-0.2-1-1.6-1.1-2.2-0.8c-0.7,0.4-1.9,1.7-3.7,2.8c-0.5,0.3-0.7,0.2-0.8,0.1c-0.4-0.6-0.8-1.2-1.2-1.8
			c0-0.1-0.1-0.4,0.4-0.7c1.6-1.3,3.3-1.9,4-2.4c0.6-0.4,1-1.7,0.1-2.3c-0.8-0.6-1.4-1.2-1.4-1.2s-0.6-0.6-1.2-1.4
			c-0.6-0.8-1.9-0.4-2.3,0.1c-0.5,0.7-1,2.3-2.4,4c-0.4,0.4-0.6,0.4-0.7,0.4c-0.6-0.4-1.2-0.8-1.8-1.2c-0.1-0.1-0.2-0.3,0.1-0.8
			c1-1.9,2.3-3,2.8-3.7c0.4-0.6,0.2-2-0.8-2.2s-1.8-0.6-1.8-0.6s-0.8-0.3-1.7-0.8s-2,0.3-2.1,1c-0.2,0.8-0.1,2.5-0.7,4.6
			c-0.2,0.5-0.4,0.6-0.5,0.6c-0.7-0.2-1.4-0.3-2.1-0.4c-0.1,0-0.3-0.2-0.2-0.8c0.2-2.1,1-3.7,1.1-4.5c0.1-0.7-0.5-1.9-1.6-1.8
			c-0.9,0.1-1.7,0.1-1.8,0.1v50.5C25.8,54.5,26.6,54.5,27.5,54.7z"/>
	</g>
	<path class="st2" d="M23.8,54.8c-1,0.2-1.7-1.1-1.6-1.8c0.1-0.8,0.9-2.4,1.1-4.5c0.1-0.6-0.1-0.8-0.2-0.8c-0.7-0.1-1.4-0.2-2.1-0.4
		c-0.1,0-0.4,0.1-0.5,0.6c-0.6,2-0.5,3.8-0.7,4.6c-0.2,0.7-1.2,1.6-2.1,1C16.8,53,16,52.7,16,52.7s-0.8-0.4-1.8-0.6
		s-1.1-1.6-0.8-2.2c0.4-0.7,1.7-1.9,2.8-3.7c0.3-0.5,0.2-0.7,0.1-0.8c-0.6-0.4-1.2-0.8-1.8-1.2c-0.1,0-0.4-0.1-0.7,0.4
		c-1.3,1.6-1.9,3.3-2.4,4c-0.4,0.6-1.7,1-2.3,0.1c-0.6-0.8-1.2-1.4-1.2-1.4s-0.6-0.6-1.4-1.2c-0.8-0.6-0.4-1.9,0.1-2.3
		c0.7-0.5,2.3-1,4-2.4C11,41,11,40.8,11,40.7c-0.4-0.6-0.8-1.2-1.2-1.8C9.7,38.8,9.5,38.7,9,39c-1.9,1-3,2.3-3.7,2.8
		c-0.6,0.4-2,0.2-2.2-0.8s-0.6-1.8-0.6-1.8s-0.3-0.8-0.8-1.7s0.3-2,1-2.1c0.8-0.2,2.5-0.1,4.6-0.7c0.5-0.2,0.6-0.4,0.6-0.5
		c-0.2-0.7-0.3-1.4-0.4-2.1c0-0.1-0.2-0.3-0.8-0.2c-2.1,0.2-3.7,1-4.5,1.1c-0.7,0.1-1.9-0.5-1.8-1.6c0.2-1,0.1-1.9,0.1-1.9
		s0-0.9-0.1-1.9c-0.2-1,1.1-1.7,1.8-1.6c0.8,0.1,2.4,0.9,4.5,1.1c0.6,0.1,0.8-0.1,0.8-0.2c0.1-0.7,0.2-1.4,0.4-2.1
		c0-0.1-0.1-0.4-0.6-0.5c-2-0.6-3.8-0.5-4.6-0.7c-0.7-0.2-1.6-1.2-1-2.1c0.5-0.9,0.8-1.7,0.8-1.7S2.9,19,3.1,18
		c0.2-1,1.6-1.1,2.2-0.8C6,17.6,7.2,18.9,9,20c0.5,0.3,0.7,0.2,0.8,0.1c0.4-0.6,0.8-1.2,1.2-1.8c0-0.1,0.1-0.4-0.4-0.7
		c-1.6-1.3-3.3-1.9-4-2.4c-0.6-0.4-1-1.7-0.1-2.3c0.8-0.6,1.4-1.2,1.4-1.2s0.6-0.6,1.2-1.4c0.6-0.8,1.9-0.4,2.3,0.1
		c0.5,0.7,1,2.3,2.4,4c0.4,0.4,0.6,0.4,0.7,0.4c0.6-0.4,1.2-0.8,1.8-1.2c0.1-0.1,0.2-0.3-0.1-0.8c-1-1.9-2.3-3-2.8-3.7
		c-0.4-0.6-0.2-2,0.8-2.2S16,6.3,16,6.3s0.8-0.3,1.7-0.8c0.9-0.5,2,0.3,2.1,1c0.2,0.8,0.1,2.5,0.7,4.6c0.2,0.5,0.4,0.6,0.5,0.6
		c0.7-0.2,1.4-0.3,2.1-0.4c0.1,0,0.3-0.2,0.2-0.8c-0.2-2.1-1-3.7-1.1-4.5c-0.1-0.7,0.5-1.9,1.6-1.8c0.9,0.1,1.7,0.1,1.8,0.1v50.5
		C25.5,54.6,24.7,54.6,23.8,54.8z"/>
	<g>
		<g>
			<path class="st2" d="M274.8,50.1l7.1-40.4h9.4c6.2,0,10.2,3.7,8.7,11.8l-3,17c-1.4,8-5.5,11.6-11.8,11.6
				C285.2,50.1,274.8,50.1,274.8,50.1z M285.3,45.6c3.2,0,5.9-2.1,6.8-7.4l2.9-16.5c0.8-5.2-1.1-7.4-4.2-7.4H286l-5.4,31.3H285.3z"
				/>
			<path class="st2" d="M301.2,41.4l2.1-11.9c1.1-6,4.2-9.1,8.6-9.1c2.7,0,4.8,1.5,5.3,3.8l0.6-3.2h4.8l-5.2,29.2h-4.8l0.6-2.9
				c-1.3,2.3-3.3,3.5-6,3.5C302.8,50.7,300.1,47.5,301.2,41.4z M314.2,41.3l2-11.3c0.7-3.4-0.6-5.2-3.1-5.2s-4.4,1.8-5,5.2l-2,11.4
				c-0.6,3.3,0.7,5.1,3.3,5.1C311.7,46.4,313.6,44.6,314.2,41.3z"/>
			<path class="st2" d="M334.6,49.8c-1.3,0.5-2.7,0.9-4.5,0.9c-4,0-5.9-2.3-5.1-7l3.3-18.8h-3.2l0.7-3.9c3.9,0,5.2-0.2,7-9.5h3.2
				l-1.7,9.5h5.4l-0.7,3.9h-5.7l-3.2,18c-0.5,2.6,0.4,3.4,1.8,3.4c1.3,0,2.6-0.5,3.7-1.2L334.6,49.8z"/>
			<path class="st2" d="M338.8,41.4l2.1-11.9c1.1-6,4.2-9.1,8.6-9.1c2.7,0,4.8,1.5,5.3,3.8l0.6-3.2h4.8L355,50.2h-4.8l0.6-2.9
				c-1.3,2.3-3.3,3.5-6,3.5C340.4,50.7,337.7,47.5,338.8,41.4z M351.8,41.3l2-11.3c0.7-3.4-0.6-5.2-3.1-5.2s-4.4,1.8-5,5.2l-2,11.4
				c-0.6,3.3,0.7,5.1,3.3,5.1C349.3,46.4,351.2,44.6,351.8,41.3z"/>
			<path class="st2" d="M374.6,50.1h-5l7.1-40.4h9.6c5.7,0,9.2,3,8.1,9.2l-1.3,7.2c-1,5.9-4.5,8.9-10.1,8.9h-5.9L374.6,50.1z
				 M388.2,25.7l1.1-6.4c0.6-3.5-1.1-5-4.2-5h-4.3L378,30.8h4.4C385.4,30.8,387.6,29.3,388.2,25.7z"/>
			<path class="st2" d="M394.3,41.2l2-11.3c1.1-6.4,5-9.5,10-9.5c5.1,0,8.9,3.1,7.7,9.6l-2,11.4c-1.1,6.3-4.9,9.3-9.9,9.3
				C397,50.7,393.1,47.7,394.3,41.2z M407.2,41.3l2-11.4c0.6-3.3-0.7-5.2-3.2-5.2c-2.4,0-4.3,1.8-4.9,5.2l-2,11.3
				c-0.6,3.3,0.7,5.1,3.1,5.1C404.7,46.4,406.6,44.6,407.2,41.3z"/>
			<path class="st2" d="M420.4,21h4.8l-0.6,3.6c1.6-3,4-4.2,8-4.2l-1.1,5.5c-0.5-0.3-1.8-0.5-2.3-0.5c-3.9,0-5.3,2.9-6.3,8.5
				l-2.8,16.2h-4.8L420.4,21z"/>
			<path class="st2" d="M442.3,49.8c-1.3,0.5-2.7,0.9-4.5,0.9c-4,0-5.9-2.3-5.1-7l3.3-18.8h-3.2l0.7-3.9c3.9,0,5.2-0.2,7-9.5h3.2
				L442,21h5.4l-0.7,3.9H441l-3.2,18c-0.5,2.6,0.4,3.4,1.8,3.4c1.3,0,2.6-0.5,3.7-1.2L442.3,49.8z"/>
			<path class="st2" d="M446.5,41.4l2.1-11.9c1.1-6,4.2-9.1,8.6-9.1c2.7,0,4.8,1.5,5.3,3.8l0.6-3.2h4.8l-5.2,29.2h-4.8l0.6-2.9
				c-1.3,2.3-3.3,3.5-6,3.5C448.1,50.7,445.4,47.5,446.5,41.4z M459.5,41.3l2-11.3c0.7-3.4-0.6-5.2-3.1-5.2s-4.4,1.8-5,5.2l-2,11.4
				c-0.6,3.3,0.7,5.1,3.3,5.1C457,46.4,458.9,44.6,459.5,41.3z"/>
			<path class="st2" d="M472.9,50.1h-2.2c-2,0-2.4-0.8-2.1-2.8l6.6-37.6h4.8L472.9,50.1z"/>
		</g>
		<g>
			<g>
				<path d="M94,35.1l-0.6,3c-1.5,8.6-6.6,12.7-13.3,12.7c-7,0-12.2-4-10.5-13.4l3-16.7C74.1,12.1,78.9,8,85.9,8
					c6.7,0,12.2,4.1,10.6,13.1L96,23.7l-7.3,0.5l0.4-2.5c0.7-3.7-0.7-5.3-3.1-5.3s-4.3,1.5-5,5.3l-2.7,15.2
					c-0.7,3.9,0.7,5.4,3.1,5.4s4.2-1.5,5-5.4l0.4-2.4L94,35.1z"/>
				<path d="M126.4,21.4l-2.9,16.7c-1.5,8.6-6.9,12.7-14,12.7c-7,0-12.8-4-11.2-13.4l2.9-16.6c1.5-8.6,7-12.7,14.1-12.7
					C122.2,8,128,12.1,126.4,21.4z M109.7,21.7l-2.8,15.2c-0.7,3.9,0.7,5.4,3.1,5.4s4.3-1.5,4.9-5.4l2.7-15.2
					c0.7-3.7-0.7-5.3-3.1-5.3C112.3,16.5,110.3,18,109.7,21.7z"/>
				<path d="M150.1,8.6h8.1l-15.4,41.5h-10.2l-1.1-41.5h9.4l-0.2,27L150.1,8.6z"/>
				<path d="M171.2,8.6l-7.3,41.5h-8.6l7.3-41.5H171.2z"/>
				<path d="M170.4,50.1l7.3-41.5h11.2c7,0,12.2,3.7,10.5,12.9l-2.9,16.3c-1.5,8.6-6.1,12.3-13.1,12.3H170.4z M183.2,42.1
					c2.4,0,4.3-1.5,4.9-5.4l2.6-14.7c0.6-3.7-0.7-5.3-3.1-5.3h-2.7l-4.5,25.4C180.4,42.1,183.2,42.1,183.2,42.1z"/>
				<path d="M203.9,28.4h15.7l-1.2,6.3h-15.6L203.9,28.4z"/>
				<path d="M228.4,12.4l7.5-3.8h1.8l-7.3,41.5h-8.7L228.4,12.4z"/>
				<path d="M254.4,32.5c-1.3,1.7-3.2,3.3-6.5,3.3c-5.3,0-8.7-3.2-7.5-10l1-5.5C242.8,12,247,8,254.3,8c8,0,12.3,4,10.8,12.3
					l-3,16.9c-1.5,8.3-5.5,13.5-13.5,13.5c-8.1,0-11.5-4.2-10.3-10.6l0.2-1.6l7.3-0.5l-0.1,0.7c-0.5,2.6,0.4,4.2,2.9,4.2
					c2.6,0,4.3-2.1,4.9-5.6L254.4,32.5z M256.4,20.6c0.6-3.1-0.4-4.9-2.9-4.9c-2.6,0-4.1,1.8-4.7,4.9l-0.7,4.2
					c-0.5,2.9,0.3,4.9,2.9,4.9c2.6,0,4.2-2,4.6-4.9L256.4,20.6z"/>
			</g>
		</g>
	</g>
</g>
<g>
	<path class="st0" d="M402.5,79.8l2.8-16h4.6l-3.1,17.3c-0.6,3.6-2.4,5.2-5.3,5.2c-1.3,0-2.6-0.2-3.2-0.5l0.9-4.4
		c0.5,0.3,1.1,0.4,1.6,0.4C401.7,81.8,402.3,81.3,402.5,79.8z"/>
	<path class="st0" d="M416,63.7h6l0.3,22.2h-5.2v-4.1h-3.9l-1.4,4.1h-4.3L416,63.7z M414.2,78.2h3.1l0.1-8.8L414.2,78.2z"/>
	<path class="st0" d="M428.5,85.9h-4.6l3.9-22.2h6.5c3.6,0,5.6,1.8,5,5.7l-0.7,3.7c-0.6,3.5-2.5,5.2-5.8,5.2h-3L428.5,85.9z
		 M434.2,72.5l0.5-2.5c0.2-1.3-0.3-1.9-1.6-1.9h-1.4l-1.1,6.4h1.5C433.2,74.5,433.9,73.9,434.2,72.5z"/>
	<path class="st0" d="M444.9,63.7h6l0.3,22.2H446v-4.1h-3.9l-1.4,4.1h-4.3L444.9,63.7z M443.1,78.2h3.1l0.1-8.8L443.1,78.2z"/>
	<path class="st0" d="M461.8,63.7l2.2,13.7l2.4-13.7h3.6l-3.9,22.2h-4.3L459,70.8l-2.7,15.1h-3.5l3.9-22.2
		C456.7,63.7,461.8,63.7,461.8,63.7z"/>
</g>
</svg>
