<?xml version="1.0" encoding="utf-8"?>
<!-- Generator: Adobe Illustrator 24.3.0, SVG Export Plug-In . SVG Version: 6.00 Build 0)  -->
<svg version="1.1" id="Layer_1" xmlns="http://www.w3.org/2000/svg" xmlns:xlink="http://www.w3.org/1999/xlink" x="0px" y="0px"
	 viewBox="0 0 479.8 86.1" style="enable-background:new 0 0 479.8 86.1;" xml:space="preserve">
<style type="text/css">
	.st0{fill:#3B9DD8;}
	.st1{fill:#FFFFFF;}
	.st2{fill:#DE2C6C;}
	.st3{fill:#1D1D1B;}
</style>
<path class="st0" d="M25.4,0.6v3.3h1.9c1-0.2,1.6,1,1.5,1.7c-0.5,1.5-0.8,3-1.1,4.5c-0.1,0.6,0.1,0.8,0.3,0.8l2.1,0.4
	c0.1,0,0.3-0.1,0.5-0.6c0.3-1.5,0.6-3.1,0.7-4.6c0.2-0.8,1-1.3,1.8-1.1c0.1,0,0.2,0.1,0.3,0.1l1.7,0.8c0.5,0.3,1.1,0.5,1.7,0.6
	c0.9,0.4,1.2,1.4,0.8,2.3c0,0,0,0,0,0c-1,1.1-1.9,2.4-2.7,3.7c-0.3,0.5-0.2,0.7-0.1,0.8l1.8,1.2c0.1,0,0.3,0,0.7-0.4
	c0.9-1.3,1.7-2.6,2.4-4c0.4-0.5,1.7-0.9,2.3-0.1c0.4,0.5,0.8,1,1.3,1.4c0.4,0.5,0.9,0.9,1.4,1.2c0.8,0.6,0.4,2-0.2,2.4
	s-2.3,1-3.9,2.4s-0.5,0.6-0.4,0.7l1.2,1.7c0,0.1,0.3,0.2,0.8-0.1c1.3-0.8,2.5-1.7,3.7-2.7c0.6-0.4,2-0.3,2.2,0.7s0.6,1.8,0.6,1.8
	c0.2,0.6,0.5,1.2,0.9,1.7c0.5,0.9-0.4,1.9-1.1,2.1c-1.5,0.1-3,0.4-4.5,0.7c-0.6,0.1-0.7,0.4-0.7,0.5c0.2,0.7,0.3,1.4,0.4,2.1
	c0.2,0.2,0.5,0.3,0.8,0.3c1.5-0.3,3-0.7,4.5-1.2c0.7-0.1,1.9,0.6,1.8,1.6c-0.1,0.6-0.2,1.3-0.1,1.9c-0.1,0.6,0,1.2,0.1,1.8
	c0,0.9-0.7,1.6-1.6,1.6c-0.1,0-0.1,0-0.2,0c-1.5-0.5-3-0.8-4.5-1.1c-0.3-0.1-0.6,0-0.8,0.2c-0.1,0.7-0.2,1.4-0.4,2.1
	c0,0.2,0.1,0.4,0.7,0.6c1.5,0.4,3,0.6,4.5,0.6c0.7,0.2,1.6,1.3,1.1,2.2c-0.4,0.5-0.7,1-0.9,1.6c0,0-0.3,0.8-0.6,1.8
	c-0.3,0.8-1.1,1.2-1.9,0.9c-0.1,0-0.2-0.1-0.3-0.1c-1.2-1-2.4-1.9-3.7-2.8c-0.5-0.2-0.8-0.1-0.8,0l-1.2,1.7
	c-0.1,0.1-0.1,0.4,0.4,0.8c1.3,0.9,2.6,1.7,3.9,2.4c0.7,0.5,0.9,1.4,0.4,2.1c-0.1,0.1-0.1,0.1-0.2,0.2c-0.5,0.3-1,0.7-1.4,1.2
	c-0.5,0.4-0.9,0.9-1.3,1.5c-0.6,0.6-1.5,0.6-2.1,0c-0.1-0.1-0.1-0.1-0.2-0.2c-0.7-1.3-1.5-2.6-2.4-3.9c-0.4-0.5-0.6-0.5-0.7-0.4
	l-1.8,1.1c-0.1,0.1-0.2,0.4,0.1,0.9c0.8,1.3,1.7,2.5,2.7,3.7c0.4,0.7,0.2,1.6-0.5,2.1c-0.1,0.1-0.2,0.1-0.3,0.1l-1.7,0.6
	c-0.6,0.2-1.2,0.5-1.7,0.9c-0.8,0.3-1.7-0.1-2.1-1c0,0,0-0.1,0-0.1c-0.1-1.5-0.4-3-0.7-4.5c-0.2-0.6-0.4-0.7-0.5-0.7L28,47.5
	c-0.2,0.1-0.4,0.2-0.3,0.8c0.3,1.5,0.6,3,1.1,4.5c0.1,0.7-0.5,1.9-1.5,1.8c-0.6-0.1-1.3-0.2-1.9-0.2V58h26.9L62.9,0.6H25.4z"/>
<path class="st1" d="M27.3,54.6c1,0.1,1.6-1.1,1.5-1.8c-0.5-1.5-0.8-3-1.1-4.5c-0.1-0.6,0.1-0.7,0.3-0.8l2.1-0.4
	c0.1,0,0.3,0.1,0.5,0.7c0.3,1.5,0.6,3,0.7,4.5c0.2,0.9,1.1,1.4,2,1.1c0.1,0,0.1,0,0.1,0c0.5-0.4,1.1-0.7,1.7-0.9l1.7-0.6
	c0.8-0.3,1.2-1.1,0.9-1.9c0-0.1-0.1-0.2-0.1-0.3c-1-1.2-1.9-2.4-2.7-3.7c-0.3-0.5-0.2-0.8-0.1-0.9l1.8-1.1c0.1-0.1,0.3-0.1,0.7,0.4
	c0.9,1.3,1.7,2.6,2.4,3.9c0.5,0.7,1.4,0.9,2.1,0.4c0.1-0.1,0.1-0.1,0.2-0.2c0.4-0.6,0.8-1.1,1.3-1.5c0.4-0.5,0.9-0.9,1.4-1.2
	c0.6-0.6,0.6-1.5,0-2.1c-0.1-0.1-0.1-0.1-0.2-0.2c-1.3-0.7-2.6-1.5-3.9-2.4c-0.5-0.4-0.5-0.7-0.4-0.8l1.2-1.7c0-0.1,0.3-0.2,0.8,0
	c1.3,0.9,2.5,1.8,3.7,2.8c0.7,0.4,1.6,0.2,2.1-0.5c0.1-0.1,0.1-0.2,0.1-0.3c0.3-1,0.6-1.8,0.6-1.8c0.2-0.6,0.5-1.1,0.9-1.6
	c0.5-0.9-0.4-2-1.1-2.2c-1.5,0-3-0.2-4.5-0.6c-0.6-0.2-0.7-0.4-0.7-0.6c0.2-0.7,0.3-1.4,0.4-2.1c0.2-0.2,0.5-0.3,0.8-0.2
	c1.5,0.3,3,0.6,4.5,1.1c0.9,0.1,1.7-0.5,1.8-1.4c0-0.1,0-0.1,0-0.2c-0.1-0.6-0.2-1.2-0.1-1.8c-0.1-0.6,0-1.3,0.1-1.9
	c0.1-1-1.1-1.7-1.8-1.6c-1.5,0.5-3,0.9-4.5,1.2c-0.3,0-0.6-0.1-0.8-0.3c-0.1-0.7-0.2-1.4-0.4-2.1c0-0.1,0.1-0.4,0.7-0.5
	c1.5-0.3,3-0.6,4.5-0.7c0.7-0.2,1.6-1.2,1.1-2.1c-0.4-0.5-0.7-1.1-0.9-1.7c0,0-0.3-0.8-0.6-1.8s-1.6-1.1-2.2-0.7
	c-1.2,1-2.4,1.9-3.7,2.7c-0.5,0.3-0.8,0.2-0.8,0.1L40.2,18c-0.1-0.1-0.1-0.4,0.4-0.7s3.3-1.9,3.9-2.4s1-1.8,0.2-2.4
	c-0.5-0.3-1-0.7-1.4-1.2c-0.5-0.4-0.9-0.9-1.3-1.4c-0.6-0.8-1.9-0.4-2.3,0.1c-0.7,1.4-1.5,2.7-2.4,4c-0.4,0.4-0.6,0.4-0.7,0.4
	l-1.8-1.2c-0.1-0.1-0.2-0.3,0.1-0.8c0.8-1.3,1.7-2.6,2.7-3.7c0.4-0.8,0.1-1.9-0.8-2.3c0,0,0,0,0,0c-0.6-0.1-1.2-0.3-1.7-0.6L33.4,5
	c-0.7-0.4-1.6,0-2,0.7c0,0.1-0.1,0.2-0.1,0.3c-0.1,1.5-0.4,3.1-0.7,4.6c-0.2,0.5-0.4,0.6-0.5,0.6L28,10.8c-0.2,0-0.4-0.2-0.3-0.8
	c0.3-1.5,0.6-3,1.1-4.5c0.1-0.7-0.5-1.9-1.5-1.7h-1.9v50.6C26,54.4,26.7,54.5,27.3,54.6z"/>
<path class="st2" d="M23.6,54.7c-1,0.1-1.7-1.1-1.6-1.8c0.5-1.5,0.9-3,1.1-4.5c0.1-0.6-0.1-0.7-0.2-0.8l-2.1-0.4
	c-0.1,0-0.4,0.1-0.5,0.7c-0.3,1.5-0.6,3-0.7,4.5c-0.2,0.7-1.3,1.6-2.1,1.1c-0.5-0.4-1.1-0.7-1.7-0.9L14,52c-1-0.2-1.1-1.6-0.8-2.2
	c1-1.1,2-2.4,2.8-3.7c0.2-0.2,0.2-0.5,0.1-0.8l-1.8-1.2c-0.1-0.1-0.4-0.1-0.7,0.4c-0.9,1.2-1.7,2.5-2.4,3.9c-0.4,0.6-1.8,1-2.4,0.2
	c-0.4-0.5-0.8-1-1.2-1.5l-1.4-1.2c-0.6-0.6-0.7-1.5-0.1-2.1c0.1-0.1,0.1-0.1,0.2-0.2c1.4-0.7,2.7-1.5,4-2.4c0.4-0.4,0.4-0.6,0.4-0.8
	c-0.5-0.5-0.9-1.1-1.2-1.7c-0.1-0.1-0.3-0.2-0.9,0c-0.6,0.2-3,2.4-3.7,2.8c-0.8,0.4-1.8,0.1-2.2-0.7c0,0,0-0.1,0-0.1
	c-0.1-0.6-0.3-1.2-0.6-1.8c-0.2-0.6-0.5-1.1-0.8-1.6c-0.6-0.9,0.3-2,1-2.2c1.6,0,3.1-0.2,4.6-0.6c0.5-0.2,0.6-0.4,0.6-0.6
	c-0.2-0.7-0.3-1.4-0.4-2.1c0-0.1-0.2-0.3-0.8-0.2c-1.5,0.3-3,0.6-4.5,1.1c-0.7,0.1-1.9-0.5-1.7-1.5c0.2-1,0.1-1.9,0.1-1.9
	s0-0.9-0.1-1.9s1-1.7,1.7-1.6c1.5,0.5,3,0.9,4.5,1.2c0.6,0,0.8-0.2,0.8-0.3c0.1-0.7,0.2-1.4,0.4-2.1c0-0.1-0.1-0.4-0.6-0.5
	c-1.5-0.3-3.1-0.6-4.6-0.7c-0.8-0.2-1.3-1-1.1-1.8c0-0.1,0.1-0.2,0.1-0.3c0.3-0.5,0.6-1.1,0.8-1.7c0.3-0.6,0.5-1.2,0.6-1.8
	c0.3-0.8,1.2-1.1,2-0.8c0.1,0,0.2,0.1,0.2,0.1c1.2,1,2.4,1.9,3.7,2.7c0.6,0.3,0.8,0.2,0.9,0.1c0.3-0.6,0.7-1.2,1.2-1.8
	c0-0.3-0.2-0.6-0.4-0.7c-1.3-0.9-2.6-1.7-4-2.4c-0.7-0.6-0.8-1.6-0.2-2.3c0-0.1,0.1-0.1,0.1-0.1l1.4-1.2C8,11,8.4,10.5,8.8,10
	c0.6-0.8,2-0.4,2.4,0.1c0.6,1.4,1.4,2.8,2.4,4c0.1,0.2,0.4,0.4,0.7,0.4l1.8-1.2c0.1-0.3,0.1-0.6-0.1-0.8c-0.8-1.4-1.7-2.6-2.8-3.7
	c-0.3-0.6-0.2-2,0.8-2.3c0.6-0.1,1.2-0.3,1.8-0.6l1.7-0.8c0.8-0.5,1.9,0.3,2.1,1c0.1,1.5,0.4,3.1,0.7,4.6c0.1,0.5,0.4,0.6,0.5,0.6
	l2.1-0.4c0.1,0,0.3-0.2,0.2-0.8c-0.2-1.5-0.6-3-1.1-4.5c-0.1-0.6,0.6-1.9,1.6-1.7h1.8v50.6L23.6,54.7z"/>
<path class="st2" d="M274.6,50l7.1-40.4h9.4c6.2,0,10.2,3.7,8.7,11.9l-2.9,16.9c-1.5,8-5.6,11.6-11.8,11.6L274.6,50z M285.1,45.5
	c3.1,0,5.9-2.2,6.8-7.4l3-16.5c0.8-5.2-1.1-7.4-4.3-7.4h-4.7l-5.5,31.3H285.1z"/>
<path class="st2" d="M301,41.3l2.1-11.9c1.1-6,4.2-9.1,8.6-9.1c2.7,0,4.8,1.5,5.3,3.8l0.6-3.2h4.7L317.2,50h-4.8l0.6-2.8
	c-1.2,2.2-3.4,3.5-5.9,3.4C302.6,50.6,299.9,47.4,301,41.3z M314,41.2l1.9-11.3c0.7-3.4-0.6-5.3-3.1-5.3s-4.4,1.9-5,5.2l-2,11.4
	c-0.6,3.3,0.7,5.1,3.3,5.1S313.4,44.5,314,41.2z"/>
<path class="st2" d="M334.4,49.7c-1.4,0.6-3,0.9-4.6,0.9c-3.9,0-5.8-2.2-5.1-7l3.4-18.8h-3.3l0.8-3.9c3.8,0,5.1-0.2,6.9-9.5h3.2
	l-1.8,9.5h5.4l-0.7,3.9h-5.7l-3.2,18c-0.5,2.5,0.4,3.4,1.8,3.4c1.3-0.1,2.6-0.5,3.7-1.2L334.4,49.7z"/>
<path class="st2" d="M338.6,41.3l2.1-11.9c1.1-6,4.2-9.1,8.6-9.1c2.7,0,4.8,1.5,5.3,3.8l0.6-3.2h4.8L354.8,50H350l0.6-2.8
	c-1.2,2.2-3.4,3.5-5.9,3.4C340.2,50.6,337.5,47.4,338.6,41.3z M351.6,41.2l1.9-11.3c0.7-3.4-0.6-5.3-3.1-5.3s-4.4,1.9-5,5.2l-2,11.4
	c-0.6,3.3,0.7,5.1,3.3,5.1S351,44.5,351.6,41.2z"/>
<path class="st2" d="M374.4,50h-5l7.2-40.4h9.6c5.7,0,9.2,3.1,8.1,9.3l-1.3,7.2c-1,5.9-4.5,8.9-10.1,8.9H377L374.4,50z M388,25.6
	l1.2-6.4c0.6-3.4-1.1-5-4.2-5h-4.3l-2.9,16.5h4.4C385.2,30.7,387.4,29.2,388,25.6z"/>
<path class="st2" d="M394.1,41.1l2-11.3c1.1-6.4,5-9.5,10-9.5s8.8,3.1,7.7,9.6l-2.1,11.4c-1,6.3-4.9,9.3-9.9,9.3
	S392.9,47.6,394.1,41.1z M407,41.2l2-11.4c0.6-3.3-0.7-5.2-3.2-5.2s-4.3,1.9-4.9,5.3l-2,11.3c-0.6,3.3,0.6,5.1,3.1,5.1
	S406.4,44.5,407,41.2z"/>
<path class="st2" d="M420.2,20.9h4.8l-0.6,3.6c1.6-3.1,4-4.2,8-4.2l-1.1,5.5c-0.7-0.3-1.5-0.5-2.3-0.5c-3.9,0-5.3,3-6.3,8.6
	L419.9,50h-4.8L420.2,20.9z"/>
<path class="st2" d="M442.1,49.7c-1.4,0.6-3,0.9-4.5,0.9c-4,0-5.9-2.2-5.2-7l3.4-18.8h-3.2l0.7-3.9c3.8,0,5.1-0.2,6.9-9.5h3.2
	l-1.7,9.5h5.3l-0.7,3.9h-5.7l-3.2,18c-0.4,2.5,0.5,3.4,1.8,3.4c1.3-0.1,2.6-0.5,3.7-1.2L442.1,49.7z"/>
<path class="st2" d="M446.3,41.3l2.1-11.9c1.1-6,4.2-9.1,8.6-9.1c2.7,0,4.8,1.5,5.3,3.8l0.6-3.2h4.8L462.5,50h-4.8l0.6-2.8
	c-1.2,2.2-3.4,3.5-5.9,3.4C447.9,50.6,445.2,47.4,446.3,41.3z M459.3,41.2l1.9-11.3c0.7-3.4-0.6-5.3-3.1-5.3s-4.4,1.9-5,5.2l-2,11.4
	c-0.6,3.3,0.7,5.1,3.3,5.1S458.7,44.5,459.3,41.2z"/>
<path class="st2" d="M472.7,50h-2.2c-1.9,0-2.4-0.8-2.1-2.8L475,9.6h4.9L472.7,50z"/>
<path class="st3" d="M93.8,35l-0.6,3c-1.5,8.6-6.6,12.6-13.2,12.6s-12.2-4-10.5-13.4l2.9-16.6C73.9,12,78.7,7.9,85.7,7.9
	S97.8,12,96.2,21.1l-0.5,2.5l-7.2,0.5l0.3-2.5c0.8-3.7-0.6-5.2-3-5.2s-4.3,1.5-5,5.2l-2.7,15.2c-0.6,3.9,0.8,5.4,3.2,5.4
	s4.2-1.5,4.9-5.4l0.4-2.4L93.8,35z"/>
<path class="st3" d="M126.2,21.3l-3,16.7c-1.4,8.6-6.9,12.6-13.9,12.6s-12.8-4-11.2-13.4l2.9-16.6c1.5-8.6,7-12.7,14.1-12.7
	S127.8,12,126.2,21.3z M109.5,21.6l-2.8,15.2c-0.6,3.9,0.8,5.4,3.2,5.4s4.2-1.5,4.9-5.4l2.7-15.2c0.7-3.7-0.7-5.2-3.1-5.2
	S110.1,17.9,109.5,21.6z"/>
<path class="st3" d="M149.9,8.5h8.1L142.6,50h-10.2l-1.1-41.5h9.4l-0.2,27L149.9,8.5z"/>
<path class="st3" d="M171,8.5L163.7,50h-8.6l7.3-41.5H171z"/>
<path class="st3" d="M170.2,50l7.3-41.5h11.2c7,0,12.2,3.8,10.5,12.9l-2.9,16.3c-1.5,8.7-6.1,12.3-13.1,12.3H170.2z M183,42
	c2.3,0,4.2-1.5,4.9-5.4l2.6-14.7c0.7-3.8-0.7-5.3-3.1-5.3h-2.7L180.2,42L183,42z"/>
<path class="st3" d="M203.7,28.3h15.7l-1.2,6.3h-15.6L203.7,28.3z"/>
<path class="st3" d="M228.2,12.3l7.5-3.8h1.8L230.2,50h-8.7L228.2,12.3z"/>
<path class="st3" d="M254.2,32.4c-1.5,2.1-4,3.3-6.6,3.3c-5.3,0-8.6-3.2-7.5-9.9l1.1-5.5c1.4-8.3,5.6-12.4,12.8-12.4
	s12.3,4.1,10.9,12.4l-3,16.8c-1.5,8.3-5.5,13.5-13.5,13.5s-11.5-4.1-10.4-10.5l0.3-1.6l7.3-0.6v0.8c-0.5,2.5,0.4,4.2,2.9,4.2
	s4.4-2.1,5-5.6L254.2,32.4z M256.2,20.5c0.5-3.1-0.4-4.9-2.9-4.9s-4.1,1.8-4.8,4.9l-0.7,4.2c-0.5,3,0.3,4.9,2.9,4.9
	c2.6,0,4.2-1.9,4.7-4.9L256.2,20.5z"/>
<path class="st0" d="M385.1,85.7h-4.6l3.9-22.1h6.5c3.6,0,5.6,1.8,5,5.7l-0.7,3.7c-0.6,3.4-2.4,5.1-5.7,5.1h-3L385.1,85.7z
	 M390.7,72.3l0.5-2.5c0.2-1.3-0.3-1.9-1.6-1.9h-1.4l-1.1,6.4h1.5C389.8,74.3,390.5,73.7,390.7,72.3L390.7,72.3z"/>
<path class="st0" d="M410.9,70.4l-1.5,8.9c-0.8,4.6-3.7,6.7-7.5,6.7s-6.8-2.1-5.9-7.1l1.5-8.9c0.8-4.5,3.7-6.7,7.5-6.7
	S411.8,65.5,410.9,70.4z M402,70.6l-1.4,8.1c-0.4,2.1,0.4,2.9,1.6,2.9s2.3-0.8,2.7-2.9l1.4-8.1c0.4-2-0.4-2.8-1.6-2.8
	S402.4,68.6,402,70.6z"/>
<path class="st0" d="M414.5,63.6h4.5l-3.1,17.6h5.4l-0.8,4.5h-9.9L414.5,63.6z"/>
<path class="st0" d="M429.5,63.6h6l0.2,22.1h-5.1v-4h-3.9l-1.5,4h-4.3L429.5,63.6z M427.7,78h3.1v-8.8L427.7,78z"/>
<path class="st0" d="M446.3,63.6l2.2,13.7l2.4-13.7h3.5l-3.9,22.1h-4.3l-2.7-15l-2.6,15h-3.5l3.9-22.1H446.3z"/>
<path class="st0" d="M453.1,85.7l3.9-22.1h6c3.7,0,6.5,2,5.6,6.9l-1.5,8.7c-0.9,4.6-3.3,6.5-7,6.5H453.1z M459.9,81.4
	c1.3,0,2.3-0.8,2.7-2.8l1.4-7.9c0.3-2-0.4-2.8-1.7-2.8h-1.4l-2.4,13.5L459.9,81.4z"/>
</svg>
