<?xml version="1.0" encoding="utf-8"?>
<!-- Generator: Adobe Illustrator 25.0.0, SVG Export Plug-In . SVG Version: 6.00 Build 0)  -->
<svg version="1.1" id="Layer_1" xmlns="http://www.w3.org/2000/svg" xmlns:xlink="http://www.w3.org/1999/xlink" x="0px" y="0px"
	 viewBox="0 0 491.5 110.8" style="enable-background:new 0 0 491.5 110.8;" xml:space="preserve">
<style type="text/css">
	.st0{fill:#3B9DD8;}
	.st1{fill:#FFFFFF;}
	.st2{fill:#DE2C6C;}
</style>
<g>
	<g>
		<path class="st0" d="M31,12.9v3.3c0.2,0,0.9,0,1.8-0.1c1-0.2,1.7,1.1,1.6,1.8c-0.1,0.8-0.9,2.4-1.1,4.5c-0.1,0.6,0.1,0.8,0.2,0.8
			c0.7,0.1,1.4,0.2,2.1,0.4c0.1,0,0.4-0.1,0.5-0.6c0.6-2,0.5-3.8,0.7-4.6c0.2-0.7,1.2-1.6,2.1-1c0.9,0.5,1.7,0.8,1.7,0.8
			s0.8,0.4,1.8,0.6c1,0.2,1.1,1.6,0.8,2.2c-0.4,0.7-1.7,1.9-2.8,3.7c-0.3,0.5-0.2,0.7-0.1,0.8c0.6,0.4,1.2,0.8,1.8,1.2
			c0.1,0,0.4,0.1,0.7-0.4c1.3-1.6,1.9-3.3,2.4-4c0.4-0.6,1.7-1,2.3-0.1c0.6,0.8,1.2,1.4,1.2,1.4s0.6,0.6,1.4,1.2
			c0.8,0.6,0.4,1.9-0.1,2.3c-0.7,0.5-2.3,1-4,2.4c-0.4,0.4-0.4,0.6-0.4,0.7c0.4,0.6,0.8,1.2,1.2,1.8c0.1,0.1,0.3,0.2,0.8-0.1
			c1.9-1,3-2.3,3.7-2.8c0.6-0.4,2-0.2,2.2,0.8c0.2,1,0.6,1.8,0.6,1.8s0.3,0.8,0.8,1.7c0.5,0.9-0.3,2-1,2.1c-0.8,0.2-2.5,0.1-4.6,0.7
			c-0.5,0.2-0.6,0.4-0.6,0.5c0.2,0.7,0.3,1.4,0.4,2.1c0,0.1,0.2,0.3,0.8,0.2c2.1-0.2,3.7-1,4.5-1.1c0.7-0.1,1.9,0.5,1.8,1.6
			c-0.2,1-0.1,1.9-0.1,1.9s0,0.9,0.1,1.9c0.2,1-1.1,1.7-1.8,1.6c-0.8-0.1-2.4-0.9-4.5-1.1c-0.6-0.1-0.8,0.1-0.8,0.2
			c-0.1,0.7-0.2,1.4-0.4,2.1c0,0.1,0.1,0.4,0.6,0.5c2,0.6,3.8,0.5,4.6,0.7c0.7,0.2,1.6,1.2,1,2.1c-0.5,0.9-0.8,1.7-0.8,1.7
			s-0.4,0.8-0.6,1.8s-1.6,1.1-2.2,0.8c-0.7-0.4-1.9-1.7-3.7-2.8c-0.5-0.3-0.7-0.2-0.8-0.1c-0.4,0.6-0.8,1.2-1.2,1.8
			c0,0.1-0.1,0.4,0.4,0.7c1.6,1.3,3.3,1.9,4,2.4c0.6,0.4,1,1.7,0.1,2.3c-0.8,0.6-1.4,1.2-1.4,1.2s-0.6,0.6-1.2,1.4
			c-0.6,0.8-1.9,0.4-2.3-0.1c-0.5-0.7-1-2.3-2.4-4c-0.4-0.4-0.6-0.4-0.7-0.4c-0.6,0.4-1.2,0.8-1.8,1.2c-0.1,0.1-0.2,0.3,0.1,0.8
			c1,1.9,2.3,3,2.8,3.7c0.4,0.6,0.2,2-0.8,2.2c-1,0.2-1.8,0.6-1.8,0.6s-0.8,0.3-1.7,0.8c-0.9,0.5-2-0.3-2.1-1
			c-0.2-0.8-0.1-2.5-0.7-4.6c-0.2-0.5-0.4-0.6-0.5-0.6c-0.7,0.2-1.4,0.3-2.1,0.4c-0.1,0-0.3,0.2-0.2,0.8c0.2,2.1,1,3.7,1.1,4.5
			c0.1,0.7-0.5,1.9-1.6,1.8c-0.9-0.1-1.7-0.1-1.8-0.1v3.6h26.8l10.6-57.4H31z"/>
		<path class="st1" d="M32.9,66.9c1,0.2,1.7-1.1,1.6-1.8c-0.1-0.8-0.9-2.4-1.1-4.5c-0.1-0.6,0.1-0.8,0.2-0.8
			c0.7-0.1,1.4-0.2,2.1-0.4c0.1,0,0.4,0.1,0.5,0.6c0.6,2,0.5,3.8,0.7,4.6c0.2,0.7,1.2,1.6,2.1,1c0.9-0.5,1.7-0.8,1.7-0.8
			s0.8-0.4,1.8-0.6c1-0.2,1.1-1.6,0.8-2.2c-0.4-0.7-1.7-1.9-2.8-3.7c-0.3-0.5-0.2-0.7-0.1-0.8c0.6-0.4,1.2-0.8,1.8-1.2
			c0.1,0,0.4-0.1,0.7,0.4c1.3,1.6,1.9,3.3,2.4,4c0.4,0.6,1.7,1,2.3,0.1c0.6-0.8,1.2-1.4,1.2-1.4s0.6-0.6,1.4-1.2
			c0.8-0.6,0.4-1.9-0.1-2.3c-0.7-0.5-2.3-1-4-2.4c-0.4-0.4-0.4-0.6-0.4-0.7c0.4-0.6,0.8-1.2,1.2-1.8c0.1-0.1,0.3-0.2,0.8,0.1
			c1.9,1,3,2.3,3.7,2.8c0.6,0.4,2,0.2,2.2-0.8s0.6-1.8,0.6-1.8s0.3-0.8,0.8-1.7c0.5-0.9-0.3-2-1-2.1c-0.8-0.2-2.5-0.1-4.6-0.7
			c-0.5-0.2-0.6-0.4-0.6-0.5c0.2-0.7,0.3-1.4,0.4-2.1c0-0.1,0.2-0.3,0.8-0.2c2.1,0.2,3.7,1,4.5,1.1c0.7,0.1,1.9-0.5,1.8-1.6
			c-0.2-1-0.1-1.9-0.1-1.9s0-0.9,0.1-1.9c0.2-1-1.1-1.7-1.8-1.6c-0.8,0.1-2.4,0.9-4.5,1.1c-0.6,0.1-0.8-0.1-0.8-0.2
			c-0.1-0.7-0.2-1.4-0.4-2.1c0-0.1,0.1-0.4,0.6-0.5c2-0.6,3.8-0.5,4.6-0.7c0.7-0.2,1.6-1.2,1-2.1c-0.5-0.9-0.8-1.7-0.8-1.7
			S54,31,53.7,30c-0.2-1-1.6-1.1-2.2-0.8c-0.7,0.4-1.9,1.7-3.7,2.8c-0.5,0.3-0.7,0.2-0.8,0.1c-0.4-0.6-0.8-1.2-1.2-1.8
			c0-0.1-0.1-0.4,0.4-0.7c1.6-1.3,3.3-1.9,4-2.4c0.6-0.4,1-1.7,0.1-2.3c-0.8-0.6-1.4-1.2-1.4-1.2s-0.6-0.6-1.2-1.4
			c-0.6-0.8-1.9-0.4-2.3,0.1c-0.5,0.7-1,2.3-2.4,4c-0.4,0.4-0.6,0.4-0.7,0.4c-0.6-0.4-1.2-0.8-1.8-1.2c-0.1-0.1-0.2-0.3,0.1-0.8
			c1-1.9,2.3-3,2.8-3.7c0.4-0.6,0.2-2-0.8-2.2c-1-0.2-1.8-0.6-1.8-0.6s-0.8-0.3-1.7-0.8c-0.9-0.5-2,0.3-2.1,1
			c-0.2,0.8-0.1,2.5-0.7,4.6c-0.2,0.5-0.4,0.6-0.5,0.6c-0.7-0.2-1.4-0.3-2.1-0.4c-0.1,0-0.3-0.2-0.2-0.8c0.2-2.1,1-3.7,1.1-4.5
			c0.1-0.7-0.5-1.9-1.6-1.8c-0.9,0.1-1.7,0.1-1.8,0.1v50.5C31.2,66.7,32,66.7,32.9,66.9z"/>
	</g>
	<path class="st2" d="M29.2,67c-1,0.2-1.7-1.1-1.6-1.8c0.1-0.8,0.9-2.4,1.1-4.5c0.1-0.6-0.1-0.8-0.2-0.8c-0.7-0.1-1.4-0.2-2.1-0.4
		c-0.1,0-0.4,0.1-0.5,0.6c-0.6,2-0.5,3.8-0.7,4.6c-0.2,0.7-1.2,1.6-2.1,1c-0.9-0.5-1.7-0.8-1.7-0.8s-0.8-0.4-1.8-0.6
		c-1-0.2-1.1-1.6-0.8-2.2c0.4-0.7,1.7-1.9,2.8-3.7c0.3-0.5,0.2-0.7,0.1-0.8c-0.6-0.4-1.2-0.8-1.8-1.2c-0.1,0-0.4-0.1-0.7,0.4
		c-1.3,1.6-1.9,3.3-2.4,4c-0.4,0.6-1.7,1-2.3,0.1c-0.6-0.8-1.2-1.4-1.2-1.4s-0.6-0.6-1.4-1.2c-0.8-0.6-0.4-1.9,0.1-2.3
		c0.7-0.5,2.3-1,4-2.4c0.4-0.4,0.4-0.6,0.4-0.7c-0.4-0.6-0.8-1.2-1.2-1.8c-0.1-0.1-0.3-0.2-0.8,0.1c-1.9,1-3,2.3-3.7,2.8
		c-0.6,0.4-2,0.2-2.2-0.8c-0.2-1-0.6-1.8-0.6-1.8s-0.3-0.8-0.8-1.7c-0.5-0.9,0.3-2,1-2.1c0.8-0.2,2.5-0.1,4.6-0.7
		c0.5-0.2,0.6-0.4,0.6-0.5c-0.2-0.7-0.3-1.4-0.4-2.1c0-0.1-0.2-0.3-0.8-0.2c-2.1,0.2-3.7,1-4.5,1.1c-0.7,0.1-1.9-0.5-1.8-1.6
		c0.2-1,0.1-1.9,0.1-1.9s0-0.9-0.1-1.9c-0.2-1,1.1-1.7,1.8-1.6c0.8,0.1,2.4,0.9,4.5,1.1c0.6,0.1,0.8-0.1,0.8-0.2
		c0.1-0.7,0.2-1.4,0.4-2.1c0-0.1-0.1-0.4-0.6-0.5c-2-0.6-3.8-0.5-4.6-0.7c-0.7-0.2-1.6-1.2-1-2.1c0.5-0.9,0.8-1.7,0.8-1.7
		s0.4-0.8,0.6-1.8c0.2-1,1.6-1.1,2.2-0.8c0.7,0.4,1.9,1.7,3.7,2.8c0.5,0.3,0.7,0.2,0.8,0.1c0.4-0.6,0.8-1.2,1.2-1.8
		c0-0.1,0.1-0.4-0.4-0.7c-1.6-1.3-3.3-1.9-4-2.4c-0.6-0.4-1-1.7-0.1-2.3c0.8-0.6,1.4-1.2,1.4-1.2s0.6-0.6,1.2-1.4
		c0.6-0.8,1.9-0.4,2.3,0.1c0.5,0.7,1,2.3,2.4,4c0.4,0.4,0.6,0.4,0.7,0.4c0.6-0.4,1.2-0.8,1.8-1.2c0.1-0.1,0.2-0.3-0.1-0.8
		c-1-1.9-2.3-3-2.8-3.7c-0.4-0.6-0.2-2,0.8-2.2c1-0.2,1.8-0.6,1.8-0.6s0.8-0.3,1.7-0.8c0.9-0.5,2,0.3,2.1,1c0.2,0.8,0.1,2.5,0.7,4.6
		c0.2,0.5,0.4,0.6,0.5,0.6c0.7-0.2,1.4-0.3,2.1-0.4c0.1,0,0.3-0.2,0.2-0.8c-0.2-2.1-1-3.7-1.1-4.5c-0.1-0.7,0.5-1.9,1.6-1.8
		c0.9,0.1,1.7,0.1,1.8,0.1v50.5C30.9,66.8,30.1,66.8,29.2,67z"/>
	<g>
		<g>
			<path class="st2" d="M280.2,62.3l7.1-40.4h9.4c6.2,0,10.2,3.7,8.7,11.8l-3,17c-1.4,8-5.5,11.6-11.8,11.6H280.2z M290.7,57.8
				c3.2,0,5.9-2.1,6.8-7.4l2.9-16.5c0.8-5.2-1.1-7.4-4.2-7.4h-4.8L286,57.8H290.7z"/>
			<path class="st2" d="M306.6,53.6l2.1-11.9c1.1-6,4.2-9.1,8.6-9.1c2.7,0,4.8,1.5,5.3,3.8l0.6-3.2h4.8l-5.2,29.2H318l0.6-2.9
				c-1.3,2.3-3.3,3.5-6,3.5C308.2,62.9,305.5,59.7,306.6,53.6z M319.6,53.5l2-11.3c0.7-3.4-0.6-5.2-3.1-5.2c-2.5,0-4.4,1.8-5,5.2
				l-2,11.4c-0.6,3.3,0.7,5.1,3.3,5.1C317.1,58.6,319,56.8,319.6,53.5z"/>
			<path class="st2" d="M340,62c-1.3,0.5-2.7,0.9-4.5,0.9c-4,0-5.9-2.3-5.1-7l3.3-18.8h-3.2l0.7-3.9c3.9,0,5.2-0.2,7-9.5h3.2
				l-1.7,9.5h5.4l-0.7,3.9h-5.7l-3.2,18c-0.5,2.6,0.4,3.4,1.8,3.4c1.3,0,2.6-0.5,3.7-1.2L340,62z"/>
			<path class="st2" d="M344.2,53.6l2.1-11.9c1.1-6,4.2-9.1,8.6-9.1c2.7,0,4.8,1.5,5.3,3.8l0.6-3.2h4.8l-5.2,29.2h-4.8l0.6-2.9
				c-1.3,2.3-3.3,3.5-6,3.5C345.8,62.9,343.1,59.7,344.2,53.6z M357.2,53.5l2-11.3c0.7-3.4-0.6-5.2-3.1-5.2c-2.5,0-4.4,1.8-5,5.2
				l-2,11.4c-0.6,3.3,0.7,5.1,3.3,5.1C354.7,58.6,356.6,56.8,357.2,53.5z"/>
			<path class="st2" d="M380,62.3h-5l7.1-40.4h9.6c5.7,0,9.2,3,8.1,9.2l-1.3,7.2c-1,5.9-4.5,8.9-10.1,8.9h-5.9L380,62.3z
				 M393.6,37.9l1.1-6.4c0.6-3.5-1.1-5-4.2-5h-4.3L383.4,43h4.4C390.8,43,393,41.5,393.6,37.9z"/>
			<path class="st2" d="M399.7,53.4l2-11.3c1.1-6.4,5-9.5,10-9.5c5.1,0,8.9,3.1,7.7,9.6l-2,11.4c-1.1,6.3-4.9,9.3-9.9,9.3
				C402.4,62.9,398.5,59.9,399.7,53.4z M412.6,53.5l2-11.4c0.6-3.3-0.7-5.2-3.2-5.2c-2.4,0-4.3,1.8-4.9,5.2l-2,11.3
				c-0.6,3.3,0.7,5.1,3.1,5.1C410.1,58.6,412,56.8,412.6,53.5z"/>
			<path class="st2" d="M425.8,33.2h4.8l-0.6,3.6c1.6-3,4-4.2,8-4.2l-1.1,5.5c-0.5-0.3-1.8-0.5-2.3-0.5c-3.9,0-5.3,2.9-6.3,8.5
				l-2.8,16.2h-4.8L425.8,33.2z"/>
			<path class="st2" d="M447.7,62c-1.3,0.5-2.7,0.9-4.5,0.9c-4,0-5.9-2.3-5.1-7l3.3-18.8h-3.2l0.7-3.9c3.9,0,5.2-0.2,7-9.5h3.2
				l-1.7,9.5h5.4l-0.7,3.9h-5.7l-3.2,18c-0.5,2.6,0.4,3.4,1.8,3.4c1.3,0,2.6-0.5,3.7-1.2L447.7,62z"/>
			<path class="st2" d="M451.9,53.6l2.1-11.9c1.1-6,4.2-9.1,8.6-9.1c2.7,0,4.8,1.5,5.3,3.8l0.6-3.2h4.8l-5.2,29.2h-4.8l0.6-2.9
				c-1.3,2.3-3.3,3.5-6,3.5C453.5,62.9,450.8,59.7,451.9,53.6z M464.9,53.5l2-11.3c0.7-3.4-0.6-5.2-3.1-5.2c-2.5,0-4.4,1.8-5,5.2
				l-2,11.4c-0.6,3.3,0.7,5.1,3.3,5.1C462.4,58.6,464.3,56.8,464.9,53.5z"/>
			<path class="st2" d="M478.3,62.3h-2.2c-2,0-2.4-0.8-2.1-2.8l6.6-37.6h4.8L478.3,62.3z"/>
		</g>
		<g>
			<g>
				<path d="M99.4,47.3l-0.6,3c-1.5,8.6-6.6,12.7-13.3,12.7c-7,0-12.2-4-10.5-13.4L78,32.9c1.5-8.6,6.3-12.7,13.3-12.7
					c6.7,0,12.2,4.1,10.6,13.1l-0.5,2.6l-7.3,0.5l0.4-2.5c0.7-3.7-0.7-5.3-3.1-5.3c-2.4,0-4.3,1.5-5,5.3l-2.7,15.2
					c-0.7,3.9,0.7,5.4,3.1,5.4c2.4,0,4.2-1.5,5-5.4l0.4-2.4L99.4,47.3z"/>
				<path d="M131.8,33.6l-2.9,16.7c-1.5,8.6-6.9,12.7-14,12.7c-7,0-12.8-4-11.2-13.4l2.9-16.6c1.5-8.6,7-12.7,14.1-12.7
					C127.6,20.2,133.4,24.3,131.8,33.6z M115.1,33.9l-2.8,15.2c-0.7,3.9,0.7,5.4,3.1,5.4c2.4,0,4.3-1.5,4.9-5.4l2.7-15.2
					c0.7-3.7-0.7-5.3-3.1-5.3C117.7,28.7,115.7,30.2,115.1,33.9z"/>
				<path d="M155.5,20.8h8.1l-15.4,41.5H138l-1.1-41.5h9.4l-0.2,27L155.5,20.8z"/>
				<path d="M176.6,20.8l-7.3,41.5h-8.6l7.3-41.5H176.6z"/>
				<path d="M175.8,62.3l7.3-41.5h11.2c7,0,12.2,3.7,10.5,12.9L201.9,50c-1.5,8.6-6.1,12.3-13.1,12.3H175.8z M188.6,54.3
					c2.4,0,4.3-1.5,4.9-5.4l2.6-14.7c0.6-3.7-0.7-5.3-3.1-5.3h-2.7l-4.5,25.4H188.6z"/>
				<path d="M209.3,40.6H225l-1.2,6.3h-15.6L209.3,40.6z"/>
				<path d="M233.8,24.6l7.5-3.8h1.8l-7.3,41.5h-8.7L233.8,24.6z"/>
				<path d="M259.8,44.7c-1.3,1.7-3.2,3.3-6.5,3.3c-5.3,0-8.7-3.2-7.5-10l1-5.5c1.4-8.3,5.6-12.3,12.9-12.3c8,0,12.3,4,10.8,12.3
					l-3,16.9C266,57.7,262,62.9,254,62.9c-8.1,0-11.5-4.2-10.3-10.6l0.2-1.6l7.3-0.5l-0.1,0.7c-0.5,2.6,0.4,4.2,2.9,4.2
					c2.6,0,4.3-2.1,4.9-5.6L259.8,44.7z M261.8,32.8c0.6-3.1-0.4-4.9-2.9-4.9c-2.6,0-4.1,1.8-4.7,4.9l-0.7,4.2
					c-0.5,2.9,0.3,4.9,2.9,4.9c2.6,0,4.2-2,4.6-4.9L261.8,32.8z"/>
			</g>
		</g>
	</g>
</g>
<g>
	<path class="st0" d="M366.4,92.5l0.2-1.3l3.6-0.3L370,92c-0.4,2.6,0,3.5,1.5,3.5c1.6,0,2.7-1.3,2.7-3.4c0-0.9-0.4-1.6-1-2.1l-2.5-2
		c-1.7-1.4-2.4-2.6-2.4-4.7c0-3.7,2.3-7.2,6.9-7.2c3.4,0,6.1,1.5,5.4,5.6l-0.3,1.6l-3.6,0.3l0.2-1.3c0.3-1.6,0-2.8-1.4-2.8
		c-1.4,0-2.3,1.4-2.3,3.1c0,0.9,0.3,1.5,1.2,2.2l2.6,2c1.3,1,2.1,2.3,2.1,4.6c0,3.7-1.7,7.6-7.3,7.6C368,99.2,365.5,97.3,366.4,92.5
		z"/>
	<path class="st0" d="M383.9,76.4h4.6l-3.1,17.9h5.4l-0.8,4.6H380L383.9,76.4z"/>
	<path class="st0" d="M407.5,83.3l-1.6,9c-0.8,4.7-3.7,6.8-7.6,6.8c-3.8,0-6.9-2.2-6-7.3l1.6-9c0.8-4.6,3.8-6.8,7.6-6.8
		C405.3,76.1,408.4,78.3,407.5,83.3z M398.5,83.5l-1.5,8.2c-0.4,2.1,0.4,2.9,1.7,2.9c1.3,0,2.3-0.8,2.7-2.9l1.5-8.2
		c0.4-2-0.4-2.8-1.7-2.8C399.9,80.6,398.8,81.5,398.5,83.5z"/>
	<path class="st0" d="M419.5,76.4h4.4l-8.3,22.4H410l-0.6-22.4h5.1L414.4,91L419.5,76.4z"/>
	<path class="st0" d="M425.4,76.4h10.8l-0.8,4.6h-6.1l-0.8,4.6h4.4l-0.7,3.7h-4.3l-0.9,5h6.1l-0.8,4.6h-10.8L425.4,76.4z"/>
	<path class="st0" d="M443.4,76.4l2.2,13.8l2.4-13.8h3.6l-4,22.4h-4.4l-2.7-15.2l-2.7,15.2h-3.5l4-22.4H443.4z"/>
	<path class="st0" d="M458.9,76.4l-4,22.4h-4.6l4-22.4H458.9z"/>
	<path class="st0" d="M465.1,76.4h6l0.3,22.4h-5.2v-4.1h-4l-1.5,4.1h-4.4L465.1,76.4z M463.3,91h3.1l0.1-8.9L463.3,91z"/>
</g>
</svg>
