<?xml version="1.0" encoding="UTF-8" standalone="no"?>
<svg
   xmlns:dc="http://purl.org/dc/elements/1.1/"
   xmlns:cc="http://creativecommons.org/ns#"
   xmlns:rdf="http://www.w3.org/1999/02/22-rdf-syntax-ns#"
   xmlns:svg="http://www.w3.org/2000/svg"
   xmlns="http://www.w3.org/2000/svg"
   xmlns:sodipodi="http://sodipodi.sourceforge.net/DTD/sodipodi-0.dtd"
   xmlns:inkscape="http://www.inkscape.org/namespaces/inkscape"
   version="1.1"
   id="Layer_1"
   x="0px"
   y="0px"
   width="300"
   height="65"
   viewBox="0 0 300 65"
   enable-background="new 0 0 300 89"
   xml:space="preserve"
   sodipodi:docname="CDP-19_Turkey.svg"
   inkscape:version="1.0.2 (e86c870879, 2021-01-15, custom)"><metadata
   id="metadata75"><rdf:RDF><cc:Work
       rdf:about=""><dc:format>image/svg+xml</dc:format><dc:type
         rdf:resource="http://purl.org/dc/dcmitype/StillImage" /><dc:title></dc:title></cc:Work></rdf:RDF></metadata><defs
   id="defs73"><clipPath
     clipPathUnits="userSpaceOnUse"
     id="clipPath102"><rect
       style="fill:#ffff00;fill-rule:evenodd"
       id="rect104"
       width="300"
       height="60"
       x="0"
       y="15" /></clipPath><clipPath
     clipPathUnits="userSpaceOnUse"
     id="clipPath106"><rect
       style="fill:#ffff00;fill-rule:evenodd"
       id="rect108"
       width="300"
       height="60"
       x="0"
       y="15" /></clipPath></defs><sodipodi:namedview
   pagecolor="#ffffff"
   bordercolor="#666666"
   borderopacity="1"
   objecttolerance="10"
   gridtolerance="10"
   guidetolerance="10"
   inkscape:pageopacity="0"
   inkscape:pageshadow="2"
   inkscape:window-width="1814"
   inkscape:window-height="1019"
   id="namedview71"
   showgrid="true"
   inkscape:zoom="4.05"
   inkscape:cx="150"
   inkscape:cy="44.5"
   inkscape:window-x="2654"
   inkscape:window-y="139"
   inkscape:window-maximized="0"
   inkscape:current-layer="Layer_1"
   inkscape:document-rotation="0"><inkscape:grid
     type="xygrid"
     id="grid77" /></sodipodi:namedview>
<g
   id="g54"
   clip-path="url(#clipPath106)"
   transform="translate(-0.99,-12.965)">
	<g
   id="g6">
		<path
   fill="#3e9dd7"
   d="m 20.707,17.476 v 1.994 c 0.12,0 0.542,0 1.087,-0.06 0.604,-0.121 1.027,0.664 0.967,1.087 -0.061,0.484 -0.544,1.45 -0.665,2.719 -0.06,0.364 0.062,0.483 0.121,0.483 0.423,0.062 0.846,0.122 1.27,0.243 0.06,0 0.241,-0.06 0.302,-0.362 0.362,-1.209 0.302,-2.296 0.423,-2.781 0.121,-0.423 0.726,-0.965 1.27,-0.604 0.542,0.302 1.027,0.482 1.027,0.482 0,0 0.483,0.242 1.086,0.363 0.604,0.121 0.666,0.967 0.485,1.329 -0.243,0.423 -1.029,1.147 -1.693,2.236 -0.181,0.302 -0.121,0.423 -0.059,0.482 0.362,0.243 0.723,0.483 1.086,0.726 0.06,0 0.242,0.06 0.423,-0.242 0.785,-0.966 1.148,-1.993 1.45,-2.416 0.242,-0.364 1.027,-0.606 1.39,-0.062 0.362,0.485 0.725,0.847 0.725,0.847 0,0 0.362,0.363 0.845,0.725 0.484,0.364 0.242,1.148 -0.06,1.39 -0.423,0.302 -1.391,0.604 -2.417,1.45 -0.241,0.241 -0.241,0.362 -0.241,0.423 0.241,0.362 0.483,0.726 0.725,1.087 0.06,0.061 0.181,0.121 0.483,-0.06 1.148,-0.604 1.813,-1.39 2.236,-1.692 0.361,-0.242 1.208,-0.121 1.329,0.483 0.121,0.606 0.361,1.088 0.361,1.088 0,0 0.181,0.483 0.485,1.027 0.302,0.544 -0.183,1.208 -0.606,1.269 -0.482,0.121 -1.51,0.06 -2.779,0.423 -0.302,0.122 -0.362,0.241 -0.362,0.303 0.12,0.423 0.181,0.846 0.241,1.269 0,0.06 0.121,0.181 0.484,0.12 1.268,-0.12 2.235,-0.604 2.718,-0.664 0.423,-0.061 1.148,0.302 1.088,0.965 -0.121,0.606 -0.06,1.15 -0.06,1.15 0,0 0,0.542 0.06,1.146 0.121,0.605 -0.666,1.027 -1.088,0.967 -0.483,-0.06 -1.45,-0.543 -2.718,-0.663 -0.363,-0.062 -0.484,0.06 -0.484,0.12 -0.06,0.422 -0.121,0.846 -0.241,1.269 0,0.062 0.06,0.242 0.362,0.302 1.209,0.363 2.296,0.303 2.779,0.423 0.423,0.121 0.968,0.726 0.606,1.27 -0.304,0.544 -0.485,1.027 -0.485,1.027 0,0 -0.241,0.482 -0.361,1.088 -0.121,0.604 -0.968,0.664 -1.329,0.483 -0.423,-0.243 -1.148,-1.027 -2.236,-1.693 -0.302,-0.181 -0.423,-0.121 -0.483,-0.059 -0.242,0.361 -0.484,0.725 -0.725,1.086 0,0.062 -0.062,0.242 0.241,0.423 0.967,0.786 1.994,1.148 2.417,1.45 0.363,0.242 0.604,1.027 0.06,1.389 -0.483,0.361 -0.845,0.727 -0.845,0.727 0,0 -0.363,0.362 -0.725,0.846 -0.363,0.482 -1.148,0.242 -1.39,-0.061 -0.302,-0.423 -0.604,-1.389 -1.45,-2.416 -0.242,-0.242 -0.363,-0.242 -0.423,-0.242 -0.363,0.242 -0.725,0.484 -1.086,0.723 -0.062,0.062 -0.122,0.186 0.059,0.485 0.604,1.146 1.391,1.815 1.693,2.238 0.24,0.362 0.119,1.208 -0.485,1.327 -0.604,0.119 -1.086,0.361 -1.086,0.361 0,0 -0.484,0.182 -1.027,0.484 -0.544,0.304 -1.209,-0.18 -1.27,-0.604 -0.121,-0.484 -0.061,-1.512 -0.423,-2.78 -0.121,-0.304 -0.242,-0.362 -0.302,-0.362 -0.423,0.119 -0.846,0.182 -1.27,0.242 -0.06,0 -0.181,0.12 -0.121,0.484 0.121,1.27 0.604,2.232 0.665,2.717 0.06,0.422 -0.302,1.148 -0.967,1.088 -0.544,-0.058 -1.027,-0.058 -1.087,-0.058 v 2.173 H 36.9 L 43.304,17.415 H 20.707 Z"
   id="path2" />
		<path
   fill="#ffffff"
   d="m 21.855,50.102 c 0.604,0.123 1.026,-0.662 0.965,-1.084 -0.06,-0.485 -0.544,-1.451 -0.664,-2.721 -0.062,-0.364 0.06,-0.483 0.12,-0.483 0.423,-0.059 0.846,-0.12 1.269,-0.243 0.062,0 0.242,0.062 0.302,0.362 0.363,1.212 0.302,2.3 0.423,2.78 0.121,0.424 0.725,0.966 1.269,0.604 0.544,-0.299 1.027,-0.484 1.027,-0.484 0,0 0.483,-0.238 1.088,-0.361 0.604,-0.119 0.664,-0.965 0.483,-1.326 -0.242,-0.424 -1.027,-1.15 -1.692,-2.235 -0.181,-0.304 -0.119,-0.423 -0.06,-0.485 0.362,-0.241 0.726,-0.484 1.087,-0.723 0.061,0 0.242,-0.061 0.423,0.238 0.787,0.97 1.148,1.993 1.45,2.416 0.242,0.365 1.027,0.607 1.39,0.062 0.363,-0.484 0.725,-0.847 0.725,-0.847 0,0 0.364,-0.361 0.847,-0.723 0.482,-0.361 0.242,-1.146 -0.062,-1.393 -0.421,-0.3 -1.389,-0.602 -2.416,-1.448 -0.243,-0.241 -0.243,-0.361 -0.243,-0.423 0.243,-0.361 0.483,-0.725 0.726,-1.086 0.06,-0.062 0.181,-0.121 0.482,0.06 1.148,0.604 1.813,1.39 2.236,1.692 0.362,0.24 1.208,0.121 1.329,-0.484 0.121,-0.604 0.363,-1.087 0.363,-1.087 0,0 0.181,-0.485 0.483,-1.027 0.302,-0.544 -0.181,-1.21 -0.604,-1.27 -0.484,-0.121 -1.512,-0.06 -2.779,-0.423 -0.304,-0.121 -0.364,-0.242 -0.364,-0.302 0.121,-0.423 0.181,-0.847 0.243,-1.27 0,-0.06 0.121,-0.181 0.483,-0.12 1.269,0.12 2.236,0.604 2.719,0.664 0.423,0.061 1.148,-0.302 1.087,-0.967 -0.12,-0.604 -0.06,-1.148 -0.06,-1.148 0,0 0,-0.542 0.06,-1.148 0.121,-0.604 -0.664,-1.026 -1.087,-0.965 -0.483,0.06 -1.45,0.542 -2.719,0.664 -0.362,0.062 -0.483,-0.06 -0.483,-0.121 -0.062,-0.421 -0.122,-0.844 -0.243,-1.267 0,-0.062 0.06,-0.243 0.364,-0.302 1.208,-0.363 2.294,-0.302 2.779,-0.423 0.423,-0.121 0.966,-0.725 0.604,-1.269 -0.302,-0.544 -0.483,-1.027 -0.483,-1.027 0,0 -0.121,-0.544 -0.302,-1.148 -0.121,-0.604 -0.967,-0.665 -1.331,-0.484 -0.423,0.242 -1.147,1.029 -2.234,1.692 -0.302,0.181 -0.423,0.121 -0.484,0.061 -0.241,-0.363 -0.483,-0.725 -0.723,-1.088 0,-0.06 -0.062,-0.242 0.24,-0.423 0.967,-0.785 1.994,-1.148 2.417,-1.45 0.361,-0.242 0.604,-1.027 0.06,-1.389 -0.483,-0.363 -0.846,-0.727 -0.846,-0.727 0,0 -0.362,-0.362 -0.725,-0.844 -0.361,-0.485 -1.146,-0.243 -1.389,0.059 -0.302,0.423 -0.604,1.391 -1.45,2.417 -0.242,0.241 -0.363,0.241 -0.423,0.241 -0.363,-0.241 -0.725,-0.483 -1.088,-0.725 -0.06,-0.06 -0.119,-0.181 0.062,-0.483 0.604,-1.148 1.389,-1.812 1.69,-2.235 0.243,-0.363 0.121,-1.209 -0.483,-1.331 -0.604,-0.119 -1.086,-0.361 -1.086,-0.361 0,0 -0.484,-0.181 -1.028,-0.483 -0.542,-0.304 -1.208,0.181 -1.268,0.604 -0.121,0.482 -0.061,1.51 -0.423,2.779 -0.121,0.302 -0.242,0.362 -0.302,0.362 -0.423,-0.12 -0.847,-0.181 -1.27,-0.241 -0.061,0 -0.181,-0.121 -0.121,-0.484 0.121,-1.268 0.604,-2.235 0.665,-2.718 0.06,-0.423 -0.302,-1.148 -0.967,-1.088 -0.544,0.062 -1.027,0.062 -1.088,0.062 v 30.511 c 0.002,-0.063 0.486,-0.063 1.03,0.057 z"
   id="path4" />
	</g>
	<path
   fill="#df2d6d"
   d="m 19.619,50.163 c -0.604,0.123 -1.027,-0.662 -0.967,-1.085 0.061,-0.484 0.544,-1.453 0.665,-2.723 0.06,-0.361 -0.06,-0.48 -0.121,-0.48 -0.423,-0.062 -0.846,-0.12 -1.27,-0.242 -0.06,0 -0.24,0.061 -0.302,0.361 -0.362,1.207 -0.302,2.299 -0.423,2.78 -0.121,0.423 -0.725,0.966 -1.268,0.604 -0.544,-0.301 -1.027,-0.484 -1.027,-0.484 0,0 -0.485,-0.239 -1.088,-0.362 -0.604,-0.122 -0.666,-0.966 -0.483,-1.331 0.241,-0.422 1.027,-1.146 1.691,-2.23 0.182,-0.308 0.121,-0.424 0.061,-0.484 -0.364,-0.242 -0.725,-0.484 -1.088,-0.728 -0.06,0 -0.242,-0.058 -0.423,0.243 -0.785,0.969 -1.148,1.992 -1.45,2.415 -0.241,0.362 -1.027,0.607 -1.389,0.062 -0.363,-0.484 -0.725,-0.846 -0.725,-0.846 0,0 -0.363,-0.361 -0.846,-0.724 -0.484,-0.362 -0.242,-1.15 0.06,-1.392 0.423,-0.301 1.391,-0.604 2.417,-1.451 0.242,-0.24 0.242,-0.361 0.242,-0.421 -0.242,-0.363 -0.484,-0.726 -0.725,-1.088 -0.062,-0.06 -0.183,-0.122 -0.485,0.06 -1.148,0.605 -1.812,1.39 -2.234,1.692 C 8.077,42.55 7.232,42.43 7.112,41.826 6.991,41.222 6.749,40.738 6.749,40.738 c 0,0 -0.181,-0.483 -0.483,-1.027 -0.302,-0.544 0.181,-1.208 0.604,-1.27 0.482,-0.119 1.51,-0.06 2.779,-0.422 0.302,-0.12 0.363,-0.241 0.363,-0.303 C 9.891,37.292 9.829,36.87 9.77,36.448 9.77,36.386 9.648,36.266 9.287,36.327 8.018,36.448 7.051,36.931 6.568,36.991 6.145,37.052 5.42,36.688 5.48,36.025 c 0.121,-0.606 0.061,-1.148 0.061,-1.148 0,0 0,-0.544 -0.061,-1.147 -0.121,-0.604 0.665,-1.027 1.088,-0.968 0.482,0.062 1.45,0.544 2.719,0.666 0.362,0.06 0.483,-0.062 0.483,-0.121 0.059,-0.423 0.121,-0.846 0.242,-1.269 0,-0.06 -0.061,-0.243 -0.363,-0.302 C 8.441,31.374 7.353,31.434 6.87,31.313 6.447,31.192 5.903,30.588 6.266,30.043 c 0.302,-0.542 0.483,-1.026 0.483,-1.026 0,0 0.242,-0.483 0.363,-1.087 0.12,-0.605 0.965,-0.665 1.329,-0.484 0.423,0.242 1.148,1.026 2.234,1.692 0.302,0.181 0.423,0.121 0.485,0.06 0.24,-0.362 0.482,-0.726 0.725,-1.087 0,-0.06 0.06,-0.242 -0.242,-0.423 -0.967,-0.785 -1.994,-1.148 -2.417,-1.45 -0.361,-0.242 -0.604,-1.027 -0.06,-1.391 0.483,-0.361 0.846,-0.725 0.846,-0.725 0,0 0.362,-0.362 0.725,-0.846 0.361,-0.483 1.148,-0.241 1.389,0.061 0.302,0.423 0.604,1.391 1.45,2.417 0.242,0.241 0.363,0.241 0.423,0.241 0.363,-0.241 0.725,-0.483 1.088,-0.725 0.06,-0.06 0.121,-0.181 -0.061,-0.483 -0.604,-1.148 -1.389,-1.813 -1.691,-2.236 -0.242,-0.361 -0.121,-1.208 0.483,-1.329 0.604,-0.121 1.088,-0.361 1.088,-0.361 0,0 0.482,-0.183 1.027,-0.484 0.542,-0.302 1.208,0.182 1.268,0.605 0.121,0.482 0.061,1.51 0.423,2.779 0.121,0.302 0.242,0.362 0.302,0.362 0.424,-0.121 0.847,-0.181 1.27,-0.241 0.061,0 0.181,-0.121 0.121,-0.484 -0.121,-1.269 -0.604,-2.235 -0.665,-2.719 -0.06,-0.421 0.302,-1.146 0.967,-1.087 0.544,0.06 1.027,0.06 1.088,0.06 v 30.512 c -0.061,-0.121 -0.544,-0.121 -1.088,-0.001 z"
   id="path8" />
	<g
   id="g52">
		<g
   id="g30">
			<path
   fill="#df2d6d"
   d="m 171.274,47.324 4.289,-24.41 h 5.681 c 3.743,0 6.162,2.235 5.257,7.129 l -1.814,10.271 c -0.847,4.834 -3.323,7.01 -7.131,7.01 z m 6.343,-2.719 c 1.934,0 3.565,-1.27 4.108,-4.472 l 1.753,-9.969 c 0.484,-3.142 -0.665,-4.471 -2.538,-4.471 h -2.9 l -3.262,18.912 z"
   id="path10" />
			<path
   fill="#df2d6d"
   d="m 187.225,42.066 1.27,-7.188 c 0.661,-3.625 2.538,-5.498 5.196,-5.498 1.63,0 2.899,0.906 3.203,2.296 l 0.362,-1.935 h 2.899 l -3.142,17.645 h -2.9 l 0.361,-1.754 c -0.784,1.392 -1.995,2.115 -3.626,2.115 -2.654,-0.06 -4.288,-1.992 -3.623,-5.681 z m 7.853,-0.059 1.209,-6.827 c 0.422,-2.054 -0.361,-3.142 -1.87,-3.142 -1.516,0 -2.661,1.088 -3.022,3.142 l -1.208,6.887 c -0.361,1.996 0.423,3.082 1.992,3.082 1.392,-0.063 2.538,-1.147 2.899,-3.142 z"
   id="path12" />
			<path
   fill="#df2d6d"
   d="m 207.405,47.145 c -0.788,0.303 -1.634,0.542 -2.719,0.542 -2.416,0 -3.565,-1.39 -3.084,-4.231 l 1.995,-11.358 h -1.934 l 0.422,-2.355 c 2.358,0 3.143,-0.121 4.231,-5.74 h 1.931 l -1.022,5.74 h 3.261 l -0.423,2.355 h -3.446 l -1.931,10.877 c -0.301,1.572 0.238,2.054 1.085,2.054 0.788,0 1.572,-0.304 2.238,-0.728 z"
   id="path14" />
			<path
   fill="#df2d6d"
   d="m 209.941,42.066 1.268,-7.188 c 0.666,-3.625 2.539,-5.498 5.2,-5.498 1.631,0 2.9,0.906 3.201,2.296 l 0.361,-1.935 h 2.899 l -3.139,17.645 h -2.899 l 0.361,-1.754 c -0.785,1.392 -1.996,2.115 -3.627,2.115 -2.657,-0.06 -4.288,-1.992 -3.625,-5.681 z m 7.857,-0.059 1.208,-6.827 c 0.423,-2.054 -0.365,-3.142 -1.873,-3.142 -1.512,0 -2.657,1.088 -3.023,3.142 l -1.207,6.887 c -0.361,1.996 0.423,3.082 1.992,3.082 1.391,-0.063 2.539,-1.147 2.903,-3.142 z"
   id="path16" />
			<path
   fill="#df2d6d"
   d="m 231.571,47.324 h -3.02 l 4.289,-24.41 h 5.801 c 3.445,0 5.562,1.813 4.896,5.558 l -0.788,4.352 c -0.601,3.563 -2.716,5.377 -6.101,5.377 h -3.565 z m 8.22,-14.742 0.665,-3.867 c 0.361,-2.116 -0.665,-3.021 -2.538,-3.021 h -2.601 l -1.691,9.969 h 2.661 c 1.812,0 3.139,-0.906 3.504,-3.081 z"
   id="path18" />
			<path
   fill="#df2d6d"
   d="m 243.476,41.947 1.211,-6.829 c 0.662,-3.866 3.017,-5.739 6.039,-5.739 3.084,0 5.377,1.873 4.653,5.8 l -1.207,6.887 c -0.666,3.809 -2.962,5.62 -5.985,5.62 -3.081,10e-4 -5.438,-1.811 -4.711,-5.739 z m 7.795,0.06 1.207,-6.888 c 0.362,-1.993 -0.422,-3.14 -1.934,-3.14 -1.45,0 -2.596,1.086 -2.958,3.14 l -1.211,6.829 c -0.362,1.992 0.423,3.081 1.873,3.081 1.512,0.057 2.662,-1.027 3.023,-3.022 z"
   id="path20" />
			<path
   fill="#df2d6d"
   d="m 259.245,29.742 h 2.899 l -0.361,2.175 c 0.966,-1.811 2.419,-2.537 4.835,-2.537 l -0.665,3.323 c -0.304,-0.182 -1.089,-0.302 -1.389,-0.302 -2.357,0 -3.204,1.752 -3.809,5.135 l -1.691,9.788 h -2.9 z"
   id="path22" />
			<path
   fill="#df2d6d"
   d="m 272.479,47.145 c -0.788,0.303 -1.631,0.542 -2.723,0.542 -2.415,0 -3.562,-1.39 -3.078,-4.231 l 1.993,-11.358 h -1.935 l 0.423,-2.355 c 2.357,0 3.143,-0.121 4.228,-5.74 h 1.938 l -1.03,5.74 h 3.262 l -0.423,2.355 h -3.442 l -1.935,10.877 c -0.3,1.572 0.246,2.054 1.092,2.054 0.785,0 1.569,-0.304 2.231,-0.728 z"
   id="path24" />
			<path
   fill="#df2d6d"
   d="m 275.014,42.066 1.27,-7.188 c 0.666,-3.625 2.539,-5.498 5.197,-5.498 1.631,0 2.899,0.906 3.199,2.296 l 0.365,-1.935 h 2.9 l -3.143,17.645 h -2.9 l 0.361,-1.754 c -0.783,1.392 -1.992,2.115 -3.622,2.115 -2.662,-0.06 -4.291,-1.992 -3.627,-5.681 z m 7.858,-0.059 1.207,-6.827 c 0.424,-2.054 -0.361,-3.142 -1.876,-3.142 -1.508,0 -2.655,1.088 -3.02,3.142 l -1.207,6.887 c -0.366,1.996 0.422,3.082 1.995,3.082 1.386,-0.063 2.536,-1.147 2.901,-3.142 z"
   id="path26" />
			<path
   fill="#df2d6d"
   d="m 290.965,47.324 h -1.327 c -1.212,0 -1.45,-0.484 -1.27,-1.691 l 3.988,-22.718 h 2.9 z"
   id="path28" />
		</g>
		<g
   id="g50">
			<g
   id="g48">
				<path
   fill="#010101"
   d="m 62.035,38.261 -0.363,1.813 c -0.906,5.197 -3.987,7.674 -8.037,7.674 -4.229,0 -7.37,-2.416 -6.343,-8.097 l 1.812,-10.09 c 0.906,-5.196 3.806,-7.673 8.037,-7.673 4.048,0 7.371,2.477 6.404,7.915 l -0.302,1.571 -4.412,0.302 0.243,-1.512 c 0.423,-2.235 -0.423,-3.202 -1.874,-3.202 -1.45,0 -2.598,0.906 -3.021,3.202 l -1.631,9.185 c -0.423,2.355 0.423,3.262 1.873,3.262 1.45,0 2.536,-0.906 3.021,-3.262 l 0.242,-1.45 z"
   id="path32" />
				<path
   fill="#010101"
   d="m 81.61,29.984 -1.752,10.09 c -0.906,5.197 -4.169,7.674 -8.459,7.674 -4.229,0 -7.733,-2.416 -6.766,-8.097 L 66.385,29.62 c 0.906,-5.196 4.229,-7.673 8.519,-7.673 4.169,-0.059 7.674,2.418 6.706,8.037 z m -10.09,0.181 -1.69,9.185 c -0.423,2.355 0.421,3.262 1.871,3.262 1.45,0 2.6,-0.906 2.962,-3.262 l 1.631,-9.185 c 0.423,-2.235 -0.423,-3.202 -1.873,-3.202 -1.33,0.059 -2.538,0.967 -2.901,3.202 z"
   id="path34" />
				<path
   fill="#010101"
   d="m 95.929,22.25 h 4.895 L 91.52,47.324 H 85.356 L 84.691,22.25 h 5.681 L 90.25,38.562 Z"
   id="path36" />
				<path
   fill="#010101"
   d="m 108.678,22.25 -4.41,25.075 h -5.196 l 4.41,-25.075 z"
   id="path38" />
				<path
   fill="#010101"
   d="m 108.195,47.324 4.411,-25.075 h 6.766 c 4.231,0 7.371,2.236 6.344,7.794 l -1.752,9.849 c -0.906,5.193 -3.685,7.432 -7.916,7.432 z m 7.734,-4.834 c 1.45,0 2.599,-0.906 2.96,-3.262 l 1.571,-8.883 c 0.362,-2.234 -0.423,-3.201 -1.873,-3.201 h -1.631 l -2.719,15.346 z"
   id="path40" />
				<path
   fill="#010101"
   d="m 128.436,34.213 h 9.486 l -0.725,3.807 h -9.427 z"
   id="path42" />
				<path
   fill="#010101"
   d="m 143.239,24.545 4.531,-2.296 h 1.087 l -4.41,25.075 h -5.257 z"
   id="path44" />
				<path
   fill="#010101"
   d="m 158.948,36.689 c -0.785,1.027 -1.933,1.994 -3.928,1.994 -3.202,0 -5.255,-1.933 -4.531,-6.042 l 0.604,-3.323 c 0.847,-5.014 3.386,-7.431 7.793,-7.431 4.835,0 7.432,2.417 6.527,7.431 l -1.812,10.211 c -0.907,5.017 -3.323,8.156 -8.157,8.156 -4.895,0 -6.949,-2.538 -6.224,-6.404 l 0.122,-0.968 4.409,-0.301 -0.058,0.422 c -0.304,1.571 0.239,2.539 1.751,2.539 1.571,0 2.596,-1.27 2.961,-3.385 z m 1.207,-7.188 c 0.361,-1.873 -0.239,-2.961 -1.75,-2.961 -1.573,0 -2.48,1.088 -2.842,2.961 l -0.424,2.537 c -0.3,1.752 0.185,2.961 1.754,2.961 1.569,0 2.538,-1.209 2.777,-2.961 z"
   id="path46" />
			</g>
		</g>
	</g>
</g>
<g
   id="g68"
   clip-path="url(#clipPath102)"
   transform="translate(-0.99,-12.965)">
	<path
   fill="#3e9dd7"
   d="m 244.625,58.625 h -2.237 l -1.87,10.754 h -2.843 l 1.935,-10.754 h -2.237 l 0.484,-2.781 h 7.25 z"
   id="path56" />
	<path
   fill="#3e9dd7"
   d="m 253.868,55.844 -1.631,9.428 c -0.542,3.138 -2.174,4.347 -4.412,4.347 -2.054,0 -3.927,-1.209 -3.322,-4.347 l 1.631,-9.369 h 2.9 l -1.631,9.123 c -0.239,1.392 0.3,1.877 0.968,1.877 0.785,0 1.446,-0.485 1.692,-1.877 l 1.632,-9.062 h 2.173 z"
   id="path58" />
	<path
   fill="#3e9dd7"
   d="m 260.938,69.379 h -2.174 c -0.669,0 -0.727,-0.484 -0.669,-1.089 l 0.424,-3.143 c 0.122,-0.966 -0.301,-1.269 -0.904,-1.269 h -0.727 l -0.966,5.562 h -2.78 l 2.419,-13.538 h 4.17 c 2.053,0 3.202,1.149 2.838,3.265 l -0.242,1.389 c -0.239,1.331 -1.208,1.992 -2.055,2.296 v 0.062 c 0.666,0.181 1.208,0.727 1.089,2.112 l -0.365,2.962 c -0.058,0.546 -0.058,0.907 0.062,1.088 z m -1.451,-8.885 0.123,-0.847 c 0.12,-0.784 -0.185,-1.146 -0.97,-1.146 h -0.907 l -0.542,3.2 h 0.903 c 0.789,10e-4 1.213,-0.36 1.393,-1.207 z"
   id="path60" />
	<path
   fill="#3e9dd7"
   d="m 267.28,55.844 -1.023,5.981 3.984,-5.981 h 2.72 l -3.565,5.497 1.029,8.038 h -2.841 l -0.543,-5.801 -1.454,2.115 -0.661,3.747 h -2.781 l 2.42,-13.538 h 2.716 v -0.058 z"
   id="path62" />
	<path
   fill="#3e9dd7"
   d="m 273.688,55.844 h 6.523 l -0.484,2.781 h -3.686 l -0.484,2.776 h 2.661 l -0.423,2.238 h -2.6 l -0.543,2.958 h 3.686 l -0.481,2.781 h -6.526 z"
   id="path64" />
	<path
   fill="#3e9dd7"
   d="m 285.288,63.456 -1.031,5.923 h -2.776 l 1.026,-5.861 -1.812,-7.674 h 3.022 l 0.724,4.65 2.478,-4.65 h 2.776 z"
   id="path66" />
</g>
</svg>
