<?xml version="1.0" standalone="no"?>
<!DOCTYPE svg PUBLIC "-//W3C//DTD SVG 20010904//EN"
 "http://www.w3.org/TR/2001/REC-SVG-20010904/DTD/svg10.dtd">
<svg version="1.0" xmlns="http://www.w3.org/2000/svg"
 width="391.000000pt" height="391.000000pt" viewBox="0 0 391.000000 391.000000"
 preserveAspectRatio="xMidYMid meet">
<metadata>
Created by potrace 1.11, written by Peter Selinger 2001-2013
</metadata>
<g transform="translate(0.000000,391.000000) scale(0.100000,-0.100000)"
fill="#000000" stroke="none">
<path d="M1577 3743 c-2 -5 -3 -59 -2 -121 1 -61 -1 -109 -4 -104 -9 12 -133
7 -158 -6 -51 -28 -60 -79 -29 -179 33 -109 46 -166 46 -207 0 -37 -8 -46 -43
-51 -118 -18 -113 -19 -125 12 -16 40 -30 108 -37 188 -11 115 -20 139 -62
162 -43 23 -42 23 -139 -22 -39 -18 -96 -41 -127 -50 -63 -18 -97 -51 -97 -94
0 -31 18 -60 82 -133 50 -58 118 -164 118 -185 0 -7 -27 -31 -60 -53 -49 -34
-63 -39 -80 -30 -25 13 -87 105 -133 196 -42 84 -54 95 -111 101 -40 5 -46 3
-72 -28 -36 -43 -108 -114 -156 -157 -30 -26 -38 -40 -38 -67 0 -46 29 -75
125 -126 98 -51 185 -115 185 -134 0 -20 -68 -122 -85 -129 -16 -6 -71 30
-190 125 -86 68 -91 71 -133 66 -57 -6 -69 -20 -98 -106 -13 -40 -38 -99 -54
-131 -33 -65 -35 -78 -19 -113 16 -35 62 -58 127 -63 114 -8 222 -29 246 -47
14 -11 14 -20 4 -77 -6 -36 -16 -71 -21 -78 -14 -18 -99 -7 -219 29 -54 16
-107 29 -119 29 -25 0 -85 -35 -91 -53 -3 -6 -4 -83 -3 -170 1 -153 2 -158 26
-182 30 -30 71 -36 129 -18 86 26 165 45 218 53 61 8 66 3 77 -70 3 -25 8 -52
11 -61 2 -9 -2 -21 -9 -27 -18 -15 -126 -39 -215 -47 -98 -9 -122 -17 -144
-46 -31 -41 -29 -65 12 -153 21 -46 46 -109 55 -140 13 -43 23 -60 45 -71 55
-28 86 -18 160 52 48 46 178 133 198 133 17 0 92 -101 92 -124 0 -25 -72 -81
-185 -141 -38 -21 -78 -43 -87 -49 -15 -9 -28 -42 -33 -81 -2 -18 25 -64 43
-74 15 -8 49 -42 154 -153 16 -17 37 -28 53 -28 51 0 78 25 124 112 59 111
120 198 141 198 9 0 42 -17 74 -38 76 -50 75 -56 -58 -222 -33 -41 -63 -80
-67 -85 -16 -21 -18 -69 -5 -100 12 -28 23 -36 82 -54 38 -13 101 -38 139 -57
78 -38 100 -41 133 -18 35 24 43 49 58 173 17 132 29 184 47 199 12 10 141 -8
155 -22 10 -11 -15 -156 -43 -243 -29 -93 -27 -123 14 -166 24 -27 30 -28 101
-25 l75 3 0 -103 -1 -102 837 0 837 0 17 92 c9 51 19 104 22 118 2 14 17 95
33 180 37 201 35 187 59 320 12 63 23 126 26 140 6 29 13 67 20 113 7 37 40
220 60 325 12 60 67 359 71 382 3 14 9 48 14 75 15 72 16 80 35 190 9 55 18
102 20 105 1 3 6 25 9 50 6 47 7 50 31 170 8 41 16 86 19 100 9 56 96 528 151
820 19 102 37 199 40 215 2 17 7 39 9 50 2 11 7 40 11 65 3 25 9 53 11 63 5
16 -55 17 -1160 17 -641 0 -1167 -3 -1169 -7z m6 -286 c3 -8 2 -20 -3 -26 -5
-9 -7 -4 -7 13 0 29 2 32 10 13z m360 -62 c-3 -9 -8 -14 -10 -11 -3 3 -2 9 2
15 9 16 15 13 8 -4z m-6 -47 c-3 -8 -6 -5 -6 6 -1 11 2 17 5 13 3 -3 4 -12 1
-19z m-360 -40 c-3 -8 -6 -5 -6 6 -1 11 2 17 5 13 3 -3 4 -12 1 -19z m350 -40
c-3 -8 -6 -5 -6 6 -1 11 2 17 5 13 3 -3 4 -12 1 -19z m-344 -51 c3 -8 2 -20
-3 -26 -5 -9 -7 -4 -7 13 0 29 2 32 10 13z m916 -42 c-16 -9 -45 -50 -77 -112
-29 -54 -70 -118 -93 -143 l-41 -45 35 45 c19 25 58 88 86 140 58 105 77 130
100 130 10 -1 7 -6 -10 -15z m-602 -67 c-3 -8 -6 -5 -6 6 -1 11 2 17 5 13 3
-3 4 -12 1 -19z m-320 -40 c-3 -8 -6 -5 -6 6 -1 11 2 17 5 13 3 -3 4 -12 1
-19z m1124 -15 c13 -16 12 -17 -3 -4 -17 13 -22 21 -14 21 2 0 10 -8 17 -17z
m60 -50 c13 -16 12 -17 -3 -4 -10 7 -18 15 -18 17 0 8 8 3 21 -13z m-1184
-105 c-3 -8 -6 -5 -6 6 -1 11 2 17 5 13 3 -3 4 -12 1 -19z m0 -60 c-3 -8 -6
-5 -6 6 -1 11 2 17 5 13 3 -3 4 -12 1 -19z m0 -100 c-3 -8 -6 -5 -6 6 -1 11 2
17 5 13 3 -3 4 -12 1 -19z m1370 -15 c10 -10 13 -14 6 -9 -7 5 -32 9 -56 10
-40 0 -51 -6 -145 -81 -122 -98 -182 -133 -182 -105 0 5 6 9 13 9 17 0 124 65
157 95 87 80 114 98 151 98 21 0 45 -7 56 -17z m-1370 -45 c-3 -8 -6 -5 -6 6
-1 11 2 17 5 13 3 -3 4 -12 1 -19z m0 -100 c-3 -8 -6 -5 -6 6 -1 11 2 17 5 13
3 -3 4 -12 1 -19z m0 -60 c-3 -8 -6 -5 -6 6 -1 11 2 17 5 13 3 -3 4 -12 1 -19z
m0 -100 c-3 -8 -6 -5 -6 6 -1 11 2 17 5 13 3 -3 4 -12 1 -19z m0 -60 c-3 -8
-6 -5 -6 6 -1 11 2 17 5 13 3 -3 4 -12 1 -19z m0 -90 c-3 -8 -6 -5 -6 6 -1 11
2 17 5 13 3 -3 4 -12 1 -19z m6 -91 c3 -8 2 -20 -3 -26 -5 -9 -7 -4 -7 13 0
29 2 32 10 13z m1512 -11 c48 -21 44 -28 -4 -9 -38 15 -44 14 -143 -16 -108
-34 -221 -50 -231 -34 -4 6 12 9 36 7 25 -1 88 12 152 31 129 38 144 40 190
21z m-1518 -138 c-3 -8 -6 -5 -6 6 -1 11 2 17 5 13 3 -3 4 -12 1 -19z m6 -91
c3 -8 2 -20 -3 -26 -5 -9 -7 -4 -7 13 0 29 2 32 10 13z m-6 -149 c-3 -8 -6 -5
-6 6 -1 11 2 17 5 13 3 -3 4 -12 1 -19z m0 -170 c-3 -8 -6 -5 -6 6 -1 11 2 17
5 13 3 -3 4 -12 1 -19z m1161 13 c18 -9 70 -18 162 -27 88 -8 111 -12 118 -18
3 -3 1 -6 -4 -6 -12 0 -158 18 -214 26 -46 6 -116 32 -92 33 7 1 21 -3 30 -8z
m-1161 -73 c-3 -8 -6 -5 -6 6 -1 11 2 17 5 13 3 -3 4 -12 1 -19z m0 -100 c-3
-8 -6 -5 -6 6 -1 11 2 17 5 13 3 -3 4 -12 1 -19z m0 -60 c-3 -8 -6 -5 -6 6 -1
11 2 17 5 13 3 -3 4 -12 1 -19z m0 -170 c-3 -8 -6 -5 -6 6 -1 11 2 17 5 13 3
-3 4 -12 1 -19z m1097 -114 c47 -25 86 -48 86 -50 0 -12 -179 90 -215 122
l-40 36 42 -31 c22 -17 80 -52 127 -77z m-1097 64 c-3 -8 -6 -5 -6 6 -1 11 2
17 5 13 3 -3 4 -12 1 -19z m0 -70 c-3 -8 -6 -5 -6 6 -1 11 2 17 5 13 3 -3 4
-12 1 -19z m6 -63 c4 -8 3 -16 -1 -19 -4 -3 -9 4 -9 15 -2 23 3 25 10 4z m-6
-137 c-3 -8 -6 -5 -6 6 -1 11 2 17 5 13 3 -3 4 -12 1 -19z m6 -91 c3 -8 2 -20
-3 -26 -5 -9 -7 -4 -7 13 0 29 2 32 10 13z m-6 -159 c-3 -8 -6 -5 -6 6 -1 11
2 17 5 13 3 -3 4 -12 1 -19z m0 -70 c-3 -8 -6 -5 -6 6 -1 11 2 17 5 13 3 -3 4
-12 1 -19z m360 -40 c-3 -7 -5 -2 -5 12 0 14 2 19 5 13 2 -7 2 -19 0 -25z
m-360 -80 c-3 -8 -6 -5 -6 6 -1 11 2 17 5 13 3 -3 4 -12 1 -19z m0 -70 c-3 -8
-6 -5 -6 6 -1 11 2 17 5 13 3 -3 4 -12 1 -19z"/>
</g>
</svg>
