<svg version="1" xmlns="http://www.w3.org/2000/svg" width="590.667" height="590.667" viewBox="0 0 443.000000 443.000000"><path d="M190.6 37.9c-.2.3-.4 4.2-.4 8.6 0 13.7.5 12.4-5.4 11.9-8.4-.8-10.1-.5-12.6 2-4.1 4-4.2 7.9-.6 19.1 5 15.3 5.2 22.4.9 23.1-.5.1-2.8.5-5 .8-2.2.4-4.8.9-5.7 1.2-1 .3-2.1-.3-2.7-1.5-1.8-3.2-3.9-14-4.6-23-.8-9.6-2.3-12.7-7.3-14.8-3.3-1.4-3.8-1.3-11.6 2.5-4.4 2.2-10.6 4.7-13.6 5.7-6.9 2.2-8.8 3.8-9.6 8.2-.8 4.5.1 6.4 7.8 15.9 6.8 8.4 10.2 13.6 11.2 17 .5 1.8-.4 2.8-5.7 6.3-3.5 2.2-6.8 4.1-7.3 4.1-1.6-.1-7.7-8.8-13.4-19.3-4.9-8.9-5.9-10.2-9.3-11.3-3.3-1.1-4.4-1.1-7.3.1-1.9.8-3.4 1.8-3.4 2.4 0 1.2-14.9 16.1-16.1 16.1-1.6 0-3.8 6.3-3.2 9.2.7 3.6 4.4 6.8 13.8 11.8 8.9 4.7 16.1 9.8 17 11.9.7 1.7-7.2 14-8.8 13.7-3.7-.8-15.2-8.2-20-13.1-3.5-3.5-9.2-6.5-12.3-6.5-4.5 0-7.8 3.3-10 10-.9 3-3.4 9.2-5.6 13.7-3.9 8.3-3.9 8.3-2.2 11.8 2.2 4.7 5.3 6.2 14.4 6.9 15.1 1.2 25.7 4.3 24.7 7-.3.8-.9 3.5-1.2 6.2-1.2 7.9-1.7 8.4-7.7 7.8-2.9-.3-9.1-1.7-13.8-3.1-13.3-3.9-14.5-4.1-17.6-2.8-5.6 2.3-5.9 3.4-6 20.9-.1 17.4.1 18.3 5.6 21.1 2 1 3.4 1 7 0 2.5-.6 8.1-2.2 12.5-3.4 4.4-1.2 10.3-2.4 13.1-2.7l5-.6 1.3 5.9c.7 3.2 1.5 6.8 1.8 8.1.4 1.8-.1 2.5-2.8 3.6-4.2 1.7-12.9 3.3-22.9 4.2-8.4.7-12.2 2.7-13.7 7.1-1.1 3.3-.8 4.5 3.4 13.5 1.7 3.7 4 9.2 5 12.4 1.3 4.2 2.5 6.2 4.8 7.6 5.3 3.2 9.5 2 17-4.7 4.5-4 12.5-9.8 16.8-12l3.9-2 1.6 2.2c4 5.2 7.2 11.2 6.7 12.5-.7 1.7-10.7 8.4-20.3 13.5-8.1 4.4-10.2 6.7-10.4 11.5-.1 3.4 1.6 7.8 3.1 7.8.9 0 10.4 9.1 15.9 15.3 2.6 2.9 4.1 3.7 6.7 3.7 6 0 8-1.7 13.5-11.9 6.4-11.7 10.7-17.9 13-18.6 1.9-.6 12.5 6 13.4 8.3 1 2.2-4.2 10.3-13.7 21.7-5.6 6.6-5.9 7.2-5.4 11.4.6 5.5 2.5 7.3 11.2 10.1 3.9 1.2 9.8 3.7 13.2 5.5 6.5 3.5 8.7 3.5 12.9.5 3.2-2.3 4.3-5.1 4.9-12.6.7-9.2 2.4-18.1 4.1-22.3 1.1-2.7 1.8-3.2 3.6-2.8 1.3.4 4.3.9 6.8 1.3s5.1 1.1 5.7 1.6c1.8 1.5.8 9.7-2.7 21-3.8 12.1-3.8 15.7-.3 19.8l2.7 3.2 8-.6 8.1-.6-.1 10.5c-.1 6.4.2 10.8.9 11.2 1.4.8 167.8 1 168.3.1.4-.6 5.5-27 6.9-35.8.3-1.9.8-4.2 1-5 .2-.8.6-3.1.9-5 .3-1.9.8-4.6 1.1-6 .3-1.4.8-4.1 1.1-6 .3-1.9 1.5-8 2.5-13.5 1.1-5.5 2.1-11.4 2.4-13 .2-1.7.6-4.1.9-5.5.3-1.4.9-4.1 1.2-6 .4-1.9.9-4.4 1.1-5.5.6-3 1-4.9 3.3-18.5 1.2-6.9 2.3-12.7 2.5-13 .1-.3.6-2.8.9-5.5.4-2.8.9-5.7 1.1-6.5.2-.8.7-3.1 1-5 .3-1.9.8-4.2 1-5 .2-.8.6-3.2.9-5.2.3-2.1 1-5.7 1.5-8 .5-2.4 1.2-5.9 1.5-7.8.3-1.9.8-4.6 1.1-6 .3-1.4 1.4-7.7 2.5-14 1.2-6.3 2.3-12.2 2.5-13 .2-.8.6-3.1.9-5 .3-1.9.7-4.4 1-5.5.2-1.1 1.8-9.9 3.5-19.5s3.6-19.5 4.1-22c.5-2.5 1.2-6.1 1.6-8 .3-1.9 1.2-7.1 2-11.5s1.9-10.4 2.4-13.3c.5-3 1.1-6.1 1.4-7 .3-1 .7-3.3 1-5.2.3-1.9 1.5-8.5 2.6-14.5 1.1-6.1 2.3-12.6 2.6-14.5.3-1.9.7-4.2.9-5 .3-.8 1.2-5.6 2-10.5.9-5 1.8-9.8 2.1-10.7.4-1.5-7.8-1.6-117.5-1.6-65 0-118.3.3-118.5.7z"/></svg>